<?xml version="1.0" encoding="UTF-8" standalone="no"?><svg xmlns="http://www.w3.org/2000/svg" xmlns:xlink="http://www.w3.org/1999/xlink" contentScriptType="application/ecmascript" contentStyleType="text/css" height="260px" preserveAspectRatio="none" style="width:354px;height:260px;background:#FFFFFF;" version="1.1" viewBox="0 0 354 260" width="354px" zoomAndPan="magnify"><defs><filter height="300%" id="f13ydyglcvqa47" width="300%" x="-1" y="-1"><feGaussianBlur result="blurOut" stdDeviation="2.0"/><feColorMatrix in="blurOut" result="blurOut2" type="matrix" values="0 0 0 0 0 0 0 0 0 0 0 0 0 0 0 0 0 0 .4 0"/><feOffset dx="4.0" dy="4.0" in="blurOut2" result="blurOut3"/><feBlend in="SourceGraphic" in2="blurOut3" mode="normal"/></filter></defs><g><!--MD5=[c3851e40b8ed2f68ee08d490e0f0cd81]
class CameraPerspective--><rect codeLine="1" fill="#FEFECE" filter="url(#f13ydyglcvqa47)" height="131.0156" id="CameraPerspective" style="stroke:#A80036;stroke-width:1.5;" width="333" x="7" y="7"/><ellipse cx="114.75" cy="23" fill="#ADD1B2" rx="11" ry="11" style="stroke:#A80036;stroke-width:1.0;"/><path d="M117.5156,18.875 Q117.6719,18.6563 117.8594,18.5469 Q118.0469,18.4375 118.2656,18.4375 Q118.6406,18.4375 118.875,18.7031 Q119.1094,18.9531 119.1094,19.5625 L119.1094,21.0156 Q119.1094,21.625 118.875,21.8906 Q118.6406,22.1563 118.2656,22.1563 Q117.9219,22.1563 117.7188,21.9531 Q117.5156,21.7656 117.4063,21.25 Q117.3594,20.8906 117.1719,20.7031 Q116.8438,20.3281 116.2344,20.1094 Q115.625,19.8906 115,19.8906 Q114.2344,19.8906 113.5938,20.2188 Q112.9688,20.5469 112.4688,21.2969 Q111.9844,22.0469 111.9844,23.0781 L111.9844,24.1719 Q111.9844,25.4063 112.875,26.2344 Q113.7656,27.0469 115.3594,27.0469 Q116.2969,27.0469 116.9531,26.7969 Q117.3438,26.6406 117.7656,26.2031 Q118.0313,25.9375 118.1719,25.8594 Q118.3281,25.7813 118.5313,25.7813 Q118.8594,25.7813 119.1094,26.0469 Q119.375,26.2969 119.375,26.6406 Q119.375,26.9844 119.0313,27.3906 Q118.5313,27.9688 117.7344,28.2969 Q116.6563,28.75 115.3594,28.75 Q113.8438,28.75 112.6406,28.125 Q111.6563,27.625 110.9688,26.5625 Q110.2813,25.4844 110.2813,24.2031 L110.2813,23.0469 Q110.2813,21.7188 110.8906,20.5781 Q111.5156,19.4219 112.6094,18.8125 Q113.7031,18.1875 114.9375,18.1875 Q115.6719,18.1875 116.3125,18.3594 Q116.9688,18.5156 117.5156,18.875 Z " fill="#000000"/><text fill="#000000" font-family="sans-serif" font-size="12" lengthAdjust="spacing" textLength="109" x="135.25" y="27.9102">CameraPerspective</text><line style="stroke:#A80036;stroke-width:1.5;" x1="8" x2="339" y1="39" y2="39"/><ellipse cx="18" cy="50" rx="3" ry="3" style="stroke:#038048;stroke-width:1.0;fill:none;"/><text fill="#000000" font-family="sans-serif" font-size="11" lengthAdjust="spacing" textLength="114" x="27" y="54.4189">Fovy : float «get» «set»</text><ellipse cx="18" cy="63.8359" rx="3" ry="3" style="stroke:#038048;stroke-width:1.0;fill:none;"/><text fill="#000000" font-family="sans-serif" font-size="11" lengthAdjust="spacing" textLength="125" x="27" y="68.2549">Aspect : float «get» «set»</text><ellipse cx="18" cy="77.6719" rx="3" ry="3" style="stroke:#038048;stroke-width:1.0;fill:none;"/><text fill="#000000" font-family="sans-serif" font-size="11" lengthAdjust="spacing" textLength="113" x="27" y="82.0908">Near : float «get» «set»</text><ellipse cx="18" cy="91.5078" rx="3" ry="3" style="stroke:#038048;stroke-width:1.0;fill:none;"/><text fill="#000000" font-family="sans-serif" font-size="11" lengthAdjust="spacing" textLength="106" x="27" y="95.9268">Far : float «get» «set»</text><line style="stroke:#A80036;stroke-width:1.5;" x1="8" x2="339" y1="102.3438" y2="102.3438"/><ellipse cx="18" cy="113.3438" fill="#84BE84" rx="3" ry="3" style="stroke:#038048;stroke-width:1.0;"/><text fill="#000000" font-family="sans-serif" font-size="11" lengthAdjust="spacing" textLength="307" x="27" y="117.7627">CameraPerspective(fovy:float, aspect:float, near:float, far:float)</text><ellipse cx="18" cy="127.1797" fill="#84BE84" rx="3" ry="3" style="stroke:#038048;stroke-width:1.0;"/><text fill="#000000" font-family="sans-serif" font-size="11" lengthAdjust="spacing" textLength="139" x="27" y="131.5986">«override» ToString() : string</text><!--MD5=[65d619c042c23702cef2ca07d67b1cf6]
class Vector3--><rect fill="#FEFECE" filter="url(#f13ydyglcvqa47)" height="48" id="Vector3" style="stroke:#A80036;stroke-width:1.5;" width="73" x="137" y="198"/><ellipse cx="152" cy="214" fill="#ADD1B2" rx="11" ry="11" style="stroke:#A80036;stroke-width:1.0;"/><path d="M154.7656,209.875 Q154.9219,209.6563 155.1094,209.5469 Q155.2969,209.4375 155.5156,209.4375 Q155.8906,209.4375 156.125,209.7031 Q156.3594,209.9531 156.3594,210.5625 L156.3594,212.0156 Q156.3594,212.625 156.125,212.8906 Q155.8906,213.1563 155.5156,213.1563 Q155.1719,213.1563 154.9688,212.9531 Q154.7656,212.7656 154.6563,212.25 Q154.6094,211.8906 154.4219,211.7031 Q154.0938,211.3281 153.4844,211.1094 Q152.875,210.8906 152.25,210.8906 Q151.4844,210.8906 150.8438,211.2188 Q150.2188,211.5469 149.7188,212.2969 Q149.2344,213.0469 149.2344,214.0781 L149.2344,215.1719 Q149.2344,216.4063 150.125,217.2344 Q151.0156,218.0469 152.6094,218.0469 Q153.5469,218.0469 154.2031,217.7969 Q154.5938,217.6406 155.0156,217.2031 Q155.2813,216.9375 155.4219,216.8594 Q155.5781,216.7813 155.7813,216.7813 Q156.1094,216.7813 156.3594,217.0469 Q156.625,217.2969 156.625,217.6406 Q156.625,217.9844 156.2813,218.3906 Q155.7813,218.9688 154.9844,219.2969 Q153.9063,219.75 152.6094,219.75 Q151.0938,219.75 149.8906,219.125 Q148.9063,218.625 148.2188,217.5625 Q147.5313,216.4844 147.5313,215.2031 L147.5313,214.0469 Q147.5313,212.7188 148.1406,211.5781 Q148.7656,210.4219 149.8594,209.8125 Q150.9531,209.1875 152.1875,209.1875 Q152.9219,209.1875 153.5625,209.3594 Q154.2188,209.5156 154.7656,209.875 Z " fill="#000000"/><text fill="#000000" font-family="sans-serif" font-size="12" lengthAdjust="spacing" textLength="41" x="166" y="218.9102">Vector3</text><line style="stroke:#A80036;stroke-width:1.5;" x1="138" x2="209" y1="230" y2="230"/><line style="stroke:#A80036;stroke-width:1.5;" x1="138" x2="209" y1="238" y2="238"/><!--MD5=[f94cdd04709e36a9b2c27ce98e350cf2]
link CameraPerspective to Vector3--><path codeLine="9" d="M147.43,138.2 C146.68,157.25 148.3,177.12 152.29,192.62 " fill="none" id="CameraPerspective-to-Vector3" style="stroke:#A80036;stroke-width:1.0;"/><polygon fill="#A80036" points="153.73,197.71,155.138,187.9623,152.3734,192.8976,147.4381,190.1329,153.73,197.71" style="stroke:#A80036;stroke-width:1.0;"/><text fill="#000000" font-family="sans-serif" font-size="13" lengthAdjust="spacing" textLength="23" x="122.7171" y="186.9758">Eye</text><!--MD5=[f94cdd04709e36a9b2c27ce98e350cf2]
link CameraPerspective to Vector3--><path codeLine="10" d="M173.5,138.2 C173.5,157.25 173.5,177.12 173.5,192.62 " fill="none" id="CameraPerspective-to-Vector3-1" style="stroke:#A80036;stroke-width:1.0;"/><polygon fill="#A80036" points="173.5,197.71,177.5,188.71,173.5,192.71,169.5,188.71,173.5,197.71" style="stroke:#A80036;stroke-width:1.0;"/><text fill="#000000" font-family="sans-serif" font-size="13" lengthAdjust="spacing" textLength="13" x="158.8344" y="186.9758">At</text><!--MD5=[f94cdd04709e36a9b2c27ce98e350cf2]
link CameraPerspective to Vector3--><path codeLine="11" d="M199.57,138.2 C200.32,157.25 198.7,177.12 194.71,192.62 " fill="none" id="CameraPerspective-to-Vector3-2" style="stroke:#A80036;stroke-width:1.0;"/><polygon fill="#A80036" points="193.27,197.71,199.5619,190.1329,194.6266,192.8976,191.862,187.9623,193.27,197.71" style="stroke:#A80036;stroke-width:1.0;"/><text fill="#000000" font-family="sans-serif" font-size="13" lengthAdjust="spacing" textLength="16" x="180.2861" y="186.9758">Up</text><!--MD5=[0eeef72aafd0c38b58edf1c206b8f9a7]
@startuml CameraPerspective
class CameraPerspective {
    + CameraPerspective(fovy:float, aspect:float, near:float, far:float)
    + Fovy : float <<get>> <<set>>
    + Aspect : float <<get>> <<set>>
    + Near : float <<get>> <<set>>
    + Far : float <<get>> <<set>>
    + <<override>> ToString() : string
}
CameraPerspective - -> "Eye" Vector3
CameraPerspective - -> "At" Vector3
CameraPerspective - -> "Up" Vector3
@enduml

PlantUML version 1.2022.0(Tue Jan 11 13:16:42 BRT 2022)
(GPL source distribution)
Java Runtime: Java(TM) SE Runtime Environment
JVM: Java HotSpot(TM) 64-Bit Server VM
Default Encoding: Cp1252
Language: en
Country: US
--></g></svg>