<?xml version="1.0" encoding="UTF-8" standalone="no"?><svg xmlns="http://www.w3.org/2000/svg" xmlns:xlink="http://www.w3.org/1999/xlink" contentScriptType="application/ecmascript" contentStyleType="text/css" height="453px" preserveAspectRatio="none" style="width:882px;height:453px;background:#FFFFFF;" version="1.1" viewBox="0 0 882 453" width="882px" zoomAndPan="magnify"><defs><filter height="300%" id="f1tw5jw8i01of4" width="300%" x="-1" y="-1"><feGaussianBlur result="blurOut" stdDeviation="2.0"/><feColorMatrix in="blurOut" result="blurOut2" type="matrix" values="0 0 0 0 0 0 0 0 0 0 0 0 0 0 0 0 0 0 .4 0"/><feOffset dx="4.0" dy="4.0" in="blurOut2" result="blurOut3"/><feBlend in="SourceGraphic" in2="blurOut3" mode="normal"/></filter></defs><g><!--MD5=[919386ce46a6a5a7c71af782f732246a]
class Mundo--><rect codeLine="1" fill="#FEFECE" filter="url(#f1tw5jw8i01of4)" height="310.8828" id="Mundo" style="stroke:#A80036;stroke-width:1.5;" width="374" x="9" y="129"/><ellipse cx="173.25" cy="145" fill="#ADD1B2" rx="11" ry="11" style="stroke:#A80036;stroke-width:1.0;"/><path d="M176.0156,140.875 Q176.1719,140.6563 176.3594,140.5469 Q176.5469,140.4375 176.7656,140.4375 Q177.1406,140.4375 177.375,140.7031 Q177.6094,140.9531 177.6094,141.5625 L177.6094,143.0156 Q177.6094,143.625 177.375,143.8906 Q177.1406,144.1563 176.7656,144.1563 Q176.4219,144.1563 176.2188,143.9531 Q176.0156,143.7656 175.9063,143.25 Q175.8594,142.8906 175.6719,142.7031 Q175.3438,142.3281 174.7344,142.1094 Q174.125,141.8906 173.5,141.8906 Q172.7344,141.8906 172.0938,142.2188 Q171.4688,142.5469 170.9688,143.2969 Q170.4844,144.0469 170.4844,145.0781 L170.4844,146.1719 Q170.4844,147.4063 171.375,148.2344 Q172.2656,149.0469 173.8594,149.0469 Q174.7969,149.0469 175.4531,148.7969 Q175.8438,148.6406 176.2656,148.2031 Q176.5313,147.9375 176.6719,147.8594 Q176.8281,147.7813 177.0313,147.7813 Q177.3594,147.7813 177.6094,148.0469 Q177.875,148.2969 177.875,148.6406 Q177.875,148.9844 177.5313,149.3906 Q177.0313,149.9688 176.2344,150.2969 Q175.1563,150.75 173.8594,150.75 Q172.3438,150.75 171.1406,150.125 Q170.1563,149.625 169.4688,148.5625 Q168.7813,147.4844 168.7813,146.2031 L168.7813,145.0469 Q168.7813,143.7188 169.3906,142.5781 Q170.0156,141.4219 171.1094,140.8125 Q172.2031,140.1875 173.4375,140.1875 Q174.1719,140.1875 174.8125,140.3594 Q175.4688,140.5156 176.0156,140.875 Z " fill="#000000"/><text fill="#000000" font-family="sans-serif" font-size="12" lengthAdjust="spacing" textLength="37" x="193.75" y="149.9102">Mundo</text><line style="stroke:#A80036;stroke-width:1.5;" x1="10" x2="382" y1="161" y2="161"/><rect fill="none" height="6" style="stroke:#C82930;stroke-width:1.0;" width="6" x="17" y="169"/><text fill="#000000" font-family="sans-serif" font-size="11" lengthAdjust="spacing" textLength="95" x="29" y="176.4189">objetoId : char = '@'</text><rect fill="none" height="6" style="stroke:#C82930;stroke-width:1.0;" width="6" x="17" y="182.8359"/><text fill="#000000" font-family="sans-serif" font-size="11" lengthAdjust="spacing" textLength="137" x="29" y="190.2549">bBoxDesenhar : bool = false</text><text fill="#000000" font-family="sans-serif" font-size="11" lengthAdjust="spacing" textLength="59" x="29" y="204.0908">mouseX : int</text><text fill="#000000" font-family="sans-serif" font-size="11" lengthAdjust="spacing" textLength="60" x="29" y="217.9268">mouseY : int</text><rect fill="none" height="6" style="stroke:#C82930;stroke-width:1.0;" width="6" x="17" y="224.3438"/><text fill="#000000" font-family="sans-serif" font-size="11" lengthAdjust="spacing" textLength="142" x="29" y="231.7627">mouseMoverPto : bool = false</text><rect fill="none" height="6" style="stroke:#C82930;stroke-width:1.0;" width="6" x="17" y="238.1797"/><text fill="#000000" font-family="sans-serif" font-size="11" lengthAdjust="spacing" textLength="109" x="29" y="245.5986">adicionar : bool = false</text><rect fill="none" height="6" style="stroke:#C82930;stroke-width:1.0;" width="6" x="17" y="252.0156"/><text fill="#000000" font-family="sans-serif" font-size="11" lengthAdjust="spacing" textLength="167" x="29" y="259.4346">ehDesenhoJaIniciado : bool = false</text><rect fill="none" height="6" style="stroke:#C82930;stroke-width:1.0;" width="6" x="17" y="265.8516"/><text fill="#000000" font-family="sans-serif" font-size="11" lengthAdjust="spacing" textLength="120" x="29" y="273.2705">moverAtivo : bool = false</text><rect fill="none" height="6" style="stroke:#C82930;stroke-width:1.0;" width="6" x="17" y="279.6875"/><text fill="#000000" font-family="sans-serif" font-size="11" lengthAdjust="spacing" textLength="130" x="29" y="287.1064">removerAtivo : bool = false</text><line style="stroke:#A80036;stroke-width:1.5;" x1="10" x2="382" y1="293.5234" y2="293.5234"/><rect fill="#F24D5C" height="6" style="stroke:#C82930;stroke-width:1.0;" width="6" x="17" y="301.5234"/><text fill="#000000" font-family="sans-serif" font-size="11" lengthAdjust="spacing" textLength="130" x="29" y="308.9424">Mundo(width:int, height:int)</text><ellipse cx="20" cy="318.3594" fill="#84BE84" rx="3" ry="3" style="stroke:#038048;stroke-width:1.0;"/><text fill="#000000" font-family="sans-serif" font-size="11" lengthAdjust="spacing" text-decoration="underline" textLength="197" x="29" y="322.7783">GetInstance(width:int, height:int) : Mundo</text><polygon fill="#FFFF44" points="20,327.1953,24,331.1953,20,335.1953,16,331.1953" style="stroke:#B38D22;stroke-width:1.0;"/><text fill="#000000" font-family="sans-serif" font-size="11" lengthAdjust="spacing" textLength="190" x="29" y="336.6143">«override» OnLoad(e:EventArgs) : void</text><polygon fill="#FFFF44" points="20,341.0313,24,345.0313,20,349.0313,16,345.0313" style="stroke:#B38D22;stroke-width:1.0;"/><text fill="#000000" font-family="sans-serif" font-size="11" lengthAdjust="spacing" textLength="260" x="29" y="350.4502">«override» OnUpdateFrame(e:FrameEventArgs) : void</text><polygon fill="#FFFF44" points="20,354.8672,24,358.8672,20,362.8672,16,358.8672" style="stroke:#B38D22;stroke-width:1.0;"/><text fill="#000000" font-family="sans-serif" font-size="11" lengthAdjust="spacing" textLength="261" x="29" y="364.2861">«override» OnRenderFrame(e:FrameEventArgs) : void</text><polygon fill="#FFFF44" points="20,368.7031,24,372.7031,20,376.7031,16,372.7031" style="stroke:#B38D22;stroke-width:1.0;"/><text fill="#000000" font-family="sans-serif" font-size="11" lengthAdjust="spacing" textLength="348" x="29" y="378.1221">«override» OnKeyDown(e:OpenTK.Input.KeyboardKeyEventArgs) : void</text><polygon fill="#FFFF44" points="20,382.5391,24,386.5391,20,390.5391,16,386.5391" style="stroke:#B38D22;stroke-width:1.0;"/><text fill="#000000" font-family="sans-serif" font-size="11" lengthAdjust="spacing" textLength="282" x="29" y="391.958">«override» OnMouseMove(e:MouseMoveEventArgs) : void</text><polygon fill="#FFFF44" points="20,396.375,24,400.375,20,404.375,16,400.375" style="stroke:#B38D22;stroke-width:1.0;"/><text fill="#000000" font-family="sans-serif" font-size="11" lengthAdjust="spacing" textLength="290" x="29" y="405.7939">«override» OnMouseDown(e:MouseButtonEventArgs) : void</text><polygon fill="#FFFF44" points="20,410.2109,24,414.2109,20,418.2109,16,414.2109" style="stroke:#B38D22;stroke-width:1.0;"/><text fill="#000000" font-family="sans-serif" font-size="11" lengthAdjust="spacing" textLength="132" x="29" y="419.6299">criarPoligonoNaTela() : void</text><rect fill="#F24D5C" height="6" style="stroke:#C82930;stroke-width:1.0;" width="6" x="17" y="426.0469"/><text fill="#000000" font-family="sans-serif" font-size="11" lengthAdjust="spacing" textLength="148" x="29" y="433.4658">adicionarPontoPoligono() : void</text><!--MD5=[175f95e045c1a44aed0b30df3abe0e5c]
class Program--><rect codeLine="22" fill="#FEFECE" filter="url(#f1tw5jw8i01of4)" height="61.8359" id="Program" style="stroke:#A80036;stroke-width:1.5;" width="129" x="286.5" y="7"/><ellipse cx="323.55" cy="23" fill="#ADD1B2" rx="11" ry="11" style="stroke:#A80036;stroke-width:1.0;"/><path d="M326.3156,18.875 Q326.4719,18.6563 326.6594,18.5469 Q326.8469,18.4375 327.0656,18.4375 Q327.4406,18.4375 327.675,18.7031 Q327.9094,18.9531 327.9094,19.5625 L327.9094,21.0156 Q327.9094,21.625 327.675,21.8906 Q327.4406,22.1563 327.0656,22.1563 Q326.7219,22.1563 326.5188,21.9531 Q326.3156,21.7656 326.2063,21.25 Q326.1594,20.8906 325.9719,20.7031 Q325.6438,20.3281 325.0344,20.1094 Q324.425,19.8906 323.8,19.8906 Q323.0344,19.8906 322.3938,20.2188 Q321.7688,20.5469 321.2688,21.2969 Q320.7844,22.0469 320.7844,23.0781 L320.7844,24.1719 Q320.7844,25.4063 321.675,26.2344 Q322.5656,27.0469 324.1594,27.0469 Q325.0969,27.0469 325.7531,26.7969 Q326.1438,26.6406 326.5656,26.2031 Q326.8313,25.9375 326.9719,25.8594 Q327.1281,25.7813 327.3313,25.7813 Q327.6594,25.7813 327.9094,26.0469 Q328.175,26.2969 328.175,26.6406 Q328.175,26.9844 327.8313,27.3906 Q327.3313,27.9688 326.5344,28.2969 Q325.4563,28.75 324.1594,28.75 Q322.6438,28.75 321.4406,28.125 Q320.4563,27.625 319.7688,26.5625 Q319.0813,25.4844 319.0813,24.2031 L319.0813,23.0469 Q319.0813,21.7188 319.6906,20.5781 Q320.3156,19.4219 321.4094,18.8125 Q322.5031,18.1875 323.7375,18.1875 Q324.4719,18.1875 325.1125,18.3594 Q325.7688,18.5156 326.3156,18.875 Z " fill="#000000"/><text fill="#000000" font-family="sans-serif" font-size="12" lengthAdjust="spacing" textLength="48" x="342.45" y="27.9102">Program</text><line style="stroke:#A80036;stroke-width:1.5;" x1="287.5" x2="414.5" y1="39" y2="39"/><line style="stroke:#A80036;stroke-width:1.5;" x1="287.5" x2="414.5" y1="47" y2="47"/><text fill="#000000" font-family="sans-serif" font-size="11" lengthAdjust="spacing" text-decoration="underline" textLength="117" x="292.5" y="62.4189">Main(args:string[]) : void</text><!--MD5=[e644022de7dea015dd09463c37421447]
class List`1--><rect codeLine="25" fill="#FEFECE" filter="url(#f1tw5jw8i01of4)" height="48" id="List`1" style="stroke:#A80036;stroke-width:1.5;" width="74" x="652" y="260.5"/><ellipse cx="667" cy="276.5" fill="#ADD1B2" rx="11" ry="11" style="stroke:#A80036;stroke-width:1.0;"/><path d="M669.7656,272.375 Q669.9219,272.1563 670.1094,272.0469 Q670.2969,271.9375 670.5156,271.9375 Q670.8906,271.9375 671.125,272.2031 Q671.3594,272.4531 671.3594,273.0625 L671.3594,274.5156 Q671.3594,275.125 671.125,275.3906 Q670.8906,275.6563 670.5156,275.6563 Q670.1719,275.6563 669.9688,275.4531 Q669.7656,275.2656 669.6563,274.75 Q669.6094,274.3906 669.4219,274.2031 Q669.0938,273.8281 668.4844,273.6094 Q667.875,273.3906 667.25,273.3906 Q666.4844,273.3906 665.8438,273.7188 Q665.2188,274.0469 664.7188,274.7969 Q664.2344,275.5469 664.2344,276.5781 L664.2344,277.6719 Q664.2344,278.9063 665.125,279.7344 Q666.0156,280.5469 667.6094,280.5469 Q668.5469,280.5469 669.2031,280.2969 Q669.5938,280.1406 670.0156,279.7031 Q670.2813,279.4375 670.4219,279.3594 Q670.5781,279.2813 670.7813,279.2813 Q671.1094,279.2813 671.3594,279.5469 Q671.625,279.7969 671.625,280.1406 Q671.625,280.4844 671.2813,280.8906 Q670.7813,281.4688 669.9844,281.7969 Q668.9063,282.25 667.6094,282.25 Q666.0938,282.25 664.8906,281.625 Q663.9063,281.125 663.2188,280.0625 Q662.5313,278.9844 662.5313,277.7031 L662.5313,276.5469 Q662.5313,275.2188 663.1406,274.0781 Q663.7656,272.9219 664.8594,272.3125 Q665.9531,271.6875 667.1875,271.6875 Q667.9219,271.6875 668.5625,271.8594 Q669.2188,272.0156 669.7656,272.375 Z " fill="#000000"/><text fill="#000000" font-family="sans-serif" font-size="12" lengthAdjust="spacing" textLength="31" x="681" y="281.4102">List`1</text><rect fill="#FFFFFF" height="17.0938" style="stroke:#000000;stroke-width:1.0;stroke-dasharray:2.0,2.0;" width="9" x="720" y="257.5"/><text fill="#000000" font-family="sans-serif" font-size="12" font-style="italic" lengthAdjust="spacing" textLength="7" x="721" y="270.957">T</text><line style="stroke:#A80036;stroke-width:1.5;" x1="653" x2="725" y1="292.5" y2="292.5"/><line style="stroke:#A80036;stroke-width:1.5;" x1="653" x2="725" y1="300.5" y2="300.5"/><!--MD5=[d0074d293e9645ff4ed5f25f47c5773b]
class GameWindow--><rect fill="#FEFECE" filter="url(#f1tw5jw8i01of4)" height="48" id="GameWindow" style="stroke:#A80036;stroke-width:1.5;" width="110" x="141" y="14"/><ellipse cx="156" cy="30" fill="#ADD1B2" rx="11" ry="11" style="stroke:#A80036;stroke-width:1.0;"/><path d="M158.7656,25.875 Q158.9219,25.6563 159.1094,25.5469 Q159.2969,25.4375 159.5156,25.4375 Q159.8906,25.4375 160.125,25.7031 Q160.3594,25.9531 160.3594,26.5625 L160.3594,28.0156 Q160.3594,28.625 160.125,28.8906 Q159.8906,29.1563 159.5156,29.1563 Q159.1719,29.1563 158.9688,28.9531 Q158.7656,28.7656 158.6563,28.25 Q158.6094,27.8906 158.4219,27.7031 Q158.0938,27.3281 157.4844,27.1094 Q156.875,26.8906 156.25,26.8906 Q155.4844,26.8906 154.8438,27.2188 Q154.2188,27.5469 153.7188,28.2969 Q153.2344,29.0469 153.2344,30.0781 L153.2344,31.1719 Q153.2344,32.4063 154.125,33.2344 Q155.0156,34.0469 156.6094,34.0469 Q157.5469,34.0469 158.2031,33.7969 Q158.5938,33.6406 159.0156,33.2031 Q159.2813,32.9375 159.4219,32.8594 Q159.5781,32.7813 159.7813,32.7813 Q160.1094,32.7813 160.3594,33.0469 Q160.625,33.2969 160.625,33.6406 Q160.625,33.9844 160.2813,34.3906 Q159.7813,34.9688 158.9844,35.2969 Q157.9063,35.75 156.6094,35.75 Q155.0938,35.75 153.8906,35.125 Q152.9063,34.625 152.2188,33.5625 Q151.5313,32.4844 151.5313,31.2031 L151.5313,30.0469 Q151.5313,28.7188 152.1406,27.5781 Q152.7656,26.4219 153.8594,25.8125 Q154.9531,25.1875 156.1875,25.1875 Q156.9219,25.1875 157.5625,25.3594 Q158.2188,25.5156 158.7656,25.875 Z " fill="#000000"/><text fill="#000000" font-family="sans-serif" font-size="12" lengthAdjust="spacing" textLength="78" x="170" y="34.9102">GameWindow</text><line style="stroke:#A80036;stroke-width:1.5;" x1="142" x2="250" y1="46" y2="46"/><line style="stroke:#A80036;stroke-width:1.5;" x1="142" x2="250" y1="54" y2="54"/><!--MD5=[a7a8f22eafb289696c295eb36d2b4bda]
class CameraOrtho--><rect fill="#FEFECE" filter="url(#f1tw5jw8i01of4)" height="48" id="CameraOrtho" style="stroke:#A80036;stroke-width:1.5;" width="107" x="761.5" y="260.5"/><ellipse cx="776.5" cy="276.5" fill="#ADD1B2" rx="11" ry="11" style="stroke:#A80036;stroke-width:1.0;"/><path d="M779.2656,272.375 Q779.4219,272.1563 779.6094,272.0469 Q779.7969,271.9375 780.0156,271.9375 Q780.3906,271.9375 780.625,272.2031 Q780.8594,272.4531 780.8594,273.0625 L780.8594,274.5156 Q780.8594,275.125 780.625,275.3906 Q780.3906,275.6563 780.0156,275.6563 Q779.6719,275.6563 779.4688,275.4531 Q779.2656,275.2656 779.1563,274.75 Q779.1094,274.3906 778.9219,274.2031 Q778.5938,273.8281 777.9844,273.6094 Q777.375,273.3906 776.75,273.3906 Q775.9844,273.3906 775.3438,273.7188 Q774.7188,274.0469 774.2188,274.7969 Q773.7344,275.5469 773.7344,276.5781 L773.7344,277.6719 Q773.7344,278.9063 774.625,279.7344 Q775.5156,280.5469 777.1094,280.5469 Q778.0469,280.5469 778.7031,280.2969 Q779.0938,280.1406 779.5156,279.7031 Q779.7813,279.4375 779.9219,279.3594 Q780.0781,279.2813 780.2813,279.2813 Q780.6094,279.2813 780.8594,279.5469 Q781.125,279.7969 781.125,280.1406 Q781.125,280.4844 780.7813,280.8906 Q780.2813,281.4688 779.4844,281.7969 Q778.4063,282.25 777.1094,282.25 Q775.5938,282.25 774.3906,281.625 Q773.4063,281.125 772.7188,280.0625 Q772.0313,278.9844 772.0313,277.7031 L772.0313,276.5469 Q772.0313,275.2188 772.6406,274.0781 Q773.2656,272.9219 774.3594,272.3125 Q775.4531,271.6875 776.6875,271.6875 Q777.4219,271.6875 778.0625,271.8594 Q778.7188,272.0156 779.2656,272.375 Z " fill="#000000"/><text fill="#000000" font-family="sans-serif" font-size="12" lengthAdjust="spacing" textLength="75" x="790.5" y="281.4102">CameraOrtho</text><line style="stroke:#A80036;stroke-width:1.5;" x1="762.5" x2="867.5" y1="292.5" y2="292.5"/><line style="stroke:#A80036;stroke-width:1.5;" x1="762.5" x2="867.5" y1="300.5" y2="300.5"/><!--MD5=[14270d418d81d90ef0399f0e3d0d5129]
class Poligono--><rect fill="#FEFECE" filter="url(#f1tw5jw8i01of4)" height="48" id="Poligono" style="stroke:#A80036;stroke-width:1.5;" width="81" x="535.5" y="260.5"/><ellipse cx="550.5" cy="276.5" fill="#ADD1B2" rx="11" ry="11" style="stroke:#A80036;stroke-width:1.0;"/><path d="M553.2656,272.375 Q553.4219,272.1563 553.6094,272.0469 Q553.7969,271.9375 554.0156,271.9375 Q554.3906,271.9375 554.625,272.2031 Q554.8594,272.4531 554.8594,273.0625 L554.8594,274.5156 Q554.8594,275.125 554.625,275.3906 Q554.3906,275.6563 554.0156,275.6563 Q553.6719,275.6563 553.4688,275.4531 Q553.2656,275.2656 553.1563,274.75 Q553.1094,274.3906 552.9219,274.2031 Q552.5938,273.8281 551.9844,273.6094 Q551.375,273.3906 550.75,273.3906 Q549.9844,273.3906 549.3438,273.7188 Q548.7188,274.0469 548.2188,274.7969 Q547.7344,275.5469 547.7344,276.5781 L547.7344,277.6719 Q547.7344,278.9063 548.625,279.7344 Q549.5156,280.5469 551.1094,280.5469 Q552.0469,280.5469 552.7031,280.2969 Q553.0938,280.1406 553.5156,279.7031 Q553.7813,279.4375 553.9219,279.3594 Q554.0781,279.2813 554.2813,279.2813 Q554.6094,279.2813 554.8594,279.5469 Q555.125,279.7969 555.125,280.1406 Q555.125,280.4844 554.7813,280.8906 Q554.2813,281.4688 553.4844,281.7969 Q552.4063,282.25 551.1094,282.25 Q549.5938,282.25 548.3906,281.625 Q547.4063,281.125 546.7188,280.0625 Q546.0313,278.9844 546.0313,277.7031 L546.0313,276.5469 Q546.0313,275.2188 546.6406,274.0781 Q547.2656,272.9219 548.3594,272.3125 Q549.4531,271.6875 550.6875,271.6875 Q551.4219,271.6875 552.0625,271.8594 Q552.7188,272.0156 553.2656,272.375 Z " fill="#000000"/><text fill="#000000" font-family="sans-serif" font-size="12" lengthAdjust="spacing" textLength="49" x="564.5" y="281.4102">Poligono</text><line style="stroke:#A80036;stroke-width:1.5;" x1="536.5" x2="615.5" y1="292.5" y2="292.5"/><line style="stroke:#A80036;stroke-width:1.5;" x1="536.5" x2="615.5" y1="300.5" y2="300.5"/><!--MD5=[554a48e4b96ab0ce4473fbb3aea24bfd]
class Ponto--><rect fill="#FEFECE" filter="url(#f1tw5jw8i01of4)" height="48" id="Ponto" style="stroke:#A80036;stroke-width:1.5;" width="64" x="436" y="260.5"/><ellipse cx="451" cy="276.5" fill="#ADD1B2" rx="11" ry="11" style="stroke:#A80036;stroke-width:1.0;"/><path d="M453.7656,272.375 Q453.9219,272.1563 454.1094,272.0469 Q454.2969,271.9375 454.5156,271.9375 Q454.8906,271.9375 455.125,272.2031 Q455.3594,272.4531 455.3594,273.0625 L455.3594,274.5156 Q455.3594,275.125 455.125,275.3906 Q454.8906,275.6563 454.5156,275.6563 Q454.1719,275.6563 453.9688,275.4531 Q453.7656,275.2656 453.6563,274.75 Q453.6094,274.3906 453.4219,274.2031 Q453.0938,273.8281 452.4844,273.6094 Q451.875,273.3906 451.25,273.3906 Q450.4844,273.3906 449.8438,273.7188 Q449.2188,274.0469 448.7188,274.7969 Q448.2344,275.5469 448.2344,276.5781 L448.2344,277.6719 Q448.2344,278.9063 449.125,279.7344 Q450.0156,280.5469 451.6094,280.5469 Q452.5469,280.5469 453.2031,280.2969 Q453.5938,280.1406 454.0156,279.7031 Q454.2813,279.4375 454.4219,279.3594 Q454.5781,279.2813 454.7813,279.2813 Q455.1094,279.2813 455.3594,279.5469 Q455.625,279.7969 455.625,280.1406 Q455.625,280.4844 455.2813,280.8906 Q454.7813,281.4688 453.9844,281.7969 Q452.9063,282.25 451.6094,282.25 Q450.0938,282.25 448.8906,281.625 Q447.9063,281.125 447.2188,280.0625 Q446.5313,278.9844 446.5313,277.7031 L446.5313,276.5469 Q446.5313,275.2188 447.1406,274.0781 Q447.7656,272.9219 448.8594,272.3125 Q449.9531,271.6875 451.1875,271.6875 Q451.9219,271.6875 452.5625,271.8594 Q453.2188,272.0156 453.7656,272.375 Z " fill="#000000"/><text fill="#000000" font-family="sans-serif" font-size="12" lengthAdjust="spacing" textLength="32" x="465" y="281.4102">Ponto</text><line style="stroke:#A80036;stroke-width:1.5;" x1="437" x2="499" y1="292.5" y2="292.5"/><line style="stroke:#A80036;stroke-width:1.5;" x1="437" x2="499" y1="300.5" y2="300.5"/><!--MD5=[3c0e7ba23ee97378347dee0d1da8e8b4]
reverse link GameWindow to Mundo--><path codeLine="27" d="M196,82.09 C196,95.86 196,111.97 196,128.98 " fill="none" id="GameWindow-backto-Mundo" style="stroke:#A80036;stroke-width:1.0;"/><polygon fill="none" points="189,82,196,62,203,82,189,82" style="stroke:#A80036;stroke-width:1.0;"/><!--MD5=[18d20c4dd74904f6a8bff04e04f15cd6]
link Mundo to Mundo--><path codeLine="28" d="M394.0747,250.172 C394.0747,250.172 418,269.57 418,284.5 C418,299.43 409.28,310.74 395,318.42 " fill="none" id="Mundo-Mundo" style="stroke:#A80036;stroke-width:1.0;"/><polygon fill="#A80036" points="383.06,323.59,392.9083,323.69,387.6494,321.6058,389.7337,316.3469,383.06,323.59" style="stroke:#A80036;stroke-width:1.0;"/><line style="stroke:#A80036;stroke-width:1.0;" x1="387.6494" x2="394.995" y1="321.6058" y2="318.425"/><polygon fill="#FFFFFF" points="383.06,245.41,386.98,251.4626,394.0747,250.172,390.1547,244.1195,383.06,245.41" style="stroke:#A80036;stroke-width:1.0;"/><text fill="#000000" font-family="sans-serif" font-size="13" lengthAdjust="spacing" textLength="91" x="390.6909" y="338.6379">instanciaMundo</text><!--MD5=[5a8a86a4b938c9552e75821b2b1a03fb]
link Mundo to CameraOrtho--><path codeLine="29" d="M382.8948,123.0518 C382.8948,123.0518 418.66,105.08 436.5,99 C497.5,78.21 670.62,66.9 726.5,99 C779.64,129.52 801.31,202.57 809.82,247.36 " fill="none" id="Mundo-CameraOrtho" style="stroke:#A80036;stroke-width:1.0;"/><polygon fill="#A80036" points="812.06,260.27,814.4588,250.7177,811.2033,255.3439,806.5771,252.0885,812.06,260.27" style="stroke:#A80036;stroke-width:1.0;"/><line style="stroke:#A80036;stroke-width:1.0;" x1="811.2033" x2="809.835" y1="255.3439" y2="247.46"/><polygon fill="#FFFFFF" points="372.45,128.96,379.6418,129.4875,382.8948,123.0518,375.703,122.5243,372.45,128.96" style="stroke:#A80036;stroke-width:1.0;"/><text fill="#000000" font-family="sans-serif" font-size="13" lengthAdjust="spacing" textLength="43" x="762.7973" y="249.5512">camera</text><!--MD5=[778fff7b4969a30658923a6378b287eb]
link Mundo to List`1--><path codeLine="30" d="M382.8948,123.0518 C382.8948,123.0518 418.66,105.08 436.5,99 C512.22,73.19 547.13,59.16 616.5,99 C668.13,128.65 683.1,202.34 687.38,247.41 " fill="none" id="Mundo-List`1" style="stroke:#A80036;stroke-width:1.0;"/><polygon fill="#A80036" points="688.39,260.39,691.6754,251.1053,687.9998,255.4052,683.6998,251.7296,688.39,260.39" style="stroke:#A80036;stroke-width:1.0;"/><line style="stroke:#A80036;stroke-width:1.0;" x1="687.9998" x2="687.375" y1="255.4052" y2="247.435"/><polygon fill="#FFFFFF" points="372.45,128.96,379.6418,129.4875,382.8948,123.0518,375.703,122.5243,372.45,128.96" style="stroke:#A80036;stroke-width:1.0;"/><text fill="#000000" font-family="sans-serif" font-size="13" lengthAdjust="spacing" textLength="136" x="534.8506" y="249.6393">objetosLista&lt;Poligono&gt;</text><!--MD5=[ceab9e9495635919f84724b35b126dfe]
link Mundo to Poligono--><path codeLine="31" d="M345.4344,121.8628 C345.4344,121.8628 449.87,69.92 500.5,99 C552.42,128.82 568.65,202.45 573.72,247.46 " fill="none" id="Mundo-Poligono" style="stroke:#A80036;stroke-width:1.0;"/><polygon fill="#A80036" points="574.96,260.43,578.0916,251.0923,574.4875,255.4524,570.1274,251.8483,574.96,260.43" style="stroke:#A80036;stroke-width:1.0;"/><line style="stroke:#A80036;stroke-width:1.0;" x1="574.4875" x2="573.72" y1="255.4524" y2="247.49"/><polygon fill="#FFFFFF" points="335.7,128.88,342.9063,128.6162,345.4344,121.8628,338.2281,122.1266,335.7,128.88" style="stroke:#A80036;stroke-width:1.0;"/><text fill="#000000" font-family="sans-serif" font-size="13" lengthAdjust="spacing" textLength="106" x="455.1749" y="249.6896">objetoSelecionado</text><!--MD5=[6a00e5728ef10aa0db8d1cabc61bfb25]
link Mundo to Ponto--><path codeLine="32" d="M395,284.5 C395,284.5 413.73,284.5 422.49,284.5 " fill="none" id="Mundo-Ponto" style="stroke:#A80036;stroke-width:1.0;"/><polygon fill="#A80036" points="435.79,284.5,426.79,280.5,430.79,284.5,426.79,288.5,435.79,284.5" style="stroke:#A80036;stroke-width:1.0;"/><line style="stroke:#A80036;stroke-width:1.0;" x1="430.79" x2="422.79" y1="284.5" y2="284.5"/><polygon fill="#FFFFFF" points="383,284.5,389,288.5,395,284.5,389,280.5,383,284.5" style="stroke:#A80036;stroke-width:1.0;"/><text fill="#000000" font-family="sans-serif" font-size="13" lengthAdjust="spacing" textLength="25" x="403.1055" y="280.6503">pont</text><!--MD5=[fe77d40a8e609e91247d10263c332cba]
@startuml
class Mundo {
    - Mundo(width:int, height:int)
    + {static} GetInstance(width:int, height:int) : Mundo
    - objetoId : char = '@'
    - bBoxDesenhar : bool = false
    mouseX : int
    mouseY : int
    - mouseMoverPto : bool = false
    - adicionar : bool = false
    - ehDesenhoJaIniciado : bool = false
    - moverAtivo : bool = false
    - removerAtivo : bool = false
    # <<override>> OnLoad(e:EventArgs) : void
    # <<override>> OnUpdateFrame(e:FrameEventArgs) : void
    # <<override>> OnRenderFrame(e:FrameEventArgs) : void
    # <<override>> OnKeyDown(e:OpenTK.Input.KeyboardKeyEventArgs) : void
    # <<override>> OnMouseMove(e:MouseMoveEventArgs) : void
    # <<override>> OnMouseDown(e:MouseButtonEventArgs) : void
    # criarPoligonoNaTela() : void
    - adicionarPontoPoligono() : void
}
class Program {
    {static} Main(args:string[]) : void
}
class "List`1"<T> {
}
GameWindow <|- - Mundo
Mundo o-> "instanciaMundo" Mundo
Mundo o-> "camera" CameraOrtho
Mundo o-> "objetosLista<Poligono>" "List`1"
Mundo o-> "objetoSelecionado" Poligono
Mundo o-> "pont" Ponto
@enduml

PlantUML version 1.2022.0(Tue Jan 11 13:16:42 BRT 2022)
(GPL source distribution)
Java Runtime: Java(TM) SE Runtime Environment
JVM: Java HotSpot(TM) 64-Bit Server VM
Default Encoding: Cp1252
Language: en
Country: US
--></g></svg>