<?xml version="1.0" encoding="UTF-8" standalone="no"?><svg xmlns="http://www.w3.org/2000/svg" xmlns:xlink="http://www.w3.org/1999/xlink" contentScriptType="application/ecmascript" contentStyleType="text/css" height="204px" preserveAspectRatio="none" style="width:420px;height:204px;background:#FFFFFF;" version="1.1" viewBox="0 0 420 204" width="420px" zoomAndPan="magnify"><defs><filter height="300%" id="f119suw1bqezu" width="300%" x="-1" y="-1"><feGaussianBlur result="blurOut" stdDeviation="2.0"/><feColorMatrix in="blurOut" result="blurOut2" type="matrix" values="0 0 0 0 0 0 0 0 0 0 0 0 0 0 0 0 0 0 .4 0"/><feOffset dx="4.0" dy="4.0" in="blurOut2" result="blurOut3"/><feBlend in="SourceGraphic" in2="blurOut3" mode="normal"/></filter></defs><g><!--MD5=[48de76ac9e45cd2dd14a095e4e7d40a3]
class Privado_SegReta--><rect codeLine="1" fill="#FEFECE" filter="url(#f119suw1bqezu)" height="75.6719" id="Privado_SegReta" style="stroke:#A80036;stroke-width:1.5;" width="399" x="7" y="115"/><ellipse cx="154.25" cy="131" fill="#ADD1B2" rx="11" ry="11" style="stroke:#A80036;stroke-width:1.0;"/><path d="M157.0156,126.875 Q157.1719,126.6563 157.3594,126.5469 Q157.5469,126.4375 157.7656,126.4375 Q158.1406,126.4375 158.375,126.7031 Q158.6094,126.9531 158.6094,127.5625 L158.6094,129.0156 Q158.6094,129.625 158.375,129.8906 Q158.1406,130.1563 157.7656,130.1563 Q157.4219,130.1563 157.2188,129.9531 Q157.0156,129.7656 156.9063,129.25 Q156.8594,128.8906 156.6719,128.7031 Q156.3438,128.3281 155.7344,128.1094 Q155.125,127.8906 154.5,127.8906 Q153.7344,127.8906 153.0938,128.2188 Q152.4688,128.5469 151.9688,129.2969 Q151.4844,130.0469 151.4844,131.0781 L151.4844,132.1719 Q151.4844,133.4063 152.375,134.2344 Q153.2656,135.0469 154.8594,135.0469 Q155.7969,135.0469 156.4531,134.7969 Q156.8438,134.6406 157.2656,134.2031 Q157.5313,133.9375 157.6719,133.8594 Q157.8281,133.7813 158.0313,133.7813 Q158.3594,133.7813 158.6094,134.0469 Q158.875,134.2969 158.875,134.6406 Q158.875,134.9844 158.5313,135.3906 Q158.0313,135.9688 157.2344,136.2969 Q156.1563,136.75 154.8594,136.75 Q153.3438,136.75 152.1406,136.125 Q151.1563,135.625 150.4688,134.5625 Q149.7813,133.4844 149.7813,132.2031 L149.7813,131.0469 Q149.7813,129.7188 150.3906,128.5781 Q151.0156,127.4219 152.1094,126.8125 Q153.2031,126.1875 154.4375,126.1875 Q155.1719,126.1875 155.8125,126.3594 Q156.4688,126.5156 157.0156,126.875 Z " fill="#000000"/><text fill="#000000" font-family="sans-serif" font-size="12" lengthAdjust="spacing" textLength="96" x="174.75" y="135.9102">Privado_SegReta</text><line style="stroke:#A80036;stroke-width:1.5;" x1="8" x2="405" y1="147" y2="147"/><line style="stroke:#A80036;stroke-width:1.5;" x1="8" x2="405" y1="155" y2="155"/><ellipse cx="18" cy="166" fill="#84BE84" rx="3" ry="3" style="stroke:#038048;stroke-width:1.0;"/><text fill="#000000" font-family="sans-serif" font-size="11" lengthAdjust="spacing" textLength="373" x="27" y="170.4189">Privado_SegReta(rotulo:string, paiRef:Objeto, ptoIni:Ponto4D, ptoFim:Ponto4D)</text><ellipse cx="18" cy="179.8359" fill="#84BE84" rx="3" ry="3" style="stroke:#038048;stroke-width:1.0;"/><text fill="#000000" font-family="sans-serif" font-size="11" lengthAdjust="spacing" textLength="139" x="27" y="184.2549">«override» ToString() : string</text><!--MD5=[8b9e0d00865063ef789ad294aa32e6ea]
class ObjetoGeometria--><rect fill="#FEFECE" filter="url(#f119suw1bqezu)" height="48" id="ObjetoGeometria" style="stroke:#A80036;stroke-width:1.5;" width="126" x="143.5" y="7"/><ellipse cx="158.5" cy="23" fill="#ADD1B2" rx="11" ry="11" style="stroke:#A80036;stroke-width:1.0;"/><path d="M161.2656,18.875 Q161.4219,18.6563 161.6094,18.5469 Q161.7969,18.4375 162.0156,18.4375 Q162.3906,18.4375 162.625,18.7031 Q162.8594,18.9531 162.8594,19.5625 L162.8594,21.0156 Q162.8594,21.625 162.625,21.8906 Q162.3906,22.1563 162.0156,22.1563 Q161.6719,22.1563 161.4688,21.9531 Q161.2656,21.7656 161.1563,21.25 Q161.1094,20.8906 160.9219,20.7031 Q160.5938,20.3281 159.9844,20.1094 Q159.375,19.8906 158.75,19.8906 Q157.9844,19.8906 157.3438,20.2188 Q156.7188,20.5469 156.2188,21.2969 Q155.7344,22.0469 155.7344,23.0781 L155.7344,24.1719 Q155.7344,25.4063 156.625,26.2344 Q157.5156,27.0469 159.1094,27.0469 Q160.0469,27.0469 160.7031,26.7969 Q161.0938,26.6406 161.5156,26.2031 Q161.7813,25.9375 161.9219,25.8594 Q162.0781,25.7813 162.2813,25.7813 Q162.6094,25.7813 162.8594,26.0469 Q163.125,26.2969 163.125,26.6406 Q163.125,26.9844 162.7813,27.3906 Q162.2813,27.9688 161.4844,28.2969 Q160.4063,28.75 159.1094,28.75 Q157.5938,28.75 156.3906,28.125 Q155.4063,27.625 154.7188,26.5625 Q154.0313,25.4844 154.0313,24.2031 L154.0313,23.0469 Q154.0313,21.7188 154.6406,20.5781 Q155.2656,19.4219 156.3594,18.8125 Q157.4531,18.1875 158.6875,18.1875 Q159.4219,18.1875 160.0625,18.3594 Q160.7188,18.5156 161.2656,18.875 Z " fill="#000000"/><text fill="#000000" font-family="sans-serif" font-size="12" lengthAdjust="spacing" textLength="94" x="172.5" y="27.9102">ObjetoGeometria</text><line style="stroke:#A80036;stroke-width:1.5;" x1="144.5" x2="268.5" y1="39" y2="39"/><line style="stroke:#A80036;stroke-width:1.5;" x1="144.5" x2="268.5" y1="47" y2="47"/><!--MD5=[fba79b035eb861c3c10e58ba51297e23]
reverse link ObjetoGeometria to Privado_SegReta--><path codeLine="5" d="M206.5,75.34 C206.5,88.26 206.5,102.29 206.5,114.77 " fill="none" id="ObjetoGeometria-backto-Privado_SegReta" style="stroke:#A80036;stroke-width:1.0;"/><polygon fill="none" points="199.5,75.14,206.5,55.14,213.5,75.14,199.5,75.14" style="stroke:#A80036;stroke-width:1.0;"/><!--MD5=[ed2983f37669db883645b3e8d75b25ba]
@startuml Privado_SegReta
class Privado_SegReta {
    + Privado_SegReta(rotulo:string, paiRef:Objeto, ptoIni:Ponto4D, ptoFim:Ponto4D)
    + <<override>> ToString() : string
}
ObjetoGeometria <|- - Privado_SegReta
@enduml

PlantUML version 1.2022.0(Tue Jan 11 13:16:42 BRT 2022)
(GPL source distribution)
Java Runtime: Java(TM) SE Runtime Environment
JVM: Java HotSpot(TM) 64-Bit Server VM
Default Encoding: Cp1252
Language: en
Country: US
--></g></svg>