<?xml version="1.0" encoding="UTF-8" standalone="no"?><svg xmlns="http://www.w3.org/2000/svg" xmlns:xlink="http://www.w3.org/1999/xlink" contentScriptType="application/ecmascript" contentStyleType="text/css" height="387px" preserveAspectRatio="none" style="width:657px;height:387px;background:#FFFFFF;" version="1.1" viewBox="0 0 657 387" width="657px" zoomAndPan="magnify"><defs><filter height="300%" id="f195e96gl6kb62" width="300%" x="-1" y="-1"><feGaussianBlur result="blurOut" stdDeviation="2.0"/><feColorMatrix in="blurOut" result="blurOut2" type="matrix" values="0 0 0 0 0 0 0 0 0 0 0 0 0 0 0 0 0 0 .4 0"/><feOffset dx="4.0" dy="4.0" in="blurOut2" result="blurOut3"/><feBlend in="SourceGraphic" in2="blurOut3" mode="normal"/></filter></defs><g><!--MD5=[ea10f8dc465baf5e542f54928f2443c8]
class BBox--><rect codeLine="1" fill="#FEFECE" filter="url(#f195e96gl6kb62)" height="366.2266" id="BBox" style="stroke:#A80036;stroke-width:1.5;" width="512" x="7" y="7"/><ellipse cx="244.75" cy="23" fill="#ADD1B2" rx="11" ry="11" style="stroke:#A80036;stroke-width:1.0;"/><path d="M247.5156,18.875 Q247.6719,18.6563 247.8594,18.5469 Q248.0469,18.4375 248.2656,18.4375 Q248.6406,18.4375 248.875,18.7031 Q249.1094,18.9531 249.1094,19.5625 L249.1094,21.0156 Q249.1094,21.625 248.875,21.8906 Q248.6406,22.1563 248.2656,22.1563 Q247.9219,22.1563 247.7188,21.9531 Q247.5156,21.7656 247.4063,21.25 Q247.3594,20.8906 247.1719,20.7031 Q246.8438,20.3281 246.2344,20.1094 Q245.625,19.8906 245,19.8906 Q244.2344,19.8906 243.5938,20.2188 Q242.9688,20.5469 242.4688,21.2969 Q241.9844,22.0469 241.9844,23.0781 L241.9844,24.1719 Q241.9844,25.4063 242.875,26.2344 Q243.7656,27.0469 245.3594,27.0469 Q246.2969,27.0469 246.9531,26.7969 Q247.3438,26.6406 247.7656,26.2031 Q248.0313,25.9375 248.1719,25.8594 Q248.3281,25.7813 248.5313,25.7813 Q248.8594,25.7813 249.1094,26.0469 Q249.375,26.2969 249.375,26.6406 Q249.375,26.9844 249.0313,27.3906 Q248.5313,27.9688 247.7344,28.2969 Q246.6563,28.75 245.3594,28.75 Q243.8438,28.75 242.6406,28.125 Q241.6563,27.625 240.9688,26.5625 Q240.2813,25.4844 240.2813,24.2031 L240.2813,23.0469 Q240.2813,21.7188 240.8906,20.5781 Q241.5156,19.4219 242.6094,18.8125 Q243.7031,18.1875 244.9375,18.1875 Q245.6719,18.1875 246.3125,18.3594 Q246.9688,18.5156 247.5156,18.875 Z " fill="#000000"/><text fill="#000000" font-family="sans-serif" font-size="12" lengthAdjust="spacing" textLength="28" x="265.25" y="27.9102">BBox</text><line style="stroke:#A80036;stroke-width:1.5;" x1="8" x2="518" y1="39" y2="39"/><rect fill="none" height="6" style="stroke:#C82930;stroke-width:1.0;" width="6" x="15" y="47"/><text fill="#000000" font-family="sans-serif" font-size="11" lengthAdjust="spacing" textLength="78" x="27" y="54.4189">menorX : double</text><rect fill="none" height="6" style="stroke:#C82930;stroke-width:1.0;" width="6" x="15" y="60.8359"/><text fill="#000000" font-family="sans-serif" font-size="11" lengthAdjust="spacing" textLength="79" x="27" y="68.2549">menorY : double</text><rect fill="none" height="6" style="stroke:#C82930;stroke-width:1.0;" width="6" x="15" y="74.6719"/><text fill="#000000" font-family="sans-serif" font-size="11" lengthAdjust="spacing" textLength="78" x="27" y="82.0908">menorZ : double</text><rect fill="none" height="6" style="stroke:#C82930;stroke-width:1.0;" width="6" x="15" y="88.5078"/><text fill="#000000" font-family="sans-serif" font-size="11" lengthAdjust="spacing" textLength="74" x="27" y="95.9268">maiorX : double</text><rect fill="none" height="6" style="stroke:#C82930;stroke-width:1.0;" width="6" x="15" y="102.3438"/><text fill="#000000" font-family="sans-serif" font-size="11" lengthAdjust="spacing" textLength="75" x="27" y="109.7627">maiorY : double</text><rect fill="none" height="6" style="stroke:#C82930;stroke-width:1.0;" width="6" x="15" y="116.1797"/><text fill="#000000" font-family="sans-serif" font-size="11" lengthAdjust="spacing" textLength="74" x="27" y="123.5986">maiorZ : double</text><ellipse cx="18" cy="133.0156" rx="3" ry="3" style="stroke:#038048;stroke-width:1.0;fill:none;"/><text fill="#000000" font-family="sans-serif" font-size="11" lengthAdjust="spacing" textLength="133" x="27" y="137.4346">obterMenorX : double «get»</text><ellipse cx="18" cy="146.8516" rx="3" ry="3" style="stroke:#038048;stroke-width:1.0;fill:none;"/><text fill="#000000" font-family="sans-serif" font-size="11" lengthAdjust="spacing" textLength="134" x="27" y="151.2705">obterMenorY : double «get»</text><ellipse cx="18" cy="160.6875" rx="3" ry="3" style="stroke:#038048;stroke-width:1.0;fill:none;"/><text fill="#000000" font-family="sans-serif" font-size="11" lengthAdjust="spacing" textLength="133" x="27" y="165.1064">obterMenorZ : double «get»</text><ellipse cx="18" cy="174.5234" rx="3" ry="3" style="stroke:#038048;stroke-width:1.0;fill:none;"/><text fill="#000000" font-family="sans-serif" font-size="11" lengthAdjust="spacing" textLength="129" x="27" y="178.9424">obterMaiorX : double «get»</text><ellipse cx="18" cy="188.3594" rx="3" ry="3" style="stroke:#038048;stroke-width:1.0;fill:none;"/><text fill="#000000" font-family="sans-serif" font-size="11" lengthAdjust="spacing" textLength="130" x="27" y="192.7783">obterMaiorY : double «get»</text><ellipse cx="18" cy="202.1953" rx="3" ry="3" style="stroke:#038048;stroke-width:1.0;fill:none;"/><text fill="#000000" font-family="sans-serif" font-size="11" lengthAdjust="spacing" textLength="129" x="27" y="206.6143">obterMaiorZ : double «get»</text><line style="stroke:#A80036;stroke-width:1.5;" x1="8" x2="518" y1="213.0313" y2="213.0313"/><ellipse cx="18" cy="224.0313" fill="#84BE84" rx="3" ry="3" style="stroke:#038048;stroke-width:1.0;"/><text fill="#000000" font-family="sans-serif" font-size="11" lengthAdjust="spacing" textLength="486" x="27" y="228.4502">BBox(menorX:double, menorY:double, menorZ:double, maiorX:double, maiorY:double, maiorZ:double)</text><ellipse cx="18" cy="237.8672" fill="#84BE84" rx="3" ry="3" style="stroke:#038048;stroke-width:1.0;"/><text fill="#000000" font-family="sans-serif" font-size="11" lengthAdjust="spacing" textLength="130" x="27" y="242.2861">Atribuir(pto:Ponto4D) : void</text><ellipse cx="18" cy="251.7031" fill="#84BE84" rx="3" ry="3" style="stroke:#038048;stroke-width:1.0;"/><text fill="#000000" font-family="sans-serif" font-size="11" lengthAdjust="spacing" textLength="138" x="27" y="256.1221">Atualizar(pto:Ponto4D) : void</text><ellipse cx="18" cy="265.5391" fill="#84BE84" rx="3" ry="3" style="stroke:#038048;stroke-width:1.0;"/><text fill="#000000" font-family="sans-serif" font-size="11" lengthAdjust="spacing" textLength="215" x="27" y="269.958">Atualizar(x:double, y:double, z:double) : void</text><ellipse cx="18" cy="279.375" fill="#84BE84" rx="3" ry="3" style="stroke:#038048;stroke-width:1.0;"/><text fill="#000000" font-family="sans-serif" font-size="11" lengthAdjust="spacing" textLength="178" x="27" y="283.7939">EstaDentro(x:double, y:double) : bool</text><ellipse cx="18" cy="293.2109" fill="#84BE84" rx="3" ry="3" style="stroke:#038048;stroke-width:1.0;"/><text fill="#000000" font-family="sans-serif" font-size="11" lengthAdjust="spacing" textLength="375" x="27" y="297.6299">VerificaScanline(x:double, y:double, pontos:List&lt;Ponto4D&gt;, aberto:bool) : bool</text><ellipse cx="18" cy="307.0469" fill="#84BE84" rx="3" ry="3" style="stroke:#038048;stroke-width:1.0;"/><text fill="#000000" font-family="sans-serif" font-size="11" lengthAdjust="spacing" textLength="119" x="27" y="311.4658">ProcessarCentro() : void</text><ellipse cx="18" cy="320.8828" fill="#84BE84" rx="3" ry="3" style="stroke:#038048;stroke-width:1.0;"/><text fill="#000000" font-family="sans-serif" font-size="11" lengthAdjust="spacing" textLength="84" x="27" y="325.3018">Desenhar() : void</text><ellipse cx="18" cy="334.7188" fill="#84BE84" rx="3" ry="3" style="stroke:#038048;stroke-width:1.0;"/><text fill="#000000" font-family="sans-serif" font-size="11" lengthAdjust="spacing" textLength="139" x="27" y="339.1377">«override» ToString() : string</text><ellipse cx="18" cy="348.5547" fill="#84BE84" rx="3" ry="3" style="stroke:#038048;stroke-width:1.0;"/><text fill="#000000" font-family="sans-serif" font-size="11" lengthAdjust="spacing" textLength="301" x="27" y="352.9736">AtualizaBBox(x:double, y:double, pontos:List&lt;Ponto4D&gt;) : void</text><ellipse cx="18" cy="362.3906" fill="#84BE84" rx="3" ry="3" style="stroke:#038048;stroke-width:1.0;"/><text fill="#000000" font-family="sans-serif" font-size="11" lengthAdjust="spacing" textLength="207" x="27" y="366.8096">AtualizaBBox(pontos:List&lt;Ponto4D&gt;) : void</text><!--MD5=[ef5ff341dffd6737742a54781c8b5648]
class Ponto4D--><rect fill="#FEFECE" filter="url(#f195e96gl6kb62)" height="48" id="Ponto4D" style="stroke:#A80036;stroke-width:1.5;" width="80" x="554" y="166"/><ellipse cx="569" cy="182" fill="#ADD1B2" rx="11" ry="11" style="stroke:#A80036;stroke-width:1.0;"/><path d="M571.7656,177.875 Q571.9219,177.6563 572.1094,177.5469 Q572.2969,177.4375 572.5156,177.4375 Q572.8906,177.4375 573.125,177.7031 Q573.3594,177.9531 573.3594,178.5625 L573.3594,180.0156 Q573.3594,180.625 573.125,180.8906 Q572.8906,181.1563 572.5156,181.1563 Q572.1719,181.1563 571.9688,180.9531 Q571.7656,180.7656 571.6563,180.25 Q571.6094,179.8906 571.4219,179.7031 Q571.0938,179.3281 570.4844,179.1094 Q569.875,178.8906 569.25,178.8906 Q568.4844,178.8906 567.8438,179.2188 Q567.2188,179.5469 566.7188,180.2969 Q566.2344,181.0469 566.2344,182.0781 L566.2344,183.1719 Q566.2344,184.4063 567.125,185.2344 Q568.0156,186.0469 569.6094,186.0469 Q570.5469,186.0469 571.2031,185.7969 Q571.5938,185.6406 572.0156,185.2031 Q572.2813,184.9375 572.4219,184.8594 Q572.5781,184.7813 572.7813,184.7813 Q573.1094,184.7813 573.3594,185.0469 Q573.625,185.2969 573.625,185.6406 Q573.625,185.9844 573.2813,186.3906 Q572.7813,186.9688 571.9844,187.2969 Q570.9063,187.75 569.6094,187.75 Q568.0938,187.75 566.8906,187.125 Q565.9063,186.625 565.2188,185.5625 Q564.5313,184.4844 564.5313,183.2031 L564.5313,182.0469 Q564.5313,180.7188 565.1406,179.5781 Q565.7656,178.4219 566.8594,177.8125 Q567.9531,177.1875 569.1875,177.1875 Q569.9219,177.1875 570.5625,177.3594 Q571.2188,177.5156 571.7656,177.875 Z " fill="#000000"/><text fill="#000000" font-family="sans-serif" font-size="12" lengthAdjust="spacing" textLength="48" x="583" y="186.9102">Ponto4D</text><line style="stroke:#A80036;stroke-width:1.5;" x1="555" x2="633" y1="198" y2="198"/><line style="stroke:#A80036;stroke-width:1.5;" x1="555" x2="633" y1="206" y2="206"/><!--MD5=[21d10fafb72c8ad2b9cea5ee0b564837]
link BBox to Ponto4D--><path codeLine="26" d="M527.6843,277.908 C527.6843,277.908 557.17,245.29 571.35,224.99 " fill="none" id="BBox-Ponto4D" style="stroke:#A80036;stroke-width:1.0;"/><polygon fill="#A80036" points="578.77,214.1,570.3985,219.2882,575.956,218.233,577.0113,223.7906,578.77,214.1" style="stroke:#A80036;stroke-width:1.0;"/><line style="stroke:#A80036;stroke-width:1.0;" x1="575.956" x2="571.45" y1="218.233" y2="224.85"/><polygon fill="#FFFFFF" points="519.01,286.2,526.1111,284.9454,527.6843,277.908,520.5831,279.1626,519.01,286.2" style="stroke:#A80036;stroke-width:1.0;"/><text fill="#000000" font-family="sans-serif" font-size="13" lengthAdjust="spacing" textLength="36" x="534.6702" y="235.4623">centro</text><!--MD5=[21d10fafb72c8ad2b9cea5ee0b564837]
link BBox to Ponto4D--><path codeLine="27" d="M519.01,93.8 C537.99,111.02 556.98,133.66 575.97,161.72 " fill="none" id="BBox-to-Ponto4D" style="stroke:#A80036;stroke-width:1.0;"/><polygon fill="#A80036" points="578.77,165.9,577.0828,156.1967,575.9866,161.7463,570.437,160.6501,578.77,165.9" style="stroke:#A80036;stroke-width:1.0;"/><text fill="#000000" font-family="sans-serif" font-size="13" lengthAdjust="spacing" textLength="67" x="583.4517" y="155.2145">obterCentro</text><!--MD5=[443a97489f87ff146b960e50beb1b130]
@startuml
class BBox {
    - menorX : double
    - menorY : double
    - menorZ : double
    - maiorX : double
    - maiorY : double
    - maiorZ : double
    + BBox(menorX:double, menorY:double, menorZ:double, maiorX:double, maiorY:double, maiorZ:double)
    + Atribuir(pto:Ponto4D) : void
    + Atualizar(pto:Ponto4D) : void
    + Atualizar(x:double, y:double, z:double) : void
    + EstaDentro(x:double, y:double) : bool
    + VerificaScanline(x:double, y:double, pontos:List<Ponto4D>, aberto:bool) : bool
    + ProcessarCentro() : void
    + Desenhar() : void
    + obterMenorX : double <<get>>
    + obterMenorY : double <<get>>
    + obterMenorZ : double <<get>>
    + obterMaiorX : double <<get>>
    + obterMaiorY : double <<get>>
    + obterMaiorZ : double <<get>>
    + <<override>> ToString() : string
    + AtualizaBBox(x:double, y:double, pontos:List<Ponto4D>) : void
    + AtualizaBBox(pontos:List<Ponto4D>) : void
}
BBox o-> "centro" Ponto4D
BBox - -> "obterCentro" Ponto4D
@enduml

PlantUML version 1.2022.0(Tue Jan 11 13:16:42 BRT 2022)
(GPL source distribution)
Java Runtime: Java(TM) SE Runtime Environment
JVM: Java HotSpot(TM) 64-Bit Server VM
Default Encoding: Cp1252
Language: en
Country: US
--></g></svg>