<?xml version="1.0" encoding="UTF-8" standalone="no"?><svg xmlns="http://www.w3.org/2000/svg" xmlns:xlink="http://www.w3.org/1999/xlink" contentScriptType="application/ecmascript" contentStyleType="text/css" height="207px" preserveAspectRatio="none" style="width:280px;height:207px;background:#FFFFFF;" version="1.1" viewBox="0 0 280 207" width="280px" zoomAndPan="magnify"><defs><filter height="300%" id="fk7nanlgj39db" width="300%" x="-1" y="-1"><feGaussianBlur result="blurOut" stdDeviation="2.0"/><feColorMatrix in="blurOut" result="blurOut2" type="matrix" values="0 0 0 0 0 0 0 0 0 0 0 0 0 0 0 0 0 0 .4 0"/><feOffset dx="4.0" dy="4.0" in="blurOut2" result="blurOut3"/><feBlend in="SourceGraphic" in2="blurOut3" mode="normal"/></filter></defs><g><!--MD5=[9ac43fafcd0ede942dc8e681a30a1b52]
class Cor--><rect codeLine="1" fill="#FEFECE" filter="url(#fk7nanlgj39db)" height="186.3594" id="Cor" style="stroke:#A80036;stroke-width:1.5;" width="259" x="7" y="7"/><ellipse cx="122.25" cy="23" fill="#ADD1B2" rx="11" ry="11" style="stroke:#A80036;stroke-width:1.0;"/><path d="M125.0156,18.875 Q125.1719,18.6563 125.3594,18.5469 Q125.5469,18.4375 125.7656,18.4375 Q126.1406,18.4375 126.375,18.7031 Q126.6094,18.9531 126.6094,19.5625 L126.6094,21.0156 Q126.6094,21.625 126.375,21.8906 Q126.1406,22.1563 125.7656,22.1563 Q125.4219,22.1563 125.2188,21.9531 Q125.0156,21.7656 124.9063,21.25 Q124.8594,20.8906 124.6719,20.7031 Q124.3438,20.3281 123.7344,20.1094 Q123.125,19.8906 122.5,19.8906 Q121.7344,19.8906 121.0938,20.2188 Q120.4688,20.5469 119.9688,21.2969 Q119.4844,22.0469 119.4844,23.0781 L119.4844,24.1719 Q119.4844,25.4063 120.375,26.2344 Q121.2656,27.0469 122.8594,27.0469 Q123.7969,27.0469 124.4531,26.7969 Q124.8438,26.6406 125.2656,26.2031 Q125.5313,25.9375 125.6719,25.8594 Q125.8281,25.7813 126.0313,25.7813 Q126.3594,25.7813 126.6094,26.0469 Q126.875,26.2969 126.875,26.6406 Q126.875,26.9844 126.5313,27.3906 Q126.0313,27.9688 125.2344,28.2969 Q124.1563,28.75 122.8594,28.75 Q121.3438,28.75 120.1406,28.125 Q119.1563,27.625 118.4688,26.5625 Q117.7813,25.4844 117.7813,24.2031 L117.7813,23.0469 Q117.7813,21.7188 118.3906,20.5781 Q119.0156,19.4219 120.1094,18.8125 Q121.2031,18.1875 122.4375,18.1875 Q123.1719,18.1875 123.8125,18.3594 Q124.4688,18.5156 125.0156,18.875 Z " fill="#000000"/><text fill="#000000" font-family="sans-serif" font-size="12" lengthAdjust="spacing" textLength="20" x="142.75" y="27.9102">Cor</text><line style="stroke:#A80036;stroke-width:1.5;" x1="8" x2="265" y1="39" y2="39"/><rect fill="none" height="6" style="stroke:#C82930;stroke-width:1.0;" width="6" x="15" y="47"/><text fill="#000000" font-family="sans-serif" font-size="11" lengthAdjust="spacing" textLength="53" x="27" y="54.4189">corR : byte</text><rect fill="none" height="6" style="stroke:#C82930;stroke-width:1.0;" width="6" x="15" y="60.8359"/><text fill="#000000" font-family="sans-serif" font-size="11" lengthAdjust="spacing" textLength="54" x="27" y="68.2549">corG : byte</text><rect fill="none" height="6" style="stroke:#C82930;stroke-width:1.0;" width="6" x="15" y="74.6719"/><text fill="#000000" font-family="sans-serif" font-size="11" lengthAdjust="spacing" textLength="53" x="27" y="82.0908">corB : byte</text><rect fill="none" height="6" style="stroke:#C82930;stroke-width:1.0;" width="6" x="15" y="88.5078"/><text fill="#000000" font-family="sans-serif" font-size="11" lengthAdjust="spacing" textLength="54" x="27" y="95.9268">corA : byte</text><ellipse cx="18" cy="105.3438" rx="3" ry="3" style="stroke:#038048;stroke-width:1.0;fill:none;"/><text fill="#000000" font-family="sans-serif" font-size="11" lengthAdjust="spacing" textLength="114" x="27" y="109.7627">CorR : byte «get» «set»</text><ellipse cx="18" cy="119.1797" rx="3" ry="3" style="stroke:#038048;stroke-width:1.0;fill:none;"/><text fill="#000000" font-family="sans-serif" font-size="11" lengthAdjust="spacing" textLength="115" x="27" y="123.5986">CorG : byte «get» «set»</text><ellipse cx="18" cy="133.0156" rx="3" ry="3" style="stroke:#038048;stroke-width:1.0;fill:none;"/><text fill="#000000" font-family="sans-serif" font-size="11" lengthAdjust="spacing" textLength="114" x="27" y="137.4346">CorB : byte «get» «set»</text><ellipse cx="18" cy="146.8516" rx="3" ry="3" style="stroke:#038048;stroke-width:1.0;fill:none;"/><text fill="#000000" font-family="sans-serif" font-size="11" lengthAdjust="spacing" textLength="115" x="27" y="151.2705">CorA : byte «get» «set»</text><line style="stroke:#A80036;stroke-width:1.5;" x1="8" x2="265" y1="157.6875" y2="157.6875"/><ellipse cx="18" cy="168.6875" fill="#84BE84" rx="3" ry="3" style="stroke:#038048;stroke-width:1.0;"/><text fill="#000000" font-family="sans-serif" font-size="11" lengthAdjust="spacing" textLength="233" x="27" y="173.1064">Cor(corR:byte, corG:byte, corB:byte, corA:byte)</text><ellipse cx="18" cy="182.5234" fill="#84BE84" rx="3" ry="3" style="stroke:#038048;stroke-width:1.0;"/><text fill="#000000" font-family="sans-serif" font-size="11" lengthAdjust="spacing" textLength="139" x="27" y="186.9424">«override» ToString() : string</text><!--MD5=[7f8b717dedc1e26f608f6864dce77b42]
@startuml
class Cor {
    - corR : byte
    - corG : byte
    - corB : byte
    - corA : byte
    + Cor(corR:byte, corG:byte, corB:byte, corA:byte)
    + CorR : byte <<get>> <<set>>
    + CorG : byte <<get>> <<set>>
    + CorB : byte <<get>> <<set>>
    + CorA : byte <<get>> <<set>>
    + <<override>> ToString() : string
}
@enduml

PlantUML version 1.2022.0(Tue Jan 11 13:16:42 BRT 2022)
(GPL source distribution)
Java Runtime: Java(TM) SE Runtime Environment
JVM: Java HotSpot(TM) 64-Bit Server VM
Default Encoding: Cp1252
Language: en
Country: US
--></g></svg>