<?xml version="1.0" encoding="UTF-8" standalone="no"?><svg xmlns="http://www.w3.org/2000/svg" xmlns:xlink="http://www.w3.org/1999/xlink" contentScriptType="application/ecmascript" contentStyleType="text/css" height="578px" preserveAspectRatio="none" style="width:1713px;height:578px;background:#FFFFFF;" version="1.1" viewBox="0 0 1713 578" width="1713px" zoomAndPan="magnify"><defs><filter height="300%" id="f1fr5cqzkgnfsc" width="300%" x="-1" y="-1"><feGaussianBlur result="blurOut" stdDeviation="2.0"/><feColorMatrix in="blurOut" result="blurOut2" type="matrix" values="0 0 0 0 0 0 0 0 0 0 0 0 0 0 0 0 0 0 .4 0"/><feOffset dx="4.0" dy="4.0" in="blurOut2" result="blurOut3"/><feBlend in="SourceGraphic" in2="blurOut3" mode="normal"/></filter></defs><g><!--MD5=[ea10f8dc465baf5e542f54928f2443c8]
class BBox--><rect codeLine="1" fill="#FEFECE" filter="url(#f1fr5cqzkgnfsc)" height="227.8672" id="BBox" style="stroke:#A80036;stroke-width:1.5;" width="512" x="819" y="14"/><ellipse cx="1056.75" cy="30" fill="#ADD1B2" rx="11" ry="11" style="stroke:#A80036;stroke-width:1.0;"/><path d="M1059.5156,25.875 Q1059.6719,25.6563 1059.8594,25.5469 Q1060.0469,25.4375 1060.2656,25.4375 Q1060.6406,25.4375 1060.875,25.7031 Q1061.1094,25.9531 1061.1094,26.5625 L1061.1094,28.0156 Q1061.1094,28.625 1060.875,28.8906 Q1060.6406,29.1563 1060.2656,29.1563 Q1059.9219,29.1563 1059.7188,28.9531 Q1059.5156,28.7656 1059.4063,28.25 Q1059.3594,27.8906 1059.1719,27.7031 Q1058.8438,27.3281 1058.2344,27.1094 Q1057.625,26.8906 1057,26.8906 Q1056.2344,26.8906 1055.5938,27.2188 Q1054.9688,27.5469 1054.4688,28.2969 Q1053.9844,29.0469 1053.9844,30.0781 L1053.9844,31.1719 Q1053.9844,32.4063 1054.875,33.2344 Q1055.7656,34.0469 1057.3594,34.0469 Q1058.2969,34.0469 1058.9531,33.7969 Q1059.3438,33.6406 1059.7656,33.2031 Q1060.0313,32.9375 1060.1719,32.8594 Q1060.3281,32.7813 1060.5313,32.7813 Q1060.8594,32.7813 1061.1094,33.0469 Q1061.375,33.2969 1061.375,33.6406 Q1061.375,33.9844 1061.0313,34.3906 Q1060.5313,34.9688 1059.7344,35.2969 Q1058.6563,35.75 1057.3594,35.75 Q1055.8438,35.75 1054.6406,35.125 Q1053.6563,34.625 1052.9688,33.5625 Q1052.2813,32.4844 1052.2813,31.2031 L1052.2813,30.0469 Q1052.2813,28.7188 1052.8906,27.5781 Q1053.5156,26.4219 1054.6094,25.8125 Q1055.7031,25.1875 1056.9375,25.1875 Q1057.6719,25.1875 1058.3125,25.3594 Q1058.9688,25.5156 1059.5156,25.875 Z " fill="#000000"/><text fill="#000000" font-family="sans-serif" font-size="12" lengthAdjust="spacing" textLength="28" x="1077.25" y="34.9102">BBox</text><line style="stroke:#A80036;stroke-width:1.5;" x1="820" x2="1330" y1="46" y2="46"/><ellipse cx="830" cy="57" rx="3" ry="3" style="stroke:#038048;stroke-width:1.0;fill:none;"/><text fill="#000000" font-family="sans-serif" font-size="11" lengthAdjust="spacing" textLength="133" x="839" y="61.4189">obterMenorX : double «get»</text><ellipse cx="830" cy="70.8359" rx="3" ry="3" style="stroke:#038048;stroke-width:1.0;fill:none;"/><text fill="#000000" font-family="sans-serif" font-size="11" lengthAdjust="spacing" textLength="134" x="839" y="75.2549">obterMenorY : double «get»</text><ellipse cx="830" cy="84.6719" rx="3" ry="3" style="stroke:#038048;stroke-width:1.0;fill:none;"/><text fill="#000000" font-family="sans-serif" font-size="11" lengthAdjust="spacing" textLength="133" x="839" y="89.0908">obterMenorZ : double «get»</text><ellipse cx="830" cy="98.5078" rx="3" ry="3" style="stroke:#038048;stroke-width:1.0;fill:none;"/><text fill="#000000" font-family="sans-serif" font-size="11" lengthAdjust="spacing" textLength="129" x="839" y="102.9268">obterMaiorX : double «get»</text><ellipse cx="830" cy="112.3438" rx="3" ry="3" style="stroke:#038048;stroke-width:1.0;fill:none;"/><text fill="#000000" font-family="sans-serif" font-size="11" lengthAdjust="spacing" textLength="130" x="839" y="116.7627">obterMaiorY : double «get»</text><ellipse cx="830" cy="126.1797" rx="3" ry="3" style="stroke:#038048;stroke-width:1.0;fill:none;"/><text fill="#000000" font-family="sans-serif" font-size="11" lengthAdjust="spacing" textLength="129" x="839" y="130.5986">obterMaiorZ : double «get»</text><line style="stroke:#A80036;stroke-width:1.5;" x1="820" x2="1330" y1="137.0156" y2="137.0156"/><ellipse cx="830" cy="148.0156" fill="#84BE84" rx="3" ry="3" style="stroke:#038048;stroke-width:1.0;"/><text fill="#000000" font-family="sans-serif" font-size="11" lengthAdjust="spacing" textLength="486" x="839" y="152.4346">BBox(menorX:double, menorY:double, menorZ:double, maiorX:double, maiorY:double, maiorZ:double)</text><ellipse cx="830" cy="161.8516" fill="#84BE84" rx="3" ry="3" style="stroke:#038048;stroke-width:1.0;"/><text fill="#000000" font-family="sans-serif" font-size="11" lengthAdjust="spacing" textLength="130" x="839" y="166.2705">Atribuir(pto:Ponto4D) : void</text><ellipse cx="830" cy="175.6875" fill="#84BE84" rx="3" ry="3" style="stroke:#038048;stroke-width:1.0;"/><text fill="#000000" font-family="sans-serif" font-size="11" lengthAdjust="spacing" textLength="138" x="839" y="180.1064">Atualizar(pto:Ponto4D) : void</text><ellipse cx="830" cy="189.5234" fill="#84BE84" rx="3" ry="3" style="stroke:#038048;stroke-width:1.0;"/><text fill="#000000" font-family="sans-serif" font-size="11" lengthAdjust="spacing" textLength="215" x="839" y="193.9424">Atualizar(x:double, y:double, z:double) : void</text><ellipse cx="830" cy="203.3594" fill="#84BE84" rx="3" ry="3" style="stroke:#038048;stroke-width:1.0;"/><text fill="#000000" font-family="sans-serif" font-size="11" lengthAdjust="spacing" textLength="119" x="839" y="207.7783">ProcessarCentro() : void</text><ellipse cx="830" cy="217.1953" fill="#84BE84" rx="3" ry="3" style="stroke:#038048;stroke-width:1.0;"/><text fill="#000000" font-family="sans-serif" font-size="11" lengthAdjust="spacing" textLength="84" x="839" y="221.6143">Desenhar() : void</text><ellipse cx="830" cy="231.0313" fill="#84BE84" rx="3" ry="3" style="stroke:#038048;stroke-width:1.0;"/><text fill="#000000" font-family="sans-serif" font-size="11" lengthAdjust="spacing" textLength="139" x="839" y="235.4502">«override» ToString() : string</text><!--MD5=[ef5ff341dffd6737742a54781c8b5648]
class Ponto4D--><rect codeLine="56" fill="#FEFECE" filter="url(#f1fr5cqzkgnfsc)" height="144.8516" id="Ponto4D" style="stroke:#A80036;stroke-width:1.5;" width="260" x="945" y="364.5"/><ellipse cx="1046.75" cy="380.5" fill="#ADD1B2" rx="11" ry="11" style="stroke:#A80036;stroke-width:1.0;"/><path d="M1049.5156,376.375 Q1049.6719,376.1563 1049.8594,376.0469 Q1050.0469,375.9375 1050.2656,375.9375 Q1050.6406,375.9375 1050.875,376.2031 Q1051.1094,376.4531 1051.1094,377.0625 L1051.1094,378.5156 Q1051.1094,379.125 1050.875,379.3906 Q1050.6406,379.6563 1050.2656,379.6563 Q1049.9219,379.6563 1049.7188,379.4531 Q1049.5156,379.2656 1049.4063,378.75 Q1049.3594,378.3906 1049.1719,378.2031 Q1048.8438,377.8281 1048.2344,377.6094 Q1047.625,377.3906 1047,377.3906 Q1046.2344,377.3906 1045.5938,377.7188 Q1044.9688,378.0469 1044.4688,378.7969 Q1043.9844,379.5469 1043.9844,380.5781 L1043.9844,381.6719 Q1043.9844,382.9063 1044.875,383.7344 Q1045.7656,384.5469 1047.3594,384.5469 Q1048.2969,384.5469 1048.9531,384.2969 Q1049.3438,384.1406 1049.7656,383.7031 Q1050.0313,383.4375 1050.1719,383.3594 Q1050.3281,383.2813 1050.5313,383.2813 Q1050.8594,383.2813 1051.1094,383.5469 Q1051.375,383.7969 1051.375,384.1406 Q1051.375,384.4844 1051.0313,384.8906 Q1050.5313,385.4688 1049.7344,385.7969 Q1048.6563,386.25 1047.3594,386.25 Q1045.8438,386.25 1044.6406,385.625 Q1043.6563,385.125 1042.9688,384.0625 Q1042.2813,382.9844 1042.2813,381.7031 L1042.2813,380.5469 Q1042.2813,379.2188 1042.8906,378.0781 Q1043.5156,376.9219 1044.6094,376.3125 Q1045.7031,375.6875 1046.9375,375.6875 Q1047.6719,375.6875 1048.3125,375.8594 Q1048.9688,376.0156 1049.5156,376.375 Z " fill="#000000"/><text fill="#000000" font-family="sans-serif" font-size="12" lengthAdjust="spacing" textLength="48" x="1067.25" y="385.4102">Ponto4D</text><line style="stroke:#A80036;stroke-width:1.5;" x1="946" x2="1204" y1="396.5" y2="396.5"/><ellipse cx="956" cy="407.5" rx="3" ry="3" style="stroke:#038048;stroke-width:1.0;fill:none;"/><text fill="#000000" font-family="sans-serif" font-size="11" lengthAdjust="spacing" textLength="108" x="965" y="411.9189">X : double «get» «set»</text><ellipse cx="956" cy="421.3359" rx="3" ry="3" style="stroke:#038048;stroke-width:1.0;fill:none;"/><text fill="#000000" font-family="sans-serif" font-size="11" lengthAdjust="spacing" textLength="109" x="965" y="425.7549">Y : double «get» «set»</text><ellipse cx="956" cy="435.1719" rx="3" ry="3" style="stroke:#038048;stroke-width:1.0;fill:none;"/><text fill="#000000" font-family="sans-serif" font-size="11" lengthAdjust="spacing" textLength="108" x="965" y="439.5908">Z : double «get» «set»</text><ellipse cx="956" cy="449.0078" rx="3" ry="3" style="stroke:#038048;stroke-width:1.0;fill:none;"/><text fill="#000000" font-family="sans-serif" font-size="11" lengthAdjust="spacing" textLength="81" x="965" y="453.4268">W : double «get»</text><line style="stroke:#A80036;stroke-width:1.5;" x1="946" x2="1204" y1="459.8438" y2="459.8438"/><ellipse cx="956" cy="470.8438" fill="#84BE84" rx="3" ry="3" style="stroke:#038048;stroke-width:1.0;"/><text fill="#000000" font-family="sans-serif" font-size="11" lengthAdjust="spacing" textLength="234" x="965" y="475.2627">Ponto4D(x:double, y:double, z:double, w:double)</text><ellipse cx="956" cy="484.6797" fill="#84BE84" rx="3" ry="3" style="stroke:#038048;stroke-width:1.0;"/><text fill="#000000" font-family="sans-serif" font-size="11" lengthAdjust="spacing" textLength="106" x="965" y="489.0986">Ponto4D(pto:Ponto4D)</text><ellipse cx="956" cy="498.5156" fill="#84BE84" rx="3" ry="3" style="stroke:#038048;stroke-width:1.0;"/><text fill="#000000" font-family="sans-serif" font-size="11" lengthAdjust="spacing" textLength="139" x="965" y="502.9346">«override» ToString() : string</text><!--MD5=[a7a8f22eafb289696c295eb36d2b4bda]
class CameraOrtho--><rect codeLine="17" fill="#FEFECE" filter="url(#f1fr5cqzkgnfsc)" height="241.7031" id="CameraOrtho" style="stroke:#A80036;stroke-width:1.5;" width="482" x="7" y="7"/><ellipse cx="206.25" cy="23" fill="#ADD1B2" rx="11" ry="11" style="stroke:#A80036;stroke-width:1.0;"/><path d="M209.0156,18.875 Q209.1719,18.6563 209.3594,18.5469 Q209.5469,18.4375 209.7656,18.4375 Q210.1406,18.4375 210.375,18.7031 Q210.6094,18.9531 210.6094,19.5625 L210.6094,21.0156 Q210.6094,21.625 210.375,21.8906 Q210.1406,22.1563 209.7656,22.1563 Q209.4219,22.1563 209.2188,21.9531 Q209.0156,21.7656 208.9063,21.25 Q208.8594,20.8906 208.6719,20.7031 Q208.3438,20.3281 207.7344,20.1094 Q207.125,19.8906 206.5,19.8906 Q205.7344,19.8906 205.0938,20.2188 Q204.4688,20.5469 203.9688,21.2969 Q203.4844,22.0469 203.4844,23.0781 L203.4844,24.1719 Q203.4844,25.4063 204.375,26.2344 Q205.2656,27.0469 206.8594,27.0469 Q207.7969,27.0469 208.4531,26.7969 Q208.8438,26.6406 209.2656,26.2031 Q209.5313,25.9375 209.6719,25.8594 Q209.8281,25.7813 210.0313,25.7813 Q210.3594,25.7813 210.6094,26.0469 Q210.875,26.2969 210.875,26.6406 Q210.875,26.9844 210.5313,27.3906 Q210.0313,27.9688 209.2344,28.2969 Q208.1563,28.75 206.8594,28.75 Q205.3438,28.75 204.1406,28.125 Q203.1563,27.625 202.4688,26.5625 Q201.7813,25.4844 201.7813,24.2031 L201.7813,23.0469 Q201.7813,21.7188 202.3906,20.5781 Q203.0156,19.4219 204.1094,18.8125 Q205.2031,18.1875 206.4375,18.1875 Q207.1719,18.1875 207.8125,18.3594 Q208.4688,18.5156 209.0156,18.875 Z " fill="#000000"/><text fill="#000000" font-family="sans-serif" font-size="12" lengthAdjust="spacing" textLength="75" x="226.75" y="27.9102">CameraOrtho</text><line style="stroke:#A80036;stroke-width:1.5;" x1="8" x2="488" y1="39" y2="39"/><ellipse cx="18" cy="50" rx="3" ry="3" style="stroke:#038048;stroke-width:1.0;fill:none;"/><text fill="#000000" font-family="sans-serif" font-size="11" lengthAdjust="spacing" textLength="123" x="27" y="54.4189">xmin : double «get» «set»</text><ellipse cx="18" cy="63.8359" rx="3" ry="3" style="stroke:#038048;stroke-width:1.0;fill:none;"/><text fill="#000000" font-family="sans-serif" font-size="11" lengthAdjust="spacing" textLength="127" x="27" y="68.2549">xmax : double «get» «set»</text><ellipse cx="18" cy="77.6719" rx="3" ry="3" style="stroke:#038048;stroke-width:1.0;fill:none;"/><text fill="#000000" font-family="sans-serif" font-size="11" lengthAdjust="spacing" textLength="123" x="27" y="82.0908">ymin : double «get» «set»</text><ellipse cx="18" cy="91.5078" rx="3" ry="3" style="stroke:#038048;stroke-width:1.0;fill:none;"/><text fill="#000000" font-family="sans-serif" font-size="11" lengthAdjust="spacing" textLength="127" x="27" y="95.9268">ymax : double «get» «set»</text><ellipse cx="18" cy="105.3438" rx="3" ry="3" style="stroke:#038048;stroke-width:1.0;fill:none;"/><text fill="#000000" font-family="sans-serif" font-size="11" lengthAdjust="spacing" textLength="123" x="27" y="109.7627">zmin : double «get» «set»</text><ellipse cx="18" cy="119.1797" rx="3" ry="3" style="stroke:#038048;stroke-width:1.0;fill:none;"/><text fill="#000000" font-family="sans-serif" font-size="11" lengthAdjust="spacing" textLength="127" x="27" y="123.5986">zmax : double «get» «set»</text><line style="stroke:#A80036;stroke-width:1.5;" x1="8" x2="488" y1="130.0156" y2="130.0156"/><ellipse cx="18" cy="141.0156" fill="#84BE84" rx="3" ry="3" style="stroke:#038048;stroke-width:1.0;"/><text fill="#000000" font-family="sans-serif" font-size="11" lengthAdjust="spacing" textLength="456" x="27" y="145.4346">CameraOrtho(xMin:double, xMax:double, yMin:double, yMax:double, zMin:double, zMax:double)</text><ellipse cx="18" cy="154.8516" fill="#84BE84" rx="3" ry="3" style="stroke:#038048;stroke-width:1.0;"/><text fill="#000000" font-family="sans-serif" font-size="11" lengthAdjust="spacing" textLength="101" x="27" y="159.2705">PanEsquerda() : void</text><ellipse cx="18" cy="168.6875" fill="#84BE84" rx="3" ry="3" style="stroke:#038048;stroke-width:1.0;"/><text fill="#000000" font-family="sans-serif" font-size="11" lengthAdjust="spacing" textLength="85" x="27" y="173.1064">PanDireita() : void</text><ellipse cx="18" cy="182.5234" fill="#84BE84" rx="3" ry="3" style="stroke:#038048;stroke-width:1.0;"/><text fill="#000000" font-family="sans-serif" font-size="11" lengthAdjust="spacing" textLength="78" x="27" y="186.9424">PanCima() : void</text><ellipse cx="18" cy="196.3594" fill="#84BE84" rx="3" ry="3" style="stroke:#038048;stroke-width:1.0;"/><text fill="#000000" font-family="sans-serif" font-size="11" lengthAdjust="spacing" textLength="82" x="27" y="200.7783">PanBaixo() : void</text><ellipse cx="18" cy="210.1953" fill="#84BE84" rx="3" ry="3" style="stroke:#038048;stroke-width:1.0;"/><text fill="#000000" font-family="sans-serif" font-size="11" lengthAdjust="spacing" textLength="72" x="27" y="214.6143">ZoomIn() : void</text><ellipse cx="18" cy="224.0313" fill="#84BE84" rx="3" ry="3" style="stroke:#038048;stroke-width:1.0;"/><text fill="#000000" font-family="sans-serif" font-size="11" lengthAdjust="spacing" textLength="81" x="27" y="228.4502">ZoomOut() : void</text><ellipse cx="18" cy="237.8672" fill="#84BE84" rx="3" ry="3" style="stroke:#038048;stroke-width:1.0;"/><text fill="#000000" font-family="sans-serif" font-size="11" lengthAdjust="spacing" textLength="139" x="27" y="242.2861">«override» ToString() : string</text><!--MD5=[c3851e40b8ed2f68ee08d490e0f0cd81]
class CameraPerspective--><rect codeLine="33" fill="#FEFECE" filter="url(#f1fr5cqzkgnfsc)" height="131.0156" id="CameraPerspective" style="stroke:#A80036;stroke-width:1.5;" width="333" x="1366.5" y="62.5"/><ellipse cx="1474.25" cy="78.5" fill="#ADD1B2" rx="11" ry="11" style="stroke:#A80036;stroke-width:1.0;"/><path d="M1477.0156,74.375 Q1477.1719,74.1563 1477.3594,74.0469 Q1477.5469,73.9375 1477.7656,73.9375 Q1478.1406,73.9375 1478.375,74.2031 Q1478.6094,74.4531 1478.6094,75.0625 L1478.6094,76.5156 Q1478.6094,77.125 1478.375,77.3906 Q1478.1406,77.6563 1477.7656,77.6563 Q1477.4219,77.6563 1477.2188,77.4531 Q1477.0156,77.2656 1476.9063,76.75 Q1476.8594,76.3906 1476.6719,76.2031 Q1476.3438,75.8281 1475.7344,75.6094 Q1475.125,75.3906 1474.5,75.3906 Q1473.7344,75.3906 1473.0938,75.7188 Q1472.4688,76.0469 1471.9688,76.7969 Q1471.4844,77.5469 1471.4844,78.5781 L1471.4844,79.6719 Q1471.4844,80.9063 1472.375,81.7344 Q1473.2656,82.5469 1474.8594,82.5469 Q1475.7969,82.5469 1476.4531,82.2969 Q1476.8438,82.1406 1477.2656,81.7031 Q1477.5313,81.4375 1477.6719,81.3594 Q1477.8281,81.2813 1478.0313,81.2813 Q1478.3594,81.2813 1478.6094,81.5469 Q1478.875,81.7969 1478.875,82.1406 Q1478.875,82.4844 1478.5313,82.8906 Q1478.0313,83.4688 1477.2344,83.7969 Q1476.1563,84.25 1474.8594,84.25 Q1473.3438,84.25 1472.1406,83.625 Q1471.1563,83.125 1470.4688,82.0625 Q1469.7813,80.9844 1469.7813,79.7031 L1469.7813,78.5469 Q1469.7813,77.2188 1470.3906,76.0781 Q1471.0156,74.9219 1472.1094,74.3125 Q1473.2031,73.6875 1474.4375,73.6875 Q1475.1719,73.6875 1475.8125,73.8594 Q1476.4688,74.0156 1477.0156,74.375 Z " fill="#000000"/><text fill="#000000" font-family="sans-serif" font-size="12" lengthAdjust="spacing" textLength="109" x="1494.75" y="83.4102">CameraPerspective</text><line style="stroke:#A80036;stroke-width:1.5;" x1="1367.5" x2="1698.5" y1="94.5" y2="94.5"/><ellipse cx="1377.5" cy="105.5" rx="3" ry="3" style="stroke:#038048;stroke-width:1.0;fill:none;"/><text fill="#000000" font-family="sans-serif" font-size="11" lengthAdjust="spacing" textLength="114" x="1386.5" y="109.9189">Fovy : float «get» «set»</text><ellipse cx="1377.5" cy="119.3359" rx="3" ry="3" style="stroke:#038048;stroke-width:1.0;fill:none;"/><text fill="#000000" font-family="sans-serif" font-size="11" lengthAdjust="spacing" textLength="125" x="1386.5" y="123.7549">Aspect : float «get» «set»</text><ellipse cx="1377.5" cy="133.1719" rx="3" ry="3" style="stroke:#038048;stroke-width:1.0;fill:none;"/><text fill="#000000" font-family="sans-serif" font-size="11" lengthAdjust="spacing" textLength="113" x="1386.5" y="137.5908">Near : float «get» «set»</text><ellipse cx="1377.5" cy="147.0078" rx="3" ry="3" style="stroke:#038048;stroke-width:1.0;fill:none;"/><text fill="#000000" font-family="sans-serif" font-size="11" lengthAdjust="spacing" textLength="106" x="1386.5" y="151.4268">Far : float «get» «set»</text><line style="stroke:#A80036;stroke-width:1.5;" x1="1367.5" x2="1698.5" y1="157.8438" y2="157.8438"/><ellipse cx="1377.5" cy="168.8438" fill="#84BE84" rx="3" ry="3" style="stroke:#038048;stroke-width:1.0;"/><text fill="#000000" font-family="sans-serif" font-size="11" lengthAdjust="spacing" textLength="307" x="1386.5" y="173.2627">CameraPerspective(fovy:float, aspect:float, near:float, far:float)</text><ellipse cx="1377.5" cy="182.6797" fill="#84BE84" rx="3" ry="3" style="stroke:#038048;stroke-width:1.0;"/><text fill="#000000" font-family="sans-serif" font-size="11" lengthAdjust="spacing" textLength="139" x="1386.5" y="187.0986">«override» ToString() : string</text><!--MD5=[65d619c042c23702cef2ca07d67b1cf6]
class Vector3--><rect fill="#FEFECE" filter="url(#f1fr5cqzkgnfsc)" height="48" id="Vector3" style="stroke:#A80036;stroke-width:1.5;" width="73" x="1496.5" y="413"/><ellipse cx="1511.5" cy="429" fill="#ADD1B2" rx="11" ry="11" style="stroke:#A80036;stroke-width:1.0;"/><path d="M1514.2656,424.875 Q1514.4219,424.6563 1514.6094,424.5469 Q1514.7969,424.4375 1515.0156,424.4375 Q1515.3906,424.4375 1515.625,424.7031 Q1515.8594,424.9531 1515.8594,425.5625 L1515.8594,427.0156 Q1515.8594,427.625 1515.625,427.8906 Q1515.3906,428.1563 1515.0156,428.1563 Q1514.6719,428.1563 1514.4688,427.9531 Q1514.2656,427.7656 1514.1563,427.25 Q1514.1094,426.8906 1513.9219,426.7031 Q1513.5938,426.3281 1512.9844,426.1094 Q1512.375,425.8906 1511.75,425.8906 Q1510.9844,425.8906 1510.3438,426.2188 Q1509.7188,426.5469 1509.2188,427.2969 Q1508.7344,428.0469 1508.7344,429.0781 L1508.7344,430.1719 Q1508.7344,431.4063 1509.625,432.2344 Q1510.5156,433.0469 1512.1094,433.0469 Q1513.0469,433.0469 1513.7031,432.7969 Q1514.0938,432.6406 1514.5156,432.2031 Q1514.7813,431.9375 1514.9219,431.8594 Q1515.0781,431.7813 1515.2813,431.7813 Q1515.6094,431.7813 1515.8594,432.0469 Q1516.125,432.2969 1516.125,432.6406 Q1516.125,432.9844 1515.7813,433.3906 Q1515.2813,433.9688 1514.4844,434.2969 Q1513.4063,434.75 1512.1094,434.75 Q1510.5938,434.75 1509.3906,434.125 Q1508.4063,433.625 1507.7188,432.5625 Q1507.0313,431.4844 1507.0313,430.2031 L1507.0313,429.0469 Q1507.0313,427.7188 1507.6406,426.5781 Q1508.2656,425.4219 1509.3594,424.8125 Q1510.4531,424.1875 1511.6875,424.1875 Q1512.4219,424.1875 1513.0625,424.3594 Q1513.7188,424.5156 1514.2656,424.875 Z " fill="#000000"/><text fill="#000000" font-family="sans-serif" font-size="12" lengthAdjust="spacing" textLength="41" x="1525.5" y="433.9102">Vector3</text><line style="stroke:#A80036;stroke-width:1.5;" x1="1497.5" x2="1568.5" y1="445" y2="445"/><line style="stroke:#A80036;stroke-width:1.5;" x1="1497.5" x2="1568.5" y1="453" y2="453"/><!--MD5=[9ac43fafcd0ede942dc8e681a30a1b52]
class Cor--><rect codeLine="44" fill="#FEFECE" filter="url(#f1fr5cqzkgnfsc)" height="131.0156" id="Cor" style="stroke:#A80036;stroke-width:1.5;" width="259" x="524.5" y="62.5"/><ellipse cx="639.75" cy="78.5" fill="#ADD1B2" rx="11" ry="11" style="stroke:#A80036;stroke-width:1.0;"/><path d="M642.5156,74.375 Q642.6719,74.1563 642.8594,74.0469 Q643.0469,73.9375 643.2656,73.9375 Q643.6406,73.9375 643.875,74.2031 Q644.1094,74.4531 644.1094,75.0625 L644.1094,76.5156 Q644.1094,77.125 643.875,77.3906 Q643.6406,77.6563 643.2656,77.6563 Q642.9219,77.6563 642.7188,77.4531 Q642.5156,77.2656 642.4063,76.75 Q642.3594,76.3906 642.1719,76.2031 Q641.8438,75.8281 641.2344,75.6094 Q640.625,75.3906 640,75.3906 Q639.2344,75.3906 638.5938,75.7188 Q637.9688,76.0469 637.4688,76.7969 Q636.9844,77.5469 636.9844,78.5781 L636.9844,79.6719 Q636.9844,80.9063 637.875,81.7344 Q638.7656,82.5469 640.3594,82.5469 Q641.2969,82.5469 641.9531,82.2969 Q642.3438,82.1406 642.7656,81.7031 Q643.0313,81.4375 643.1719,81.3594 Q643.3281,81.2813 643.5313,81.2813 Q643.8594,81.2813 644.1094,81.5469 Q644.375,81.7969 644.375,82.1406 Q644.375,82.4844 644.0313,82.8906 Q643.5313,83.4688 642.7344,83.7969 Q641.6563,84.25 640.3594,84.25 Q638.8438,84.25 637.6406,83.625 Q636.6563,83.125 635.9688,82.0625 Q635.2813,80.9844 635.2813,79.7031 L635.2813,78.5469 Q635.2813,77.2188 635.8906,76.0781 Q636.5156,74.9219 637.6094,74.3125 Q638.7031,73.6875 639.9375,73.6875 Q640.6719,73.6875 641.3125,73.8594 Q641.9688,74.0156 642.5156,74.375 Z " fill="#000000"/><text fill="#000000" font-family="sans-serif" font-size="12" lengthAdjust="spacing" textLength="20" x="660.25" y="83.4102">Cor</text><line style="stroke:#A80036;stroke-width:1.5;" x1="525.5" x2="782.5" y1="94.5" y2="94.5"/><ellipse cx="535.5" cy="105.5" rx="3" ry="3" style="stroke:#038048;stroke-width:1.0;fill:none;"/><text fill="#000000" font-family="sans-serif" font-size="11" lengthAdjust="spacing" textLength="114" x="544.5" y="109.9189">CorR : byte «get» «set»</text><ellipse cx="535.5" cy="119.3359" rx="3" ry="3" style="stroke:#038048;stroke-width:1.0;fill:none;"/><text fill="#000000" font-family="sans-serif" font-size="11" lengthAdjust="spacing" textLength="115" x="544.5" y="123.7549">CorG : byte «get» «set»</text><ellipse cx="535.5" cy="133.1719" rx="3" ry="3" style="stroke:#038048;stroke-width:1.0;fill:none;"/><text fill="#000000" font-family="sans-serif" font-size="11" lengthAdjust="spacing" textLength="114" x="544.5" y="137.5908">CorB : byte «get» «set»</text><ellipse cx="535.5" cy="147.0078" rx="3" ry="3" style="stroke:#038048;stroke-width:1.0;fill:none;"/><text fill="#000000" font-family="sans-serif" font-size="11" lengthAdjust="spacing" textLength="115" x="544.5" y="151.4268">CorA : byte «get» «set»</text><line style="stroke:#A80036;stroke-width:1.5;" x1="525.5" x2="782.5" y1="157.8438" y2="157.8438"/><ellipse cx="535.5" cy="168.8438" fill="#84BE84" rx="3" ry="3" style="stroke:#038048;stroke-width:1.0;"/><text fill="#000000" font-family="sans-serif" font-size="11" lengthAdjust="spacing" textLength="233" x="544.5" y="173.2627">Cor(corR:byte, corG:byte, corB:byte, corA:byte)</text><ellipse cx="535.5" cy="182.6797" fill="#84BE84" rx="3" ry="3" style="stroke:#038048;stroke-width:1.0;"/><text fill="#000000" font-family="sans-serif" font-size="11" lengthAdjust="spacing" textLength="139" x="544.5" y="187.0986">«override» ToString() : string</text><!--MD5=[57370106b09f55ffa37deb7835ffe78b]
class Matematica--><rect codeLine="52" fill="#FEFECE" filter="url(#f1fr5cqzkgnfsc)" height="75.6719" id="Matematica" style="stroke:#A80036;stroke-width:1.5;" width="291" x="102.5" y="399"/><ellipse cx="212.25" cy="415" fill="#A9DCDF" rx="11" ry="11" style="stroke:#A80036;stroke-width:1.0;"/><path d="M214.4375,416.7656 L210.2969,416.7656 L209.875,417.7969 L210.2969,417.7969 Q210.9063,417.7969 211.1719,418.0313 Q211.4375,418.2656 211.4375,418.6563 Q211.4375,419.0313 211.1719,419.2656 Q210.9063,419.5 210.2969,419.5 L208,419.5 Q207.3906,419.5 207.1406,419.2656 Q206.875,419.0313 206.875,418.6406 Q206.875,418.2656 207.1563,418.0313 Q207.4219,417.7813 208.0469,417.7969 L210.7188,411.1406 L209.6094,411.1406 Q209,411.1406 208.7344,410.9063 Q208.4688,410.6719 208.4688,410.2813 Q208.4688,409.9063 208.7344,409.6719 Q209,409.4375 209.6094,409.4375 L213.2813,409.4375 L216.6719,417.7969 Q217.2656,417.7969 217.4531,417.9375 Q217.8438,418.2031 217.8438,418.6563 Q217.8438,419.0313 217.5781,419.2656 Q217.3281,419.5 216.7188,419.5 L214.4219,419.5 Q213.8125,419.5 213.5469,419.2656 Q213.2813,419.0313 213.2813,418.6406 Q213.2813,418.2656 213.5469,418.0313 Q213.8125,417.7969 214.4219,417.7969 L214.8438,417.7969 L214.4375,416.7656 Z M213.7188,415.0625 L212.3594,411.6875 L210.9844,415.0625 L213.7188,415.0625 Z " fill="#000000"/><text fill="#000000" font-family="sans-serif" font-size="12" font-style="italic" lengthAdjust="spacing" textLength="63" x="232.75" y="419.9102">Matematica</text><line style="stroke:#A80036;stroke-width:1.5;" x1="103.5" x2="392.5" y1="431" y2="431"/><line style="stroke:#A80036;stroke-width:1.5;" x1="103.5" x2="392.5" y1="439" y2="439"/><ellipse cx="113.5" cy="450" fill="#84BE84" rx="3" ry="3" style="stroke:#038048;stroke-width:1.0;"/><text fill="#000000" font-family="sans-serif" font-size="11" lengthAdjust="spacing" text-decoration="underline" textLength="265" x="122.5" y="454.4189">GerarPtosCirculo(angulo:double, raio:double) : Ponto4D</text><ellipse cx="113.5" cy="463.8359" fill="#84BE84" rx="3" ry="3" style="stroke:#038048;stroke-width:1.0;"/><text fill="#000000" font-family="sans-serif" font-size="11" lengthAdjust="spacing" text-decoration="underline" textLength="228" x="122.5" y="468.2549">GerarPtosCirculoSimétrico(raio:double) : double</text><!--MD5=[6746db26fbf3328699b5b65a634cc0f3]
class Transformacao4D--><rect codeLine="65" fill="#FEFECE" filter="url(#f1fr5cqzkgnfsc)" height="255.5391" id="Transformacao4D" style="stroke:#A80036;stroke-width:1.5;" width="412" x="429" y="309"/><ellipse cx="580.75" cy="325" fill="#ADD1B2" rx="11" ry="11" style="stroke:#A80036;stroke-width:1.0;"/><path d="M583.5156,320.875 Q583.6719,320.6563 583.8594,320.5469 Q584.0469,320.4375 584.2656,320.4375 Q584.6406,320.4375 584.875,320.7031 Q585.1094,320.9531 585.1094,321.5625 L585.1094,323.0156 Q585.1094,323.625 584.875,323.8906 Q584.6406,324.1563 584.2656,324.1563 Q583.9219,324.1563 583.7188,323.9531 Q583.5156,323.7656 583.4063,323.25 Q583.3594,322.8906 583.1719,322.7031 Q582.8438,322.3281 582.2344,322.1094 Q581.625,321.8906 581,321.8906 Q580.2344,321.8906 579.5938,322.2188 Q578.9688,322.5469 578.4688,323.2969 Q577.9844,324.0469 577.9844,325.0781 L577.9844,326.1719 Q577.9844,327.4063 578.875,328.2344 Q579.7656,329.0469 581.3594,329.0469 Q582.2969,329.0469 582.9531,328.7969 Q583.3438,328.6406 583.7656,328.2031 Q584.0313,327.9375 584.1719,327.8594 Q584.3281,327.7813 584.5313,327.7813 Q584.8594,327.7813 585.1094,328.0469 Q585.375,328.2969 585.375,328.6406 Q585.375,328.9844 585.0313,329.3906 Q584.5313,329.9688 583.7344,330.2969 Q582.6563,330.75 581.3594,330.75 Q579.8438,330.75 578.6406,330.125 Q577.6563,329.625 576.9688,328.5625 Q576.2813,327.4844 576.2813,326.2031 L576.2813,325.0469 Q576.2813,323.7188 576.8906,322.5781 Q577.5156,321.4219 578.6094,320.8125 Q579.7031,320.1875 580.9375,320.1875 Q581.6719,320.1875 582.3125,320.3594 Q582.9688,320.5156 583.5156,320.875 Z " fill="#000000"/><text fill="#000000" font-family="sans-serif" font-size="12" lengthAdjust="spacing" textLength="100" x="601.25" y="329.9102">Transformacao4D</text><line style="stroke:#A80036;stroke-width:1.5;" x1="430" x2="840" y1="341" y2="341"/><ellipse cx="440" cy="352" rx="3" ry="3" style="stroke:#038048;stroke-width:1.0;fill:none;"/><text fill="#000000" font-family="sans-serif" font-size="11" lengthAdjust="spacing" text-decoration="underline" textLength="386" x="449" y="356.4189">«readonly» DEG_TO_RAD : double = 0.017453292519943295769236907684886</text><line style="stroke:#A80036;stroke-width:1.5;" x1="430" x2="840" y1="362.8359" y2="362.8359"/><ellipse cx="440" cy="373.8359" fill="#84BE84" rx="3" ry="3" style="stroke:#038048;stroke-width:1.0;"/><text fill="#000000" font-family="sans-serif" font-size="11" lengthAdjust="spacing" textLength="95" x="449" y="378.2549">Transformacao4D()</text><ellipse cx="440" cy="387.6719" fill="#84BE84" rx="3" ry="3" style="stroke:#038048;stroke-width:1.0;"/><text fill="#000000" font-family="sans-serif" font-size="11" lengthAdjust="spacing" textLength="121" x="449" y="392.0908">AtribuirIdentidade() : void</text><ellipse cx="440" cy="401.5078" fill="#84BE84" rx="3" ry="3" style="stroke:#038048;stroke-width:1.0;"/><text fill="#000000" font-family="sans-serif" font-size="11" lengthAdjust="spacing" textLength="270" x="449" y="405.9268">AtribuirTranslacao(tx:double, ty:double, tz:double) : void</text><ellipse cx="440" cy="415.3438" fill="#84BE84" rx="3" ry="3" style="stroke:#038048;stroke-width:1.0;"/><text fill="#000000" font-family="sans-serif" font-size="11" lengthAdjust="spacing" textLength="261" x="449" y="419.7627">AtribuirEscala(sX:double, sY:double, sZ:double) : void</text><ellipse cx="440" cy="429.1797" fill="#84BE84" rx="3" ry="3" style="stroke:#038048;stroke-width:1.0;"/><text fill="#000000" font-family="sans-serif" font-size="11" lengthAdjust="spacing" textLength="190" x="449" y="433.5986">AtribuirRotacaoX(radians:double) : void</text><ellipse cx="440" cy="443.0156" fill="#84BE84" rx="3" ry="3" style="stroke:#038048;stroke-width:1.0;"/><text fill="#000000" font-family="sans-serif" font-size="11" lengthAdjust="spacing" textLength="191" x="449" y="447.4346">AtribuirRotacaoY(radians:double) : void</text><ellipse cx="440" cy="456.8516" fill="#84BE84" rx="3" ry="3" style="stroke:#038048;stroke-width:1.0;"/><text fill="#000000" font-family="sans-serif" font-size="11" lengthAdjust="spacing" textLength="190" x="449" y="461.2705">AtribuirRotacaoZ(radians:double) : void</text><ellipse cx="440" cy="470.6875" fill="#84BE84" rx="3" ry="3" style="stroke:#038048;stroke-width:1.0;"/><text fill="#000000" font-family="sans-serif" font-size="11" lengthAdjust="spacing" textLength="189" x="449" y="475.1064">MultiplicarPonto(pto:Ponto4D) : Ponto4D</text><ellipse cx="440" cy="484.5234" fill="#84BE84" rx="3" ry="3" style="stroke:#038048;stroke-width:1.0;"/><text fill="#000000" font-family="sans-serif" font-size="11" lengthAdjust="spacing" textLength="273" x="449" y="488.9424">MultiplicarMatriz(t:Transformacao4D) : Transformacao4D</text><ellipse cx="440" cy="498.3594" fill="#84BE84" rx="3" ry="3" style="stroke:#038048;stroke-width:1.0;"/><text fill="#000000" font-family="sans-serif" font-size="11" lengthAdjust="spacing" textLength="159" x="449" y="502.7783">ObterElemento(index:int) : double</text><ellipse cx="440" cy="512.1953" fill="#84BE84" rx="3" ry="3" style="stroke:#038048;stroke-width:1.0;"/><text fill="#000000" font-family="sans-serif" font-size="11" lengthAdjust="spacing" textLength="222" x="449" y="516.6143">AtribuirElemento(index:int, value:double) : void</text><ellipse cx="440" cy="526.0313" fill="#84BE84" rx="3" ry="3" style="stroke:#038048;stroke-width:1.0;"/><text fill="#000000" font-family="sans-serif" font-size="11" lengthAdjust="spacing" textLength="113" x="449" y="530.4502">ObterDados() : double[]</text><ellipse cx="440" cy="539.8672" fill="#84BE84" rx="3" ry="3" style="stroke:#038048;stroke-width:1.0;"/><text fill="#000000" font-family="sans-serif" font-size="11" lengthAdjust="spacing" textLength="165" x="449" y="544.2861">AtribuirDados(data:double[]) : void</text><ellipse cx="440" cy="553.7031" fill="#84BE84" rx="3" ry="3" style="stroke:#038048;stroke-width:1.0;"/><text fill="#000000" font-family="sans-serif" font-size="11" lengthAdjust="spacing" textLength="139" x="449" y="558.1221">«override» ToString() : string</text><!--MD5=[21d10fafb72c8ad2b9cea5ee0b564837]
link BBox to Ponto4D--><path codeLine="16" d="M1075,242.01 C1075,280.95 1075,323.65 1075,359.04 " fill="none" id="BBox-to-Ponto4D" style="stroke:#A80036;stroke-width:1.0;"/><polygon fill="#A80036" points="1075,364.21,1079,355.21,1075,359.21,1071,355.21,1075,364.21" style="stroke:#A80036;stroke-width:1.0;"/><text fill="#000000" font-family="sans-serif" font-size="13" lengthAdjust="spacing" textLength="67" x="1004.5453" y="353.3994">obterCentro</text><!--MD5=[f94cdd04709e36a9b2c27ce98e350cf2]
link CameraPerspective to Vector3--><path codeLine="41" d="M1511.12,193.73 C1503.73,259.93 1505.71,359.68 1517.06,407.91 " fill="none" id="CameraPerspective-to-Vector3" style="stroke:#A80036;stroke-width:1.0;"/><polygon fill="#A80036" points="1518.34,412.98,1520.0041,403.2727,1517.1105,408.1335,1512.2497,405.2399,1518.34,412.98" style="stroke:#A80036;stroke-width:1.0;"/><text fill="#000000" font-family="sans-serif" font-size="13" lengthAdjust="spacing" textLength="23" x="1488.6365" y="402.315">Eye</text><!--MD5=[f94cdd04709e36a9b2c27ce98e350cf2]
link CameraPerspective to Vector3--><path codeLine="42" d="M1533,193.73 C1533,259.93 1533,359.68 1533,407.91 " fill="none" id="CameraPerspective-to-Vector3-1" style="stroke:#A80036;stroke-width:1.0;"/><polygon fill="#A80036" points="1533,412.98,1537,403.98,1533,407.98,1529,403.98,1533,412.98" style="stroke:#A80036;stroke-width:1.0;"/><text fill="#000000" font-family="sans-serif" font-size="13" lengthAdjust="spacing" textLength="13" x="1518.3344" y="402.315">At</text><!--MD5=[f94cdd04709e36a9b2c27ce98e350cf2]
link CameraPerspective to Vector3--><path codeLine="43" d="M1554.88,193.73 C1562.27,259.93 1560.29,359.68 1548.94,407.91 " fill="none" id="CameraPerspective-to-Vector3-2" style="stroke:#A80036;stroke-width:1.0;"/><polygon fill="#A80036" points="1547.66,412.98,1553.7503,405.2399,1548.8895,408.1335,1545.9959,403.2727,1547.66,412.98" style="stroke:#A80036;stroke-width:1.0;"/><text fill="#000000" font-family="sans-serif" font-size="13" lengthAdjust="spacing" textLength="16" x="1553.4666" y="402.315">Up</text><!--MD5=[e7de986f6000fe3d6a10445085ca244f]
link CameraOrtho to Cor--><!--MD5=[4f5707986820c6ec0abd120815a0bbac]
link CameraOrtho to Matematica--><!--MD5=[ac1c1ba96eba5558ebd60a36f28c26df]
link Matematica to Transformacao4D--><!--MD5=[e5134902d8e8f0c6f8adba2add30edee]
@startuml CG_Biblioteca
class BBox {
    + BBox(menorX:double, menorY:double, menorZ:double, maiorX:double, maiorY:double, maiorZ:double)
    + Atribuir(pto:Ponto4D) : void
    + Atualizar(pto:Ponto4D) : void
    + Atualizar(x:double, y:double, z:double) : void
    + ProcessarCentro() : void
    + Desenhar() : void
    + obterMenorX : double <<get>>
    + obterMenorY : double <<get>>
    + obterMenorZ : double <<get>>
    + obterMaiorX : double <<get>>
    + obterMaiorY : double <<get>>
    + obterMaiorZ : double <<get>>
    + <<override>> ToString() : string
}
BBox - -> "obterCentro" Ponto4D
class CameraOrtho {
    + CameraOrtho(xMin:double, xMax:double, yMin:double, yMax:double, zMin:double, zMax:double)
    + xmin : double <<get>> <<set>>
    + xmax : double <<get>> <<set>>
    + ymin : double <<get>> <<set>>
    + ymax : double <<get>> <<set>>
    + zmin : double <<get>> <<set>>
    + zmax : double <<get>> <<set>>
    + PanEsquerda() : void
    + PanDireita() : void
    + PanCima() : void
    + PanBaixo() : void
    + ZoomIn() : void
    + ZoomOut() : void
    + <<override>> ToString() : string
}
class CameraPerspective {
    + CameraPerspective(fovy:float, aspect:float, near:float, far:float)
    + Fovy : float <<get>> <<set>>
    + Aspect : float <<get>> <<set>>
    + Near : float <<get>> <<set>>
    + Far : float <<get>> <<set>>
    + <<override>> ToString() : string
}
CameraPerspective - -> "Eye" Vector3
CameraPerspective - -> "At" Vector3
CameraPerspective - -> "Up" Vector3
class Cor {
    + Cor(corR:byte, corG:byte, corB:byte, corA:byte)
    + <<override>> ToString() : string
    + CorR : byte <<get>> <<set>>
    + CorG : byte <<get>> <<set>>
    + CorB : byte <<get>> <<set>>
    + CorA : byte <<get>> <<set>>
}
abstract class Matematica {
    + {static} GerarPtosCirculo(angulo:double, raio:double) : Ponto4D
    + {static} GerarPtosCirculoSimétrico(raio:double) : double
}
class Ponto4D {
    + Ponto4D(x:double, y:double, z:double, w:double)
    + Ponto4D(pto:Ponto4D)
    + X : double <<get>> <<set>>
    + Y : double <<get>> <<set>>
    + Z : double <<get>> <<set>>
    + W : double <<get>>
    + <<override>> ToString() : string
}
class Transformacao4D {
    {static} + <<readonly>> DEG_TO_RAD : double = 0.017453292519943295769236907684886
    + Transformacao4D()
    + AtribuirIdentidade() : void
    + AtribuirTranslacao(tx:double, ty:double, tz:double) : void
    + AtribuirEscala(sX:double, sY:double, sZ:double) : void
    + AtribuirRotacaoX(radians:double) : void
    + AtribuirRotacaoY(radians:double) : void
    + AtribuirRotacaoZ(radians:double) : void
    + MultiplicarPonto(pto:Ponto4D) : Ponto4D
    + MultiplicarMatriz(t:Transformacao4D) : Transformacao4D
    + ObterElemento(index:int) : double
    + AtribuirElemento(index:int, value:double) : void
    + ObterDados() : double[]
    + AtribuirDados(data:double[]) : void
    + <<override>> ToString() : string
}
@enduml

PlantUML version 1.2022.0(Tue Jan 11 13:16:42 BRT 2022)
(GPL source distribution)
Java Runtime: Java(TM) SE Runtime Environment
JVM: Java HotSpot(TM) 64-Bit Server VM
Default Encoding: Cp1252
Language: en
Country: US
--></g></svg>