<?xml version="1.0" encoding="UTF-8" standalone="no"?><svg xmlns="http://www.w3.org/2000/svg" xmlns:xlink="http://www.w3.org/1999/xlink" contentScriptType="application/ecmascript" contentStyleType="text/css" height="276px" preserveAspectRatio="none" style="width:433px;height:276px;background:#FFFFFF;" version="1.1" viewBox="0 0 433 276" width="433px" zoomAndPan="magnify"><defs><filter height="300%" id="f23aes0ww224n" width="300%" x="-1" y="-1"><feGaussianBlur result="blurOut" stdDeviation="2.0"/><feColorMatrix in="blurOut" result="blurOut2" type="matrix" values="0 0 0 0 0 0 0 0 0 0 0 0 0 0 0 0 0 0 .4 0"/><feOffset dx="4.0" dy="4.0" in="blurOut2" result="blurOut3"/><feBlend in="SourceGraphic" in2="blurOut3" mode="normal"/></filter></defs><g><!--MD5=[6746db26fbf3328699b5b65a634cc0f3]
class Transformacao4D--><rect codeLine="1" fill="#FEFECE" filter="url(#f23aes0ww224n)" height="255.5391" id="Transformacao4D" style="stroke:#A80036;stroke-width:1.5;" width="412" x="7" y="7"/><ellipse cx="158.75" cy="23" fill="#ADD1B2" rx="11" ry="11" style="stroke:#A80036;stroke-width:1.0;"/><path d="M161.5156,18.875 Q161.6719,18.6563 161.8594,18.5469 Q162.0469,18.4375 162.2656,18.4375 Q162.6406,18.4375 162.875,18.7031 Q163.1094,18.9531 163.1094,19.5625 L163.1094,21.0156 Q163.1094,21.625 162.875,21.8906 Q162.6406,22.1563 162.2656,22.1563 Q161.9219,22.1563 161.7188,21.9531 Q161.5156,21.7656 161.4063,21.25 Q161.3594,20.8906 161.1719,20.7031 Q160.8438,20.3281 160.2344,20.1094 Q159.625,19.8906 159,19.8906 Q158.2344,19.8906 157.5938,20.2188 Q156.9688,20.5469 156.4688,21.2969 Q155.9844,22.0469 155.9844,23.0781 L155.9844,24.1719 Q155.9844,25.4063 156.875,26.2344 Q157.7656,27.0469 159.3594,27.0469 Q160.2969,27.0469 160.9531,26.7969 Q161.3438,26.6406 161.7656,26.2031 Q162.0313,25.9375 162.1719,25.8594 Q162.3281,25.7813 162.5313,25.7813 Q162.8594,25.7813 163.1094,26.0469 Q163.375,26.2969 163.375,26.6406 Q163.375,26.9844 163.0313,27.3906 Q162.5313,27.9688 161.7344,28.2969 Q160.6563,28.75 159.3594,28.75 Q157.8438,28.75 156.6406,28.125 Q155.6563,27.625 154.9688,26.5625 Q154.2813,25.4844 154.2813,24.2031 L154.2813,23.0469 Q154.2813,21.7188 154.8906,20.5781 Q155.5156,19.4219 156.6094,18.8125 Q157.7031,18.1875 158.9375,18.1875 Q159.6719,18.1875 160.3125,18.3594 Q160.9688,18.5156 161.5156,18.875 Z " fill="#000000"/><text fill="#000000" font-family="sans-serif" font-size="12" lengthAdjust="spacing" textLength="100" x="179.25" y="27.9102">Transformacao4D</text><line style="stroke:#A80036;stroke-width:1.5;" x1="8" x2="418" y1="39" y2="39"/><ellipse cx="18" cy="50" rx="3" ry="3" style="stroke:#038048;stroke-width:1.0;fill:none;"/><text fill="#000000" font-family="sans-serif" font-size="11" lengthAdjust="spacing" text-decoration="underline" textLength="386" x="27" y="54.4189">«readonly» DEG_TO_RAD : double = 0.017453292519943295769236907684886</text><line style="stroke:#A80036;stroke-width:1.5;" x1="8" x2="418" y1="60.8359" y2="60.8359"/><ellipse cx="18" cy="71.8359" fill="#84BE84" rx="3" ry="3" style="stroke:#038048;stroke-width:1.0;"/><text fill="#000000" font-family="sans-serif" font-size="11" lengthAdjust="spacing" textLength="95" x="27" y="76.2549">Transformacao4D()</text><ellipse cx="18" cy="85.6719" fill="#84BE84" rx="3" ry="3" style="stroke:#038048;stroke-width:1.0;"/><text fill="#000000" font-family="sans-serif" font-size="11" lengthAdjust="spacing" textLength="121" x="27" y="90.0908">AtribuirIdentidade() : void</text><ellipse cx="18" cy="99.5078" fill="#84BE84" rx="3" ry="3" style="stroke:#038048;stroke-width:1.0;"/><text fill="#000000" font-family="sans-serif" font-size="11" lengthAdjust="spacing" textLength="270" x="27" y="103.9268">AtribuirTranslacao(tx:double, ty:double, tz:double) : void</text><ellipse cx="18" cy="113.3438" fill="#84BE84" rx="3" ry="3" style="stroke:#038048;stroke-width:1.0;"/><text fill="#000000" font-family="sans-serif" font-size="11" lengthAdjust="spacing" textLength="261" x="27" y="117.7627">AtribuirEscala(sX:double, sY:double, sZ:double) : void</text><ellipse cx="18" cy="127.1797" fill="#84BE84" rx="3" ry="3" style="stroke:#038048;stroke-width:1.0;"/><text fill="#000000" font-family="sans-serif" font-size="11" lengthAdjust="spacing" textLength="190" x="27" y="131.5986">AtribuirRotacaoX(radians:double) : void</text><ellipse cx="18" cy="141.0156" fill="#84BE84" rx="3" ry="3" style="stroke:#038048;stroke-width:1.0;"/><text fill="#000000" font-family="sans-serif" font-size="11" lengthAdjust="spacing" textLength="191" x="27" y="145.4346">AtribuirRotacaoY(radians:double) : void</text><ellipse cx="18" cy="154.8516" fill="#84BE84" rx="3" ry="3" style="stroke:#038048;stroke-width:1.0;"/><text fill="#000000" font-family="sans-serif" font-size="11" lengthAdjust="spacing" textLength="190" x="27" y="159.2705">AtribuirRotacaoZ(radians:double) : void</text><ellipse cx="18" cy="168.6875" fill="#84BE84" rx="3" ry="3" style="stroke:#038048;stroke-width:1.0;"/><text fill="#000000" font-family="sans-serif" font-size="11" lengthAdjust="spacing" textLength="189" x="27" y="173.1064">MultiplicarPonto(pto:Ponto4D) : Ponto4D</text><ellipse cx="18" cy="182.5234" fill="#84BE84" rx="3" ry="3" style="stroke:#038048;stroke-width:1.0;"/><text fill="#000000" font-family="sans-serif" font-size="11" lengthAdjust="spacing" textLength="273" x="27" y="186.9424">MultiplicarMatriz(t:Transformacao4D) : Transformacao4D</text><ellipse cx="18" cy="196.3594" fill="#84BE84" rx="3" ry="3" style="stroke:#038048;stroke-width:1.0;"/><text fill="#000000" font-family="sans-serif" font-size="11" lengthAdjust="spacing" textLength="159" x="27" y="200.7783">ObterElemento(index:int) : double</text><ellipse cx="18" cy="210.1953" fill="#84BE84" rx="3" ry="3" style="stroke:#038048;stroke-width:1.0;"/><text fill="#000000" font-family="sans-serif" font-size="11" lengthAdjust="spacing" textLength="222" x="27" y="214.6143">AtribuirElemento(index:int, value:double) : void</text><ellipse cx="18" cy="224.0313" fill="#84BE84" rx="3" ry="3" style="stroke:#038048;stroke-width:1.0;"/><text fill="#000000" font-family="sans-serif" font-size="11" lengthAdjust="spacing" textLength="113" x="27" y="228.4502">ObterDados() : double[]</text><ellipse cx="18" cy="237.8672" fill="#84BE84" rx="3" ry="3" style="stroke:#038048;stroke-width:1.0;"/><text fill="#000000" font-family="sans-serif" font-size="11" lengthAdjust="spacing" textLength="165" x="27" y="242.2861">AtribuirDados(data:double[]) : void</text><ellipse cx="18" cy="251.7031" fill="#84BE84" rx="3" ry="3" style="stroke:#038048;stroke-width:1.0;"/><text fill="#000000" font-family="sans-serif" font-size="11" lengthAdjust="spacing" textLength="139" x="27" y="256.1221">«override» ToString() : string</text><!--MD5=[b4eedd688b3f63659af825c4e7365dae]
@startuml Transformacao4D
class Transformacao4D {
    {static} + <<readonly>> DEG_TO_RAD : double = 0.017453292519943295769236907684886
    + Transformacao4D()
    + AtribuirIdentidade() : void
    + AtribuirTranslacao(tx:double, ty:double, tz:double) : void
    + AtribuirEscala(sX:double, sY:double, sZ:double) : void
    + AtribuirRotacaoX(radians:double) : void
    + AtribuirRotacaoY(radians:double) : void
    + AtribuirRotacaoZ(radians:double) : void
    + MultiplicarPonto(pto:Ponto4D) : Ponto4D
    + MultiplicarMatriz(t:Transformacao4D) : Transformacao4D
    + ObterElemento(index:int) : double
    + AtribuirElemento(index:int, value:double) : void
    + ObterDados() : double[]
    + AtribuirDados(data:double[]) : void
    + <<override>> ToString() : string
}
@enduml

PlantUML version 1.2022.0(Tue Jan 11 13:16:42 BRT 2022)
(GPL source distribution)
Java Runtime: Java(TM) SE Runtime Environment
JVM: Java HotSpot(TM) 64-Bit Server VM
Default Encoding: Cp1252
Language: en
Country: US
--></g></svg>