<?xml version="1.0" encoding="UTF-8" standalone="no"?><svg xmlns="http://www.w3.org/2000/svg" xmlns:xlink="http://www.w3.org/1999/xlink" contentScriptType="application/ecmascript" contentStyleType="text/css" height="467px" preserveAspectRatio="none" style="width:448px;height:467px;background:#FFFFFF;" version="1.1" viewBox="0 0 448 467" width="448px" zoomAndPan="magnify"><defs><filter height="300%" id="ft05rqau5e4dk" width="300%" x="-1" y="-1"><feGaussianBlur result="blurOut" stdDeviation="2.0"/><feColorMatrix in="blurOut" result="blurOut2" type="matrix" values="0 0 0 0 0 0 0 0 0 0 0 0 0 0 0 0 0 0 .4 0"/><feOffset dx="4.0" dy="4.0" in="blurOut2" result="blurOut3"/><feBlend in="SourceGraphic" in2="blurOut3" mode="normal"/></filter></defs><g><!--MD5=[c3851e40b8ed2f68ee08d490e0f0cd81]
class CameraPerspective--><rect codeLine="1" fill="#FEFECE" filter="url(#ft05rqau5e4dk)" height="269.375" id="CameraPerspective" style="stroke:#A80036;stroke-width:1.5;" width="376" x="58.7289" y="7"/><ellipse cx="187.9789" cy="23" fill="#ADD1B2" rx="11" ry="11" style="stroke:#A80036;stroke-width:1.0;"/><path d="M190.7446,18.875 Q190.9008,18.6563 191.0883,18.5469 Q191.2758,18.4375 191.4946,18.4375 Q191.8696,18.4375 192.1039,18.7031 Q192.3383,18.9531 192.3383,19.5625 L192.3383,21.0156 Q192.3383,21.625 192.1039,21.8906 Q191.8696,22.1563 191.4946,22.1563 Q191.1508,22.1563 190.9477,21.9531 Q190.7446,21.7656 190.6352,21.25 Q190.5883,20.8906 190.4008,20.7031 Q190.0727,20.3281 189.4633,20.1094 Q188.8539,19.8906 188.2289,19.8906 Q187.4633,19.8906 186.8227,20.2188 Q186.1977,20.5469 185.6977,21.2969 Q185.2133,22.0469 185.2133,23.0781 L185.2133,24.1719 Q185.2133,25.4063 186.1039,26.2344 Q186.9946,27.0469 188.5883,27.0469 Q189.5258,27.0469 190.1821,26.7969 Q190.5727,26.6406 190.9946,26.2031 Q191.2602,25.9375 191.4008,25.8594 Q191.5571,25.7813 191.7602,25.7813 Q192.0883,25.7813 192.3383,26.0469 Q192.6039,26.2969 192.6039,26.6406 Q192.6039,26.9844 192.2602,27.3906 Q191.7602,27.9688 190.9633,28.2969 Q189.8852,28.75 188.5883,28.75 Q187.0727,28.75 185.8696,28.125 Q184.8852,27.625 184.1977,26.5625 Q183.5102,25.4844 183.5102,24.2031 L183.5102,23.0469 Q183.5102,21.7188 184.1196,20.5781 Q184.7446,19.4219 185.8383,18.8125 Q186.9321,18.1875 188.1664,18.1875 Q188.9008,18.1875 189.5414,18.3594 Q190.1977,18.5156 190.7446,18.875 Z " fill="#000000"/><text fill="#000000" font-family="sans-serif" font-size="12" lengthAdjust="spacing" textLength="109" x="208.4789" y="27.9102">CameraPerspective</text><line style="stroke:#A80036;stroke-width:1.5;" x1="59.7289" x2="433.7289" y1="39" y2="39"/><rect fill="none" height="6" style="stroke:#C82930;stroke-width:1.0;" width="6" x="66.7289" y="47"/><text fill="#000000" font-family="sans-serif" font-size="11" lengthAdjust="spacing" textLength="52" x="78.7289" y="54.4189">fovy : float</text><rect fill="none" height="6" style="stroke:#C82930;stroke-width:1.0;" width="6" x="66.7289" y="60.8359"/><text fill="#000000" font-family="sans-serif" font-size="11" lengthAdjust="spacing" textLength="63" x="78.7289" y="68.2549">aspect : float</text><rect fill="none" height="6" style="stroke:#C82930;stroke-width:1.0;" width="6" x="66.7289" y="74.6719"/><text fill="#000000" font-family="sans-serif" font-size="11" lengthAdjust="spacing" textLength="52" x="78.7289" y="82.0908">near : float</text><rect fill="none" height="6" style="stroke:#C82930;stroke-width:1.0;" width="6" x="66.7289" y="88.5078"/><text fill="#000000" font-family="sans-serif" font-size="11" lengthAdjust="spacing" textLength="44" x="78.7289" y="95.9268">far : float</text><ellipse cx="69.7289" cy="105.3438" rx="3" ry="3" style="stroke:#038048;stroke-width:1.0;fill:none;"/><text fill="#000000" font-family="sans-serif" font-size="11" lengthAdjust="spacing" textLength="114" x="78.7289" y="109.7627">Fovy : float «get» «set»</text><ellipse cx="69.7289" cy="119.1797" rx="3" ry="3" style="stroke:#038048;stroke-width:1.0;fill:none;"/><text fill="#000000" font-family="sans-serif" font-size="11" lengthAdjust="spacing" textLength="125" x="78.7289" y="123.5986">Aspect : float «get» «set»</text><ellipse cx="69.7289" cy="133.0156" rx="3" ry="3" style="stroke:#038048;stroke-width:1.0;fill:none;"/><text fill="#000000" font-family="sans-serif" font-size="11" lengthAdjust="spacing" textLength="113" x="78.7289" y="137.4346">Near : float «get» «set»</text><ellipse cx="69.7289" cy="146.8516" rx="3" ry="3" style="stroke:#038048;stroke-width:1.0;fill:none;"/><text fill="#000000" font-family="sans-serif" font-size="11" lengthAdjust="spacing" textLength="106" x="78.7289" y="151.2705">Far : float «get» «set»</text><line style="stroke:#A80036;stroke-width:1.5;" x1="59.7289" x2="433.7289" y1="157.6875" y2="157.6875"/><ellipse cx="69.7289" cy="168.6875" fill="#84BE84" rx="3" ry="3" style="stroke:#038048;stroke-width:1.0;"/><text fill="#000000" font-family="sans-serif" font-size="11" lengthAdjust="spacing" textLength="307" x="78.7289" y="173.1064">CameraPerspective(fovy:float, aspect:float, near:float, far:float)</text><rect fill="#F24D5C" height="6" style="stroke:#C82930;stroke-width:1.0;" width="6" x="66.7289" y="179.5234"/><text fill="#000000" font-family="sans-serif" font-size="11" lengthAdjust="spacing" textLength="171" x="78.7289" y="186.9424">FovyDes(deslocamento:float) : void</text><rect fill="#F24D5C" height="6" style="stroke:#C82930;stroke-width:1.0;" width="6" x="66.7289" y="193.3594"/><text fill="#000000" font-family="sans-serif" font-size="11" lengthAdjust="spacing" textLength="170" x="78.7289" y="200.7783">NearDes(deslocamento:float) : void</text><rect fill="#F24D5C" height="6" style="stroke:#C82930;stroke-width:1.0;" width="6" x="66.7289" y="207.1953"/><text fill="#000000" font-family="sans-serif" font-size="11" lengthAdjust="spacing" textLength="163" x="78.7289" y="214.6143">FarDes(deslocamento:float) : void</text><rect fill="#F24D5C" height="6" style="stroke:#C82930;stroke-width:1.0;" width="6" x="66.7289" y="221.0313"/><text fill="#000000" font-family="sans-serif" font-size="11" lengthAdjust="spacing" textLength="216" x="78.7289" y="228.4502">EyeDes(deslocamento:float, eixo:char) : void</text><rect fill="#F24D5C" height="6" style="stroke:#C82930;stroke-width:1.0;" width="6" x="66.7289" y="234.8672"/><text fill="#000000" font-family="sans-serif" font-size="11" lengthAdjust="spacing" textLength="209" x="78.7289" y="242.2861">AtDes(deslocamento:float, eixo:char) : void</text><ellipse cx="69.7289" cy="251.7031" fill="#84BE84" rx="3" ry="3" style="stroke:#038048;stroke-width:1.0;"/><text fill="#000000" font-family="sans-serif" font-size="11" lengthAdjust="spacing" textLength="350" x="78.7289" y="256.1221">MenuTecla(tecla:OpenTK.Input.Key, eixo:char, deslocamento:float) : void</text><ellipse cx="69.7289" cy="265.5391" fill="#84BE84" rx="3" ry="3" style="stroke:#038048;stroke-width:1.0;"/><text fill="#000000" font-family="sans-serif" font-size="11" lengthAdjust="spacing" textLength="139" x="78.7289" y="269.958">«override» ToString() : string</text><!--MD5=[123f948101b9fcdea2d962569ed9ee76]
class menuCameraEnum--><rect codeLine="19" fill="#FEFECE" filter="url(#ft05rqau5e4dk)" height="117.1797" id="menuCameraEnum" style="stroke:#A80036;stroke-width:1.5;" width="142" x="32.7289" y="336"/><ellipse cx="47.7289" cy="352" fill="#EB937F" rx="11" ry="11" style="stroke:#A80036;stroke-width:1.0;"/><path d="M46.5883,352.7969 L46.5883,355.2969 L50.9164,355.2969 L50.9164,354.375 Q50.9164,353.7656 51.1508,353.5 Q51.4008,353.2344 51.7758,353.2344 Q52.1508,353.2344 52.3852,353.5 Q52.6196,353.7656 52.6196,354.375 L52.6196,357 L44.6196,357 Q43.9946,357 43.7289,356.7656 Q43.4789,356.5313 43.4789,356.1406 Q43.4789,355.7656 43.7446,355.5313 Q44.0102,355.2969 44.6196,355.2969 L44.8852,355.2969 L44.8852,348.6406 L44.6196,348.6406 Q43.9946,348.6406 43.7289,348.4063 Q43.4789,348.1719 43.4789,347.7813 Q43.4789,347.4063 43.7289,347.1719 Q43.9946,346.9375 44.6196,346.9375 L52.2446,346.9375 L52.2446,349.5313 Q52.2446,350.1406 52.0102,350.4063 Q51.7914,350.6563 51.4008,350.6563 Q51.0258,350.6563 50.7914,350.4063 Q50.5571,350.1406 50.5571,349.5313 L50.5571,348.6406 L46.5883,348.6406 L46.5883,351.0938 L48.0727,351.0938 Q48.0727,350.4375 48.1977,350.25 Q48.4633,349.8438 48.9321,349.8438 Q49.3071,349.8438 49.5414,350.1094 Q49.7758,350.3594 49.7758,350.9688 L49.7758,352.9375 Q49.7758,353.4844 49.6508,353.6719 Q49.3852,354.0625 48.9321,354.0625 Q48.4633,354.0625 48.1977,353.6563 Q48.0727,353.4688 48.0727,352.7969 L46.5883,352.7969 Z " fill="#000000"/><text fill="#000000" font-family="sans-serif" font-size="12" lengthAdjust="spacing" textLength="110" x="61.7289" y="356.9102">menuCameraEnum</text><line style="stroke:#A80036;stroke-width:1.5;" x1="33.7289" x2="173.7289" y1="368" y2="368"/><text fill="#000000" font-family="sans-serif" font-size="11" lengthAdjust="spacing" textLength="21" x="38.7289" y="383.4189">eye,</text><text fill="#000000" font-family="sans-serif" font-size="11" lengthAdjust="spacing" textLength="12" x="38.7289" y="397.2549">at,</text><text fill="#000000" font-family="sans-serif" font-size="11" lengthAdjust="spacing" textLength="25" x="38.7289" y="411.0908">near,</text><text fill="#000000" font-family="sans-serif" font-size="11" lengthAdjust="spacing" textLength="17" x="38.7289" y="424.9268">far,</text><text fill="#000000" font-family="sans-serif" font-size="11" lengthAdjust="spacing" textLength="25" x="38.7289" y="438.7627">fovy,</text><line style="stroke:#A80036;stroke-width:1.5;" x1="33.7289" x2="173.7289" y1="445.1797" y2="445.1797"/><!--MD5=[65d619c042c23702cef2ca07d67b1cf6]
class Vector3--><rect fill="#FEFECE" filter="url(#ft05rqau5e4dk)" height="48" id="Vector3" style="stroke:#A80036;stroke-width:1.5;" width="73" x="210.2289" y="370.5"/><ellipse cx="225.2289" cy="386.5" fill="#ADD1B2" rx="11" ry="11" style="stroke:#A80036;stroke-width:1.0;"/><path d="M227.9946,382.375 Q228.1508,382.1563 228.3383,382.0469 Q228.5258,381.9375 228.7446,381.9375 Q229.1196,381.9375 229.3539,382.2031 Q229.5883,382.4531 229.5883,383.0625 L229.5883,384.5156 Q229.5883,385.125 229.3539,385.3906 Q229.1196,385.6563 228.7446,385.6563 Q228.4008,385.6563 228.1977,385.4531 Q227.9946,385.2656 227.8852,384.75 Q227.8383,384.3906 227.6508,384.2031 Q227.3227,383.8281 226.7133,383.6094 Q226.1039,383.3906 225.4789,383.3906 Q224.7133,383.3906 224.0727,383.7188 Q223.4477,384.0469 222.9477,384.7969 Q222.4633,385.5469 222.4633,386.5781 L222.4633,387.6719 Q222.4633,388.9063 223.3539,389.7344 Q224.2446,390.5469 225.8383,390.5469 Q226.7758,390.5469 227.4321,390.2969 Q227.8227,390.1406 228.2446,389.7031 Q228.5102,389.4375 228.6508,389.3594 Q228.8071,389.2813 229.0102,389.2813 Q229.3383,389.2813 229.5883,389.5469 Q229.8539,389.7969 229.8539,390.1406 Q229.8539,390.4844 229.5102,390.8906 Q229.0102,391.4688 228.2133,391.7969 Q227.1352,392.25 225.8383,392.25 Q224.3227,392.25 223.1196,391.625 Q222.1352,391.125 221.4477,390.0625 Q220.7602,388.9844 220.7602,387.7031 L220.7602,386.5469 Q220.7602,385.2188 221.3696,384.0781 Q221.9946,382.9219 223.0883,382.3125 Q224.1821,381.6875 225.4164,381.6875 Q226.1508,381.6875 226.7914,381.8594 Q227.4477,382.0156 227.9946,382.375 Z " fill="#000000"/><text fill="#000000" font-family="sans-serif" font-size="12" lengthAdjust="spacing" textLength="41" x="239.2289" y="391.4102">Vector3</text><line style="stroke:#A80036;stroke-width:1.5;" x1="211.2289" x2="282.2289" y1="402.5" y2="402.5"/><line style="stroke:#A80036;stroke-width:1.5;" x1="211.2289" x2="282.2289" y1="410.5" y2="410.5"/><!--MD5=[f94cdd04709e36a9b2c27ce98e350cf2]
link CameraPerspective to Vector3--><path codeLine="26" d="M181.5989,276.08 C182.6889,312.68 191.1989,348.35 207.1389,370.59 " fill="none" id="CameraPerspective-to-Vector3" style="stroke:#A80036;stroke-width:1.0;"/><polygon fill="#A80036" points="210.1989,374.58,207.9004,365.0031,207.158,370.611,201.5501,369.8687,210.1989,374.58" style="stroke:#A80036;stroke-width:1.0;"/><text fill="#000000" font-family="sans-serif" font-size="13" lengthAdjust="spacing" textLength="21" x="181.1157" y="367.3066">eye</text><!--MD5=[f94cdd04709e36a9b2c27ce98e350cf2]
link CameraPerspective to Vector3--><path codeLine="27" d="M207.7989,276.08 C208.3989,310.04 212.8289,343.21 221.0789,365.58 " fill="none" id="CameraPerspective-to-Vector3-1" style="stroke:#A80036;stroke-width:1.0;"/><polygon fill="#A80036" points="223.0189,370.47,223.4165,360.6292,221.1743,365.8227,215.9808,363.5806,223.0189,370.47" style="stroke:#A80036;stroke-width:1.0;"/><text fill="#000000" font-family="sans-serif" font-size="13" lengthAdjust="spacing" textLength="11" x="204.5339" y="359.8025">at</text><!--MD5=[f94cdd04709e36a9b2c27ce98e350cf2]
link CameraPerspective to Vector3--><path codeLine="28" d="M233.9989,276.08 C234.1989,309.9 235.6289,342.93 238.3089,365.3 " fill="none" id="CameraPerspective-to-Vector3-2" style="stroke:#A80036;stroke-width:1.0;"/><polygon fill="#A80036" points="238.9689,370.47,241.805,361.0383,238.34,365.5097,233.8686,362.0447,238.9689,370.47" style="stroke:#A80036;stroke-width:1.0;"/><text fill="#000000" font-family="sans-serif" font-size="13" lengthAdjust="spacing" textLength="14" x="221.1867" y="359.8025">up</text><!--MD5=[f94cdd04709e36a9b2c27ce98e350cf2]
link CameraPerspective to Vector3--><path codeLine="30" d="M260.1989,276.08 C259.9889,309.9 258.4689,342.93 255.6389,365.3 " fill="none" id="CameraPerspective-to-Vector3-3" style="stroke:#A80036;stroke-width:1.0;"/><polygon fill="#A80036" points="254.9289,370.47,260.104,362.0903,255.6019,365.5155,252.1768,361.0135,254.9289,370.47" style="stroke:#A80036;stroke-width:1.0;"/><text fill="#000000" font-family="sans-serif" font-size="13" lengthAdjust="spacing" textLength="23" x="259.9771" y="359.8025">Eye</text><!--MD5=[f94cdd04709e36a9b2c27ce98e350cf2]
link CameraPerspective to Vector3--><path codeLine="31" d="M286.3989,276.08 C285.7789,310.04 281.2689,343.21 272.8589,365.58 " fill="none" id="CameraPerspective-to-Vector3-4" style="stroke:#A80036;stroke-width:1.0;"/><polygon fill="#A80036" points="270.8889,370.47,277.9635,363.618,272.7582,365.8326,270.5436,360.6272,270.8889,370.47" style="stroke:#A80036;stroke-width:1.0;"/><text fill="#000000" font-family="sans-serif" font-size="13" lengthAdjust="spacing" textLength="13" x="278.7456" y="359.8025">At</text><!--MD5=[f94cdd04709e36a9b2c27ce98e350cf2]
link CameraPerspective to Vector3--><path codeLine="32" d="M312.5989,276.08 C311.4889,312.9 302.7789,348.78 286.4689,370.99 " fill="none" id="CameraPerspective-to-Vector3-5" style="stroke:#A80036;stroke-width:1.0;"/><polygon fill="#A80036" points="283.3389,374.97,292.0439,370.363,286.4274,371.0379,285.7525,365.4215,283.3389,374.97" style="stroke:#A80036;stroke-width:1.0;"/><text fill="#000000" font-family="sans-serif" font-size="13" lengthAdjust="spacing" textLength="16" x="291.2851" y="386.4426">Up</text><!--MD5=[0a6f1f0edac44a2ddce63edab979fa4f]
link CameraPerspective to menuCameraEnum--><path codeLine="29" d="M157.8889,276.08 C147.0289,295.35 136.7189,314.35 127.9889,331.28 " fill="none" id="CameraPerspective-to-menuCameraEnum" style="stroke:#A80036;stroke-width:1.0;"/><polygon fill="#A80036" points="125.5689,336,133.2351,329.8169,127.8505,331.5509,126.1165,326.1664,125.5689,336" style="stroke:#A80036;stroke-width:1.0;"/><text fill="#000000" font-family="sans-serif" font-size="13" lengthAdjust="spacing" textLength="115" x="6" y="324.9858">menuCameraOpcao</text><!--MD5=[f5f529a326553ad8e7c5d491c11a9a7c]
reverse link CameraPerspective to menuCameraEnum--><path codeLine="33" d="M176.3789,289.36 C166.7389,305.8 157.0689,321.74 148.0389,336 " fill="none" id="CameraPerspective-backto-menuCameraEnum" style="stroke:#A80036;stroke-width:1.0;"/><ellipse cx="180.0731" cy="282.9991" fill="#FFFFFF" rx="8" ry="8" style="stroke:#A80036;stroke-width:1.0;"/><line style="stroke:#A80036;stroke-width:1.0;" x1="176.0573" x2="184.0889" y1="289.9181" y2="276.08"/><line style="stroke:#A80036;stroke-width:1.0;" x1="173.1541" x2="186.9922" y1="278.9833" y2="287.0149"/><!--MD5=[cfc9c15522fc77c150cc6122a8ff6969]
@startuml
class CameraPerspective {
    - fovy : float
    - aspect : float
    - near : float
    - far : float
    + CameraPerspective(fovy:float, aspect:float, near:float, far:float)
    + Fovy : float <<get>> <<set>>
    + Aspect : float <<get>> <<set>>
    + Near : float <<get>> <<set>>
    + Far : float <<get>> <<set>>
    - FovyDes(deslocamento:float) : void
    - NearDes(deslocamento:float) : void
    - FarDes(deslocamento:float) : void
    - EyeDes(deslocamento:float, eixo:char) : void
    - AtDes(deslocamento:float, eixo:char) : void
    + MenuTecla(tecla:OpenTK.Input.Key, eixo:char, deslocamento:float) : void
    + <<override>> ToString() : string
}
enum menuCameraEnum {
    eye,
    at,
    near,
    far,
    fovy,
}
CameraPerspective - -> "eye" Vector3
CameraPerspective - -> "at" Vector3
CameraPerspective - -> "up" Vector3
CameraPerspective - -> "menuCameraOpcao" menuCameraEnum
CameraPerspective - -> "Eye" Vector3
CameraPerspective - -> "At" Vector3
CameraPerspective - -> "Up" Vector3
CameraPerspective +- - menuCameraEnum
@enduml

PlantUML version 1.2022.0(Tue Jan 11 13:16:42 BRT 2022)
(GPL source distribution)
Java Runtime: Java(TM) SE Runtime Environment
JVM: Java HotSpot(TM) 64-Bit Server VM
Default Encoding: Cp1252
Language: en
Country: US
--></g></svg>