<?xml version="1.0" encoding="UTF-8" standalone="no"?><svg xmlns="http://www.w3.org/2000/svg" xmlns:xlink="http://www.w3.org/1999/xlink" contentScriptType="application/ecmascript" contentStyleType="text/css" height="345px" preserveAspectRatio="none" style="width:503px;height:345px;background:#FFFFFF;" version="1.1" viewBox="0 0 503 345" width="503px" zoomAndPan="magnify"><defs><filter height="300%" id="f1wn4hkhcsnhn" width="300%" x="-1" y="-1"><feGaussianBlur result="blurOut" stdDeviation="2.0"/><feColorMatrix in="blurOut" result="blurOut2" type="matrix" values="0 0 0 0 0 0 0 0 0 0 0 0 0 0 0 0 0 0 .4 0"/><feOffset dx="4.0" dy="4.0" in="blurOut2" result="blurOut3"/><feBlend in="SourceGraphic" in2="blurOut3" mode="normal"/></filter></defs><g><!--MD5=[a7a8f22eafb289696c295eb36d2b4bda]
class CameraOrtho--><rect codeLine="1" fill="#FEFECE" filter="url(#f1wn4hkhcsnhn)" height="324.7188" id="CameraOrtho" style="stroke:#A80036;stroke-width:1.5;" width="482" x="7" y="7"/><ellipse cx="206.25" cy="23" fill="#ADD1B2" rx="11" ry="11" style="stroke:#A80036;stroke-width:1.0;"/><path d="M209.0156,18.875 Q209.1719,18.6563 209.3594,18.5469 Q209.5469,18.4375 209.7656,18.4375 Q210.1406,18.4375 210.375,18.7031 Q210.6094,18.9531 210.6094,19.5625 L210.6094,21.0156 Q210.6094,21.625 210.375,21.8906 Q210.1406,22.1563 209.7656,22.1563 Q209.4219,22.1563 209.2188,21.9531 Q209.0156,21.7656 208.9063,21.25 Q208.8594,20.8906 208.6719,20.7031 Q208.3438,20.3281 207.7344,20.1094 Q207.125,19.8906 206.5,19.8906 Q205.7344,19.8906 205.0938,20.2188 Q204.4688,20.5469 203.9688,21.2969 Q203.4844,22.0469 203.4844,23.0781 L203.4844,24.1719 Q203.4844,25.4063 204.375,26.2344 Q205.2656,27.0469 206.8594,27.0469 Q207.7969,27.0469 208.4531,26.7969 Q208.8438,26.6406 209.2656,26.2031 Q209.5313,25.9375 209.6719,25.8594 Q209.8281,25.7813 210.0313,25.7813 Q210.3594,25.7813 210.6094,26.0469 Q210.875,26.2969 210.875,26.6406 Q210.875,26.9844 210.5313,27.3906 Q210.0313,27.9688 209.2344,28.2969 Q208.1563,28.75 206.8594,28.75 Q205.3438,28.75 204.1406,28.125 Q203.1563,27.625 202.4688,26.5625 Q201.7813,25.4844 201.7813,24.2031 L201.7813,23.0469 Q201.7813,21.7188 202.3906,20.5781 Q203.0156,19.4219 204.1094,18.8125 Q205.2031,18.1875 206.4375,18.1875 Q207.1719,18.1875 207.8125,18.3594 Q208.4688,18.5156 209.0156,18.875 Z " fill="#000000"/><text fill="#000000" font-family="sans-serif" font-size="12" lengthAdjust="spacing" textLength="75" x="226.75" y="27.9102">CameraOrtho</text><line style="stroke:#A80036;stroke-width:1.5;" x1="8" x2="488" y1="39" y2="39"/><rect fill="none" height="6" style="stroke:#C82930;stroke-width:1.0;" width="6" x="15" y="47"/><text fill="#000000" font-family="sans-serif" font-size="11" lengthAdjust="spacing" textLength="63" x="27" y="54.4189">xMin : double</text><rect fill="none" height="6" style="stroke:#C82930;stroke-width:1.0;" width="6" x="15" y="60.8359"/><text fill="#000000" font-family="sans-serif" font-size="11" lengthAdjust="spacing" textLength="67" x="27" y="68.2549">xMax : double</text><rect fill="none" height="6" style="stroke:#C82930;stroke-width:1.0;" width="6" x="15" y="74.6719"/><text fill="#000000" font-family="sans-serif" font-size="11" lengthAdjust="spacing" textLength="63" x="27" y="82.0908">yMin : double</text><rect fill="none" height="6" style="stroke:#C82930;stroke-width:1.0;" width="6" x="15" y="88.5078"/><text fill="#000000" font-family="sans-serif" font-size="11" lengthAdjust="spacing" textLength="67" x="27" y="95.9268">yMax : double</text><rect fill="none" height="6" style="stroke:#C82930;stroke-width:1.0;" width="6" x="15" y="102.3438"/><text fill="#000000" font-family="sans-serif" font-size="11" lengthAdjust="spacing" textLength="63" x="27" y="109.7627">zMin : double</text><rect fill="none" height="6" style="stroke:#C82930;stroke-width:1.0;" width="6" x="15" y="116.1797"/><text fill="#000000" font-family="sans-serif" font-size="11" lengthAdjust="spacing" textLength="67" x="27" y="123.5986">zMax : double</text><ellipse cx="18" cy="133.0156" rx="3" ry="3" style="stroke:#038048;stroke-width:1.0;fill:none;"/><text fill="#000000" font-family="sans-serif" font-size="11" lengthAdjust="spacing" textLength="123" x="27" y="137.4346">xmin : double «get» «set»</text><ellipse cx="18" cy="146.8516" rx="3" ry="3" style="stroke:#038048;stroke-width:1.0;fill:none;"/><text fill="#000000" font-family="sans-serif" font-size="11" lengthAdjust="spacing" textLength="127" x="27" y="151.2705">xmax : double «get» «set»</text><ellipse cx="18" cy="160.6875" rx="3" ry="3" style="stroke:#038048;stroke-width:1.0;fill:none;"/><text fill="#000000" font-family="sans-serif" font-size="11" lengthAdjust="spacing" textLength="123" x="27" y="165.1064">ymin : double «get» «set»</text><ellipse cx="18" cy="174.5234" rx="3" ry="3" style="stroke:#038048;stroke-width:1.0;fill:none;"/><text fill="#000000" font-family="sans-serif" font-size="11" lengthAdjust="spacing" textLength="127" x="27" y="178.9424">ymax : double «get» «set»</text><ellipse cx="18" cy="188.3594" rx="3" ry="3" style="stroke:#038048;stroke-width:1.0;fill:none;"/><text fill="#000000" font-family="sans-serif" font-size="11" lengthAdjust="spacing" textLength="123" x="27" y="192.7783">zmin : double «get» «set»</text><ellipse cx="18" cy="202.1953" rx="3" ry="3" style="stroke:#038048;stroke-width:1.0;fill:none;"/><text fill="#000000" font-family="sans-serif" font-size="11" lengthAdjust="spacing" textLength="127" x="27" y="206.6143">zmax : double «get» «set»</text><line style="stroke:#A80036;stroke-width:1.5;" x1="8" x2="488" y1="213.0313" y2="213.0313"/><ellipse cx="18" cy="224.0313" fill="#84BE84" rx="3" ry="3" style="stroke:#038048;stroke-width:1.0;"/><text fill="#000000" font-family="sans-serif" font-size="11" lengthAdjust="spacing" textLength="456" x="27" y="228.4502">CameraOrtho(xMin:double, xMax:double, yMin:double, yMax:double, zMin:double, zMax:double)</text><ellipse cx="18" cy="237.8672" fill="#84BE84" rx="3" ry="3" style="stroke:#038048;stroke-width:1.0;"/><text fill="#000000" font-family="sans-serif" font-size="11" lengthAdjust="spacing" textLength="101" x="27" y="242.2861">PanEsquerda() : void</text><ellipse cx="18" cy="251.7031" fill="#84BE84" rx="3" ry="3" style="stroke:#038048;stroke-width:1.0;"/><text fill="#000000" font-family="sans-serif" font-size="11" lengthAdjust="spacing" textLength="85" x="27" y="256.1221">PanDireita() : void</text><ellipse cx="18" cy="265.5391" fill="#84BE84" rx="3" ry="3" style="stroke:#038048;stroke-width:1.0;"/><text fill="#000000" font-family="sans-serif" font-size="11" lengthAdjust="spacing" textLength="78" x="27" y="269.958">PanCima() : void</text><ellipse cx="18" cy="279.375" fill="#84BE84" rx="3" ry="3" style="stroke:#038048;stroke-width:1.0;"/><text fill="#000000" font-family="sans-serif" font-size="11" lengthAdjust="spacing" textLength="82" x="27" y="283.7939">PanBaixo() : void</text><ellipse cx="18" cy="293.2109" fill="#84BE84" rx="3" ry="3" style="stroke:#038048;stroke-width:1.0;"/><text fill="#000000" font-family="sans-serif" font-size="11" lengthAdjust="spacing" textLength="72" x="27" y="297.6299">ZoomIn() : void</text><ellipse cx="18" cy="307.0469" fill="#84BE84" rx="3" ry="3" style="stroke:#038048;stroke-width:1.0;"/><text fill="#000000" font-family="sans-serif" font-size="11" lengthAdjust="spacing" textLength="81" x="27" y="311.4658">ZoomOut() : void</text><ellipse cx="18" cy="320.8828" fill="#84BE84" rx="3" ry="3" style="stroke:#038048;stroke-width:1.0;"/><text fill="#000000" font-family="sans-serif" font-size="11" lengthAdjust="spacing" textLength="139" x="27" y="325.3018">«override» ToString() : string</text><!--MD5=[2b092d08d2d26fbc3072a0df6df2fd16]
@startuml
class CameraOrtho {
    - xMin : double
    - xMax : double
    - yMin : double
    - yMax : double
    - zMin : double
    - zMax : double
    + CameraOrtho(xMin:double, xMax:double, yMin:double, yMax:double, zMin:double, zMax:double)
    + xmin : double <<get>> <<set>>
    + xmax : double <<get>> <<set>>
    + ymin : double <<get>> <<set>>
    + ymax : double <<get>> <<set>>
    + zmin : double <<get>> <<set>>
    + zmax : double <<get>> <<set>>
    + PanEsquerda() : void
    + PanDireita() : void
    + PanCima() : void
    + PanBaixo() : void
    + ZoomIn() : void
    + ZoomOut() : void
    + <<override>> ToString() : string
}
@enduml

PlantUML version 1.2022.0(Tue Jan 11 13:16:42 BRT 2022)
(GPL source distribution)
Java Runtime: Java(TM) SE Runtime Environment
JVM: Java HotSpot(TM) 64-Bit Server VM
Default Encoding: Cp1252
Language: en
Country: US
--></g></svg>