<?xml version="1.0" encoding="UTF-8" standalone="no"?><svg xmlns="http://www.w3.org/2000/svg" xmlns:xlink="http://www.w3.org/1999/xlink" contentScriptType="application/ecmascript" contentStyleType="text/css" height="96px" preserveAspectRatio="none" style="width:312px;height:96px;background:#FFFFFF;" version="1.1" viewBox="0 0 312 96" width="312px" zoomAndPan="magnify"><defs><filter height="300%" id="faxsp1vb5u35j" width="300%" x="-1" y="-1"><feGaussianBlur result="blurOut" stdDeviation="2.0"/><feColorMatrix in="blurOut" result="blurOut2" type="matrix" values="0 0 0 0 0 0 0 0 0 0 0 0 0 0 0 0 0 0 .4 0"/><feOffset dx="4.0" dy="4.0" in="blurOut2" result="blurOut3"/><feBlend in="SourceGraphic" in2="blurOut3" mode="normal"/></filter></defs><g><!--MD5=[57370106b09f55ffa37deb7835ffe78b]
class Matematica--><rect codeLine="1" fill="#FEFECE" filter="url(#faxsp1vb5u35j)" height="75.6719" id="Matematica" style="stroke:#A80036;stroke-width:1.5;" width="291" x="7" y="7"/><ellipse cx="116.75" cy="23" fill="#A9DCDF" rx="11" ry="11" style="stroke:#A80036;stroke-width:1.0;"/><path d="M118.9375,24.7656 L114.7969,24.7656 L114.375,25.7969 L114.7969,25.7969 Q115.4063,25.7969 115.6719,26.0313 Q115.9375,26.2656 115.9375,26.6563 Q115.9375,27.0313 115.6719,27.2656 Q115.4063,27.5 114.7969,27.5 L112.5,27.5 Q111.8906,27.5 111.6406,27.2656 Q111.375,27.0313 111.375,26.6406 Q111.375,26.2656 111.6563,26.0313 Q111.9219,25.7813 112.5469,25.7969 L115.2188,19.1406 L114.1094,19.1406 Q113.5,19.1406 113.2344,18.9063 Q112.9688,18.6719 112.9688,18.2813 Q112.9688,17.9063 113.2344,17.6719 Q113.5,17.4375 114.1094,17.4375 L117.7813,17.4375 L121.1719,25.7969 Q121.7656,25.7969 121.9531,25.9375 Q122.3438,26.2031 122.3438,26.6563 Q122.3438,27.0313 122.0781,27.2656 Q121.8281,27.5 121.2188,27.5 L118.9219,27.5 Q118.3125,27.5 118.0469,27.2656 Q117.7813,27.0313 117.7813,26.6406 Q117.7813,26.2656 118.0469,26.0313 Q118.3125,25.7969 118.9219,25.7969 L119.3438,25.7969 L118.9375,24.7656 Z M118.2188,23.0625 L116.8594,19.6875 L115.4844,23.0625 L118.2188,23.0625 Z " fill="#000000"/><text fill="#000000" font-family="sans-serif" font-size="12" font-style="italic" lengthAdjust="spacing" textLength="63" x="137.25" y="27.9102">Matematica</text><line style="stroke:#A80036;stroke-width:1.5;" x1="8" x2="297" y1="39" y2="39"/><line style="stroke:#A80036;stroke-width:1.5;" x1="8" x2="297" y1="47" y2="47"/><ellipse cx="18" cy="58" fill="#84BE84" rx="3" ry="3" style="stroke:#038048;stroke-width:1.0;"/><text fill="#000000" font-family="sans-serif" font-size="11" lengthAdjust="spacing" text-decoration="underline" textLength="265" x="27" y="62.4189">GerarPtosCirculo(angulo:double, raio:double) : Ponto4D</text><ellipse cx="18" cy="71.8359" fill="#84BE84" rx="3" ry="3" style="stroke:#038048;stroke-width:1.0;"/><text fill="#000000" font-family="sans-serif" font-size="11" lengthAdjust="spacing" text-decoration="underline" textLength="228" x="27" y="76.2549">GerarPtosCirculoSimétrico(raio:double) : double</text><!--MD5=[931c7a3025c20b59c2e811b5635605ad]
@startuml Matematica
abstract class Matematica {
    + {static} GerarPtosCirculo(angulo:double, raio:double) : Ponto4D
    + {static} GerarPtosCirculoSimétrico(raio:double) : double
}
@enduml

PlantUML version 1.2022.0(Tue Jan 11 13:16:42 BRT 2022)
(GPL source distribution)
Java Runtime: Java(TM) SE Runtime Environment
JVM: Java HotSpot(TM) 64-Bit Server VM
Default Encoding: Cp1252
Language: en
Country: US
--></g></svg>