<?xml version="1.0" encoding="UTF-8" standalone="no"?><svg xmlns="http://www.w3.org/2000/svg" xmlns:xlink="http://www.w3.org/1999/xlink" contentScriptType="application/ecmascript" contentStyleType="text/css" height="221px" preserveAspectRatio="none" style="width:281px;height:221px;background:#FFFFFF;" version="1.1" viewBox="0 0 281 221" width="281px" zoomAndPan="magnify"><defs><filter height="300%" id="f1uv7j2ns63z7j" width="300%" x="-1" y="-1"><feGaussianBlur result="blurOut" stdDeviation="2.0"/><feColorMatrix in="blurOut" result="blurOut2" type="matrix" values="0 0 0 0 0 0 0 0 0 0 0 0 0 0 0 0 0 0 .4 0"/><feOffset dx="4.0" dy="4.0" in="blurOut2" result="blurOut3"/><feBlend in="SourceGraphic" in2="blurOut3" mode="normal"/></filter></defs><g><!--MD5=[ef5ff341dffd6737742a54781c8b5648]
class Ponto4D--><rect codeLine="1" fill="#FEFECE" filter="url(#f1uv7j2ns63z7j)" height="200.1953" id="Ponto4D" style="stroke:#A80036;stroke-width:1.5;" width="260" x="7" y="7"/><ellipse cx="108.75" cy="23" fill="#ADD1B2" rx="11" ry="11" style="stroke:#A80036;stroke-width:1.0;"/><path d="M111.5156,18.875 Q111.6719,18.6563 111.8594,18.5469 Q112.0469,18.4375 112.2656,18.4375 Q112.6406,18.4375 112.875,18.7031 Q113.1094,18.9531 113.1094,19.5625 L113.1094,21.0156 Q113.1094,21.625 112.875,21.8906 Q112.6406,22.1563 112.2656,22.1563 Q111.9219,22.1563 111.7188,21.9531 Q111.5156,21.7656 111.4063,21.25 Q111.3594,20.8906 111.1719,20.7031 Q110.8438,20.3281 110.2344,20.1094 Q109.625,19.8906 109,19.8906 Q108.2344,19.8906 107.5938,20.2188 Q106.9688,20.5469 106.4688,21.2969 Q105.9844,22.0469 105.9844,23.0781 L105.9844,24.1719 Q105.9844,25.4063 106.875,26.2344 Q107.7656,27.0469 109.3594,27.0469 Q110.2969,27.0469 110.9531,26.7969 Q111.3438,26.6406 111.7656,26.2031 Q112.0313,25.9375 112.1719,25.8594 Q112.3281,25.7813 112.5313,25.7813 Q112.8594,25.7813 113.1094,26.0469 Q113.375,26.2969 113.375,26.6406 Q113.375,26.9844 113.0313,27.3906 Q112.5313,27.9688 111.7344,28.2969 Q110.6563,28.75 109.3594,28.75 Q107.8438,28.75 106.6406,28.125 Q105.6563,27.625 104.9688,26.5625 Q104.2813,25.4844 104.2813,24.2031 L104.2813,23.0469 Q104.2813,21.7188 104.8906,20.5781 Q105.5156,19.4219 106.6094,18.8125 Q107.7031,18.1875 108.9375,18.1875 Q109.6719,18.1875 110.3125,18.3594 Q110.9688,18.5156 111.5156,18.875 Z " fill="#000000"/><text fill="#000000" font-family="sans-serif" font-size="12" lengthAdjust="spacing" textLength="48" x="129.25" y="27.9102">Ponto4D</text><line style="stroke:#A80036;stroke-width:1.5;" x1="8" x2="266" y1="39" y2="39"/><rect fill="none" height="6" style="stroke:#C82930;stroke-width:1.0;" width="6" x="15" y="47"/><text fill="#000000" font-family="sans-serif" font-size="11" lengthAdjust="spacing" textLength="47" x="27" y="54.4189">x : double</text><rect fill="none" height="6" style="stroke:#C82930;stroke-width:1.0;" width="6" x="15" y="60.8359"/><text fill="#000000" font-family="sans-serif" font-size="11" lengthAdjust="spacing" textLength="47" x="27" y="68.2549">y : double</text><rect fill="none" height="6" style="stroke:#C82930;stroke-width:1.0;" width="6" x="15" y="74.6719"/><text fill="#000000" font-family="sans-serif" font-size="11" lengthAdjust="spacing" textLength="47" x="27" y="82.0908">z : double</text><rect fill="none" height="6" style="stroke:#C82930;stroke-width:1.0;" width="6" x="15" y="88.5078"/><text fill="#000000" font-family="sans-serif" font-size="11" lengthAdjust="spacing" textLength="108" x="27" y="95.9268">«readonly» w : double</text><ellipse cx="18" cy="105.3438" rx="3" ry="3" style="stroke:#038048;stroke-width:1.0;fill:none;"/><text fill="#000000" font-family="sans-serif" font-size="11" lengthAdjust="spacing" textLength="108" x="27" y="109.7627">X : double «get» «set»</text><ellipse cx="18" cy="119.1797" rx="3" ry="3" style="stroke:#038048;stroke-width:1.0;fill:none;"/><text fill="#000000" font-family="sans-serif" font-size="11" lengthAdjust="spacing" textLength="109" x="27" y="123.5986">Y : double «get» «set»</text><ellipse cx="18" cy="133.0156" rx="3" ry="3" style="stroke:#038048;stroke-width:1.0;fill:none;"/><text fill="#000000" font-family="sans-serif" font-size="11" lengthAdjust="spacing" textLength="108" x="27" y="137.4346">Z : double «get» «set»</text><ellipse cx="18" cy="146.8516" rx="3" ry="3" style="stroke:#038048;stroke-width:1.0;fill:none;"/><text fill="#000000" font-family="sans-serif" font-size="11" lengthAdjust="spacing" textLength="81" x="27" y="151.2705">W : double «get»</text><line style="stroke:#A80036;stroke-width:1.5;" x1="8" x2="266" y1="157.6875" y2="157.6875"/><ellipse cx="18" cy="168.6875" fill="#84BE84" rx="3" ry="3" style="stroke:#038048;stroke-width:1.0;"/><text fill="#000000" font-family="sans-serif" font-size="11" lengthAdjust="spacing" textLength="234" x="27" y="173.1064">Ponto4D(x:double, y:double, z:double, w:double)</text><ellipse cx="18" cy="182.5234" fill="#84BE84" rx="3" ry="3" style="stroke:#038048;stroke-width:1.0;"/><text fill="#000000" font-family="sans-serif" font-size="11" lengthAdjust="spacing" textLength="106" x="27" y="186.9424">Ponto4D(pto:Ponto4D)</text><ellipse cx="18" cy="196.3594" fill="#84BE84" rx="3" ry="3" style="stroke:#038048;stroke-width:1.0;"/><text fill="#000000" font-family="sans-serif" font-size="11" lengthAdjust="spacing" textLength="139" x="27" y="200.7783">«override» ToString() : string</text><!--MD5=[f6bdb40a5ccbe7cdf62bcc100468eaf7]
@startuml
class Ponto4D {
    - x : double
    - y : double
    - z : double
    - <<readonly>> w : double
    + Ponto4D(x:double, y:double, z:double, w:double)
    + Ponto4D(pto:Ponto4D)
    + X : double <<get>> <<set>>
    + Y : double <<get>> <<set>>
    + Z : double <<get>> <<set>>
    + W : double <<get>>
    + <<override>> ToString() : string
}
@enduml

PlantUML version 1.2022.0(Tue Jan 11 13:16:42 BRT 2022)
(GPL source distribution)
Java Runtime: Java(TM) SE Runtime Environment
JVM: Java HotSpot(TM) 64-Bit Server VM
Default Encoding: Cp1252
Language: en
Country: US
--></g></svg>