<?xml version="1.0" encoding="UTF-8" standalone="no"?><svg xmlns="http://www.w3.org/2000/svg" xmlns:xlink="http://www.w3.org/1999/xlink" contentScriptType="application/ecmascript" contentStyleType="text/css" height="619px" preserveAspectRatio="none" style="width:1713px;height:619px;background:#FFFFFF;" version="1.1" viewBox="0 0 1713 619" width="1713px" zoomAndPan="magnify"><defs><filter height="300%" id="f1v8qviwjx8t62" width="300%" x="-1" y="-1"><feGaussianBlur result="blurOut" stdDeviation="2.0"/><feColorMatrix in="blurOut" result="blurOut2" type="matrix" values="0 0 0 0 0 0 0 0 0 0 0 0 0 0 0 0 0 0 .4 0"/><feOffset dx="4.0" dy="4.0" in="blurOut2" result="blurOut3"/><feBlend in="SourceGraphic" in2="blurOut3" mode="normal"/></filter></defs><g><text fill="#000000" font-family="sans-serif" font-size="18" lengthAdjust="spacing" textLength="383" x="658.75" y="18.6855">Diagrama de Classes - CG_Biblioteca Completo</text><!--MD5=[ea10f8dc465baf5e542f54928f2443c8]
class BBox--><rect codeLine="1" fill="#FEFECE" filter="url(#f1v8qviwjx8t62)" height="227.8672" id="BBox" style="stroke:#A80036;stroke-width:1.5;" width="512" x="819" y="36.6406"/><ellipse cx="1056.75" cy="52.6406" fill="#ADD1B2" rx="11" ry="11" style="stroke:#A80036;stroke-width:1.0;"/><path d="M1059.5156,48.5156 Q1059.6719,48.2969 1059.8594,48.1875 Q1060.0469,48.0781 1060.2656,48.0781 Q1060.6406,48.0781 1060.875,48.3438 Q1061.1094,48.5938 1061.1094,49.2031 L1061.1094,50.6563 Q1061.1094,51.2656 1060.875,51.5313 Q1060.6406,51.7969 1060.2656,51.7969 Q1059.9219,51.7969 1059.7188,51.5938 Q1059.5156,51.4063 1059.4063,50.8906 Q1059.3594,50.5313 1059.1719,50.3438 Q1058.8438,49.9688 1058.2344,49.75 Q1057.625,49.5313 1057,49.5313 Q1056.2344,49.5313 1055.5938,49.8594 Q1054.9688,50.1875 1054.4688,50.9375 Q1053.9844,51.6875 1053.9844,52.7188 L1053.9844,53.8125 Q1053.9844,55.0469 1054.875,55.875 Q1055.7656,56.6875 1057.3594,56.6875 Q1058.2969,56.6875 1058.9531,56.4375 Q1059.3438,56.2813 1059.7656,55.8438 Q1060.0313,55.5781 1060.1719,55.5 Q1060.3281,55.4219 1060.5313,55.4219 Q1060.8594,55.4219 1061.1094,55.6875 Q1061.375,55.9375 1061.375,56.2813 Q1061.375,56.625 1061.0313,57.0313 Q1060.5313,57.6094 1059.7344,57.9375 Q1058.6563,58.3906 1057.3594,58.3906 Q1055.8438,58.3906 1054.6406,57.7656 Q1053.6563,57.2656 1052.9688,56.2031 Q1052.2813,55.125 1052.2813,53.8438 L1052.2813,52.6875 Q1052.2813,51.3594 1052.8906,50.2188 Q1053.5156,49.0625 1054.6094,48.4531 Q1055.7031,47.8281 1056.9375,47.8281 Q1057.6719,47.8281 1058.3125,48 Q1058.9688,48.1563 1059.5156,48.5156 Z " fill="#000000"/><text fill="#000000" font-family="sans-serif" font-size="12" lengthAdjust="spacing" textLength="28" x="1077.25" y="57.5508">BBox</text><line style="stroke:#A80036;stroke-width:1.5;" x1="820" x2="1330" y1="68.6406" y2="68.6406"/><ellipse cx="830" cy="79.6406" rx="3" ry="3" style="stroke:#038048;stroke-width:1.0;fill:none;"/><text fill="#000000" font-family="sans-serif" font-size="11" lengthAdjust="spacing" textLength="133" x="839" y="84.0596">obterMenorX : double «get»</text><ellipse cx="830" cy="93.4766" rx="3" ry="3" style="stroke:#038048;stroke-width:1.0;fill:none;"/><text fill="#000000" font-family="sans-serif" font-size="11" lengthAdjust="spacing" textLength="134" x="839" y="97.8955">obterMenorY : double «get»</text><ellipse cx="830" cy="107.3125" rx="3" ry="3" style="stroke:#038048;stroke-width:1.0;fill:none;"/><text fill="#000000" font-family="sans-serif" font-size="11" lengthAdjust="spacing" textLength="133" x="839" y="111.7314">obterMenorZ : double «get»</text><ellipse cx="830" cy="121.1484" rx="3" ry="3" style="stroke:#038048;stroke-width:1.0;fill:none;"/><text fill="#000000" font-family="sans-serif" font-size="11" lengthAdjust="spacing" textLength="129" x="839" y="125.5674">obterMaiorX : double «get»</text><ellipse cx="830" cy="134.9844" rx="3" ry="3" style="stroke:#038048;stroke-width:1.0;fill:none;"/><text fill="#000000" font-family="sans-serif" font-size="11" lengthAdjust="spacing" textLength="130" x="839" y="139.4033">obterMaiorY : double «get»</text><ellipse cx="830" cy="148.8203" rx="3" ry="3" style="stroke:#038048;stroke-width:1.0;fill:none;"/><text fill="#000000" font-family="sans-serif" font-size="11" lengthAdjust="spacing" textLength="129" x="839" y="153.2393">obterMaiorZ : double «get»</text><line style="stroke:#A80036;stroke-width:1.5;" x1="820" x2="1330" y1="159.6563" y2="159.6563"/><ellipse cx="830" cy="170.6563" fill="#84BE84" rx="3" ry="3" style="stroke:#038048;stroke-width:1.0;"/><text fill="#000000" font-family="sans-serif" font-size="11" lengthAdjust="spacing" textLength="486" x="839" y="175.0752">BBox(menorX:double, menorY:double, menorZ:double, maiorX:double, maiorY:double, maiorZ:double)</text><ellipse cx="830" cy="184.4922" fill="#84BE84" rx="3" ry="3" style="stroke:#038048;stroke-width:1.0;"/><text fill="#000000" font-family="sans-serif" font-size="11" lengthAdjust="spacing" textLength="130" x="839" y="188.9111">Atribuir(pto:Ponto4D) : void</text><ellipse cx="830" cy="198.3281" fill="#84BE84" rx="3" ry="3" style="stroke:#038048;stroke-width:1.0;"/><text fill="#000000" font-family="sans-serif" font-size="11" lengthAdjust="spacing" textLength="138" x="839" y="202.7471">Atualizar(pto:Ponto4D) : void</text><ellipse cx="830" cy="212.1641" fill="#84BE84" rx="3" ry="3" style="stroke:#038048;stroke-width:1.0;"/><text fill="#000000" font-family="sans-serif" font-size="11" lengthAdjust="spacing" textLength="215" x="839" y="216.583">Atualizar(x:double, y:double, z:double) : void</text><ellipse cx="830" cy="226" fill="#84BE84" rx="3" ry="3" style="stroke:#038048;stroke-width:1.0;"/><text fill="#000000" font-family="sans-serif" font-size="11" lengthAdjust="spacing" textLength="119" x="839" y="230.4189">ProcessarCentro() : void</text><ellipse cx="830" cy="239.8359" fill="#84BE84" rx="3" ry="3" style="stroke:#038048;stroke-width:1.0;"/><text fill="#000000" font-family="sans-serif" font-size="11" lengthAdjust="spacing" textLength="84" x="839" y="244.2549">Desenhar() : void</text><ellipse cx="830" cy="253.6719" fill="#84BE84" rx="3" ry="3" style="stroke:#038048;stroke-width:1.0;"/><text fill="#000000" font-family="sans-serif" font-size="11" lengthAdjust="spacing" textLength="139" x="839" y="258.0908">«override» ToString() : string</text><!--MD5=[ef5ff341dffd6737742a54781c8b5648]
class Ponto4D--><rect codeLine="56" fill="#FEFECE" filter="url(#f1v8qviwjx8t62)" height="144.8516" id="Ponto4D" style="stroke:#A80036;stroke-width:1.5;" width="260" x="945" y="387.1406"/><ellipse cx="1046.75" cy="403.1406" fill="#ADD1B2" rx="11" ry="11" style="stroke:#A80036;stroke-width:1.0;"/><path d="M1049.5156,399.0156 Q1049.6719,398.7969 1049.8594,398.6875 Q1050.0469,398.5781 1050.2656,398.5781 Q1050.6406,398.5781 1050.875,398.8438 Q1051.1094,399.0938 1051.1094,399.7031 L1051.1094,401.1563 Q1051.1094,401.7656 1050.875,402.0313 Q1050.6406,402.2969 1050.2656,402.2969 Q1049.9219,402.2969 1049.7188,402.0938 Q1049.5156,401.9063 1049.4063,401.3906 Q1049.3594,401.0313 1049.1719,400.8438 Q1048.8438,400.4688 1048.2344,400.25 Q1047.625,400.0313 1047,400.0313 Q1046.2344,400.0313 1045.5938,400.3594 Q1044.9688,400.6875 1044.4688,401.4375 Q1043.9844,402.1875 1043.9844,403.2188 L1043.9844,404.3125 Q1043.9844,405.5469 1044.875,406.375 Q1045.7656,407.1875 1047.3594,407.1875 Q1048.2969,407.1875 1048.9531,406.9375 Q1049.3438,406.7813 1049.7656,406.3438 Q1050.0313,406.0781 1050.1719,406 Q1050.3281,405.9219 1050.5313,405.9219 Q1050.8594,405.9219 1051.1094,406.1875 Q1051.375,406.4375 1051.375,406.7813 Q1051.375,407.125 1051.0313,407.5313 Q1050.5313,408.1094 1049.7344,408.4375 Q1048.6563,408.8906 1047.3594,408.8906 Q1045.8438,408.8906 1044.6406,408.2656 Q1043.6563,407.7656 1042.9688,406.7031 Q1042.2813,405.625 1042.2813,404.3438 L1042.2813,403.1875 Q1042.2813,401.8594 1042.8906,400.7188 Q1043.5156,399.5625 1044.6094,398.9531 Q1045.7031,398.3281 1046.9375,398.3281 Q1047.6719,398.3281 1048.3125,398.5 Q1048.9688,398.6563 1049.5156,399.0156 Z " fill="#000000"/><text fill="#000000" font-family="sans-serif" font-size="12" lengthAdjust="spacing" textLength="48" x="1067.25" y="408.0508">Ponto4D</text><line style="stroke:#A80036;stroke-width:1.5;" x1="946" x2="1204" y1="419.1406" y2="419.1406"/><ellipse cx="956" cy="430.1406" rx="3" ry="3" style="stroke:#038048;stroke-width:1.0;fill:none;"/><text fill="#000000" font-family="sans-serif" font-size="11" lengthAdjust="spacing" textLength="108" x="965" y="434.5596">X : double «get» «set»</text><ellipse cx="956" cy="443.9766" rx="3" ry="3" style="stroke:#038048;stroke-width:1.0;fill:none;"/><text fill="#000000" font-family="sans-serif" font-size="11" lengthAdjust="spacing" textLength="109" x="965" y="448.3955">Y : double «get» «set»</text><ellipse cx="956" cy="457.8125" rx="3" ry="3" style="stroke:#038048;stroke-width:1.0;fill:none;"/><text fill="#000000" font-family="sans-serif" font-size="11" lengthAdjust="spacing" textLength="108" x="965" y="462.2314">Z : double «get» «set»</text><ellipse cx="956" cy="471.6484" rx="3" ry="3" style="stroke:#038048;stroke-width:1.0;fill:none;"/><text fill="#000000" font-family="sans-serif" font-size="11" lengthAdjust="spacing" textLength="81" x="965" y="476.0674">W : double «get»</text><line style="stroke:#A80036;stroke-width:1.5;" x1="946" x2="1204" y1="482.4844" y2="482.4844"/><ellipse cx="956" cy="493.4844" fill="#84BE84" rx="3" ry="3" style="stroke:#038048;stroke-width:1.0;"/><text fill="#000000" font-family="sans-serif" font-size="11" lengthAdjust="spacing" textLength="234" x="965" y="497.9033">Ponto4D(x:double, y:double, z:double, w:double)</text><ellipse cx="956" cy="507.3203" fill="#84BE84" rx="3" ry="3" style="stroke:#038048;stroke-width:1.0;"/><text fill="#000000" font-family="sans-serif" font-size="11" lengthAdjust="spacing" textLength="106" x="965" y="511.7393">Ponto4D(pto:Ponto4D)</text><ellipse cx="956" cy="521.1563" fill="#84BE84" rx="3" ry="3" style="stroke:#038048;stroke-width:1.0;"/><text fill="#000000" font-family="sans-serif" font-size="11" lengthAdjust="spacing" textLength="139" x="965" y="525.5752">«override» ToString() : string</text><!--MD5=[a7a8f22eafb289696c295eb36d2b4bda]
class CameraOrtho--><rect codeLine="17" fill="#FEFECE" filter="url(#f1v8qviwjx8t62)" height="241.7031" id="CameraOrtho" style="stroke:#A80036;stroke-width:1.5;" width="482" x="7" y="29.6406"/><ellipse cx="206.25" cy="45.6406" fill="#ADD1B2" rx="11" ry="11" style="stroke:#A80036;stroke-width:1.0;"/><path d="M209.0156,41.5156 Q209.1719,41.2969 209.3594,41.1875 Q209.5469,41.0781 209.7656,41.0781 Q210.1406,41.0781 210.375,41.3438 Q210.6094,41.5938 210.6094,42.2031 L210.6094,43.6563 Q210.6094,44.2656 210.375,44.5313 Q210.1406,44.7969 209.7656,44.7969 Q209.4219,44.7969 209.2188,44.5938 Q209.0156,44.4063 208.9063,43.8906 Q208.8594,43.5313 208.6719,43.3438 Q208.3438,42.9688 207.7344,42.75 Q207.125,42.5313 206.5,42.5313 Q205.7344,42.5313 205.0938,42.8594 Q204.4688,43.1875 203.9688,43.9375 Q203.4844,44.6875 203.4844,45.7188 L203.4844,46.8125 Q203.4844,48.0469 204.375,48.875 Q205.2656,49.6875 206.8594,49.6875 Q207.7969,49.6875 208.4531,49.4375 Q208.8438,49.2813 209.2656,48.8438 Q209.5313,48.5781 209.6719,48.5 Q209.8281,48.4219 210.0313,48.4219 Q210.3594,48.4219 210.6094,48.6875 Q210.875,48.9375 210.875,49.2813 Q210.875,49.625 210.5313,50.0313 Q210.0313,50.6094 209.2344,50.9375 Q208.1563,51.3906 206.8594,51.3906 Q205.3438,51.3906 204.1406,50.7656 Q203.1563,50.2656 202.4688,49.2031 Q201.7813,48.125 201.7813,46.8438 L201.7813,45.6875 Q201.7813,44.3594 202.3906,43.2188 Q203.0156,42.0625 204.1094,41.4531 Q205.2031,40.8281 206.4375,40.8281 Q207.1719,40.8281 207.8125,41 Q208.4688,41.1563 209.0156,41.5156 Z " fill="#000000"/><text fill="#000000" font-family="sans-serif" font-size="12" lengthAdjust="spacing" textLength="75" x="226.75" y="50.5508">CameraOrtho</text><line style="stroke:#A80036;stroke-width:1.5;" x1="8" x2="488" y1="61.6406" y2="61.6406"/><ellipse cx="18" cy="72.6406" rx="3" ry="3" style="stroke:#038048;stroke-width:1.0;fill:none;"/><text fill="#000000" font-family="sans-serif" font-size="11" lengthAdjust="spacing" textLength="123" x="27" y="77.0596">xmin : double «get» «set»</text><ellipse cx="18" cy="86.4766" rx="3" ry="3" style="stroke:#038048;stroke-width:1.0;fill:none;"/><text fill="#000000" font-family="sans-serif" font-size="11" lengthAdjust="spacing" textLength="127" x="27" y="90.8955">xmax : double «get» «set»</text><ellipse cx="18" cy="100.3125" rx="3" ry="3" style="stroke:#038048;stroke-width:1.0;fill:none;"/><text fill="#000000" font-family="sans-serif" font-size="11" lengthAdjust="spacing" textLength="123" x="27" y="104.7314">ymin : double «get» «set»</text><ellipse cx="18" cy="114.1484" rx="3" ry="3" style="stroke:#038048;stroke-width:1.0;fill:none;"/><text fill="#000000" font-family="sans-serif" font-size="11" lengthAdjust="spacing" textLength="127" x="27" y="118.5674">ymax : double «get» «set»</text><ellipse cx="18" cy="127.9844" rx="3" ry="3" style="stroke:#038048;stroke-width:1.0;fill:none;"/><text fill="#000000" font-family="sans-serif" font-size="11" lengthAdjust="spacing" textLength="123" x="27" y="132.4033">zmin : double «get» «set»</text><ellipse cx="18" cy="141.8203" rx="3" ry="3" style="stroke:#038048;stroke-width:1.0;fill:none;"/><text fill="#000000" font-family="sans-serif" font-size="11" lengthAdjust="spacing" textLength="127" x="27" y="146.2393">zmax : double «get» «set»</text><line style="stroke:#A80036;stroke-width:1.5;" x1="8" x2="488" y1="152.6563" y2="152.6563"/><ellipse cx="18" cy="163.6563" fill="#84BE84" rx="3" ry="3" style="stroke:#038048;stroke-width:1.0;"/><text fill="#000000" font-family="sans-serif" font-size="11" lengthAdjust="spacing" textLength="456" x="27" y="168.0752">CameraOrtho(xMin:double, xMax:double, yMin:double, yMax:double, zMin:double, zMax:double)</text><ellipse cx="18" cy="177.4922" fill="#84BE84" rx="3" ry="3" style="stroke:#038048;stroke-width:1.0;"/><text fill="#000000" font-family="sans-serif" font-size="11" lengthAdjust="spacing" textLength="101" x="27" y="181.9111">PanEsquerda() : void</text><ellipse cx="18" cy="191.3281" fill="#84BE84" rx="3" ry="3" style="stroke:#038048;stroke-width:1.0;"/><text fill="#000000" font-family="sans-serif" font-size="11" lengthAdjust="spacing" textLength="85" x="27" y="195.7471">PanDireita() : void</text><ellipse cx="18" cy="205.1641" fill="#84BE84" rx="3" ry="3" style="stroke:#038048;stroke-width:1.0;"/><text fill="#000000" font-family="sans-serif" font-size="11" lengthAdjust="spacing" textLength="78" x="27" y="209.583">PanCima() : void</text><ellipse cx="18" cy="219" fill="#84BE84" rx="3" ry="3" style="stroke:#038048;stroke-width:1.0;"/><text fill="#000000" font-family="sans-serif" font-size="11" lengthAdjust="spacing" textLength="82" x="27" y="223.4189">PanBaixo() : void</text><ellipse cx="18" cy="232.8359" fill="#84BE84" rx="3" ry="3" style="stroke:#038048;stroke-width:1.0;"/><text fill="#000000" font-family="sans-serif" font-size="11" lengthAdjust="spacing" textLength="72" x="27" y="237.2549">ZoomIn() : void</text><ellipse cx="18" cy="246.6719" fill="#84BE84" rx="3" ry="3" style="stroke:#038048;stroke-width:1.0;"/><text fill="#000000" font-family="sans-serif" font-size="11" lengthAdjust="spacing" textLength="81" x="27" y="251.0908">ZoomOut() : void</text><ellipse cx="18" cy="260.5078" fill="#84BE84" rx="3" ry="3" style="stroke:#038048;stroke-width:1.0;"/><text fill="#000000" font-family="sans-serif" font-size="11" lengthAdjust="spacing" textLength="139" x="27" y="264.9268">«override» ToString() : string</text><!--MD5=[c3851e40b8ed2f68ee08d490e0f0cd81]
class CameraPerspective--><rect codeLine="33" fill="#FEFECE" filter="url(#f1v8qviwjx8t62)" height="131.0156" id="CameraPerspective" style="stroke:#A80036;stroke-width:1.5;" width="333" x="1366.5" y="85.1406"/><ellipse cx="1474.25" cy="101.1406" fill="#ADD1B2" rx="11" ry="11" style="stroke:#A80036;stroke-width:1.0;"/><path d="M1477.0156,97.0156 Q1477.1719,96.7969 1477.3594,96.6875 Q1477.5469,96.5781 1477.7656,96.5781 Q1478.1406,96.5781 1478.375,96.8438 Q1478.6094,97.0938 1478.6094,97.7031 L1478.6094,99.1563 Q1478.6094,99.7656 1478.375,100.0313 Q1478.1406,100.2969 1477.7656,100.2969 Q1477.4219,100.2969 1477.2188,100.0938 Q1477.0156,99.9063 1476.9063,99.3906 Q1476.8594,99.0313 1476.6719,98.8438 Q1476.3438,98.4688 1475.7344,98.25 Q1475.125,98.0313 1474.5,98.0313 Q1473.7344,98.0313 1473.0938,98.3594 Q1472.4688,98.6875 1471.9688,99.4375 Q1471.4844,100.1875 1471.4844,101.2188 L1471.4844,102.3125 Q1471.4844,103.5469 1472.375,104.375 Q1473.2656,105.1875 1474.8594,105.1875 Q1475.7969,105.1875 1476.4531,104.9375 Q1476.8438,104.7813 1477.2656,104.3438 Q1477.5313,104.0781 1477.6719,104 Q1477.8281,103.9219 1478.0313,103.9219 Q1478.3594,103.9219 1478.6094,104.1875 Q1478.875,104.4375 1478.875,104.7813 Q1478.875,105.125 1478.5313,105.5313 Q1478.0313,106.1094 1477.2344,106.4375 Q1476.1563,106.8906 1474.8594,106.8906 Q1473.3438,106.8906 1472.1406,106.2656 Q1471.1563,105.7656 1470.4688,104.7031 Q1469.7813,103.625 1469.7813,102.3438 L1469.7813,101.1875 Q1469.7813,99.8594 1470.3906,98.7188 Q1471.0156,97.5625 1472.1094,96.9531 Q1473.2031,96.3281 1474.4375,96.3281 Q1475.1719,96.3281 1475.8125,96.5 Q1476.4688,96.6563 1477.0156,97.0156 Z " fill="#000000"/><text fill="#000000" font-family="sans-serif" font-size="12" lengthAdjust="spacing" textLength="109" x="1494.75" y="106.0508">CameraPerspective</text><line style="stroke:#A80036;stroke-width:1.5;" x1="1367.5" x2="1698.5" y1="117.1406" y2="117.1406"/><ellipse cx="1377.5" cy="128.1406" rx="3" ry="3" style="stroke:#038048;stroke-width:1.0;fill:none;"/><text fill="#000000" font-family="sans-serif" font-size="11" lengthAdjust="spacing" textLength="114" x="1386.5" y="132.5596">Fovy : float «get» «set»</text><ellipse cx="1377.5" cy="141.9766" rx="3" ry="3" style="stroke:#038048;stroke-width:1.0;fill:none;"/><text fill="#000000" font-family="sans-serif" font-size="11" lengthAdjust="spacing" textLength="125" x="1386.5" y="146.3955">Aspect : float «get» «set»</text><ellipse cx="1377.5" cy="155.8125" rx="3" ry="3" style="stroke:#038048;stroke-width:1.0;fill:none;"/><text fill="#000000" font-family="sans-serif" font-size="11" lengthAdjust="spacing" textLength="113" x="1386.5" y="160.2314">Near : float «get» «set»</text><ellipse cx="1377.5" cy="169.6484" rx="3" ry="3" style="stroke:#038048;stroke-width:1.0;fill:none;"/><text fill="#000000" font-family="sans-serif" font-size="11" lengthAdjust="spacing" textLength="106" x="1386.5" y="174.0674">Far : float «get» «set»</text><line style="stroke:#A80036;stroke-width:1.5;" x1="1367.5" x2="1698.5" y1="180.4844" y2="180.4844"/><ellipse cx="1377.5" cy="191.4844" fill="#84BE84" rx="3" ry="3" style="stroke:#038048;stroke-width:1.0;"/><text fill="#000000" font-family="sans-serif" font-size="11" lengthAdjust="spacing" textLength="307" x="1386.5" y="195.9033">CameraPerspective(fovy:float, aspect:float, near:float, far:float)</text><ellipse cx="1377.5" cy="205.3203" fill="#84BE84" rx="3" ry="3" style="stroke:#038048;stroke-width:1.0;"/><text fill="#000000" font-family="sans-serif" font-size="11" lengthAdjust="spacing" textLength="139" x="1386.5" y="209.7393">«override» ToString() : string</text><!--MD5=[65d619c042c23702cef2ca07d67b1cf6]
class Vector3--><rect fill="#FEFECE" filter="url(#f1v8qviwjx8t62)" height="48" id="Vector3" style="stroke:#A80036;stroke-width:1.5;" width="73" x="1496.5" y="435.6406"/><ellipse cx="1511.5" cy="451.6406" fill="#ADD1B2" rx="11" ry="11" style="stroke:#A80036;stroke-width:1.0;"/><path d="M1514.2656,447.5156 Q1514.4219,447.2969 1514.6094,447.1875 Q1514.7969,447.0781 1515.0156,447.0781 Q1515.3906,447.0781 1515.625,447.3438 Q1515.8594,447.5938 1515.8594,448.2031 L1515.8594,449.6563 Q1515.8594,450.2656 1515.625,450.5313 Q1515.3906,450.7969 1515.0156,450.7969 Q1514.6719,450.7969 1514.4688,450.5938 Q1514.2656,450.4063 1514.1563,449.8906 Q1514.1094,449.5313 1513.9219,449.3438 Q1513.5938,448.9688 1512.9844,448.75 Q1512.375,448.5313 1511.75,448.5313 Q1510.9844,448.5313 1510.3438,448.8594 Q1509.7188,449.1875 1509.2188,449.9375 Q1508.7344,450.6875 1508.7344,451.7188 L1508.7344,452.8125 Q1508.7344,454.0469 1509.625,454.875 Q1510.5156,455.6875 1512.1094,455.6875 Q1513.0469,455.6875 1513.7031,455.4375 Q1514.0938,455.2813 1514.5156,454.8438 Q1514.7813,454.5781 1514.9219,454.5 Q1515.0781,454.4219 1515.2813,454.4219 Q1515.6094,454.4219 1515.8594,454.6875 Q1516.125,454.9375 1516.125,455.2813 Q1516.125,455.625 1515.7813,456.0313 Q1515.2813,456.6094 1514.4844,456.9375 Q1513.4063,457.3906 1512.1094,457.3906 Q1510.5938,457.3906 1509.3906,456.7656 Q1508.4063,456.2656 1507.7188,455.2031 Q1507.0313,454.125 1507.0313,452.8438 L1507.0313,451.6875 Q1507.0313,450.3594 1507.6406,449.2188 Q1508.2656,448.0625 1509.3594,447.4531 Q1510.4531,446.8281 1511.6875,446.8281 Q1512.4219,446.8281 1513.0625,447 Q1513.7188,447.1563 1514.2656,447.5156 Z " fill="#000000"/><text fill="#000000" font-family="sans-serif" font-size="12" lengthAdjust="spacing" textLength="41" x="1525.5" y="456.5508">Vector3</text><line style="stroke:#A80036;stroke-width:1.5;" x1="1497.5" x2="1568.5" y1="467.6406" y2="467.6406"/><line style="stroke:#A80036;stroke-width:1.5;" x1="1497.5" x2="1568.5" y1="475.6406" y2="475.6406"/><!--MD5=[9ac43fafcd0ede942dc8e681a30a1b52]
class Cor--><rect codeLine="44" fill="#FEFECE" filter="url(#f1v8qviwjx8t62)" height="131.0156" id="Cor" style="stroke:#A80036;stroke-width:1.5;" width="259" x="524.5" y="85.1406"/><ellipse cx="639.75" cy="101.1406" fill="#ADD1B2" rx="11" ry="11" style="stroke:#A80036;stroke-width:1.0;"/><path d="M642.5156,97.0156 Q642.6719,96.7969 642.8594,96.6875 Q643.0469,96.5781 643.2656,96.5781 Q643.6406,96.5781 643.875,96.8438 Q644.1094,97.0938 644.1094,97.7031 L644.1094,99.1563 Q644.1094,99.7656 643.875,100.0313 Q643.6406,100.2969 643.2656,100.2969 Q642.9219,100.2969 642.7188,100.0938 Q642.5156,99.9063 642.4063,99.3906 Q642.3594,99.0313 642.1719,98.8438 Q641.8438,98.4688 641.2344,98.25 Q640.625,98.0313 640,98.0313 Q639.2344,98.0313 638.5938,98.3594 Q637.9688,98.6875 637.4688,99.4375 Q636.9844,100.1875 636.9844,101.2188 L636.9844,102.3125 Q636.9844,103.5469 637.875,104.375 Q638.7656,105.1875 640.3594,105.1875 Q641.2969,105.1875 641.9531,104.9375 Q642.3438,104.7813 642.7656,104.3438 Q643.0313,104.0781 643.1719,104 Q643.3281,103.9219 643.5313,103.9219 Q643.8594,103.9219 644.1094,104.1875 Q644.375,104.4375 644.375,104.7813 Q644.375,105.125 644.0313,105.5313 Q643.5313,106.1094 642.7344,106.4375 Q641.6563,106.8906 640.3594,106.8906 Q638.8438,106.8906 637.6406,106.2656 Q636.6563,105.7656 635.9688,104.7031 Q635.2813,103.625 635.2813,102.3438 L635.2813,101.1875 Q635.2813,99.8594 635.8906,98.7188 Q636.5156,97.5625 637.6094,96.9531 Q638.7031,96.3281 639.9375,96.3281 Q640.6719,96.3281 641.3125,96.5 Q641.9688,96.6563 642.5156,97.0156 Z " fill="#000000"/><text fill="#000000" font-family="sans-serif" font-size="12" lengthAdjust="spacing" textLength="20" x="660.25" y="106.0508">Cor</text><line style="stroke:#A80036;stroke-width:1.5;" x1="525.5" x2="782.5" y1="117.1406" y2="117.1406"/><ellipse cx="535.5" cy="128.1406" rx="3" ry="3" style="stroke:#038048;stroke-width:1.0;fill:none;"/><text fill="#000000" font-family="sans-serif" font-size="11" lengthAdjust="spacing" textLength="114" x="544.5" y="132.5596">CorR : byte «get» «set»</text><ellipse cx="535.5" cy="141.9766" rx="3" ry="3" style="stroke:#038048;stroke-width:1.0;fill:none;"/><text fill="#000000" font-family="sans-serif" font-size="11" lengthAdjust="spacing" textLength="115" x="544.5" y="146.3955">CorG : byte «get» «set»</text><ellipse cx="535.5" cy="155.8125" rx="3" ry="3" style="stroke:#038048;stroke-width:1.0;fill:none;"/><text fill="#000000" font-family="sans-serif" font-size="11" lengthAdjust="spacing" textLength="114" x="544.5" y="160.2314">CorB : byte «get» «set»</text><ellipse cx="535.5" cy="169.6484" rx="3" ry="3" style="stroke:#038048;stroke-width:1.0;fill:none;"/><text fill="#000000" font-family="sans-serif" font-size="11" lengthAdjust="spacing" textLength="115" x="544.5" y="174.0674">CorA : byte «get» «set»</text><line style="stroke:#A80036;stroke-width:1.5;" x1="525.5" x2="782.5" y1="180.4844" y2="180.4844"/><ellipse cx="535.5" cy="191.4844" fill="#84BE84" rx="3" ry="3" style="stroke:#038048;stroke-width:1.0;"/><text fill="#000000" font-family="sans-serif" font-size="11" lengthAdjust="spacing" textLength="233" x="544.5" y="195.9033">Cor(corR:byte, corG:byte, corB:byte, corA:byte)</text><ellipse cx="535.5" cy="205.3203" fill="#84BE84" rx="3" ry="3" style="stroke:#038048;stroke-width:1.0;"/><text fill="#000000" font-family="sans-serif" font-size="11" lengthAdjust="spacing" textLength="139" x="544.5" y="209.7393">«override» ToString() : string</text><!--MD5=[57370106b09f55ffa37deb7835ffe78b]
class Matematica--><rect codeLine="52" fill="#FEFECE" filter="url(#f1v8qviwjx8t62)" height="75.6719" id="Matematica" style="stroke:#A80036;stroke-width:1.5;" width="291" x="102.5" y="421.6406"/><ellipse cx="212.25" cy="437.6406" fill="#A9DCDF" rx="11" ry="11" style="stroke:#A80036;stroke-width:1.0;"/><path d="M214.4375,439.4063 L210.2969,439.4063 L209.875,440.4375 L210.2969,440.4375 Q210.9063,440.4375 211.1719,440.6719 Q211.4375,440.9063 211.4375,441.2969 Q211.4375,441.6719 211.1719,441.9063 Q210.9063,442.1406 210.2969,442.1406 L208,442.1406 Q207.3906,442.1406 207.1406,441.9063 Q206.875,441.6719 206.875,441.2813 Q206.875,440.9063 207.1563,440.6719 Q207.4219,440.4219 208.0469,440.4375 L210.7188,433.7813 L209.6094,433.7813 Q209,433.7813 208.7344,433.5469 Q208.4688,433.3125 208.4688,432.9219 Q208.4688,432.5469 208.7344,432.3125 Q209,432.0781 209.6094,432.0781 L213.2813,432.0781 L216.6719,440.4375 Q217.2656,440.4375 217.4531,440.5781 Q217.8438,440.8438 217.8438,441.2969 Q217.8438,441.6719 217.5781,441.9063 Q217.3281,442.1406 216.7188,442.1406 L214.4219,442.1406 Q213.8125,442.1406 213.5469,441.9063 Q213.2813,441.6719 213.2813,441.2813 Q213.2813,440.9063 213.5469,440.6719 Q213.8125,440.4375 214.4219,440.4375 L214.8438,440.4375 L214.4375,439.4063 Z M213.7188,437.7031 L212.3594,434.3281 L210.9844,437.7031 L213.7188,437.7031 Z " fill="#000000"/><text fill="#000000" font-family="sans-serif" font-size="12" font-style="italic" lengthAdjust="spacing" textLength="63" x="232.75" y="442.5508">Matematica</text><line style="stroke:#A80036;stroke-width:1.5;" x1="103.5" x2="392.5" y1="453.6406" y2="453.6406"/><line style="stroke:#A80036;stroke-width:1.5;" x1="103.5" x2="392.5" y1="461.6406" y2="461.6406"/><ellipse cx="113.5" cy="472.6406" fill="#84BE84" rx="3" ry="3" style="stroke:#038048;stroke-width:1.0;"/><text fill="#000000" font-family="sans-serif" font-size="11" lengthAdjust="spacing" text-decoration="underline" textLength="265" x="122.5" y="477.0596">GerarPtosCirculo(angulo:double, raio:double) : Ponto4D</text><ellipse cx="113.5" cy="486.4766" fill="#84BE84" rx="3" ry="3" style="stroke:#038048;stroke-width:1.0;"/><text fill="#000000" font-family="sans-serif" font-size="11" lengthAdjust="spacing" text-decoration="underline" textLength="228" x="122.5" y="490.8955">GerarPtosCirculoSimétrico(raio:double) : double</text><!--MD5=[6746db26fbf3328699b5b65a634cc0f3]
class Transformacao4D--><rect codeLine="65" fill="#FEFECE" filter="url(#f1v8qviwjx8t62)" height="255.5391" id="Transformacao4D" style="stroke:#A80036;stroke-width:1.5;" width="412" x="429" y="331.6406"/><ellipse cx="580.75" cy="347.6406" fill="#ADD1B2" rx="11" ry="11" style="stroke:#A80036;stroke-width:1.0;"/><path d="M583.5156,343.5156 Q583.6719,343.2969 583.8594,343.1875 Q584.0469,343.0781 584.2656,343.0781 Q584.6406,343.0781 584.875,343.3438 Q585.1094,343.5938 585.1094,344.2031 L585.1094,345.6563 Q585.1094,346.2656 584.875,346.5313 Q584.6406,346.7969 584.2656,346.7969 Q583.9219,346.7969 583.7188,346.5938 Q583.5156,346.4063 583.4063,345.8906 Q583.3594,345.5313 583.1719,345.3438 Q582.8438,344.9688 582.2344,344.75 Q581.625,344.5313 581,344.5313 Q580.2344,344.5313 579.5938,344.8594 Q578.9688,345.1875 578.4688,345.9375 Q577.9844,346.6875 577.9844,347.7188 L577.9844,348.8125 Q577.9844,350.0469 578.875,350.875 Q579.7656,351.6875 581.3594,351.6875 Q582.2969,351.6875 582.9531,351.4375 Q583.3438,351.2813 583.7656,350.8438 Q584.0313,350.5781 584.1719,350.5 Q584.3281,350.4219 584.5313,350.4219 Q584.8594,350.4219 585.1094,350.6875 Q585.375,350.9375 585.375,351.2813 Q585.375,351.625 585.0313,352.0313 Q584.5313,352.6094 583.7344,352.9375 Q582.6563,353.3906 581.3594,353.3906 Q579.8438,353.3906 578.6406,352.7656 Q577.6563,352.2656 576.9688,351.2031 Q576.2813,350.125 576.2813,348.8438 L576.2813,347.6875 Q576.2813,346.3594 576.8906,345.2188 Q577.5156,344.0625 578.6094,343.4531 Q579.7031,342.8281 580.9375,342.8281 Q581.6719,342.8281 582.3125,343 Q582.9688,343.1563 583.5156,343.5156 Z " fill="#000000"/><text fill="#000000" font-family="sans-serif" font-size="12" lengthAdjust="spacing" textLength="100" x="601.25" y="352.5508">Transformacao4D</text><line style="stroke:#A80036;stroke-width:1.5;" x1="430" x2="840" y1="363.6406" y2="363.6406"/><ellipse cx="440" cy="374.6406" rx="3" ry="3" style="stroke:#038048;stroke-width:1.0;fill:none;"/><text fill="#000000" font-family="sans-serif" font-size="11" lengthAdjust="spacing" text-decoration="underline" textLength="386" x="449" y="379.0596">«readonly» DEG_TO_RAD : double = 0.017453292519943295769236907684886</text><line style="stroke:#A80036;stroke-width:1.5;" x1="430" x2="840" y1="385.4766" y2="385.4766"/><ellipse cx="440" cy="396.4766" fill="#84BE84" rx="3" ry="3" style="stroke:#038048;stroke-width:1.0;"/><text fill="#000000" font-family="sans-serif" font-size="11" lengthAdjust="spacing" textLength="95" x="449" y="400.8955">Transformacao4D()</text><ellipse cx="440" cy="410.3125" fill="#84BE84" rx="3" ry="3" style="stroke:#038048;stroke-width:1.0;"/><text fill="#000000" font-family="sans-serif" font-size="11" lengthAdjust="spacing" textLength="121" x="449" y="414.7314">AtribuirIdentidade() : void</text><ellipse cx="440" cy="424.1484" fill="#84BE84" rx="3" ry="3" style="stroke:#038048;stroke-width:1.0;"/><text fill="#000000" font-family="sans-serif" font-size="11" lengthAdjust="spacing" textLength="270" x="449" y="428.5674">AtribuirTranslacao(tx:double, ty:double, tz:double) : void</text><ellipse cx="440" cy="437.9844" fill="#84BE84" rx="3" ry="3" style="stroke:#038048;stroke-width:1.0;"/><text fill="#000000" font-family="sans-serif" font-size="11" lengthAdjust="spacing" textLength="261" x="449" y="442.4033">AtribuirEscala(sX:double, sY:double, sZ:double) : void</text><ellipse cx="440" cy="451.8203" fill="#84BE84" rx="3" ry="3" style="stroke:#038048;stroke-width:1.0;"/><text fill="#000000" font-family="sans-serif" font-size="11" lengthAdjust="spacing" textLength="190" x="449" y="456.2393">AtribuirRotacaoX(radians:double) : void</text><ellipse cx="440" cy="465.6563" fill="#84BE84" rx="3" ry="3" style="stroke:#038048;stroke-width:1.0;"/><text fill="#000000" font-family="sans-serif" font-size="11" lengthAdjust="spacing" textLength="191" x="449" y="470.0752">AtribuirRotacaoY(radians:double) : void</text><ellipse cx="440" cy="479.4922" fill="#84BE84" rx="3" ry="3" style="stroke:#038048;stroke-width:1.0;"/><text fill="#000000" font-family="sans-serif" font-size="11" lengthAdjust="spacing" textLength="190" x="449" y="483.9111">AtribuirRotacaoZ(radians:double) : void</text><ellipse cx="440" cy="493.3281" fill="#84BE84" rx="3" ry="3" style="stroke:#038048;stroke-width:1.0;"/><text fill="#000000" font-family="sans-serif" font-size="11" lengthAdjust="spacing" textLength="189" x="449" y="497.7471">MultiplicarPonto(pto:Ponto4D) : Ponto4D</text><ellipse cx="440" cy="507.1641" fill="#84BE84" rx="3" ry="3" style="stroke:#038048;stroke-width:1.0;"/><text fill="#000000" font-family="sans-serif" font-size="11" lengthAdjust="spacing" textLength="273" x="449" y="511.583">MultiplicarMatriz(t:Transformacao4D) : Transformacao4D</text><ellipse cx="440" cy="521" fill="#84BE84" rx="3" ry="3" style="stroke:#038048;stroke-width:1.0;"/><text fill="#000000" font-family="sans-serif" font-size="11" lengthAdjust="spacing" textLength="159" x="449" y="525.4189">ObterElemento(index:int) : double</text><ellipse cx="440" cy="534.8359" fill="#84BE84" rx="3" ry="3" style="stroke:#038048;stroke-width:1.0;"/><text fill="#000000" font-family="sans-serif" font-size="11" lengthAdjust="spacing" textLength="222" x="449" y="539.2549">AtribuirElemento(index:int, value:double) : void</text><ellipse cx="440" cy="548.6719" fill="#84BE84" rx="3" ry="3" style="stroke:#038048;stroke-width:1.0;"/><text fill="#000000" font-family="sans-serif" font-size="11" lengthAdjust="spacing" textLength="113" x="449" y="553.0908">ObterDados() : double[]</text><ellipse cx="440" cy="562.5078" fill="#84BE84" rx="3" ry="3" style="stroke:#038048;stroke-width:1.0;"/><text fill="#000000" font-family="sans-serif" font-size="11" lengthAdjust="spacing" textLength="165" x="449" y="566.9268">AtribuirDados(data:double[]) : void</text><ellipse cx="440" cy="576.3438" fill="#84BE84" rx="3" ry="3" style="stroke:#038048;stroke-width:1.0;"/><text fill="#000000" font-family="sans-serif" font-size="11" lengthAdjust="spacing" textLength="139" x="449" y="580.7627">«override» ToString() : string</text><!--MD5=[21d10fafb72c8ad2b9cea5ee0b564837]
link BBox to Ponto4D--><path codeLine="16" d="M1075,264.6506 C1075,303.5906 1075,346.2906 1075,381.6806 " fill="none" id="BBox-to-Ponto4D" style="stroke:#A80036;stroke-width:1.0;"/><polygon fill="#A80036" points="1075,386.8506,1079,377.8506,1075,381.8506,1071,377.8506,1075,386.8506" style="stroke:#A80036;stroke-width:1.0;"/><text fill="#000000" font-family="sans-serif" font-size="13" lengthAdjust="spacing" textLength="67" x="1004.5453" y="376.0401">obterCentro</text><!--MD5=[f94cdd04709e36a9b2c27ce98e350cf2]
link CameraPerspective to Vector3--><path codeLine="41" d="M1511.12,216.3706 C1503.73,282.5706 1505.71,382.3206 1517.06,430.5506 " fill="none" id="CameraPerspective-to-Vector3" style="stroke:#A80036;stroke-width:1.0;"/><polygon fill="#A80036" points="1518.34,435.6206,1520.0041,425.9134,1517.1105,430.7741,1512.2497,427.8806,1518.34,435.6206" style="stroke:#A80036;stroke-width:1.0;"/><text fill="#000000" font-family="sans-serif" font-size="13" lengthAdjust="spacing" textLength="23" x="1488.6365" y="424.9557">Eye</text><!--MD5=[f94cdd04709e36a9b2c27ce98e350cf2]
link CameraPerspective to Vector3--><path codeLine="42" d="M1533,216.3706 C1533,282.5706 1533,382.3206 1533,430.5506 " fill="none" id="CameraPerspective-to-Vector3-1" style="stroke:#A80036;stroke-width:1.0;"/><polygon fill="#A80036" points="1533,435.6206,1537,426.6206,1533,430.6206,1529,426.6206,1533,435.6206" style="stroke:#A80036;stroke-width:1.0;"/><text fill="#000000" font-family="sans-serif" font-size="13" lengthAdjust="spacing" textLength="13" x="1518.3344" y="424.9557">At</text><!--MD5=[f94cdd04709e36a9b2c27ce98e350cf2]
link CameraPerspective to Vector3--><path codeLine="43" d="M1554.88,216.3706 C1562.27,282.5706 1560.29,382.3206 1548.94,430.5506 " fill="none" id="CameraPerspective-to-Vector3-2" style="stroke:#A80036;stroke-width:1.0;"/><polygon fill="#A80036" points="1547.66,435.6206,1553.7503,427.8806,1548.8895,430.7741,1545.9959,425.9134,1547.66,435.6206" style="stroke:#A80036;stroke-width:1.0;"/><text fill="#000000" font-family="sans-serif" font-size="13" lengthAdjust="spacing" textLength="16" x="1553.4666" y="424.9557">Up</text><!--MD5=[e7de986f6000fe3d6a10445085ca244f]
link CameraOrtho to Cor--><!--MD5=[4f5707986820c6ec0abd120815a0bbac]
link CameraOrtho to Matematica--><!--MD5=[ac1c1ba96eba5558ebd60a36f28c26df]
link Matematica to Transformacao4D--><text fill="#888888" font-family="sans-serif" font-size="10" lengthAdjust="spacing" textLength="61" x="771.75" y="610.5605">Grupo GCG -</text><a href="http://gcg.inf.furb.br" target="_top" title="http://gcg.inf.furb.br" xlink:actuate="onRequest" xlink:href="http://gcg.inf.furb.br" xlink:show="new" xlink:title="http://gcg.inf.furb.br" xlink:type="simple"><text fill="#0000FF" font-family="sans-serif" font-size="10" lengthAdjust="spacing" text-decoration="underline" textLength="93" x="835.75" y="610.5605">http://gcg.inf.furb.br</text></a><!--MD5=[07bd0a5897ccb41f815dbb3e2da87251]
@startuml CG_Biblioteca_Completo

title Diagrama de Classes - CG_Biblioteca Completo
footer Grupo GCG - [[http://gcg.inf.furb.br]]

!include ./include.wsd

@enduml

@startuml CG_Biblioteca_Completo

title Diagrama de Classes - CG_Biblioteca Completo
footer Grupo GCG - [[http://gcg.inf.furb.br]]

class BBox {
    + BBox(menorX:double, menorY:double, menorZ:double, maiorX:double, maiorY:double, maiorZ:double)
    + Atribuir(pto:Ponto4D) : void
    + Atualizar(pto:Ponto4D) : void
    + Atualizar(x:double, y:double, z:double) : void
    + ProcessarCentro() : void
    + Desenhar() : void
    + obterMenorX : double <<get>>
    + obterMenorY : double <<get>>
    + obterMenorZ : double <<get>>
    + obterMaiorX : double <<get>>
    + obterMaiorY : double <<get>>
    + obterMaiorZ : double <<get>>
    + <<override>> ToString() : string
}
BBox - -> "obterCentro" Ponto4D
class CameraOrtho {
    + CameraOrtho(xMin:double, xMax:double, yMin:double, yMax:double, zMin:double, zMax:double)
    + xmin : double <<get>> <<set>>
    + xmax : double <<get>> <<set>>
    + ymin : double <<get>> <<set>>
    + ymax : double <<get>> <<set>>
    + zmin : double <<get>> <<set>>
    + zmax : double <<get>> <<set>>
    + PanEsquerda() : void
    + PanDireita() : void
    + PanCima() : void
    + PanBaixo() : void
    + ZoomIn() : void
    + ZoomOut() : void
    + <<override>> ToString() : string
}
class CameraPerspective {
    + CameraPerspective(fovy:float, aspect:float, near:float, far:float)
    + Fovy : float <<get>> <<set>>
    + Aspect : float <<get>> <<set>>
    + Near : float <<get>> <<set>>
    + Far : float <<get>> <<set>>
    + <<override>> ToString() : string
}
CameraPerspective - -> "Eye" Vector3
CameraPerspective - -> "At" Vector3
CameraPerspective - -> "Up" Vector3
class Cor {
    + Cor(corR:byte, corG:byte, corB:byte, corA:byte)
    + <<override>> ToString() : string
    + CorR : byte <<get>> <<set>>
    + CorG : byte <<get>> <<set>>
    + CorB : byte <<get>> <<set>>
    + CorA : byte <<get>> <<set>>
}
abstract class Matematica {
    + {static} GerarPtosCirculo(angulo:double, raio:double) : Ponto4D
    + {static} GerarPtosCirculoSimétrico(raio:double) : double
}
class Ponto4D {
    + Ponto4D(x:double, y:double, z:double, w:double)
    + Ponto4D(pto:Ponto4D)
    + X : double <<get>> <<set>>
    + Y : double <<get>> <<set>>
    + Z : double <<get>> <<set>>
    + W : double <<get>>
    + <<override>> ToString() : string
}
class Transformacao4D {
    {static} + <<readonly>> DEG_TO_RAD : double = 0.017453292519943295769236907684886
    + Transformacao4D()
    + AtribuirIdentidade() : void
    + AtribuirTranslacao(tx:double, ty:double, tz:double) : void
    + AtribuirEscala(sX:double, sY:double, sZ:double) : void
    + AtribuirRotacaoX(radians:double) : void
    + AtribuirRotacaoY(radians:double) : void
    + AtribuirRotacaoZ(radians:double) : void
    + MultiplicarPonto(pto:Ponto4D) : Ponto4D
    + MultiplicarMatriz(t:Transformacao4D) : Transformacao4D
    + ObterElemento(index:int) : double
    + AtribuirElemento(index:int, value:double) : void
    + ObterDados() : double[]
    + AtribuirDados(data:double[]) : void
    + <<override>> ToString() : string
}

@enduml

PlantUML version 1.2022.0(Tue Jan 11 13:16:42 BRT 2022)
(GPL source distribution)
Java Runtime: Java(TM) SE Runtime Environment
JVM: Java HotSpot(TM) 64-Bit Server VM
Default Encoding: Cp1252
Language: en
Country: US
--></g></svg>