<?xml version="1.0" encoding="UTF-8" standalone="no"?><svg xmlns="http://www.w3.org/2000/svg" xmlns:xlink="http://www.w3.org/1999/xlink" contentScriptType="application/ecmascript" contentStyleType="text/css" height="329px" preserveAspectRatio="none" style="width:510px;height:329px;background:#FFFFFF;" version="1.1" viewBox="0 0 510 329" width="510px" zoomAndPan="magnify"><defs><filter height="300%" id="f15fpfdcvo3pvb" width="300%" x="-1" y="-1"><feGaussianBlur result="blurOut" stdDeviation="2.0"/><feColorMatrix in="blurOut" result="blurOut2" type="matrix" values="0 0 0 0 0 0 0 0 0 0 0 0 0 0 0 0 0 0 .4 0"/><feOffset dx="4.0" dy="4.0" in="blurOut2" result="blurOut3"/><feBlend in="SourceGraphic" in2="blurOut3" mode="normal"/></filter></defs><g><!--MD5=[8b9e0d00865063ef789ad294aa32e6ea]
class ObjetoGeometria--><rect codeLine="1" fill="#FEFECE" filter="url(#f15fpfdcvo3pvb)" height="200.1953" id="ObjetoGeometria" style="stroke:#A80036;stroke-width:1.5;" width="245" x="9" y="115"/><ellipse cx="79.75" cy="131" fill="#A9DCDF" rx="11" ry="11" style="stroke:#A80036;stroke-width:1.0;"/><path d="M81.9375,132.7656 L77.7969,132.7656 L77.375,133.7969 L77.7969,133.7969 Q78.4063,133.7969 78.6719,134.0313 Q78.9375,134.2656 78.9375,134.6563 Q78.9375,135.0313 78.6719,135.2656 Q78.4063,135.5 77.7969,135.5 L75.5,135.5 Q74.8906,135.5 74.6406,135.2656 Q74.375,135.0313 74.375,134.6406 Q74.375,134.2656 74.6563,134.0313 Q74.9219,133.7813 75.5469,133.7969 L78.2188,127.1406 L77.1094,127.1406 Q76.5,127.1406 76.2344,126.9063 Q75.9688,126.6719 75.9688,126.2813 Q75.9688,125.9063 76.2344,125.6719 Q76.5,125.4375 77.1094,125.4375 L80.7813,125.4375 L84.1719,133.7969 Q84.7656,133.7969 84.9531,133.9375 Q85.3438,134.2031 85.3438,134.6563 Q85.3438,135.0313 85.0781,135.2656 Q84.8281,135.5 84.2188,135.5 L81.9219,135.5 Q81.3125,135.5 81.0469,135.2656 Q80.7813,135.0313 80.7813,134.6406 Q80.7813,134.2656 81.0469,134.0313 Q81.3125,133.7969 81.9219,133.7969 L82.3438,133.7969 L81.9375,132.7656 Z M81.2188,131.0625 L79.8594,127.6875 L78.4844,131.0625 L81.2188,131.0625 Z " fill="#000000"/><text fill="#000000" font-family="sans-serif" font-size="12" font-style="italic" lengthAdjust="spacing" textLength="95" x="100.25" y="135.9102">ObjetoGeometria</text><line style="stroke:#A80036;stroke-width:1.5;" x1="10" x2="253" y1="147" y2="147"/><line style="stroke:#A80036;stroke-width:1.5;" x1="10" x2="253" y1="155" y2="155"/><ellipse cx="20" cy="166" fill="#84BE84" rx="3" ry="3" style="stroke:#038048;stroke-width:1.0;"/><text fill="#000000" font-family="sans-serif" font-size="11" lengthAdjust="spacing" textLength="211" x="29" y="170.4189">ObjetoGeometria(rotulo:char, paiRef:Objeto)</text><polygon fill="#FFFF44" points="20,174.8359,24,178.8359,20,182.8359,16,178.8359" style="stroke:#B38D22;stroke-width:1.0;"/><text fill="#000000" font-family="sans-serif" font-size="11" lengthAdjust="spacing" textLength="188" x="29" y="184.2549">«override» DesenharGeometria() : void</text><polygon fill="#FFFF44" points="20,188.6719,24,192.6719,20,196.6719,16,192.6719" style="stroke:#B38D22;stroke-width:1.0;"/><text fill="#000000" font-family="sans-serif" font-size="11" font-style="italic" lengthAdjust="spacing" textLength="119" x="29" y="198.0908">DesenharObjeto() : void</text><ellipse cx="20" cy="207.5078" fill="#84BE84" rx="3" ry="3" style="stroke:#038048;stroke-width:1.0;"/><text fill="#000000" font-family="sans-serif" font-size="11" lengthAdjust="spacing" textLength="174" x="29" y="211.9268">PontosAdicionar(pto:Ponto4D) : void</text><ellipse cx="20" cy="221.3438" fill="#84BE84" rx="3" ry="3" style="stroke:#038048;stroke-width:1.0;"/><text fill="#000000" font-family="sans-serif" font-size="11" lengthAdjust="spacing" textLength="141" x="29" y="225.7627">PontosRemoverUltimo() : void</text><polygon fill="#FFFF44" points="20,230.1797,24,234.1797,20,238.1797,16,234.1797" style="stroke:#B38D22;stroke-width:1.0;"/><text fill="#000000" font-family="sans-serif" font-size="11" lengthAdjust="spacing" textLength="143" x="29" y="239.5986">PontosRemoverTodos() : void</text><ellipse cx="20" cy="249.0156" fill="#84BE84" rx="3" ry="3" style="stroke:#038048;stroke-width:1.0;"/><text fill="#000000" font-family="sans-serif" font-size="11" lengthAdjust="spacing" textLength="118" x="29" y="253.4346">PontosUltimo() : Ponto4D</text><ellipse cx="20" cy="262.8516" fill="#84BE84" rx="3" ry="3" style="stroke:#038048;stroke-width:1.0;"/><text fill="#000000" font-family="sans-serif" font-size="11" lengthAdjust="spacing" textLength="219" x="29" y="267.2705">PontosAlterar(pto:Ponto4D, posicao:int) : void</text><ellipse cx="20" cy="276.6875" fill="#84BE84" rx="3" ry="3" style="stroke:#038048;stroke-width:1.0;"/><text fill="#000000" font-family="sans-serif" font-size="11" lengthAdjust="spacing" textLength="139" x="29" y="281.1064">«override» ToString() : string</text><ellipse cx="20" cy="290.5234" fill="#84BE84" rx="3" ry="3" style="stroke:#038048;stroke-width:1.0;"/><text fill="#000000" font-family="sans-serif" font-size="11" lengthAdjust="spacing" textLength="102" x="29" y="294.9424">AtualizaBBox() : void</text><ellipse cx="20" cy="304.3594" fill="#84BE84" rx="3" ry="3" style="stroke:#038048;stroke-width:1.0;"/><text fill="#000000" font-family="sans-serif" font-size="11" lengthAdjust="spacing" textLength="183" x="29" y="308.7783">imprimePontos(desenhado:bool) : void</text><!--MD5=[e644022de7dea015dd09463c37421447]
class List`1--><rect codeLine="14" fill="#FEFECE" filter="url(#f15fpfdcvo3pvb)" height="48" id="List`1" style="stroke:#A80036;stroke-width:1.5;" width="74" x="289.5" y="191"/><ellipse cx="304.5" cy="207" fill="#ADD1B2" rx="11" ry="11" style="stroke:#A80036;stroke-width:1.0;"/><path d="M307.2656,202.875 Q307.4219,202.6563 307.6094,202.5469 Q307.7969,202.4375 308.0156,202.4375 Q308.3906,202.4375 308.625,202.7031 Q308.8594,202.9531 308.8594,203.5625 L308.8594,205.0156 Q308.8594,205.625 308.625,205.8906 Q308.3906,206.1563 308.0156,206.1563 Q307.6719,206.1563 307.4688,205.9531 Q307.2656,205.7656 307.1563,205.25 Q307.1094,204.8906 306.9219,204.7031 Q306.5938,204.3281 305.9844,204.1094 Q305.375,203.8906 304.75,203.8906 Q303.9844,203.8906 303.3438,204.2188 Q302.7188,204.5469 302.2188,205.2969 Q301.7344,206.0469 301.7344,207.0781 L301.7344,208.1719 Q301.7344,209.4063 302.625,210.2344 Q303.5156,211.0469 305.1094,211.0469 Q306.0469,211.0469 306.7031,210.7969 Q307.0938,210.6406 307.5156,210.2031 Q307.7813,209.9375 307.9219,209.8594 Q308.0781,209.7813 308.2813,209.7813 Q308.6094,209.7813 308.8594,210.0469 Q309.125,210.2969 309.125,210.6406 Q309.125,210.9844 308.7813,211.3906 Q308.2813,211.9688 307.4844,212.2969 Q306.4063,212.75 305.1094,212.75 Q303.5938,212.75 302.3906,212.125 Q301.4063,211.625 300.7188,210.5625 Q300.0313,209.4844 300.0313,208.2031 L300.0313,207.0469 Q300.0313,205.7188 300.6406,204.5781 Q301.2656,203.4219 302.3594,202.8125 Q303.4531,202.1875 304.6875,202.1875 Q305.4219,202.1875 306.0625,202.3594 Q306.7188,202.5156 307.2656,202.875 Z " fill="#000000"/><text fill="#000000" font-family="sans-serif" font-size="12" lengthAdjust="spacing" textLength="31" x="318.5" y="211.9102">List`1</text><rect fill="#FFFFFF" height="17.0938" style="stroke:#000000;stroke-width:1.0;stroke-dasharray:2.0,2.0;" width="9" x="357.5" y="188"/><text fill="#000000" font-family="sans-serif" font-size="12" font-style="italic" lengthAdjust="spacing" textLength="7" x="358.5" y="201.457">T</text><line style="stroke:#A80036;stroke-width:1.5;" x1="290.5" x2="362.5" y1="223" y2="223"/><line style="stroke:#A80036;stroke-width:1.5;" x1="290.5" x2="362.5" y1="231" y2="231"/><!--MD5=[3051a6a8f877a755a60c7cfd1e6f410a]
class Objeto--><rect fill="#FEFECE" filter="url(#f15fpfdcvo3pvb)" height="48" id="Objeto" style="stroke:#A80036;stroke-width:1.5;" width="68" x="97.5" y="7"/><ellipse cx="112.5" cy="23" fill="#ADD1B2" rx="11" ry="11" style="stroke:#A80036;stroke-width:1.0;"/><path d="M115.2656,18.875 Q115.4219,18.6563 115.6094,18.5469 Q115.7969,18.4375 116.0156,18.4375 Q116.3906,18.4375 116.625,18.7031 Q116.8594,18.9531 116.8594,19.5625 L116.8594,21.0156 Q116.8594,21.625 116.625,21.8906 Q116.3906,22.1563 116.0156,22.1563 Q115.6719,22.1563 115.4688,21.9531 Q115.2656,21.7656 115.1563,21.25 Q115.1094,20.8906 114.9219,20.7031 Q114.5938,20.3281 113.9844,20.1094 Q113.375,19.8906 112.75,19.8906 Q111.9844,19.8906 111.3438,20.2188 Q110.7188,20.5469 110.2188,21.2969 Q109.7344,22.0469 109.7344,23.0781 L109.7344,24.1719 Q109.7344,25.4063 110.625,26.2344 Q111.5156,27.0469 113.1094,27.0469 Q114.0469,27.0469 114.7031,26.7969 Q115.0938,26.6406 115.5156,26.2031 Q115.7813,25.9375 115.9219,25.8594 Q116.0781,25.7813 116.2813,25.7813 Q116.6094,25.7813 116.8594,26.0469 Q117.125,26.2969 117.125,26.6406 Q117.125,26.9844 116.7813,27.3906 Q116.2813,27.9688 115.4844,28.2969 Q114.4063,28.75 113.1094,28.75 Q111.5938,28.75 110.3906,28.125 Q109.4063,27.625 108.7188,26.5625 Q108.0313,25.4844 108.0313,24.2031 L108.0313,23.0469 Q108.0313,21.7188 108.6406,20.5781 Q109.2656,19.4219 110.3594,18.8125 Q111.4531,18.1875 112.6875,18.1875 Q113.4219,18.1875 114.0625,18.3594 Q114.7188,18.5156 115.2656,18.875 Z " fill="#000000"/><text fill="#000000" font-family="sans-serif" font-size="12" lengthAdjust="spacing" textLength="36" x="126.5" y="27.9102">Objeto</text><line style="stroke:#A80036;stroke-width:1.5;" x1="98.5" x2="164.5" y1="39" y2="39"/><line style="stroke:#A80036;stroke-width:1.5;" x1="98.5" x2="164.5" y1="47" y2="47"/><!--MD5=[a03c7e7dbc7aa919221c9dfab59c60ca]
reverse link Objeto to ObjetoGeometria--><path codeLine="16" d="M131.5,75.36 C131.5,87.41 131.5,101.01 131.5,114.86 " fill="none" id="Objeto-backto-ObjetoGeometria" style="stroke:#A80036;stroke-width:1.0;"/><polygon fill="none" points="124.5,75.05,131.5,55.05,138.5,75.05,124.5,75.05" style="stroke:#A80036;stroke-width:1.0;"/><!--MD5=[08c949781e64e24459062fcf2690d067]
link ObjetoGeometria to List`1--><path codeLine="17" d="M266.14,215 C266.14,215 273.37,215 276.36,215 " fill="none" id="ObjetoGeometria-List`1" style="stroke:#A80036;stroke-width:1.0;"/><polygon fill="#A80036" points="289.47,215,280.47,211,284.47,215,280.47,219,289.47,215" style="stroke:#A80036;stroke-width:1.0;"/><line style="stroke:#A80036;stroke-width:1.0;" x1="284.47" x2="276.47" y1="215" y2="215"/><polygon fill="#FFFFFF" points="254.14,215,260.14,219,266.14,215,260.14,211,254.14,215" style="stroke:#A80036;stroke-width:1.0;"/><text fill="#000000" font-family="sans-serif" font-size="13" lengthAdjust="spacing" textLength="133" x="370.5125" y="190.9785">pontosLista&lt;Ponto4D&gt;</text><!--MD5=[69db385f577e9f5a33ef4c2263ab95ba]
@startuml
abstract class ObjetoGeometria {
    + ObjetoGeometria(rotulo:char, paiRef:Objeto)
    # <<override>> DesenharGeometria() : void
    # {abstract} DesenharObjeto() : void
    + PontosAdicionar(pto:Ponto4D) : void
    + PontosRemoverUltimo() : void
    # PontosRemoverTodos() : void
    + PontosUltimo() : Ponto4D
    + PontosAlterar(pto:Ponto4D, posicao:int) : void
    + <<override>> ToString() : string
    + AtualizaBBox() : void
    + imprimePontos(desenhado:bool) : void
}
class "List`1"<T> {
}
Objeto <|- - ObjetoGeometria
ObjetoGeometria o-> "pontosLista<Ponto4D>" "List`1"
@enduml

PlantUML version 1.2022.0(Tue Jan 11 13:16:42 BRT 2022)
(GPL source distribution)
Java Runtime: Java(TM) SE Runtime Environment
JVM: Java HotSpot(TM) 64-Bit Server VM
Default Encoding: Cp1252
Language: en
Country: US
--></g></svg>