<?xml version="1.0" encoding="UTF-8" standalone="no"?><svg xmlns="http://www.w3.org/2000/svg" xmlns:xlink="http://www.w3.org/1999/xlink" contentScriptType="application/ecmascript" contentStyleType="text/css" height="424px" preserveAspectRatio="none" style="width:1122px;height:424px;background:#FFFFFF;" version="1.1" viewBox="0 0 1122 424" width="1122px" zoomAndPan="magnify"><defs><filter height="300%" id="f1bc341xjcdrku" width="300%" x="-1" y="-1"><feGaussianBlur result="blurOut" stdDeviation="2.0"/><feColorMatrix in="blurOut" result="blurOut2" type="matrix" values="0 0 0 0 0 0 0 0 0 0 0 0 0 0 0 0 0 0 .4 0"/><feOffset dx="4.0" dy="4.0" in="blurOut2" result="blurOut3"/><feBlend in="SourceGraphic" in2="blurOut3" mode="normal"/></filter></defs><g><!--MD5=[3051a6a8f877a755a60c7cfd1e6f410a]
class Objeto--><rect codeLine="1" fill="#FEFECE" filter="url(#f1bc341xjcdrku)" height="338.5547" id="Objeto" style="stroke:#A80036;stroke-width:1.5;" width="466" x="9" y="71.7"/><ellipse cx="219.25" cy="87.7" fill="#A9DCDF" rx="11" ry="11" style="stroke:#A80036;stroke-width:1.0;"/><path d="M221.4375,89.4656 L217.2969,89.4656 L216.875,90.4969 L217.2969,90.4969 Q217.9063,90.4969 218.1719,90.7312 Q218.4375,90.9656 218.4375,91.3562 Q218.4375,91.7312 218.1719,91.9656 Q217.9063,92.2 217.2969,92.2 L215,92.2 Q214.3906,92.2 214.1406,91.9656 Q213.875,91.7312 213.875,91.3406 Q213.875,90.9656 214.1563,90.7312 Q214.4219,90.4812 215.0469,90.4969 L217.7188,83.8406 L216.6094,83.8406 Q216,83.8406 215.7344,83.6062 Q215.4688,83.3719 215.4688,82.9812 Q215.4688,82.6062 215.7344,82.3719 Q216,82.1375 216.6094,82.1375 L220.2813,82.1375 L223.6719,90.4969 Q224.2656,90.4969 224.4531,90.6375 Q224.8438,90.9031 224.8438,91.3562 Q224.8438,91.7312 224.5781,91.9656 Q224.3281,92.2 223.7188,92.2 L221.4219,92.2 Q220.8125,92.2 220.5469,91.9656 Q220.2813,91.7312 220.2813,91.3406 Q220.2813,90.9656 220.5469,90.7312 Q220.8125,90.4969 221.4219,90.4969 L221.8438,90.4969 L221.4375,89.4656 Z M220.7188,87.7625 L219.3594,84.3875 L217.9844,87.7625 L220.7188,87.7625 Z " fill="#000000"/><text fill="#000000" font-family="sans-serif" font-size="12" font-style="italic" lengthAdjust="spacing" textLength="37" x="239.75" y="92.6102">Objeto</text><line style="stroke:#A80036;stroke-width:1.5;" x1="10" x2="474" y1="103.7" y2="103.7"/><polygon fill="none" points="20,109.7,24,113.7,20,117.7,16,113.7" style="stroke:#B38D22;stroke-width:1.0;"/><text fill="#000000" font-family="sans-serif" font-size="11" lengthAdjust="spacing" textLength="58" x="29" y="119.1189">rotulo : char</text><rect fill="none" height="6" style="stroke:#C82930;stroke-width:1.0;" width="6" x="17" y="125.5359"/><text fill="#000000" font-family="sans-serif" font-size="11" lengthAdjust="spacing" textLength="131" x="29" y="132.9549">primitivaTamanho : float = 1</text><ellipse cx="20" cy="142.3719" rx="3" ry="3" style="stroke:#038048;stroke-width:1.0;fill:none;"/><text fill="#000000" font-family="sans-serif" font-size="11" lengthAdjust="spacing" textLength="173" x="29" y="146.7908">PrimitivaTamanho : float «get» «set»</text><line style="stroke:#A80036;stroke-width:1.5;" x1="10" x2="474" y1="153.2078" y2="153.2078"/><ellipse cx="20" cy="164.2078" fill="#84BE84" rx="3" ry="3" style="stroke:#038048;stroke-width:1.0;"/><text fill="#000000" font-family="sans-serif" font-size="11" lengthAdjust="spacing" textLength="162" x="29" y="168.6268">Objeto(rotulo:char, paiRef:Objeto)</text><ellipse cx="20" cy="178.0438" fill="#84BE84" rx="3" ry="3" style="stroke:#038048;stroke-width:1.0;"/><text fill="#000000" font-family="sans-serif" font-size="11" lengthAdjust="spacing" textLength="84" x="29" y="182.4627">Desenhar() : void</text><polygon fill="#FFFF44" points="20,186.8797,24,190.8797,20,194.8797,16,190.8797" style="stroke:#B38D22;stroke-width:1.0;"/><text fill="#000000" font-family="sans-serif" font-size="11" font-style="italic" lengthAdjust="spacing" textLength="137" x="29" y="196.2986">DesenharGeometria() : void</text><ellipse cx="20" cy="205.7156" fill="#84BE84" rx="3" ry="3" style="stroke:#038048;stroke-width:1.0;"/><text fill="#000000" font-family="sans-serif" font-size="11" lengthAdjust="spacing" textLength="159" x="29" y="210.1346">FilhoAdicionar(filho:Objeto) : void</text><ellipse cx="20" cy="219.5516" fill="#84BE84" rx="3" ry="3" style="stroke:#038048;stroke-width:1.0;"/><text fill="#000000" font-family="sans-serif" font-size="11" lengthAdjust="spacing" textLength="156" x="29" y="223.9705">FilhoRemover(filho:Objeto) : void</text><ellipse cx="20" cy="233.3875" fill="#84BE84" rx="3" ry="3" style="stroke:#038048;stroke-width:1.0;"/><text fill="#000000" font-family="sans-serif" font-size="11" lengthAdjust="spacing" textLength="86" x="29" y="237.8064">GetBBox() : BBox</text><ellipse cx="20" cy="247.2234" fill="#84BE84" rx="3" ry="3" style="stroke:#038048;stroke-width:1.0;"/><text fill="#000000" font-family="sans-serif" font-size="11" lengthAdjust="spacing" textLength="194" x="29" y="251.6424">translacaoPoligonoX(direcao:bool) : void</text><ellipse cx="20" cy="261.0594" fill="#84BE84" rx="3" ry="3" style="stroke:#038048;stroke-width:1.0;"/><text fill="#000000" font-family="sans-serif" font-size="11" lengthAdjust="spacing" textLength="195" x="29" y="265.4783">translacaoPoligonoY(direcao:bool) : void</text><ellipse cx="20" cy="274.8953" fill="#84BE84" rx="3" ry="3" style="stroke:#038048;stroke-width:1.0;"/><text fill="#000000" font-family="sans-serif" font-size="11" lengthAdjust="spacing" textLength="144" x="29" y="279.3143">Rotacao(angulo:double) : void</text><ellipse cx="20" cy="288.7313" fill="#84BE84" rx="3" ry="3" style="stroke:#038048;stroke-width:1.0;"/><text fill="#000000" font-family="sans-serif" font-size="11" lengthAdjust="spacing" textLength="440" x="29" y="293.1502">RotacaoEixo(angulo:double, eixoRotacao:char, matrizTmpRotacao:Transformacao4D) : void</text><ellipse cx="20" cy="302.5672" fill="#84BE84" rx="3" ry="3" style="stroke:#038048;stroke-width:1.0;"/><text fill="#000000" font-family="sans-serif" font-size="11" lengthAdjust="spacing" textLength="199" x="29" y="306.9861">rotacionarEixoBBox(angulo:double) : void</text><ellipse cx="20" cy="316.4031" fill="#84BE84" rx="3" ry="3" style="stroke:#038048;stroke-width:1.0;"/><text fill="#000000" font-family="sans-serif" font-size="11" lengthAdjust="spacing" textLength="147" x="29" y="320.8221">aumentarObjetoOrigem() : void</text><ellipse cx="20" cy="330.2391" fill="#84BE84" rx="3" ry="3" style="stroke:#038048;stroke-width:1.0;"/><text fill="#000000" font-family="sans-serif" font-size="11" lengthAdjust="spacing" textLength="134" x="29" y="334.658">diminuiObjetoOrigem() : void</text><ellipse cx="20" cy="344.075" fill="#84BE84" rx="3" ry="3" style="stroke:#038048;stroke-width:1.0;"/><text fill="#000000" font-family="sans-serif" font-size="11" lengthAdjust="spacing" textLength="113" x="29" y="348.4939">aumentarObjeto() : void</text><ellipse cx="20" cy="357.9109" fill="#84BE84" rx="3" ry="3" style="stroke:#038048;stroke-width:1.0;"/><text fill="#000000" font-family="sans-serif" font-size="11" lengthAdjust="spacing" textLength="100" x="29" y="362.3299">diminuiObjeto() : void</text><ellipse cx="20" cy="371.7469" fill="#84BE84" rx="3" ry="3" style="stroke:#038048;stroke-width:1.0;"/><text fill="#000000" font-family="sans-serif" font-size="11" lengthAdjust="spacing" textLength="80" x="29" y="376.1658">toOrigem() : void</text><ellipse cx="20" cy="385.5828" fill="#84BE84" rx="3" ry="3" style="stroke:#038048;stroke-width:1.0;"/><text fill="#000000" font-family="sans-serif" font-size="11" lengthAdjust="spacing" textLength="86" x="29" y="390.0018">Identidade() : void</text><ellipse cx="20" cy="399.4188" fill="#84BE84" rx="3" ry="3" style="stroke:#038048;stroke-width:1.0;"/><text fill="#000000" font-family="sans-serif" font-size="11" lengthAdjust="spacing" textLength="99" x="29" y="403.8377">mostraMatriz() : void</text><!--MD5=[e644022de7dea015dd09463c37421447]
class List`1--><rect codeLine="24" fill="#FEFECE" filter="url(#f1bc341xjcdrku)" height="48" id="List`1" style="stroke:#A80036;stroke-width:1.5;" width="74" x="510" y="217.2"/><ellipse cx="525" cy="233.2" fill="#ADD1B2" rx="11" ry="11" style="stroke:#A80036;stroke-width:1.0;"/><path d="M527.7656,229.075 Q527.9219,228.8563 528.1094,228.7469 Q528.2969,228.6375 528.5156,228.6375 Q528.8906,228.6375 529.125,228.9031 Q529.3594,229.1531 529.3594,229.7625 L529.3594,231.2156 Q529.3594,231.825 529.125,232.0906 Q528.8906,232.3563 528.5156,232.3563 Q528.1719,232.3563 527.9688,232.1531 Q527.7656,231.9656 527.6563,231.45 Q527.6094,231.0906 527.4219,230.9031 Q527.0938,230.5281 526.4844,230.3094 Q525.875,230.0906 525.25,230.0906 Q524.4844,230.0906 523.8438,230.4188 Q523.2188,230.7469 522.7188,231.4969 Q522.2344,232.2469 522.2344,233.2781 L522.2344,234.3719 Q522.2344,235.6063 523.125,236.4344 Q524.0156,237.2469 525.6094,237.2469 Q526.5469,237.2469 527.2031,236.9969 Q527.5938,236.8406 528.0156,236.4031 Q528.2813,236.1375 528.4219,236.0594 Q528.5781,235.9813 528.7813,235.9813 Q529.1094,235.9813 529.3594,236.2469 Q529.625,236.4969 529.625,236.8406 Q529.625,237.1844 529.2813,237.5906 Q528.7813,238.1688 527.9844,238.4969 Q526.9063,238.95 525.6094,238.95 Q524.0938,238.95 522.8906,238.325 Q521.9063,237.825 521.2188,236.7625 Q520.5313,235.6844 520.5313,234.4031 L520.5313,233.2469 Q520.5313,231.9188 521.1406,230.7781 Q521.7656,229.6219 522.8594,229.0125 Q523.9531,228.3875 525.1875,228.3875 Q525.9219,228.3875 526.5625,228.5594 Q527.2188,228.7156 527.7656,229.075 Z " fill="#000000"/><text fill="#000000" font-family="sans-serif" font-size="12" lengthAdjust="spacing" textLength="31" x="539" y="238.1102">List`1</text><rect fill="#FFFFFF" height="17.0938" style="stroke:#000000;stroke-width:1.0;stroke-dasharray:2.0,2.0;" width="9" x="578" y="214.2"/><text fill="#000000" font-family="sans-serif" font-size="12" font-style="italic" lengthAdjust="spacing" textLength="7" x="579" y="227.657">T</text><line style="stroke:#A80036;stroke-width:1.5;" x1="511" x2="583" y1="249.2" y2="249.2"/><line style="stroke:#A80036;stroke-width:1.5;" x1="511" x2="583" y1="257.2" y2="257.2"/><!--MD5=[9ac43fafcd0ede942dc8e681a30a1b52]
class Cor--><rect fill="#FEFECE" filter="url(#f1bc341xjcdrku)" height="48" id="Cor" style="stroke:#A80036;stroke-width:1.5;" width="52" x="1022" y="217.2"/><ellipse cx="1037" cy="233.2" fill="#ADD1B2" rx="11" ry="11" style="stroke:#A80036;stroke-width:1.0;"/><path d="M1039.7656,229.075 Q1039.9219,228.8563 1040.1094,228.7469 Q1040.2969,228.6375 1040.5156,228.6375 Q1040.8906,228.6375 1041.125,228.9031 Q1041.3594,229.1531 1041.3594,229.7625 L1041.3594,231.2156 Q1041.3594,231.825 1041.125,232.0906 Q1040.8906,232.3563 1040.5156,232.3563 Q1040.1719,232.3563 1039.9688,232.1531 Q1039.7656,231.9656 1039.6563,231.45 Q1039.6094,231.0906 1039.4219,230.9031 Q1039.0938,230.5281 1038.4844,230.3094 Q1037.875,230.0906 1037.25,230.0906 Q1036.4844,230.0906 1035.8438,230.4188 Q1035.2188,230.7469 1034.7188,231.4969 Q1034.2344,232.2469 1034.2344,233.2781 L1034.2344,234.3719 Q1034.2344,235.6063 1035.125,236.4344 Q1036.0156,237.2469 1037.6094,237.2469 Q1038.5469,237.2469 1039.2031,236.9969 Q1039.5938,236.8406 1040.0156,236.4031 Q1040.2813,236.1375 1040.4219,236.0594 Q1040.5781,235.9813 1040.7813,235.9813 Q1041.1094,235.9813 1041.3594,236.2469 Q1041.625,236.4969 1041.625,236.8406 Q1041.625,237.1844 1041.2813,237.5906 Q1040.7813,238.1688 1039.9844,238.4969 Q1038.9063,238.95 1037.6094,238.95 Q1036.0938,238.95 1034.8906,238.325 Q1033.9063,237.825 1033.2188,236.7625 Q1032.5313,235.6844 1032.5313,234.4031 L1032.5313,233.2469 Q1032.5313,231.9188 1033.1406,230.7781 Q1033.7656,229.6219 1034.8594,229.0125 Q1035.9531,228.3875 1037.1875,228.3875 Q1037.9219,228.3875 1038.5625,228.5594 Q1039.2188,228.7156 1039.7656,229.075 Z " fill="#000000"/><text fill="#000000" font-family="sans-serif" font-size="12" lengthAdjust="spacing" textLength="20" x="1051" y="238.1102">Cor</text><line style="stroke:#A80036;stroke-width:1.5;" x1="1023" x2="1073" y1="249.2" y2="249.2"/><line style="stroke:#A80036;stroke-width:1.5;" x1="1023" x2="1073" y1="257.2" y2="257.2"/><!--MD5=[38e8fced9e943fac45fdba9ac5db991f]
class PrimitiveType--><rect fill="#FEFECE" filter="url(#f1bc341xjcdrku)" height="48" id="PrimitiveType" style="stroke:#A80036;stroke-width:1.5;" width="105" x="881.5" y="217.2"/><ellipse cx="896.5" cy="233.2" fill="#ADD1B2" rx="11" ry="11" style="stroke:#A80036;stroke-width:1.0;"/><path d="M899.2656,229.075 Q899.4219,228.8563 899.6094,228.7469 Q899.7969,228.6375 900.0156,228.6375 Q900.3906,228.6375 900.625,228.9031 Q900.8594,229.1531 900.8594,229.7625 L900.8594,231.2156 Q900.8594,231.825 900.625,232.0906 Q900.3906,232.3563 900.0156,232.3563 Q899.6719,232.3563 899.4688,232.1531 Q899.2656,231.9656 899.1563,231.45 Q899.1094,231.0906 898.9219,230.9031 Q898.5938,230.5281 897.9844,230.3094 Q897.375,230.0906 896.75,230.0906 Q895.9844,230.0906 895.3438,230.4188 Q894.7188,230.7469 894.2188,231.4969 Q893.7344,232.2469 893.7344,233.2781 L893.7344,234.3719 Q893.7344,235.6063 894.625,236.4344 Q895.5156,237.2469 897.1094,237.2469 Q898.0469,237.2469 898.7031,236.9969 Q899.0938,236.8406 899.5156,236.4031 Q899.7813,236.1375 899.9219,236.0594 Q900.0781,235.9813 900.2813,235.9813 Q900.6094,235.9813 900.8594,236.2469 Q901.125,236.4969 901.125,236.8406 Q901.125,237.1844 900.7813,237.5906 Q900.2813,238.1688 899.4844,238.4969 Q898.4063,238.95 897.1094,238.95 Q895.5938,238.95 894.3906,238.325 Q893.4063,237.825 892.7188,236.7625 Q892.0313,235.6844 892.0313,234.4031 L892.0313,233.2469 Q892.0313,231.9188 892.6406,230.7781 Q893.2656,229.6219 894.3594,229.0125 Q895.4531,228.3875 896.6875,228.3875 Q897.4219,228.3875 898.0625,228.5594 Q898.7188,228.7156 899.2656,229.075 Z " fill="#000000"/><text fill="#000000" font-family="sans-serif" font-size="12" lengthAdjust="spacing" textLength="73" x="910.5" y="238.1102">PrimitiveType</text><line style="stroke:#A80036;stroke-width:1.5;" x1="882.5" x2="985.5" y1="249.2" y2="249.2"/><line style="stroke:#A80036;stroke-width:1.5;" x1="882.5" x2="985.5" y1="257.2" y2="257.2"/><!--MD5=[ea10f8dc465baf5e542f54928f2443c8]
class BBox--><rect fill="#FEFECE" filter="url(#f1bc341xjcdrku)" height="48" id="BBox" style="stroke:#A80036;stroke-width:1.5;" width="60" x="786" y="217.2"/><ellipse cx="801" cy="233.2" fill="#ADD1B2" rx="11" ry="11" style="stroke:#A80036;stroke-width:1.0;"/><path d="M803.7656,229.075 Q803.9219,228.8563 804.1094,228.7469 Q804.2969,228.6375 804.5156,228.6375 Q804.8906,228.6375 805.125,228.9031 Q805.3594,229.1531 805.3594,229.7625 L805.3594,231.2156 Q805.3594,231.825 805.125,232.0906 Q804.8906,232.3563 804.5156,232.3563 Q804.1719,232.3563 803.9688,232.1531 Q803.7656,231.9656 803.6563,231.45 Q803.6094,231.0906 803.4219,230.9031 Q803.0938,230.5281 802.4844,230.3094 Q801.875,230.0906 801.25,230.0906 Q800.4844,230.0906 799.8438,230.4188 Q799.2188,230.7469 798.7188,231.4969 Q798.2344,232.2469 798.2344,233.2781 L798.2344,234.3719 Q798.2344,235.6063 799.125,236.4344 Q800.0156,237.2469 801.6094,237.2469 Q802.5469,237.2469 803.2031,236.9969 Q803.5938,236.8406 804.0156,236.4031 Q804.2813,236.1375 804.4219,236.0594 Q804.5781,235.9813 804.7813,235.9813 Q805.1094,235.9813 805.3594,236.2469 Q805.625,236.4969 805.625,236.8406 Q805.625,237.1844 805.2813,237.5906 Q804.7813,238.1688 803.9844,238.4969 Q802.9063,238.95 801.6094,238.95 Q800.0938,238.95 798.8906,238.325 Q797.9063,237.825 797.2188,236.7625 Q796.5313,235.6844 796.5313,234.4031 L796.5313,233.2469 Q796.5313,231.9188 797.1406,230.7781 Q797.7656,229.6219 798.8594,229.0125 Q799.9531,228.3875 801.1875,228.3875 Q801.9219,228.3875 802.5625,228.5594 Q803.2188,228.7156 803.7656,229.075 Z " fill="#000000"/><text fill="#000000" font-family="sans-serif" font-size="12" lengthAdjust="spacing" textLength="28" x="815" y="238.1102">BBox</text><line style="stroke:#A80036;stroke-width:1.5;" x1="787" x2="845" y1="249.2" y2="249.2"/><line style="stroke:#A80036;stroke-width:1.5;" x1="787" x2="845" y1="257.2" y2="257.2"/><!--MD5=[6746db26fbf3328699b5b65a634cc0f3]
class Transformacao4D--><rect fill="#FEFECE" filter="url(#f1bc341xjcdrku)" height="48" id="Transformacao4D" style="stroke:#A80036;stroke-width:1.5;" width="132" x="619" y="217.2"/><ellipse cx="634" cy="233.2" fill="#ADD1B2" rx="11" ry="11" style="stroke:#A80036;stroke-width:1.0;"/><path d="M636.7656,229.075 Q636.9219,228.8563 637.1094,228.7469 Q637.2969,228.6375 637.5156,228.6375 Q637.8906,228.6375 638.125,228.9031 Q638.3594,229.1531 638.3594,229.7625 L638.3594,231.2156 Q638.3594,231.825 638.125,232.0906 Q637.8906,232.3563 637.5156,232.3563 Q637.1719,232.3563 636.9688,232.1531 Q636.7656,231.9656 636.6563,231.45 Q636.6094,231.0906 636.4219,230.9031 Q636.0938,230.5281 635.4844,230.3094 Q634.875,230.0906 634.25,230.0906 Q633.4844,230.0906 632.8438,230.4188 Q632.2188,230.7469 631.7188,231.4969 Q631.2344,232.2469 631.2344,233.2781 L631.2344,234.3719 Q631.2344,235.6063 632.125,236.4344 Q633.0156,237.2469 634.6094,237.2469 Q635.5469,237.2469 636.2031,236.9969 Q636.5938,236.8406 637.0156,236.4031 Q637.2813,236.1375 637.4219,236.0594 Q637.5781,235.9813 637.7813,235.9813 Q638.1094,235.9813 638.3594,236.2469 Q638.625,236.4969 638.625,236.8406 Q638.625,237.1844 638.2813,237.5906 Q637.7813,238.1688 636.9844,238.4969 Q635.9063,238.95 634.6094,238.95 Q633.0938,238.95 631.8906,238.325 Q630.9063,237.825 630.2188,236.7625 Q629.5313,235.6844 629.5313,234.4031 L629.5313,233.2469 Q629.5313,231.9188 630.1406,230.7781 Q630.7656,229.6219 631.8594,229.0125 Q632.9531,228.3875 634.1875,228.3875 Q634.9219,228.3875 635.5625,228.5594 Q636.2188,228.7156 636.7656,229.075 Z " fill="#000000"/><text fill="#000000" font-family="sans-serif" font-size="12" lengthAdjust="spacing" textLength="100" x="648" y="238.1102">Transformacao4D</text><line style="stroke:#A80036;stroke-width:1.5;" x1="620" x2="750" y1="249.2" y2="249.2"/><line style="stroke:#A80036;stroke-width:1.5;" x1="620" x2="750" y1="257.2" y2="257.2"/><!--MD5=[abb974133f481326665ca9332982bcdd]
link Objeto to Cor--><path codeLine="26" d="M466.8493,66.4836 C466.8493,66.4836 492.33,55.69 504.67,51.7 C556.23,35.04 945.35,24.71 992.33,51.7 C1043.91,81.33 1051.15,157.81 1050.46,204.05 " fill="none" id="Objeto-Cor" style="stroke:#A80036;stroke-width:1.0;"/><polygon fill="#A80036" points="1050.04,217.06,1054.3249,208.1921,1050.1994,212.0625,1046.329,207.937,1050.04,217.06" style="stroke:#A80036;stroke-width:1.0;"/><line style="stroke:#A80036;stroke-width:1.0;" x1="1050.1994" x2="1050.455" y1="212.0625" y2="204.065"/><polygon fill="#FFFFFF" points="455.99,71.59,463.1218,72.6566,466.8493,66.4836,459.7175,65.417,455.99,71.59" style="stroke:#A80036;stroke-width:1.0;"/><text fill="#000000" font-family="sans-serif" font-size="13" lengthAdjust="spacing" textLength="55" x="988.644" y="206.3015">objetoCor</text><!--MD5=[abb974133f481326665ca9332982bcdd]
link Objeto to Cor--><path codeLine="27" d="M433.1,71.68 C459.63,55.42 487.67,41.39 516.33,31.7 C565.21,15.17 935.93,6 980.67,31.7 C1042.84,67.41 1050.04,163.34 1049.46,212.02 " fill="none" id="Objeto-to-Cor" style="stroke:#A80036;stroke-width:1.0;"/><polygon fill="#A80036" points="1049.37,217.14,1053.5492,208.2218,1049.47,212.141,1045.5508,208.0618,1049.37,217.14" style="stroke:#A80036;stroke-width:1.0;"/><text fill="#000000" font-family="sans-serif" font-size="13" lengthAdjust="spacing" textLength="58" x="1057.1523" y="206.4648">ObjetoCor</text><!--MD5=[7e8630a5cd5ea67eab064634d547f460]
link Objeto to PrimitiveType--><path codeLine="28" d="M466.8493,66.4836 C466.8493,66.4836 492.33,55.69 504.67,51.7 C541.43,39.82 818.84,32.46 852.33,51.7 C905.96,82.5 924.4,157.94 930.72,203.81 " fill="none" id="Objeto-PrimitiveType" style="stroke:#A80036;stroke-width:1.0;"/><polygon fill="#A80036" points="932.32,217.01,935.2023,207.5924,931.7154,212.0467,927.2611,208.5597,932.32,217.01" style="stroke:#A80036;stroke-width:1.0;"/><line style="stroke:#A80036;stroke-width:1.0;" x1="931.7154" x2="930.755" y1="212.0467" y2="204.1"/><polygon fill="#FFFFFF" points="455.99,71.59,463.1218,72.6566,466.8493,66.4836,459.7175,65.417,455.99,71.59" style="stroke:#A80036;stroke-width:1.0;"/><text fill="#000000" font-family="sans-serif" font-size="13" lengthAdjust="spacing" textLength="71" x="851.7926" y="206.3015">primitivaTipo</text><!--MD5=[7e8630a5cd5ea67eab064634d547f460]
link Objeto to PrimitiveType--><path codeLine="29" d="M433.1,71.68 C459.63,55.42 487.67,41.39 516.33,31.7 C550.47,20.16 809.42,13.75 840.67,31.7 C905.3,68.82 925.31,163.66 931.4,211.97 " fill="none" id="Objeto-to-PrimitiveType" style="stroke:#A80036;stroke-width:1.0;"/><polygon fill="#A80036" points="932.02,217.06,934.9128,207.6456,931.4209,212.096,926.9704,208.6041,932.02,217.06" style="stroke:#A80036;stroke-width:1.0;"/><text fill="#000000" font-family="sans-serif" font-size="13" lengthAdjust="spacing" textLength="73" x="940.8657" y="206.3643">PrimitivaTipo</text><!--MD5=[ff34dbfed28166dc938de446fd84e6c0]
link Objeto to BBox--><path codeLine="30" d="M466.8493,66.4836 C466.8493,66.4836 492.33,55.69 504.67,51.7 C558.1,34.44 708.64,23.73 757.33,51.7 C809.14,81.45 817.67,157.89 817.79,204.09 " fill="none" id="Objeto-BBox" style="stroke:#A80036;stroke-width:1.0;"/><polygon fill="#A80036" points="817.61,217.09,821.7382,208.1481,817.6814,212.0905,813.739,208.0338,817.61,217.09" style="stroke:#A80036;stroke-width:1.0;"/><line style="stroke:#A80036;stroke-width:1.0;" x1="817.6814" x2="817.79" y1="212.0905" y2="204.095"/><polygon fill="#FFFFFF" points="455.99,71.59,463.1218,72.6566,466.8493,66.4836,459.7175,65.417,455.99,71.59" style="stroke:#A80036;stroke-width:1.0;"/><text fill="#000000" font-family="sans-serif" font-size="13" lengthAdjust="spacing" textLength="30" x="784.1788" y="206.402">bBox</text><!--MD5=[ff34dbfed28166dc938de446fd84e6c0]
link Objeto to BBox--><path codeLine="31" d="M433.1,71.68 C459.63,55.42 487.67,41.39 516.33,31.7 C564.61,15.37 701.47,6.32 745.67,31.7 C808.1,67.56 816.79,163.42 816.99,212.05 " fill="none" id="Objeto-to-BBox" style="stroke:#A80036;stroke-width:1.0;"/><polygon fill="#A80036" points="816.98,217.17,821.0057,208.1815,816.9943,212.17,813.0057,208.1586,816.98,217.17" style="stroke:#A80036;stroke-width:1.0;"/><text fill="#000000" font-family="sans-serif" font-size="13" lengthAdjust="spacing" textLength="32" x="821.3311" y="206.5025">BBox</text><!--MD5=[eb8e112c2c51e54a0d2cd39412942130]
link Objeto to Transformacao4D--><path codeLine="32" d="M453.9973,65.9839 C453.9973,65.9839 491.64,47.94 510.5,41.7 C541.72,31.37 555.98,25.32 584.5,41.7 C643.39,75.53 668.74,156.43 678.88,204.18 " fill="none" id="Objeto-Transformacao4D" style="stroke:#A80036;stroke-width:1.0;"/><polygon fill="#A80036" points="681.4,216.98,683.5821,207.3759,680.4321,212.0746,675.7335,208.9245,681.4,216.98" style="stroke:#A80036;stroke-width:1.0;"/><line style="stroke:#A80036;stroke-width:1.0;" x1="680.4321" x2="678.89" y1="212.0746" y2="204.23"/><polygon fill="#FFFFFF" points="443.43,71.67,450.609,72.3494,453.9973,65.9839,446.8183,65.3045,443.43,71.67" style="stroke:#A80036;stroke-width:1.0;"/><text fill="#000000" font-family="sans-serif" font-size="13" lengthAdjust="spacing" textLength="36" x="639.865" y="206.2638">matriz</text><!--MD5=[1072a863cc54ef494712a6aabbf9d5bf]
link Objeto to List`1--><path codeLine="33" d="M487.22,241.2 C487.22,241.2 493.92,241.2 496.74,241.2 " fill="none" id="Objeto-List`1" style="stroke:#A80036;stroke-width:1.0;"/><polygon fill="#A80036" points="509.99,241.2,500.99,237.2,504.99,241.2,500.99,245.2,509.99,241.2" style="stroke:#A80036;stroke-width:1.0;"/><line style="stroke:#A80036;stroke-width:1.0;" x1="504.99" x2="496.99" y1="241.2" y2="241.2"/><polygon fill="#FFFFFF" points="475.22,241.2,481.22,245.2,487.22,241.2,481.22,237.2,475.22,241.2" style="stroke:#A80036;stroke-width:1.0;"/><text fill="#000000" font-family="sans-serif" font-size="13" lengthAdjust="spacing" textLength="124" x="476.1533" y="287.1594">objetosLista&lt;Objeto&gt;</text><!--MD5=[6b43d505061151a8918d33a101f4d036]
@startuml
abstract class Objeto {
    # rotulo : char
    - primitivaTamanho : float = 1
    + PrimitivaTamanho : float <<get>> <<set>>
    + Objeto(rotulo:char, paiRef:Objeto)
    + Desenhar() : void
    # {abstract} DesenharGeometria() : void
    + FilhoAdicionar(filho:Objeto) : void
    + FilhoRemover(filho:Objeto) : void
    + GetBBox() : BBox
    + translacaoPoligonoX(direcao:bool) : void
    + translacaoPoligonoY(direcao:bool) : void
    + Rotacao(angulo:double) : void
    + RotacaoEixo(angulo:double, eixoRotacao:char, matrizTmpRotacao:Transformacao4D) : void
    + rotacionarEixoBBox(angulo:double) : void
    + aumentarObjetoOrigem() : void
    + diminuiObjetoOrigem() : void
    + aumentarObjeto() : void
    + diminuiObjeto() : void
    + toOrigem() : void
    + Identidade() : void
    + mostraMatriz() : void
}
class "List`1"<T> {
}
Objeto o-> "objetoCor" Cor
Objeto - -> "ObjetoCor" Cor
Objeto o-> "primitivaTipo" PrimitiveType
Objeto - -> "PrimitivaTipo" PrimitiveType
Objeto o-> "bBox" BBox
Objeto - -> "BBox" BBox
Objeto o-> "matriz" Transformacao4D
Objeto o-> "objetosLista<Objeto>" "List`1"
@enduml

PlantUML version 1.2022.0(Tue Jan 11 13:16:42 BRT 2022)
(GPL source distribution)
Java Runtime: Java(TM) SE Runtime Environment
JVM: Java HotSpot(TM) 64-Bit Server VM
Default Encoding: Cp1252
Language: en
Country: US
--></g></svg>