<?xml version="1.0" encoding="UTF-8" standalone="no"?><svg xmlns="http://www.w3.org/2000/svg" xmlns:xlink="http://www.w3.org/1999/xlink" contentScriptType="application/ecmascript" contentStyleType="text/css" height="204px" preserveAspectRatio="none" style="width:421px;height:204px;background:#FFFFFF;" version="1.1" viewBox="0 0 421 204" width="421px" zoomAndPan="magnify"><defs><filter height="300%" id="f1ope25vezwezd" width="300%" x="-1" y="-1"><feGaussianBlur result="blurOut" stdDeviation="2.0"/><feColorMatrix in="blurOut" result="blurOut2" type="matrix" values="0 0 0 0 0 0 0 0 0 0 0 0 0 0 0 0 0 0 .4 0"/><feOffset dx="4.0" dy="4.0" in="blurOut2" result="blurOut3"/><feBlend in="SourceGraphic" in2="blurOut3" mode="normal"/></filter></defs><g><!--MD5=[b6968d6f0311dc2ba07018bef6e7bfd3]
class Retangulo--><rect codeLine="1" fill="#FEFECE" filter="url(#f1ope25vezwezd)" height="75.6719" id="Retangulo" style="stroke:#A80036;stroke-width:1.5;" width="400" x="7" y="115"/><ellipse cx="174.25" cy="131" fill="#ADD1B2" rx="11" ry="11" style="stroke:#A80036;stroke-width:1.0;"/><path d="M177.0156,126.875 Q177.1719,126.6563 177.3594,126.5469 Q177.5469,126.4375 177.7656,126.4375 Q178.1406,126.4375 178.375,126.7031 Q178.6094,126.9531 178.6094,127.5625 L178.6094,129.0156 Q178.6094,129.625 178.375,129.8906 Q178.1406,130.1563 177.7656,130.1563 Q177.4219,130.1563 177.2188,129.9531 Q177.0156,129.7656 176.9063,129.25 Q176.8594,128.8906 176.6719,128.7031 Q176.3438,128.3281 175.7344,128.1094 Q175.125,127.8906 174.5,127.8906 Q173.7344,127.8906 173.0938,128.2188 Q172.4688,128.5469 171.9688,129.2969 Q171.4844,130.0469 171.4844,131.0781 L171.4844,132.1719 Q171.4844,133.4063 172.375,134.2344 Q173.2656,135.0469 174.8594,135.0469 Q175.7969,135.0469 176.4531,134.7969 Q176.8438,134.6406 177.2656,134.2031 Q177.5313,133.9375 177.6719,133.8594 Q177.8281,133.7813 178.0313,133.7813 Q178.3594,133.7813 178.6094,134.0469 Q178.875,134.2969 178.875,134.6406 Q178.875,134.9844 178.5313,135.3906 Q178.0313,135.9688 177.2344,136.2969 Q176.1563,136.75 174.8594,136.75 Q173.3438,136.75 172.1406,136.125 Q171.1563,135.625 170.4688,134.5625 Q169.7813,133.4844 169.7813,132.2031 L169.7813,131.0469 Q169.7813,129.7188 170.3906,128.5781 Q171.0156,127.4219 172.1094,126.8125 Q173.2031,126.1875 174.4375,126.1875 Q175.1719,126.1875 175.8125,126.3594 Q176.4688,126.5156 177.0156,126.875 Z " fill="#000000"/><text fill="#000000" font-family="sans-serif" font-size="12" lengthAdjust="spacing" textLength="57" x="194.75" y="135.9102">Retangulo</text><line style="stroke:#A80036;stroke-width:1.5;" x1="8" x2="406" y1="147" y2="147"/><line style="stroke:#A80036;stroke-width:1.5;" x1="8" x2="406" y1="155" y2="155"/><ellipse cx="18" cy="166" fill="#84BE84" rx="3" ry="3" style="stroke:#038048;stroke-width:1.0;"/><text fill="#000000" font-family="sans-serif" font-size="11" lengthAdjust="spacing" textLength="374" x="27" y="170.4189">Retangulo(rotulo:string, paiRef:Objeto, ptoInfEsq:Ponto4D, ptoSupDir:Ponto4D)</text><ellipse cx="18" cy="179.8359" fill="#84BE84" rx="3" ry="3" style="stroke:#038048;stroke-width:1.0;"/><text fill="#000000" font-family="sans-serif" font-size="11" lengthAdjust="spacing" textLength="139" x="27" y="184.2549">«override» ToString() : string</text><!--MD5=[8b9e0d00865063ef789ad294aa32e6ea]
class ObjetoGeometria--><rect fill="#FEFECE" filter="url(#f1ope25vezwezd)" height="48" id="ObjetoGeometria" style="stroke:#A80036;stroke-width:1.5;" width="126" x="144" y="7"/><ellipse cx="159" cy="23" fill="#ADD1B2" rx="11" ry="11" style="stroke:#A80036;stroke-width:1.0;"/><path d="M161.7656,18.875 Q161.9219,18.6563 162.1094,18.5469 Q162.2969,18.4375 162.5156,18.4375 Q162.8906,18.4375 163.125,18.7031 Q163.3594,18.9531 163.3594,19.5625 L163.3594,21.0156 Q163.3594,21.625 163.125,21.8906 Q162.8906,22.1563 162.5156,22.1563 Q162.1719,22.1563 161.9688,21.9531 Q161.7656,21.7656 161.6563,21.25 Q161.6094,20.8906 161.4219,20.7031 Q161.0938,20.3281 160.4844,20.1094 Q159.875,19.8906 159.25,19.8906 Q158.4844,19.8906 157.8438,20.2188 Q157.2188,20.5469 156.7188,21.2969 Q156.2344,22.0469 156.2344,23.0781 L156.2344,24.1719 Q156.2344,25.4063 157.125,26.2344 Q158.0156,27.0469 159.6094,27.0469 Q160.5469,27.0469 161.2031,26.7969 Q161.5938,26.6406 162.0156,26.2031 Q162.2813,25.9375 162.4219,25.8594 Q162.5781,25.7813 162.7813,25.7813 Q163.1094,25.7813 163.3594,26.0469 Q163.625,26.2969 163.625,26.6406 Q163.625,26.9844 163.2813,27.3906 Q162.7813,27.9688 161.9844,28.2969 Q160.9063,28.75 159.6094,28.75 Q158.0938,28.75 156.8906,28.125 Q155.9063,27.625 155.2188,26.5625 Q154.5313,25.4844 154.5313,24.2031 L154.5313,23.0469 Q154.5313,21.7188 155.1406,20.5781 Q155.7656,19.4219 156.8594,18.8125 Q157.9531,18.1875 159.1875,18.1875 Q159.9219,18.1875 160.5625,18.3594 Q161.2188,18.5156 161.7656,18.875 Z " fill="#000000"/><text fill="#000000" font-family="sans-serif" font-size="12" lengthAdjust="spacing" textLength="94" x="173" y="27.9102">ObjetoGeometria</text><line style="stroke:#A80036;stroke-width:1.5;" x1="145" x2="269" y1="39" y2="39"/><line style="stroke:#A80036;stroke-width:1.5;" x1="145" x2="269" y1="47" y2="47"/><!--MD5=[26236c37487edb4672de193cef5bd1db]
reverse link ObjetoGeometria to Retangulo--><path codeLine="5" d="M207,75.34 C207,88.26 207,102.29 207,114.77 " fill="none" id="ObjetoGeometria-backto-Retangulo" style="stroke:#A80036;stroke-width:1.0;"/><polygon fill="none" points="200,75.14,207,55.14,214,75.14,200,75.14" style="stroke:#A80036;stroke-width:1.0;"/><!--MD5=[db7da974524f847b6500da75baed4ec2]
@startuml Retangulo
class Retangulo {
    + Retangulo(rotulo:string, paiRef:Objeto, ptoInfEsq:Ponto4D, ptoSupDir:Ponto4D)
    + <<override>> ToString() : string
}
ObjetoGeometria <|- - Retangulo
@enduml

PlantUML version 1.2022.0(Tue Jan 11 13:16:42 BRT 2022)
(GPL source distribution)
Java Runtime: Java(TM) SE Runtime Environment
JVM: Java HotSpot(TM) 64-Bit Server VM
Default Encoding: Cp1252
Language: en
Country: US
--></g></svg>