<?xml version="1.0" encoding="UTF-8" standalone="no"?><svg xmlns="http://www.w3.org/2000/svg" xmlns:xlink="http://www.w3.org/1999/xlink" contentScriptType="application/ecmascript" contentStyleType="text/css" height="232px" preserveAspectRatio="none" style="width:352px;height:232px;background:#FFFFFF;" version="1.1" viewBox="0 0 352 232" width="352px" zoomAndPan="magnify"><defs><filter height="300%" id="fstfmcadbp8hi" width="300%" x="-1" y="-1"><feGaussianBlur result="blurOut" stdDeviation="2.0"/><feColorMatrix in="blurOut" result="blurOut2" type="matrix" values="0 0 0 0 0 0 0 0 0 0 0 0 0 0 0 0 0 0 .4 0"/><feOffset dx="4.0" dy="4.0" in="blurOut2" result="blurOut3"/><feBlend in="SourceGraphic" in2="blurOut3" mode="normal"/></filter></defs><g><!--MD5=[919386ce46a6a5a7c71af782f732246a]
class Mundo--><rect codeLine="1" fill="#FEFECE" filter="url(#fstfmcadbp8hi)" height="89.5078" id="Mundo" style="stroke:#A80036;stroke-width:1.5;" width="223" x="7" y="129"/><ellipse cx="95.75" cy="145" fill="#ADD1B2" rx="11" ry="11" style="stroke:#A80036;stroke-width:1.0;"/><path d="M98.5156,140.875 Q98.6719,140.6563 98.8594,140.5469 Q99.0469,140.4375 99.2656,140.4375 Q99.6406,140.4375 99.875,140.7031 Q100.1094,140.9531 100.1094,141.5625 L100.1094,143.0156 Q100.1094,143.625 99.875,143.8906 Q99.6406,144.1563 99.2656,144.1563 Q98.9219,144.1563 98.7188,143.9531 Q98.5156,143.7656 98.4063,143.25 Q98.3594,142.8906 98.1719,142.7031 Q97.8438,142.3281 97.2344,142.1094 Q96.625,141.8906 96,141.8906 Q95.2344,141.8906 94.5938,142.2188 Q93.9688,142.5469 93.4688,143.2969 Q92.9844,144.0469 92.9844,145.0781 L92.9844,146.1719 Q92.9844,147.4063 93.875,148.2344 Q94.7656,149.0469 96.3594,149.0469 Q97.2969,149.0469 97.9531,148.7969 Q98.3438,148.6406 98.7656,148.2031 Q99.0313,147.9375 99.1719,147.8594 Q99.3281,147.7813 99.5313,147.7813 Q99.8594,147.7813 100.1094,148.0469 Q100.375,148.2969 100.375,148.6406 Q100.375,148.9844 100.0313,149.3906 Q99.5313,149.9688 98.7344,150.2969 Q97.6563,150.75 96.3594,150.75 Q94.8438,150.75 93.6406,150.125 Q92.6563,149.625 91.9688,148.5625 Q91.2813,147.4844 91.2813,146.2031 L91.2813,145.0469 Q91.2813,143.7188 91.8906,142.5781 Q92.5156,141.4219 93.6094,140.8125 Q94.7031,140.1875 95.9375,140.1875 Q96.6719,140.1875 97.3125,140.3594 Q97.9688,140.5156 98.5156,140.875 Z " fill="#000000"/><text fill="#000000" font-family="sans-serif" font-size="12" lengthAdjust="spacing" textLength="37" x="116.25" y="149.9102">Mundo</text><line style="stroke:#A80036;stroke-width:1.5;" x1="8" x2="229" y1="161" y2="161"/><text fill="#000000" font-family="sans-serif" font-size="11" lengthAdjust="spacing" textLength="59" x="13" y="176.4189">mouseX : int</text><text fill="#000000" font-family="sans-serif" font-size="11" lengthAdjust="spacing" textLength="60" x="13" y="190.2549">mouseY : int</text><line style="stroke:#A80036;stroke-width:1.5;" x1="8" x2="229" y1="196.6719" y2="196.6719"/><ellipse cx="18" cy="207.6719" fill="#84BE84" rx="3" ry="3" style="stroke:#038048;stroke-width:1.0;"/><text fill="#000000" font-family="sans-serif" font-size="11" lengthAdjust="spacing" text-decoration="underline" textLength="197" x="27" y="212.0908">GetInstance(width:int, height:int) : Mundo</text><!--MD5=[175f95e045c1a44aed0b30df3abe0e5c]
class Program--><rect codeLine="6" fill="#FEFECE" filter="url(#fstfmcadbp8hi)" height="61.8359" id="Program" style="stroke:#A80036;stroke-width:1.5;" width="129" x="209" y="7"/><ellipse cx="246.05" cy="23" fill="#ADD1B2" rx="11" ry="11" style="stroke:#A80036;stroke-width:1.0;"/><path d="M248.8156,18.875 Q248.9719,18.6563 249.1594,18.5469 Q249.3469,18.4375 249.5656,18.4375 Q249.9406,18.4375 250.175,18.7031 Q250.4094,18.9531 250.4094,19.5625 L250.4094,21.0156 Q250.4094,21.625 250.175,21.8906 Q249.9406,22.1563 249.5656,22.1563 Q249.2219,22.1563 249.0188,21.9531 Q248.8156,21.7656 248.7063,21.25 Q248.6594,20.8906 248.4719,20.7031 Q248.1438,20.3281 247.5344,20.1094 Q246.925,19.8906 246.3,19.8906 Q245.5344,19.8906 244.8938,20.2188 Q244.2688,20.5469 243.7688,21.2969 Q243.2844,22.0469 243.2844,23.0781 L243.2844,24.1719 Q243.2844,25.4063 244.175,26.2344 Q245.0656,27.0469 246.6594,27.0469 Q247.5969,27.0469 248.2531,26.7969 Q248.6438,26.6406 249.0656,26.2031 Q249.3313,25.9375 249.4719,25.8594 Q249.6281,25.7813 249.8313,25.7813 Q250.1594,25.7813 250.4094,26.0469 Q250.675,26.2969 250.675,26.6406 Q250.675,26.9844 250.3313,27.3906 Q249.8313,27.9688 249.0344,28.2969 Q247.9563,28.75 246.6594,28.75 Q245.1438,28.75 243.9406,28.125 Q242.9563,27.625 242.2688,26.5625 Q241.5813,25.4844 241.5813,24.2031 L241.5813,23.0469 Q241.5813,21.7188 242.1906,20.5781 Q242.8156,19.4219 243.9094,18.8125 Q245.0031,18.1875 246.2375,18.1875 Q246.9719,18.1875 247.6125,18.3594 Q248.2688,18.5156 248.8156,18.875 Z " fill="#000000"/><text fill="#000000" font-family="sans-serif" font-size="12" lengthAdjust="spacing" textLength="48" x="264.95" y="27.9102">Program</text><line style="stroke:#A80036;stroke-width:1.5;" x1="210" x2="337" y1="39" y2="39"/><line style="stroke:#A80036;stroke-width:1.5;" x1="210" x2="337" y1="47" y2="47"/><text fill="#000000" font-family="sans-serif" font-size="11" lengthAdjust="spacing" text-decoration="underline" textLength="117" x="215" y="62.4189">Main(args:string[]) : void</text><!--MD5=[d0074d293e9645ff4ed5f25f47c5773b]
class GameWindow--><rect fill="#FEFECE" filter="url(#fstfmcadbp8hi)" height="48" id="GameWindow" style="stroke:#A80036;stroke-width:1.5;" width="110" x="63.5" y="14"/><ellipse cx="78.5" cy="30" fill="#ADD1B2" rx="11" ry="11" style="stroke:#A80036;stroke-width:1.0;"/><path d="M81.2656,25.875 Q81.4219,25.6563 81.6094,25.5469 Q81.7969,25.4375 82.0156,25.4375 Q82.3906,25.4375 82.625,25.7031 Q82.8594,25.9531 82.8594,26.5625 L82.8594,28.0156 Q82.8594,28.625 82.625,28.8906 Q82.3906,29.1563 82.0156,29.1563 Q81.6719,29.1563 81.4688,28.9531 Q81.2656,28.7656 81.1563,28.25 Q81.1094,27.8906 80.9219,27.7031 Q80.5938,27.3281 79.9844,27.1094 Q79.375,26.8906 78.75,26.8906 Q77.9844,26.8906 77.3438,27.2188 Q76.7188,27.5469 76.2188,28.2969 Q75.7344,29.0469 75.7344,30.0781 L75.7344,31.1719 Q75.7344,32.4063 76.625,33.2344 Q77.5156,34.0469 79.1094,34.0469 Q80.0469,34.0469 80.7031,33.7969 Q81.0938,33.6406 81.5156,33.2031 Q81.7813,32.9375 81.9219,32.8594 Q82.0781,32.7813 82.2813,32.7813 Q82.6094,32.7813 82.8594,33.0469 Q83.125,33.2969 83.125,33.6406 Q83.125,33.9844 82.7813,34.3906 Q82.2813,34.9688 81.4844,35.2969 Q80.4063,35.75 79.1094,35.75 Q77.5938,35.75 76.3906,35.125 Q75.4063,34.625 74.7188,33.5625 Q74.0313,32.4844 74.0313,31.2031 L74.0313,30.0469 Q74.0313,28.7188 74.6406,27.5781 Q75.2656,26.4219 76.3594,25.8125 Q77.4531,25.1875 78.6875,25.1875 Q79.4219,25.1875 80.0625,25.3594 Q80.7188,25.5156 81.2656,25.875 Z " fill="#000000"/><text fill="#000000" font-family="sans-serif" font-size="12" lengthAdjust="spacing" textLength="78" x="92.5" y="34.9102">GameWindow</text><line style="stroke:#A80036;stroke-width:1.5;" x1="64.5" x2="172.5" y1="46" y2="46"/><line style="stroke:#A80036;stroke-width:1.5;" x1="64.5" x2="172.5" y1="54" y2="54"/><!--MD5=[3c0e7ba23ee97378347dee0d1da8e8b4]
reverse link GameWindow to Mundo--><path codeLine="9" d="M118.5,82.21 C118.5,97.14 118.5,113.89 118.5,128.9 " fill="none" id="GameWindow-backto-Mundo" style="stroke:#A80036;stroke-width:1.0;"/><polygon fill="none" points="111.5,82.04,118.5,62.04,125.5,82.04,111.5,82.04" style="stroke:#A80036;stroke-width:1.0;"/><!--MD5=[befeec41aab9b814dc9041e55d4baa8d]
@startuml Mundo
class Mundo {
    + {static} GetInstance(width:int, height:int) : Mundo
    mouseX : int
    mouseY : int
}
class Program {
    {static} Main(args:string[]) : void
}
GameWindow <|- - Mundo
@enduml

PlantUML version 1.2022.0(Tue Jan 11 13:16:42 BRT 2022)
(GPL source distribution)
Java Runtime: Java(TM) SE Runtime Environment
JVM: Java HotSpot(TM) 64-Bit Server VM
Default Encoding: Cp1252
Language: en
Country: US
--></g></svg>