<?xml version="1.0" encoding="UTF-8" standalone="no"?><svg xmlns="http://www.w3.org/2000/svg" xmlns:xlink="http://www.w3.org/1999/xlink" contentScriptType="application/ecmascript" contentStyleType="text/css" height="464px" preserveAspectRatio="none" style="width:1988px;height:464px;background:#FFFFFF;" version="1.1" viewBox="0 0 1988 464" width="1988px" zoomAndPan="magnify"><defs><filter height="300%" id="f7j646infz2c2" width="300%" x="-1" y="-1"><feGaussianBlur result="blurOut" stdDeviation="2.0"/><feColorMatrix in="blurOut" result="blurOut2" type="matrix" values="0 0 0 0 0 0 0 0 0 0 0 0 0 0 0 0 0 0 .4 0"/><feOffset dx="4.0" dy="4.0" in="blurOut2" result="blurOut3"/><feBlend in="SourceGraphic" in2="blurOut3" mode="normal"/></filter></defs><g><!--MD5=[919386ce46a6a5a7c71af782f732246a]
class Mundo--><rect codeLine="1" fill="#FEFECE" filter="url(#f7j646infz2c2)" height="89.5078" id="Mundo" style="stroke:#A80036;stroke-width:1.5;" width="223" x="639" y="204.5"/><ellipse cx="727.75" cy="220.5" fill="#ADD1B2" rx="11" ry="11" style="stroke:#A80036;stroke-width:1.0;"/><path d="M730.5156,216.375 Q730.6719,216.1563 730.8594,216.0469 Q731.0469,215.9375 731.2656,215.9375 Q731.6406,215.9375 731.875,216.2031 Q732.1094,216.4531 732.1094,217.0625 L732.1094,218.5156 Q732.1094,219.125 731.875,219.3906 Q731.6406,219.6563 731.2656,219.6563 Q730.9219,219.6563 730.7188,219.4531 Q730.5156,219.2656 730.4063,218.75 Q730.3594,218.3906 730.1719,218.2031 Q729.8438,217.8281 729.2344,217.6094 Q728.625,217.3906 728,217.3906 Q727.2344,217.3906 726.5938,217.7188 Q725.9688,218.0469 725.4688,218.7969 Q724.9844,219.5469 724.9844,220.5781 L724.9844,221.6719 Q724.9844,222.9063 725.875,223.7344 Q726.7656,224.5469 728.3594,224.5469 Q729.2969,224.5469 729.9531,224.2969 Q730.3438,224.1406 730.7656,223.7031 Q731.0313,223.4375 731.1719,223.3594 Q731.3281,223.2813 731.5313,223.2813 Q731.8594,223.2813 732.1094,223.5469 Q732.375,223.7969 732.375,224.1406 Q732.375,224.4844 732.0313,224.8906 Q731.5313,225.4688 730.7344,225.7969 Q729.6563,226.25 728.3594,226.25 Q726.8438,226.25 725.6406,225.625 Q724.6563,225.125 723.9688,224.0625 Q723.2813,222.9844 723.2813,221.7031 L723.2813,220.5469 Q723.2813,219.2188 723.8906,218.0781 Q724.5156,216.9219 725.6094,216.3125 Q726.7031,215.6875 727.9375,215.6875 Q728.6719,215.6875 729.3125,215.8594 Q729.9688,216.0156 730.5156,216.375 Z " fill="#000000"/><text fill="#000000" font-family="sans-serif" font-size="12" lengthAdjust="spacing" textLength="37" x="748.25" y="225.4102">Mundo</text><line style="stroke:#A80036;stroke-width:1.5;" x1="640" x2="861" y1="236.5" y2="236.5"/><text fill="#000000" font-family="sans-serif" font-size="11" lengthAdjust="spacing" textLength="59" x="645" y="251.9189">mouseX : int</text><text fill="#000000" font-family="sans-serif" font-size="11" lengthAdjust="spacing" textLength="60" x="645" y="265.7549">mouseY : int</text><line style="stroke:#A80036;stroke-width:1.5;" x1="640" x2="861" y1="272.1719" y2="272.1719"/><ellipse cx="650" cy="283.1719" fill="#84BE84" rx="3" ry="3" style="stroke:#038048;stroke-width:1.0;"/><text fill="#000000" font-family="sans-serif" font-size="11" lengthAdjust="spacing" text-decoration="underline" textLength="197" x="659" y="287.5908">GetInstance(width:int, height:int) : Mundo</text><!--MD5=[175f95e045c1a44aed0b30df3abe0e5c]
class Program--><rect codeLine="6" fill="#FEFECE" filter="url(#f7j646infz2c2)" height="61.8359" id="Program" style="stroke:#A80036;stroke-width:1.5;" width="129" x="49" y="34.5"/><ellipse cx="86.05" cy="50.5" fill="#ADD1B2" rx="11" ry="11" style="stroke:#A80036;stroke-width:1.0;"/><path d="M88.8156,46.375 Q88.9719,46.1563 89.1594,46.0469 Q89.3469,45.9375 89.5656,45.9375 Q89.9406,45.9375 90.175,46.2031 Q90.4094,46.4531 90.4094,47.0625 L90.4094,48.5156 Q90.4094,49.125 90.175,49.3906 Q89.9406,49.6563 89.5656,49.6563 Q89.2219,49.6563 89.0188,49.4531 Q88.8156,49.2656 88.7063,48.75 Q88.6594,48.3906 88.4719,48.2031 Q88.1438,47.8281 87.5344,47.6094 Q86.925,47.3906 86.3,47.3906 Q85.5344,47.3906 84.8938,47.7188 Q84.2688,48.0469 83.7688,48.7969 Q83.2844,49.5469 83.2844,50.5781 L83.2844,51.6719 Q83.2844,52.9063 84.175,53.7344 Q85.0656,54.5469 86.6594,54.5469 Q87.5969,54.5469 88.2531,54.2969 Q88.6438,54.1406 89.0656,53.7031 Q89.3313,53.4375 89.4719,53.3594 Q89.6281,53.2813 89.8313,53.2813 Q90.1594,53.2813 90.4094,53.5469 Q90.675,53.7969 90.675,54.1406 Q90.675,54.4844 90.3313,54.8906 Q89.8313,55.4688 89.0344,55.7969 Q87.9563,56.25 86.6594,56.25 Q85.1438,56.25 83.9406,55.625 Q82.9563,55.125 82.2688,54.0625 Q81.5813,52.9844 81.5813,51.7031 L81.5813,50.5469 Q81.5813,49.2188 82.1906,48.0781 Q82.8156,46.9219 83.9094,46.3125 Q85.0031,45.6875 86.2375,45.6875 Q86.9719,45.6875 87.6125,45.8594 Q88.2688,46.0156 88.8156,46.375 Z " fill="#000000"/><text fill="#000000" font-family="sans-serif" font-size="12" lengthAdjust="spacing" textLength="48" x="104.95" y="55.4102">Program</text><line style="stroke:#A80036;stroke-width:1.5;" x1="50" x2="177" y1="66.5" y2="66.5"/><line style="stroke:#A80036;stroke-width:1.5;" x1="50" x2="177" y1="74.5" y2="74.5"/><text fill="#000000" font-family="sans-serif" font-size="11" lengthAdjust="spacing" text-decoration="underline" textLength="117" x="55" y="89.9189">Main(args:string[]) : void</text><!--MD5=[d0074d293e9645ff4ed5f25f47c5773b]
class GameWindow--><rect fill="#FEFECE" filter="url(#f7j646infz2c2)" height="48" id="GameWindow" style="stroke:#A80036;stroke-width:1.5;" width="110" x="695.5" y="41.5"/><ellipse cx="710.5" cy="57.5" fill="#ADD1B2" rx="11" ry="11" style="stroke:#A80036;stroke-width:1.0;"/><path d="M713.2656,53.375 Q713.4219,53.1563 713.6094,53.0469 Q713.7969,52.9375 714.0156,52.9375 Q714.3906,52.9375 714.625,53.2031 Q714.8594,53.4531 714.8594,54.0625 L714.8594,55.5156 Q714.8594,56.125 714.625,56.3906 Q714.3906,56.6563 714.0156,56.6563 Q713.6719,56.6563 713.4688,56.4531 Q713.2656,56.2656 713.1563,55.75 Q713.1094,55.3906 712.9219,55.2031 Q712.5938,54.8281 711.9844,54.6094 Q711.375,54.3906 710.75,54.3906 Q709.9844,54.3906 709.3438,54.7188 Q708.7188,55.0469 708.2188,55.7969 Q707.7344,56.5469 707.7344,57.5781 L707.7344,58.6719 Q707.7344,59.9063 708.625,60.7344 Q709.5156,61.5469 711.1094,61.5469 Q712.0469,61.5469 712.7031,61.2969 Q713.0938,61.1406 713.5156,60.7031 Q713.7813,60.4375 713.9219,60.3594 Q714.0781,60.2813 714.2813,60.2813 Q714.6094,60.2813 714.8594,60.5469 Q715.125,60.7969 715.125,61.1406 Q715.125,61.4844 714.7813,61.8906 Q714.2813,62.4688 713.4844,62.7969 Q712.4063,63.25 711.1094,63.25 Q709.5938,63.25 708.3906,62.625 Q707.4063,62.125 706.7188,61.0625 Q706.0313,59.9844 706.0313,58.7031 L706.0313,57.5469 Q706.0313,56.2188 706.6406,55.0781 Q707.2656,53.9219 708.3594,53.3125 Q709.4531,52.6875 710.6875,52.6875 Q711.4219,52.6875 712.0625,52.8594 Q712.7188,53.0156 713.2656,53.375 Z " fill="#000000"/><text fill="#000000" font-family="sans-serif" font-size="12" lengthAdjust="spacing" textLength="78" x="724.5" y="62.4102">GameWindow</text><line style="stroke:#A80036;stroke-width:1.5;" x1="696.5" x2="804.5" y1="73.5" y2="73.5"/><line style="stroke:#A80036;stroke-width:1.5;" x1="696.5" x2="804.5" y1="81.5" y2="81.5"/><!--MD5=[3051a6a8f877a755a60c7cfd1e6f410a]
class Objeto--><rect codeLine="10" fill="#FEFECE" filter="url(#f7j646infz2c2)" height="117.1797" id="Objeto" style="stroke:#A80036;stroke-width:1.5;" width="199" x="997" y="7"/><ellipse cx="1073.75" cy="23" fill="#A9DCDF" rx="11" ry="11" style="stroke:#A80036;stroke-width:1.0;"/><path d="M1075.9375,24.7656 L1071.7969,24.7656 L1071.375,25.7969 L1071.7969,25.7969 Q1072.4063,25.7969 1072.6719,26.0313 Q1072.9375,26.2656 1072.9375,26.6563 Q1072.9375,27.0313 1072.6719,27.2656 Q1072.4063,27.5 1071.7969,27.5 L1069.5,27.5 Q1068.8906,27.5 1068.6406,27.2656 Q1068.375,27.0313 1068.375,26.6406 Q1068.375,26.2656 1068.6563,26.0313 Q1068.9219,25.7813 1069.5469,25.7969 L1072.2188,19.1406 L1071.1094,19.1406 Q1070.5,19.1406 1070.2344,18.9063 Q1069.9688,18.6719 1069.9688,18.2813 Q1069.9688,17.9063 1070.2344,17.6719 Q1070.5,17.4375 1071.1094,17.4375 L1074.7813,17.4375 L1078.1719,25.7969 Q1078.7656,25.7969 1078.9531,25.9375 Q1079.3438,26.2031 1079.3438,26.6563 Q1079.3438,27.0313 1079.0781,27.2656 Q1078.8281,27.5 1078.2188,27.5 L1075.9219,27.5 Q1075.3125,27.5 1075.0469,27.2656 Q1074.7813,27.0313 1074.7813,26.6406 Q1074.7813,26.2656 1075.0469,26.0313 Q1075.3125,25.7969 1075.9219,25.7969 L1076.3438,25.7969 L1075.9375,24.7656 Z M1075.2188,23.0625 L1073.8594,19.6875 L1072.4844,23.0625 L1075.2188,23.0625 Z " fill="#000000"/><text fill="#000000" font-family="sans-serif" font-size="12" font-style="italic" lengthAdjust="spacing" textLength="37" x="1094.25" y="27.9102">Objeto</text><line style="stroke:#A80036;stroke-width:1.5;" x1="998" x2="1195" y1="39" y2="39"/><ellipse cx="1008" cy="50" rx="3" ry="3" style="stroke:#038048;stroke-width:1.0;fill:none;"/><text fill="#000000" font-family="sans-serif" font-size="11" lengthAdjust="spacing" textLength="173" x="1017" y="54.4189">PrimitivaTamanho : float «get» «set»</text><line style="stroke:#A80036;stroke-width:1.5;" x1="998" x2="1195" y1="60.8359" y2="60.8359"/><ellipse cx="1008" cy="71.8359" fill="#84BE84" rx="3" ry="3" style="stroke:#038048;stroke-width:1.0;"/><text fill="#000000" font-family="sans-serif" font-size="11" lengthAdjust="spacing" textLength="167" x="1017" y="76.2549">Objeto(rotulo:string, paiRef:Objeto)</text><ellipse cx="1008" cy="85.6719" fill="#84BE84" rx="3" ry="3" style="stroke:#038048;stroke-width:1.0;"/><text fill="#000000" font-family="sans-serif" font-size="11" lengthAdjust="spacing" textLength="84" x="1017" y="90.0908">Desenhar() : void</text><ellipse cx="1008" cy="99.5078" fill="#84BE84" rx="3" ry="3" style="stroke:#038048;stroke-width:1.0;"/><text fill="#000000" font-family="sans-serif" font-size="11" lengthAdjust="spacing" textLength="159" x="1017" y="103.9268">FilhoAdicionar(filho:Objeto) : void</text><ellipse cx="1008" cy="113.3438" fill="#84BE84" rx="3" ry="3" style="stroke:#038048;stroke-width:1.0;"/><text fill="#000000" font-family="sans-serif" font-size="11" lengthAdjust="spacing" textLength="156" x="1017" y="117.7627">FilhoRemover(filho:Objeto) : void</text><!--MD5=[9ac43fafcd0ede942dc8e681a30a1b52]
class Cor--><rect fill="#FEFECE" filter="url(#f7j646infz2c2)" height="48" id="Cor" style="stroke:#A80036;stroke-width:1.5;" width="52" x="897.5" y="225.5"/><ellipse cx="912.5" cy="241.5" fill="#ADD1B2" rx="11" ry="11" style="stroke:#A80036;stroke-width:1.0;"/><path d="M915.2656,237.375 Q915.4219,237.1563 915.6094,237.0469 Q915.7969,236.9375 916.0156,236.9375 Q916.3906,236.9375 916.625,237.2031 Q916.8594,237.4531 916.8594,238.0625 L916.8594,239.5156 Q916.8594,240.125 916.625,240.3906 Q916.3906,240.6563 916.0156,240.6563 Q915.6719,240.6563 915.4688,240.4531 Q915.2656,240.2656 915.1563,239.75 Q915.1094,239.3906 914.9219,239.2031 Q914.5938,238.8281 913.9844,238.6094 Q913.375,238.3906 912.75,238.3906 Q911.9844,238.3906 911.3438,238.7188 Q910.7188,239.0469 910.2188,239.7969 Q909.7344,240.5469 909.7344,241.5781 L909.7344,242.6719 Q909.7344,243.9063 910.625,244.7344 Q911.5156,245.5469 913.1094,245.5469 Q914.0469,245.5469 914.7031,245.2969 Q915.0938,245.1406 915.5156,244.7031 Q915.7813,244.4375 915.9219,244.3594 Q916.0781,244.2813 916.2813,244.2813 Q916.6094,244.2813 916.8594,244.5469 Q917.125,244.7969 917.125,245.1406 Q917.125,245.4844 916.7813,245.8906 Q916.2813,246.4688 915.4844,246.7969 Q914.4063,247.25 913.1094,247.25 Q911.5938,247.25 910.3906,246.625 Q909.4063,246.125 908.7188,245.0625 Q908.0313,243.9844 908.0313,242.7031 L908.0313,241.5469 Q908.0313,240.2188 908.6406,239.0781 Q909.2656,237.9219 910.3594,237.3125 Q911.4531,236.6875 912.6875,236.6875 Q913.4219,236.6875 914.0625,236.8594 Q914.7188,237.0156 915.2656,237.375 Z " fill="#000000"/><text fill="#000000" font-family="sans-serif" font-size="12" lengthAdjust="spacing" textLength="20" x="926.5" y="246.4102">Cor</text><line style="stroke:#A80036;stroke-width:1.5;" x1="898.5" x2="948.5" y1="257.5" y2="257.5"/><line style="stroke:#A80036;stroke-width:1.5;" x1="898.5" x2="948.5" y1="265.5" y2="265.5"/><!--MD5=[38e8fced9e943fac45fdba9ac5db991f]
class PrimitiveType--><rect fill="#FEFECE" filter="url(#f7j646infz2c2)" height="48" id="PrimitiveType" style="stroke:#A80036;stroke-width:1.5;" width="105" x="985" y="225.5"/><ellipse cx="1000" cy="241.5" fill="#ADD1B2" rx="11" ry="11" style="stroke:#A80036;stroke-width:1.0;"/><path d="M1002.7656,237.375 Q1002.9219,237.1563 1003.1094,237.0469 Q1003.2969,236.9375 1003.5156,236.9375 Q1003.8906,236.9375 1004.125,237.2031 Q1004.3594,237.4531 1004.3594,238.0625 L1004.3594,239.5156 Q1004.3594,240.125 1004.125,240.3906 Q1003.8906,240.6563 1003.5156,240.6563 Q1003.1719,240.6563 1002.9688,240.4531 Q1002.7656,240.2656 1002.6563,239.75 Q1002.6094,239.3906 1002.4219,239.2031 Q1002.0938,238.8281 1001.4844,238.6094 Q1000.875,238.3906 1000.25,238.3906 Q999.4844,238.3906 998.8438,238.7188 Q998.2188,239.0469 997.7188,239.7969 Q997.2344,240.5469 997.2344,241.5781 L997.2344,242.6719 Q997.2344,243.9063 998.125,244.7344 Q999.0156,245.5469 1000.6094,245.5469 Q1001.5469,245.5469 1002.2031,245.2969 Q1002.5938,245.1406 1003.0156,244.7031 Q1003.2813,244.4375 1003.4219,244.3594 Q1003.5781,244.2813 1003.7813,244.2813 Q1004.1094,244.2813 1004.3594,244.5469 Q1004.625,244.7969 1004.625,245.1406 Q1004.625,245.4844 1004.2813,245.8906 Q1003.7813,246.4688 1002.9844,246.7969 Q1001.9063,247.25 1000.6094,247.25 Q999.0938,247.25 997.8906,246.625 Q996.9063,246.125 996.2188,245.0625 Q995.5313,243.9844 995.5313,242.7031 L995.5313,241.5469 Q995.5313,240.2188 996.1406,239.0781 Q996.7656,237.9219 997.8594,237.3125 Q998.9531,236.6875 1000.1875,236.6875 Q1000.9219,236.6875 1001.5625,236.8594 Q1002.2188,237.0156 1002.7656,237.375 Z " fill="#000000"/><text fill="#000000" font-family="sans-serif" font-size="12" lengthAdjust="spacing" textLength="73" x="1014" y="246.4102">PrimitiveType</text><line style="stroke:#A80036;stroke-width:1.5;" x1="986" x2="1089" y1="257.5" y2="257.5"/><line style="stroke:#A80036;stroke-width:1.5;" x1="986" x2="1089" y1="265.5" y2="265.5"/><!--MD5=[ea10f8dc465baf5e542f54928f2443c8]
class BBox--><rect fill="#FEFECE" filter="url(#f7j646infz2c2)" height="48" id="BBox" style="stroke:#A80036;stroke-width:1.5;" width="60" x="1125.5" y="225.5"/><ellipse cx="1140.5" cy="241.5" fill="#ADD1B2" rx="11" ry="11" style="stroke:#A80036;stroke-width:1.0;"/><path d="M1143.2656,237.375 Q1143.4219,237.1563 1143.6094,237.0469 Q1143.7969,236.9375 1144.0156,236.9375 Q1144.3906,236.9375 1144.625,237.2031 Q1144.8594,237.4531 1144.8594,238.0625 L1144.8594,239.5156 Q1144.8594,240.125 1144.625,240.3906 Q1144.3906,240.6563 1144.0156,240.6563 Q1143.6719,240.6563 1143.4688,240.4531 Q1143.2656,240.2656 1143.1563,239.75 Q1143.1094,239.3906 1142.9219,239.2031 Q1142.5938,238.8281 1141.9844,238.6094 Q1141.375,238.3906 1140.75,238.3906 Q1139.9844,238.3906 1139.3438,238.7188 Q1138.7188,239.0469 1138.2188,239.7969 Q1137.7344,240.5469 1137.7344,241.5781 L1137.7344,242.6719 Q1137.7344,243.9063 1138.625,244.7344 Q1139.5156,245.5469 1141.1094,245.5469 Q1142.0469,245.5469 1142.7031,245.2969 Q1143.0938,245.1406 1143.5156,244.7031 Q1143.7813,244.4375 1143.9219,244.3594 Q1144.0781,244.2813 1144.2813,244.2813 Q1144.6094,244.2813 1144.8594,244.5469 Q1145.125,244.7969 1145.125,245.1406 Q1145.125,245.4844 1144.7813,245.8906 Q1144.2813,246.4688 1143.4844,246.7969 Q1142.4063,247.25 1141.1094,247.25 Q1139.5938,247.25 1138.3906,246.625 Q1137.4063,246.125 1136.7188,245.0625 Q1136.0313,243.9844 1136.0313,242.7031 L1136.0313,241.5469 Q1136.0313,240.2188 1136.6406,239.0781 Q1137.2656,237.9219 1138.3594,237.3125 Q1139.4531,236.6875 1140.6875,236.6875 Q1141.4219,236.6875 1142.0625,236.8594 Q1142.7188,237.0156 1143.2656,237.375 Z " fill="#000000"/><text fill="#000000" font-family="sans-serif" font-size="12" lengthAdjust="spacing" textLength="28" x="1154.5" y="246.4102">BBox</text><line style="stroke:#A80036;stroke-width:1.5;" x1="1126.5" x2="1184.5" y1="257.5" y2="257.5"/><line style="stroke:#A80036;stroke-width:1.5;" x1="1126.5" x2="1184.5" y1="265.5" y2="265.5"/><!--MD5=[8b9e0d00865063ef789ad294aa32e6ea]
class ObjetoGeometria--><rect codeLine="20" fill="#FEFECE" filter="url(#f7j646infz2c2)" height="131.0156" id="ObjetoGeometria" style="stroke:#A80036;stroke-width:1.5;" width="245" x="1221" y="184"/><ellipse cx="1291.75" cy="200" fill="#A9DCDF" rx="11" ry="11" style="stroke:#A80036;stroke-width:1.0;"/><path d="M1293.9375,201.7656 L1289.7969,201.7656 L1289.375,202.7969 L1289.7969,202.7969 Q1290.4063,202.7969 1290.6719,203.0313 Q1290.9375,203.2656 1290.9375,203.6563 Q1290.9375,204.0313 1290.6719,204.2656 Q1290.4063,204.5 1289.7969,204.5 L1287.5,204.5 Q1286.8906,204.5 1286.6406,204.2656 Q1286.375,204.0313 1286.375,203.6406 Q1286.375,203.2656 1286.6563,203.0313 Q1286.9219,202.7813 1287.5469,202.7969 L1290.2188,196.1406 L1289.1094,196.1406 Q1288.5,196.1406 1288.2344,195.9063 Q1287.9688,195.6719 1287.9688,195.2813 Q1287.9688,194.9063 1288.2344,194.6719 Q1288.5,194.4375 1289.1094,194.4375 L1292.7813,194.4375 L1296.1719,202.7969 Q1296.7656,202.7969 1296.9531,202.9375 Q1297.3438,203.2031 1297.3438,203.6563 Q1297.3438,204.0313 1297.0781,204.2656 Q1296.8281,204.5 1296.2188,204.5 L1293.9219,204.5 Q1293.3125,204.5 1293.0469,204.2656 Q1292.7813,204.0313 1292.7813,203.6406 Q1292.7813,203.2656 1293.0469,203.0313 Q1293.3125,202.7969 1293.9219,202.7969 L1294.3438,202.7969 L1293.9375,201.7656 Z M1293.2188,200.0625 L1291.8594,196.6875 L1290.4844,200.0625 L1293.2188,200.0625 Z " fill="#000000"/><text fill="#000000" font-family="sans-serif" font-size="12" font-style="italic" lengthAdjust="spacing" textLength="95" x="1312.25" y="204.9102">ObjetoGeometria</text><line style="stroke:#A80036;stroke-width:1.5;" x1="1222" x2="1465" y1="216" y2="216"/><line style="stroke:#A80036;stroke-width:1.5;" x1="1222" x2="1465" y1="224" y2="224"/><ellipse cx="1232" cy="235" fill="#84BE84" rx="3" ry="3" style="stroke:#038048;stroke-width:1.0;"/><text fill="#000000" font-family="sans-serif" font-size="11" lengthAdjust="spacing" textLength="216" x="1241" y="239.4189">ObjetoGeometria(rotulo:string, paiRef:Objeto)</text><ellipse cx="1232" cy="248.8359" fill="#84BE84" rx="3" ry="3" style="stroke:#038048;stroke-width:1.0;"/><text fill="#000000" font-family="sans-serif" font-size="11" lengthAdjust="spacing" textLength="174" x="1241" y="253.2549">PontosAdicionar(pto:Ponto4D) : void</text><ellipse cx="1232" cy="262.6719" fill="#84BE84" rx="3" ry="3" style="stroke:#038048;stroke-width:1.0;"/><text fill="#000000" font-family="sans-serif" font-size="11" lengthAdjust="spacing" textLength="141" x="1241" y="267.0908">PontosRemoverUltimo() : void</text><ellipse cx="1232" cy="276.5078" fill="#84BE84" rx="3" ry="3" style="stroke:#038048;stroke-width:1.0;"/><text fill="#000000" font-family="sans-serif" font-size="11" lengthAdjust="spacing" textLength="118" x="1241" y="280.9268">PontosUltimo() : Ponto4D</text><ellipse cx="1232" cy="290.3438" fill="#84BE84" rx="3" ry="3" style="stroke:#038048;stroke-width:1.0;"/><text fill="#000000" font-family="sans-serif" font-size="11" lengthAdjust="spacing" textLength="219" x="1241" y="294.7627">PontosAlterar(pto:Ponto4D, posicao:int) : void</text><ellipse cx="1232" cy="304.1797" fill="#84BE84" rx="3" ry="3" style="stroke:#038048;stroke-width:1.0;"/><text fill="#000000" font-family="sans-serif" font-size="11" lengthAdjust="spacing" textLength="139" x="1241" y="308.5986">«override» ToString() : string</text><!--MD5=[b6968d6f0311dc2ba07018bef6e7bfd3]
class Retangulo--><rect codeLine="29" fill="#FEFECE" filter="url(#f7j646infz2c2)" height="75.6719" id="Retangulo" style="stroke:#A80036;stroke-width:1.5;" width="400" x="712.5" y="375"/><ellipse cx="879.75" cy="391" fill="#ADD1B2" rx="11" ry="11" style="stroke:#A80036;stroke-width:1.0;"/><path d="M882.5156,386.875 Q882.6719,386.6563 882.8594,386.5469 Q883.0469,386.4375 883.2656,386.4375 Q883.6406,386.4375 883.875,386.7031 Q884.1094,386.9531 884.1094,387.5625 L884.1094,389.0156 Q884.1094,389.625 883.875,389.8906 Q883.6406,390.1563 883.2656,390.1563 Q882.9219,390.1563 882.7188,389.9531 Q882.5156,389.7656 882.4063,389.25 Q882.3594,388.8906 882.1719,388.7031 Q881.8438,388.3281 881.2344,388.1094 Q880.625,387.8906 880,387.8906 Q879.2344,387.8906 878.5938,388.2188 Q877.9688,388.5469 877.4688,389.2969 Q876.9844,390.0469 876.9844,391.0781 L876.9844,392.1719 Q876.9844,393.4063 877.875,394.2344 Q878.7656,395.0469 880.3594,395.0469 Q881.2969,395.0469 881.9531,394.7969 Q882.3438,394.6406 882.7656,394.2031 Q883.0313,393.9375 883.1719,393.8594 Q883.3281,393.7813 883.5313,393.7813 Q883.8594,393.7813 884.1094,394.0469 Q884.375,394.2969 884.375,394.6406 Q884.375,394.9844 884.0313,395.3906 Q883.5313,395.9688 882.7344,396.2969 Q881.6563,396.75 880.3594,396.75 Q878.8438,396.75 877.6406,396.125 Q876.6563,395.625 875.9688,394.5625 Q875.2813,393.4844 875.2813,392.2031 L875.2813,391.0469 Q875.2813,389.7188 875.8906,388.5781 Q876.5156,387.4219 877.6094,386.8125 Q878.7031,386.1875 879.9375,386.1875 Q880.6719,386.1875 881.3125,386.3594 Q881.9688,386.5156 882.5156,386.875 Z " fill="#000000"/><text fill="#000000" font-family="sans-serif" font-size="12" lengthAdjust="spacing" textLength="57" x="900.25" y="395.9102">Retangulo</text><line style="stroke:#A80036;stroke-width:1.5;" x1="713.5" x2="1111.5" y1="407" y2="407"/><line style="stroke:#A80036;stroke-width:1.5;" x1="713.5" x2="1111.5" y1="415" y2="415"/><ellipse cx="723.5" cy="426" fill="#84BE84" rx="3" ry="3" style="stroke:#038048;stroke-width:1.0;"/><text fill="#000000" font-family="sans-serif" font-size="11" lengthAdjust="spacing" textLength="374" x="732.5" y="430.4189">Retangulo(rotulo:string, paiRef:Objeto, ptoInfEsq:Ponto4D, ptoSupDir:Ponto4D)</text><ellipse cx="723.5" cy="439.8359" fill="#84BE84" rx="3" ry="3" style="stroke:#038048;stroke-width:1.0;"/><text fill="#000000" font-family="sans-serif" font-size="11" lengthAdjust="spacing" textLength="139" x="732.5" y="444.2549">«override» ToString() : string</text><!--MD5=[7285b5824e67b16848be7ff6288389e6]
class Utilitario--><rect codeLine="34" fill="#FEFECE" filter="url(#f7j646infz2c2)" height="61.8359" id="Utilitario" style="stroke:#A80036;stroke-width:1.5;" width="129" x="213" y="34.5"/><ellipse cx="251.4" cy="50.5" fill="#A9DCDF" rx="11" ry="11" style="stroke:#A80036;stroke-width:1.0;"/><path d="M253.5875,52.2656 L249.4469,52.2656 L249.025,53.2969 L249.4469,53.2969 Q250.0563,53.2969 250.3219,53.5313 Q250.5875,53.7656 250.5875,54.1563 Q250.5875,54.5313 250.3219,54.7656 Q250.0563,55 249.4469,55 L247.15,55 Q246.5406,55 246.2906,54.7656 Q246.025,54.5313 246.025,54.1406 Q246.025,53.7656 246.3063,53.5313 Q246.5719,53.2813 247.1969,53.2969 L249.8688,46.6406 L248.7594,46.6406 Q248.15,46.6406 247.8844,46.4063 Q247.6188,46.1719 247.6188,45.7813 Q247.6188,45.4063 247.8844,45.1719 Q248.15,44.9375 248.7594,44.9375 L252.4313,44.9375 L255.8219,53.2969 Q256.4156,53.2969 256.6031,53.4375 Q256.9938,53.7031 256.9938,54.1563 Q256.9938,54.5313 256.7281,54.7656 Q256.4781,55 255.8688,55 L253.5719,55 Q252.9625,55 252.6969,54.7656 Q252.4313,54.5313 252.4313,54.1406 Q252.4313,53.7656 252.6969,53.5313 Q252.9625,53.2969 253.5719,53.2969 L253.9938,53.2969 L253.5875,52.2656 Z M252.8688,50.5625 L251.5094,47.1875 L250.1344,50.5625 L252.8688,50.5625 Z " fill="#000000"/><text fill="#000000" font-family="sans-serif" font-size="12" font-style="italic" lengthAdjust="spacing" textLength="45" x="270.6" y="55.4102">Utilitario</text><line style="stroke:#A80036;stroke-width:1.5;" x1="214" x2="341" y1="66.5" y2="66.5"/><line style="stroke:#A80036;stroke-width:1.5;" x1="214" x2="341" y1="74.5" y2="74.5"/><ellipse cx="224" cy="85.5" fill="#84BE84" rx="3" ry="3" style="stroke:#038048;stroke-width:1.0;"/><text fill="#000000" font-family="sans-serif" font-size="11" lengthAdjust="spacing" text-decoration="underline" textLength="103" x="233" y="89.9189">AjudaTeclado() : void</text><!--MD5=[5650d724fe4a8bb070f5bb710507d40c]
class Privado_BBox--><rect codeLine="37" fill="#FEFECE" filter="url(#f7j646infz2c2)" height="61.8359" id="Privado_BBox" style="stroke:#A80036;stroke-width:1.5;" width="213" x="7" y="218.5"/><ellipse cx="70.25" cy="234.5" fill="#A9DCDF" rx="11" ry="11" style="stroke:#A80036;stroke-width:1.0;"/><path d="M72.4375,236.2656 L68.2969,236.2656 L67.875,237.2969 L68.2969,237.2969 Q68.9063,237.2969 69.1719,237.5313 Q69.4375,237.7656 69.4375,238.1563 Q69.4375,238.5313 69.1719,238.7656 Q68.9063,239 68.2969,239 L66,239 Q65.3906,239 65.1406,238.7656 Q64.875,238.5313 64.875,238.1406 Q64.875,237.7656 65.1563,237.5313 Q65.4219,237.2813 66.0469,237.2969 L68.7188,230.6406 L67.6094,230.6406 Q67,230.6406 66.7344,230.4063 Q66.4688,230.1719 66.4688,229.7813 Q66.4688,229.4063 66.7344,229.1719 Q67,228.9375 67.6094,228.9375 L71.2813,228.9375 L74.6719,237.2969 Q75.2656,237.2969 75.4531,237.4375 Q75.8438,237.7031 75.8438,238.1563 Q75.8438,238.5313 75.5781,238.7656 Q75.3281,239 74.7188,239 L72.4219,239 Q71.8125,239 71.5469,238.7656 Q71.2813,238.5313 71.2813,238.1406 Q71.2813,237.7656 71.5469,237.5313 Q71.8125,237.2969 72.4219,237.2969 L72.8438,237.2969 L72.4375,236.2656 Z M71.7188,234.5625 L70.3594,231.1875 L68.9844,234.5625 L71.7188,234.5625 Z " fill="#000000"/><text fill="#000000" font-family="sans-serif" font-size="12" font-style="italic" lengthAdjust="spacing" textLength="78" x="90.75" y="239.4102">Privado_BBox</text><line style="stroke:#A80036;stroke-width:1.5;" x1="8" x2="219" y1="250.5" y2="250.5"/><line style="stroke:#A80036;stroke-width:1.5;" x1="8" x2="219" y1="258.5" y2="258.5"/><ellipse cx="18" cy="269.5" fill="#84BE84" rx="3" ry="3" style="stroke:#038048;stroke-width:1.0;"/><text fill="#000000" font-family="sans-serif" font-size="11" lengthAdjust="spacing" text-decoration="underline" textLength="187" x="27" y="273.9189">Dentro(bBox:BBox, pto:Ponto4D) : bool</text><!--MD5=[c3c34a12a27bba7e909822120bf61f6f]
class Privado_Circulo--><rect codeLine="40" fill="#FEFECE" filter="url(#f7j646infz2c2)" height="75.6719" id="Privado_Circulo" style="stroke:#A80036;stroke-width:1.5;" width="392" x="1147.5" y="375"/><ellipse cx="1295.75" cy="391" fill="#ADD1B2" rx="11" ry="11" style="stroke:#A80036;stroke-width:1.0;"/><path d="M1298.5156,386.875 Q1298.6719,386.6563 1298.8594,386.5469 Q1299.0469,386.4375 1299.2656,386.4375 Q1299.6406,386.4375 1299.875,386.7031 Q1300.1094,386.9531 1300.1094,387.5625 L1300.1094,389.0156 Q1300.1094,389.625 1299.875,389.8906 Q1299.6406,390.1563 1299.2656,390.1563 Q1298.9219,390.1563 1298.7188,389.9531 Q1298.5156,389.7656 1298.4063,389.25 Q1298.3594,388.8906 1298.1719,388.7031 Q1297.8438,388.3281 1297.2344,388.1094 Q1296.625,387.8906 1296,387.8906 Q1295.2344,387.8906 1294.5938,388.2188 Q1293.9688,388.5469 1293.4688,389.2969 Q1292.9844,390.0469 1292.9844,391.0781 L1292.9844,392.1719 Q1292.9844,393.4063 1293.875,394.2344 Q1294.7656,395.0469 1296.3594,395.0469 Q1297.2969,395.0469 1297.9531,394.7969 Q1298.3438,394.6406 1298.7656,394.2031 Q1299.0313,393.9375 1299.1719,393.8594 Q1299.3281,393.7813 1299.5313,393.7813 Q1299.8594,393.7813 1300.1094,394.0469 Q1300.375,394.2969 1300.375,394.6406 Q1300.375,394.9844 1300.0313,395.3906 Q1299.5313,395.9688 1298.7344,396.2969 Q1297.6563,396.75 1296.3594,396.75 Q1294.8438,396.75 1293.6406,396.125 Q1292.6563,395.625 1291.9688,394.5625 Q1291.2813,393.4844 1291.2813,392.2031 L1291.2813,391.0469 Q1291.2813,389.7188 1291.8906,388.5781 Q1292.5156,387.4219 1293.6094,386.8125 Q1294.7031,386.1875 1295.9375,386.1875 Q1296.6719,386.1875 1297.3125,386.3594 Q1297.9688,386.5156 1298.5156,386.875 Z " fill="#000000"/><text fill="#000000" font-family="sans-serif" font-size="12" lengthAdjust="spacing" textLength="87" x="1316.25" y="395.9102">Privado_Circulo</text><line style="stroke:#A80036;stroke-width:1.5;" x1="1148.5" x2="1538.5" y1="407" y2="407"/><line style="stroke:#A80036;stroke-width:1.5;" x1="1148.5" x2="1538.5" y1="415" y2="415"/><ellipse cx="1158.5" cy="426" fill="#84BE84" rx="3" ry="3" style="stroke:#038048;stroke-width:1.0;"/><text fill="#000000" font-family="sans-serif" font-size="11" lengthAdjust="spacing" textLength="366" x="1167.5" y="430.4189">Privado_Circulo(rotulo:string, paiRef:Objeto, ptoCentro:Ponto4D, raio:double)</text><ellipse cx="1158.5" cy="439.8359" fill="#84BE84" rx="3" ry="3" style="stroke:#038048;stroke-width:1.0;"/><text fill="#000000" font-family="sans-serif" font-size="11" lengthAdjust="spacing" textLength="139" x="1167.5" y="444.2549">«override» ToString() : string</text><!--MD5=[00d138ea5291476c72e7cf5c7f606832]
class Privado_Matematica--><rect codeLine="45" fill="#FEFECE" filter="url(#f7j646infz2c2)" height="117.1797" id="Privado_Matematica" style="stroke:#A80036;stroke-width:1.5;" width="349" x="255" y="191"/><ellipse cx="369.25" cy="207" fill="#A9DCDF" rx="11" ry="11" style="stroke:#A80036;stroke-width:1.0;"/><path d="M371.4375,208.7656 L367.2969,208.7656 L366.875,209.7969 L367.2969,209.7969 Q367.9063,209.7969 368.1719,210.0313 Q368.4375,210.2656 368.4375,210.6563 Q368.4375,211.0313 368.1719,211.2656 Q367.9063,211.5 367.2969,211.5 L365,211.5 Q364.3906,211.5 364.1406,211.2656 Q363.875,211.0313 363.875,210.6406 Q363.875,210.2656 364.1563,210.0313 Q364.4219,209.7813 365.0469,209.7969 L367.7188,203.1406 L366.6094,203.1406 Q366,203.1406 365.7344,202.9063 Q365.4688,202.6719 365.4688,202.2813 Q365.4688,201.9063 365.7344,201.6719 Q366,201.4375 366.6094,201.4375 L370.2813,201.4375 L373.6719,209.7969 Q374.2656,209.7969 374.4531,209.9375 Q374.8438,210.2031 374.8438,210.6563 Q374.8438,211.0313 374.5781,211.2656 Q374.3281,211.5 373.7188,211.5 L371.4219,211.5 Q370.8125,211.5 370.5469,211.2656 Q370.2813,211.0313 370.2813,210.6406 Q370.2813,210.2656 370.5469,210.0313 Q370.8125,209.7969 371.4219,209.7969 L371.8438,209.7969 L371.4375,208.7656 Z M370.7188,207.0625 L369.3594,203.6875 L367.9844,207.0625 L370.7188,207.0625 Z " fill="#000000"/><text fill="#000000" font-family="sans-serif" font-size="12" font-style="italic" lengthAdjust="spacing" textLength="112" x="389.75" y="211.9102">Privado_Matematica</text><line style="stroke:#A80036;stroke-width:1.5;" x1="256" x2="603" y1="223" y2="223"/><line style="stroke:#A80036;stroke-width:1.5;" x1="256" x2="603" y1="231" y2="231"/><ellipse cx="266" cy="242" fill="#84BE84" rx="3" ry="3" style="stroke:#038048;stroke-width:1.0;"/><text fill="#000000" font-family="sans-serif" font-size="11" lengthAdjust="spacing" text-decoration="underline" textLength="275" x="275" y="246.4189">DistanciaEuclidiana(pto1:Ponto4D, pto2:Ponto4D) : double</text><ellipse cx="266" cy="255.8359" fill="#84BE84" rx="3" ry="3" style="stroke:#038048;stroke-width:1.0;"/><text fill="#000000" font-family="sans-serif" font-size="11" lengthAdjust="spacing" text-decoration="underline" textLength="317" x="275" y="260.2549">DistanciaEuclidianaSemRaiz(pto1:Ponto4D, pto2:Ponto4D) : double</text><ellipse cx="266" cy="269.6719" fill="#84BE84" rx="3" ry="3" style="stroke:#038048;stroke-width:1.0;"/><text fill="#000000" font-family="sans-serif" font-size="11" lengthAdjust="spacing" text-decoration="underline" textLength="300" x="275" y="274.0908">ScanLineInterseccao(yi:double, y1:double, y2:double) : double</text><ellipse cx="266" cy="283.5078" fill="#84BE84" rx="3" ry="3" style="stroke:#038048;stroke-width:1.0;"/><text fill="#000000" font-family="sans-serif" font-size="11" lengthAdjust="spacing" text-decoration="underline" textLength="284" x="275" y="287.9268">ScanLineCalculaXi(x1:double, x2:double, ti:double) : double</text><ellipse cx="266" cy="297.3438" fill="#84BE84" rx="3" ry="3" style="stroke:#038048;stroke-width:1.0;"/><text fill="#000000" font-family="sans-serif" font-size="11" lengthAdjust="spacing" text-decoration="underline" textLength="323" x="275" y="301.7627">ScanLine(ptoClique:Ponto4D, ptoIni:Ponto4D, ptoFim:Ponto4D) : bool</text><!--MD5=[48de76ac9e45cd2dd14a095e4e7d40a3]
class Privado_SegReta--><rect codeLine="52" fill="#FEFECE" filter="url(#f7j646infz2c2)" height="75.6719" id="Privado_SegReta" style="stroke:#A80036;stroke-width:1.5;" width="399" x="1575" y="375"/><ellipse cx="1722.25" cy="391" fill="#ADD1B2" rx="11" ry="11" style="stroke:#A80036;stroke-width:1.0;"/><path d="M1725.0156,386.875 Q1725.1719,386.6563 1725.3594,386.5469 Q1725.5469,386.4375 1725.7656,386.4375 Q1726.1406,386.4375 1726.375,386.7031 Q1726.6094,386.9531 1726.6094,387.5625 L1726.6094,389.0156 Q1726.6094,389.625 1726.375,389.8906 Q1726.1406,390.1563 1725.7656,390.1563 Q1725.4219,390.1563 1725.2188,389.9531 Q1725.0156,389.7656 1724.9063,389.25 Q1724.8594,388.8906 1724.6719,388.7031 Q1724.3438,388.3281 1723.7344,388.1094 Q1723.125,387.8906 1722.5,387.8906 Q1721.7344,387.8906 1721.0938,388.2188 Q1720.4688,388.5469 1719.9688,389.2969 Q1719.4844,390.0469 1719.4844,391.0781 L1719.4844,392.1719 Q1719.4844,393.4063 1720.375,394.2344 Q1721.2656,395.0469 1722.8594,395.0469 Q1723.7969,395.0469 1724.4531,394.7969 Q1724.8438,394.6406 1725.2656,394.2031 Q1725.5313,393.9375 1725.6719,393.8594 Q1725.8281,393.7813 1726.0313,393.7813 Q1726.3594,393.7813 1726.6094,394.0469 Q1726.875,394.2969 1726.875,394.6406 Q1726.875,394.9844 1726.5313,395.3906 Q1726.0313,395.9688 1725.2344,396.2969 Q1724.1563,396.75 1722.8594,396.75 Q1721.3438,396.75 1720.1406,396.125 Q1719.1563,395.625 1718.4688,394.5625 Q1717.7813,393.4844 1717.7813,392.2031 L1717.7813,391.0469 Q1717.7813,389.7188 1718.3906,388.5781 Q1719.0156,387.4219 1720.1094,386.8125 Q1721.2031,386.1875 1722.4375,386.1875 Q1723.1719,386.1875 1723.8125,386.3594 Q1724.4688,386.5156 1725.0156,386.875 Z " fill="#000000"/><text fill="#000000" font-family="sans-serif" font-size="12" lengthAdjust="spacing" textLength="96" x="1742.75" y="395.9102">Privado_SegReta</text><line style="stroke:#A80036;stroke-width:1.5;" x1="1576" x2="1973" y1="407" y2="407"/><line style="stroke:#A80036;stroke-width:1.5;" x1="1576" x2="1973" y1="415" y2="415"/><ellipse cx="1586" cy="426" fill="#84BE84" rx="3" ry="3" style="stroke:#038048;stroke-width:1.0;"/><text fill="#000000" font-family="sans-serif" font-size="11" lengthAdjust="spacing" textLength="373" x="1595" y="430.4189">Privado_SegReta(rotulo:string, paiRef:Objeto, ptoIni:Ponto4D, ptoFim:Ponto4D)</text><ellipse cx="1586" cy="439.8359" fill="#84BE84" rx="3" ry="3" style="stroke:#038048;stroke-width:1.0;"/><text fill="#000000" font-family="sans-serif" font-size="11" lengthAdjust="spacing" textLength="139" x="1595" y="444.2549">«override» ToString() : string</text><!--MD5=[3c0e7ba23ee97378347dee0d1da8e8b4]
reverse link GameWindow to Mundo--><path codeLine="9" d="M750.5,109.84 C750.5,138.41 750.5,175.71 750.5,204.43 " fill="none" id="GameWindow-backto-Mundo" style="stroke:#A80036;stroke-width:1.0;"/><polygon fill="none" points="743.5,109.55,750.5,89.55,757.5,109.55,743.5,109.55" style="stroke:#A80036;stroke-width:1.0;"/><!--MD5=[abb974133f481326665ca9332982bcdd]
link Objeto to Cor--><path codeLine="17" d="M1027.35,124.08 C1007.11,142.33 985.58,163.19 967.5,184 C957.52,195.48 947.84,209.29 940.11,221.18 " fill="none" id="Objeto-to-Cor" style="stroke:#A80036;stroke-width:1.0;"/><polygon fill="#A80036" points="937.35,225.47,945.5732,220.0497,940.0473,221.2599,938.8371,215.7341,937.35,225.47" style="stroke:#A80036;stroke-width:1.0;"/><text fill="#000000" font-family="sans-serif" font-size="13" lengthAdjust="spacing" textLength="58" x="875.4678" y="214.8025">ObjetoCor</text><!--MD5=[7e8630a5cd5ea67eab064634d547f460]
link Objeto to PrimitiveType--><path codeLine="18" d="M1077.83,124.09 C1067.45,156.11 1054.99,194.54 1046.69,220.14 " fill="none" id="Objeto-to-PrimitiveType" style="stroke:#A80036;stroke-width:1.0;"/><polygon fill="#A80036" points="1045.09,225.08,1051.6714,217.753,1046.6325,220.3239,1044.0617,215.285,1045.09,225.08" style="stroke:#A80036;stroke-width:1.0;"/><text fill="#000000" font-family="sans-serif" font-size="13" lengthAdjust="spacing" textLength="73" x="965.0432" y="214.7156">PrimitivaTipo</text><!--MD5=[ff34dbfed28166dc938de446fd84e6c0]
link Objeto to BBox--><path codeLine="19" d="M1115.17,124.09 C1125.55,156.11 1138.01,194.54 1146.31,220.14 " fill="none" id="Objeto-to-BBox" style="stroke:#A80036;stroke-width:1.0;"/><polygon fill="#A80036" points="1147.91,225.08,1148.9383,215.285,1146.3675,220.3239,1141.3286,217.753,1147.91,225.08" style="stroke:#A80036;stroke-width:1.0;"/><text fill="#000000" font-family="sans-serif" font-size="13" lengthAdjust="spacing" textLength="32" x="1110.1599" y="214.7156">BBox</text><!--MD5=[a03c7e7dbc7aa919221c9dfab59c60ca]
reverse link Objeto to ObjetoGeometria--><path codeLine="28" d="M1190.97,136.11 C1212.19,151.74 1234.61,168.27 1255.55,183.69 " fill="none" id="Objeto-backto-ObjetoGeometria" style="stroke:#A80036;stroke-width:1.0;"/><polygon fill="none" points="1186.6,141.59,1174.65,124.09,1194.91,130.31,1186.6,141.59" style="stroke:#A80036;stroke-width:1.0;"/><!--MD5=[26236c37487edb4672de193cef5bd1db]
reverse link ObjetoGeometria to Retangulo--><path codeLine="33" d="M1202.03,315.35 C1137.56,340.48 1081.61,359.46 1033.56,374.94 " fill="none" id="ObjetoGeometria-backto-Retangulo" style="stroke:#A80036;stroke-width:1.0;"/><polygon fill="none" points="1199.74,308.73,1220.91,307.9,1204.87,321.75,1199.74,308.73" style="stroke:#A80036;stroke-width:1.0;"/><!--MD5=[17d508597094ccb24ae336549ba236e1]
reverse link ObjetoGeometria to Privado_Circulo--><path codeLine="44" d="M1343.5,335.39 C1343.5,349.17 1343.5,362.8 1343.5,374.65 " fill="none" id="ObjetoGeometria-backto-Privado_Circulo" style="stroke:#A80036;stroke-width:1.0;"/><polygon fill="none" points="1336.5,335.26,1343.5,315.26,1350.5,335.26,1336.5,335.26" style="stroke:#A80036;stroke-width:1.0;"/><!--MD5=[fba79b035eb861c3c10e58ba51297e23]
reverse link ObjetoGeometria to Privado_SegReta--><path codeLine="56" d="M1485.15,303.58 C1547.45,326.92 1619.12,353.78 1675.54,374.92 " fill="none" id="ObjetoGeometria-backto-Privado_SegReta" style="stroke:#A80036;stroke-width:1.0;"/><polygon fill="none" points="1482.41,310.03,1466.14,296.46,1487.33,296.92,1482.41,310.03" style="stroke:#A80036;stroke-width:1.0;"/><!--MD5=[f27b583df302a89d5daf80cd5e408a8e]
link Program to Utilitario--><!--MD5=[0b84fea3b2a329a095e27776a40bc1a2]
link Program to Privado_BBox--><!--MD5=[ea508825cc65aaf53e737e4dff81f04a]
link Privado_BBox to Privado_Matematica--><!--MD5=[06e6313d4331b593261c84bf83af9593]
@startuml CG_N2
class Mundo {
    + {static} GetInstance(width:int, height:int) : Mundo
    mouseX : int
    mouseY : int
}
class Program {
    {static} Main(args:string[]) : void
}
GameWindow <|- - Mundo
abstract class Objeto {
    + PrimitivaTamanho : float <<get>> <<set>>
    + Objeto(rotulo:string, paiRef:Objeto)
    + Desenhar() : void
    + FilhoAdicionar(filho:Objeto) : void
    + FilhoRemover(filho:Objeto) : void
}
Objeto - -> "ObjetoCor" Cor
Objeto - -> "PrimitivaTipo" PrimitiveType
Objeto - -> "BBox" BBox
abstract class ObjetoGeometria {
    + ObjetoGeometria(rotulo:string, paiRef:Objeto)
    + PontosAdicionar(pto:Ponto4D) : void
    + PontosRemoverUltimo() : void
    + PontosUltimo() : Ponto4D
    + PontosAlterar(pto:Ponto4D, posicao:int) : void
    + <<override>> ToString() : string
}
Objeto <|- - ObjetoGeometria
class Retangulo {
    + Retangulo(rotulo:string, paiRef:Objeto, ptoInfEsq:Ponto4D, ptoSupDir:Ponto4D)
    + <<override>> ToString() : string
}
ObjetoGeometria <|- - Retangulo
abstract class Utilitario {
    + {static} AjudaTeclado() : void
}
abstract class Privado_BBox {
    + {static} Dentro(bBox:BBox, pto:Ponto4D) : bool
}
class Privado_Circulo {
    + Privado_Circulo(rotulo:string, paiRef:Objeto, ptoCentro:Ponto4D, raio:double)
    + <<override>> ToString() : string
}
ObjetoGeometria <|- - Privado_Circulo
abstract class Privado_Matematica {
    + {static} DistanciaEuclidiana(pto1:Ponto4D, pto2:Ponto4D) : double
    + {static} DistanciaEuclidianaSemRaiz(pto1:Ponto4D, pto2:Ponto4D) : double
    + {static} ScanLineInterseccao(yi:double, y1:double, y2:double) : double
    + {static} ScanLineCalculaXi(x1:double, x2:double, ti:double) : double
    + {static} ScanLine(ptoClique:Ponto4D, ptoIni:Ponto4D, ptoFim:Ponto4D) : bool
}
class Privado_SegReta {
    + Privado_SegReta(rotulo:string, paiRef:Objeto, ptoIni:Ponto4D, ptoFim:Ponto4D)
    + <<override>> ToString() : string
}
ObjetoGeometria <|- - Privado_SegReta
@enduml

PlantUML version 1.2022.0(Tue Jan 11 13:16:42 BRT 2022)
(GPL source distribution)
Java Runtime: Java(TM) SE Runtime Environment
JVM: Java HotSpot(TM) 64-Bit Server VM
Default Encoding: Cp1252
Language: en
Country: US
--></g></svg>