<?xml version="1.0" encoding="UTF-8" standalone="no"?><svg xmlns="http://www.w3.org/2000/svg" xmlns:xlink="http://www.w3.org/1999/xlink" contentScriptType="application/ecmascript" contentStyleType="text/css" height="138px" preserveAspectRatio="none" style="width:370px;height:138px;background:#FFFFFF;" version="1.1" viewBox="0 0 370 138" width="370px" zoomAndPan="magnify"><defs><filter height="300%" id="f19plg4dr978sk" width="300%" x="-1" y="-1"><feGaussianBlur result="blurOut" stdDeviation="2.0"/><feColorMatrix in="blurOut" result="blurOut2" type="matrix" values="0 0 0 0 0 0 0 0 0 0 0 0 0 0 0 0 0 0 .4 0"/><feOffset dx="4.0" dy="4.0" in="blurOut2" result="blurOut3"/><feBlend in="SourceGraphic" in2="blurOut3" mode="normal"/></filter></defs><g><!--MD5=[00d138ea5291476c72e7cf5c7f606832]
class Privado_Matematica--><rect codeLine="1" fill="#FEFECE" filter="url(#f19plg4dr978sk)" height="117.1797" id="Privado_Matematica" style="stroke:#A80036;stroke-width:1.5;" width="349" x="7" y="7"/><ellipse cx="121.25" cy="23" fill="#A9DCDF" rx="11" ry="11" style="stroke:#A80036;stroke-width:1.0;"/><path d="M123.4375,24.7656 L119.2969,24.7656 L118.875,25.7969 L119.2969,25.7969 Q119.9063,25.7969 120.1719,26.0313 Q120.4375,26.2656 120.4375,26.6563 Q120.4375,27.0313 120.1719,27.2656 Q119.9063,27.5 119.2969,27.5 L117,27.5 Q116.3906,27.5 116.1406,27.2656 Q115.875,27.0313 115.875,26.6406 Q115.875,26.2656 116.1563,26.0313 Q116.4219,25.7813 117.0469,25.7969 L119.7188,19.1406 L118.6094,19.1406 Q118,19.1406 117.7344,18.9063 Q117.4688,18.6719 117.4688,18.2813 Q117.4688,17.9063 117.7344,17.6719 Q118,17.4375 118.6094,17.4375 L122.2813,17.4375 L125.6719,25.7969 Q126.2656,25.7969 126.4531,25.9375 Q126.8438,26.2031 126.8438,26.6563 Q126.8438,27.0313 126.5781,27.2656 Q126.3281,27.5 125.7188,27.5 L123.4219,27.5 Q122.8125,27.5 122.5469,27.2656 Q122.2813,27.0313 122.2813,26.6406 Q122.2813,26.2656 122.5469,26.0313 Q122.8125,25.7969 123.4219,25.7969 L123.8438,25.7969 L123.4375,24.7656 Z M122.7188,23.0625 L121.3594,19.6875 L119.9844,23.0625 L122.7188,23.0625 Z " fill="#000000"/><text fill="#000000" font-family="sans-serif" font-size="12" font-style="italic" lengthAdjust="spacing" textLength="112" x="141.75" y="27.9102">Privado_Matematica</text><line style="stroke:#A80036;stroke-width:1.5;" x1="8" x2="355" y1="39" y2="39"/><line style="stroke:#A80036;stroke-width:1.5;" x1="8" x2="355" y1="47" y2="47"/><ellipse cx="18" cy="58" fill="#84BE84" rx="3" ry="3" style="stroke:#038048;stroke-width:1.0;"/><text fill="#000000" font-family="sans-serif" font-size="11" lengthAdjust="spacing" text-decoration="underline" textLength="275" x="27" y="62.4189">DistanciaEuclidiana(pto1:Ponto4D, pto2:Ponto4D) : double</text><ellipse cx="18" cy="71.8359" fill="#84BE84" rx="3" ry="3" style="stroke:#038048;stroke-width:1.0;"/><text fill="#000000" font-family="sans-serif" font-size="11" lengthAdjust="spacing" text-decoration="underline" textLength="317" x="27" y="76.2549">DistanciaEuclidianaSemRaiz(pto1:Ponto4D, pto2:Ponto4D) : double</text><ellipse cx="18" cy="85.6719" fill="#84BE84" rx="3" ry="3" style="stroke:#038048;stroke-width:1.0;"/><text fill="#000000" font-family="sans-serif" font-size="11" lengthAdjust="spacing" text-decoration="underline" textLength="300" x="27" y="90.0908">ScanLineInterseccao(yi:double, y1:double, y2:double) : double</text><ellipse cx="18" cy="99.5078" fill="#84BE84" rx="3" ry="3" style="stroke:#038048;stroke-width:1.0;"/><text fill="#000000" font-family="sans-serif" font-size="11" lengthAdjust="spacing" text-decoration="underline" textLength="284" x="27" y="103.9268">ScanLineCalculaXi(x1:double, x2:double, ti:double) : double</text><ellipse cx="18" cy="113.3438" fill="#84BE84" rx="3" ry="3" style="stroke:#038048;stroke-width:1.0;"/><text fill="#000000" font-family="sans-serif" font-size="11" lengthAdjust="spacing" text-decoration="underline" textLength="323" x="27" y="117.7627">ScanLine(ptoClique:Ponto4D, ptoIni:Ponto4D, ptoFim:Ponto4D) : bool</text><!--MD5=[0d49145011682375568aa789592cef95]
@startuml Privado_Matematica
abstract class Privado_Matematica {
    + {static} DistanciaEuclidiana(pto1:Ponto4D, pto2:Ponto4D) : double
    + {static} DistanciaEuclidianaSemRaiz(pto1:Ponto4D, pto2:Ponto4D) : double
    + {static} ScanLineInterseccao(yi:double, y1:double, y2:double) : double
    + {static} ScanLineCalculaXi(x1:double, x2:double, ti:double) : double
    + {static} ScanLine(ptoClique:Ponto4D, ptoIni:Ponto4D, ptoFim:Ponto4D) : bool
}
@enduml

PlantUML version 1.2022.0(Tue Jan 11 13:16:42 BRT 2022)
(GPL source distribution)
Java Runtime: Java(TM) SE Runtime Environment
JVM: Java HotSpot(TM) 64-Bit Server VM
Default Encoding: Cp1252
Language: en
Country: US
--></g></svg>