<?xml version="1.0" encoding="UTF-8" standalone="no"?><svg xmlns="http://www.w3.org/2000/svg" xmlns:xlink="http://www.w3.org/1999/xlink" contentScriptType="application/ecmascript" contentStyleType="text/css" height="204px" preserveAspectRatio="none" style="width:413px;height:204px;background:#FFFFFF;" version="1.1" viewBox="0 0 413 204" width="413px" zoomAndPan="magnify"><defs><filter height="300%" id="f1ojoxx0v2g4sw" width="300%" x="-1" y="-1"><feGaussianBlur result="blurOut" stdDeviation="2.0"/><feColorMatrix in="blurOut" result="blurOut2" type="matrix" values="0 0 0 0 0 0 0 0 0 0 0 0 0 0 0 0 0 0 .4 0"/><feOffset dx="4.0" dy="4.0" in="blurOut2" result="blurOut3"/><feBlend in="SourceGraphic" in2="blurOut3" mode="normal"/></filter></defs><g><!--MD5=[c3c34a12a27bba7e909822120bf61f6f]
class Privado_Circulo--><rect codeLine="1" fill="#FEFECE" filter="url(#f1ojoxx0v2g4sw)" height="75.6719" id="Privado_Circulo" style="stroke:#A80036;stroke-width:1.5;" width="392" x="7" y="115"/><ellipse cx="155.25" cy="131" fill="#ADD1B2" rx="11" ry="11" style="stroke:#A80036;stroke-width:1.0;"/><path d="M158.0156,126.875 Q158.1719,126.6563 158.3594,126.5469 Q158.5469,126.4375 158.7656,126.4375 Q159.1406,126.4375 159.375,126.7031 Q159.6094,126.9531 159.6094,127.5625 L159.6094,129.0156 Q159.6094,129.625 159.375,129.8906 Q159.1406,130.1563 158.7656,130.1563 Q158.4219,130.1563 158.2188,129.9531 Q158.0156,129.7656 157.9063,129.25 Q157.8594,128.8906 157.6719,128.7031 Q157.3438,128.3281 156.7344,128.1094 Q156.125,127.8906 155.5,127.8906 Q154.7344,127.8906 154.0938,128.2188 Q153.4688,128.5469 152.9688,129.2969 Q152.4844,130.0469 152.4844,131.0781 L152.4844,132.1719 Q152.4844,133.4063 153.375,134.2344 Q154.2656,135.0469 155.8594,135.0469 Q156.7969,135.0469 157.4531,134.7969 Q157.8438,134.6406 158.2656,134.2031 Q158.5313,133.9375 158.6719,133.8594 Q158.8281,133.7813 159.0313,133.7813 Q159.3594,133.7813 159.6094,134.0469 Q159.875,134.2969 159.875,134.6406 Q159.875,134.9844 159.5313,135.3906 Q159.0313,135.9688 158.2344,136.2969 Q157.1563,136.75 155.8594,136.75 Q154.3438,136.75 153.1406,136.125 Q152.1563,135.625 151.4688,134.5625 Q150.7813,133.4844 150.7813,132.2031 L150.7813,131.0469 Q150.7813,129.7188 151.3906,128.5781 Q152.0156,127.4219 153.1094,126.8125 Q154.2031,126.1875 155.4375,126.1875 Q156.1719,126.1875 156.8125,126.3594 Q157.4688,126.5156 158.0156,126.875 Z " fill="#000000"/><text fill="#000000" font-family="sans-serif" font-size="12" lengthAdjust="spacing" textLength="87" x="175.75" y="135.9102">Privado_Circulo</text><line style="stroke:#A80036;stroke-width:1.5;" x1="8" x2="398" y1="147" y2="147"/><line style="stroke:#A80036;stroke-width:1.5;" x1="8" x2="398" y1="155" y2="155"/><ellipse cx="18" cy="166" fill="#84BE84" rx="3" ry="3" style="stroke:#038048;stroke-width:1.0;"/><text fill="#000000" font-family="sans-serif" font-size="11" lengthAdjust="spacing" textLength="366" x="27" y="170.4189">Privado_Circulo(rotulo:string, paiRef:Objeto, ptoCentro:Ponto4D, raio:double)</text><ellipse cx="18" cy="179.8359" fill="#84BE84" rx="3" ry="3" style="stroke:#038048;stroke-width:1.0;"/><text fill="#000000" font-family="sans-serif" font-size="11" lengthAdjust="spacing" textLength="139" x="27" y="184.2549">«override» ToString() : string</text><!--MD5=[8b9e0d00865063ef789ad294aa32e6ea]
class ObjetoGeometria--><rect fill="#FEFECE" filter="url(#f1ojoxx0v2g4sw)" height="48" id="ObjetoGeometria" style="stroke:#A80036;stroke-width:1.5;" width="126" x="140" y="7"/><ellipse cx="155" cy="23" fill="#ADD1B2" rx="11" ry="11" style="stroke:#A80036;stroke-width:1.0;"/><path d="M157.7656,18.875 Q157.9219,18.6563 158.1094,18.5469 Q158.2969,18.4375 158.5156,18.4375 Q158.8906,18.4375 159.125,18.7031 Q159.3594,18.9531 159.3594,19.5625 L159.3594,21.0156 Q159.3594,21.625 159.125,21.8906 Q158.8906,22.1563 158.5156,22.1563 Q158.1719,22.1563 157.9688,21.9531 Q157.7656,21.7656 157.6563,21.25 Q157.6094,20.8906 157.4219,20.7031 Q157.0938,20.3281 156.4844,20.1094 Q155.875,19.8906 155.25,19.8906 Q154.4844,19.8906 153.8438,20.2188 Q153.2188,20.5469 152.7188,21.2969 Q152.2344,22.0469 152.2344,23.0781 L152.2344,24.1719 Q152.2344,25.4063 153.125,26.2344 Q154.0156,27.0469 155.6094,27.0469 Q156.5469,27.0469 157.2031,26.7969 Q157.5938,26.6406 158.0156,26.2031 Q158.2813,25.9375 158.4219,25.8594 Q158.5781,25.7813 158.7813,25.7813 Q159.1094,25.7813 159.3594,26.0469 Q159.625,26.2969 159.625,26.6406 Q159.625,26.9844 159.2813,27.3906 Q158.7813,27.9688 157.9844,28.2969 Q156.9063,28.75 155.6094,28.75 Q154.0938,28.75 152.8906,28.125 Q151.9063,27.625 151.2188,26.5625 Q150.5313,25.4844 150.5313,24.2031 L150.5313,23.0469 Q150.5313,21.7188 151.1406,20.5781 Q151.7656,19.4219 152.8594,18.8125 Q153.9531,18.1875 155.1875,18.1875 Q155.9219,18.1875 156.5625,18.3594 Q157.2188,18.5156 157.7656,18.875 Z " fill="#000000"/><text fill="#000000" font-family="sans-serif" font-size="12" lengthAdjust="spacing" textLength="94" x="169" y="27.9102">ObjetoGeometria</text><line style="stroke:#A80036;stroke-width:1.5;" x1="141" x2="265" y1="39" y2="39"/><line style="stroke:#A80036;stroke-width:1.5;" x1="141" x2="265" y1="47" y2="47"/><!--MD5=[17d508597094ccb24ae336549ba236e1]
reverse link ObjetoGeometria to Privado_Circulo--><path codeLine="5" d="M203,75.34 C203,88.26 203,102.29 203,114.77 " fill="none" id="ObjetoGeometria-backto-Privado_Circulo" style="stroke:#A80036;stroke-width:1.0;"/><polygon fill="none" points="196,75.14,203,55.14,210,75.14,196,75.14" style="stroke:#A80036;stroke-width:1.0;"/><!--MD5=[2719b835abb47f02b15c0d9440ea25d8]
@startuml Privado_Circulo
class Privado_Circulo {
    + Privado_Circulo(rotulo:string, paiRef:Objeto, ptoCentro:Ponto4D, raio:double)
    + <<override>> ToString() : string
}
ObjetoGeometria <|- - Privado_Circulo
@enduml

PlantUML version 1.2022.0(Tue Jan 11 13:16:42 BRT 2022)
(GPL source distribution)
Java Runtime: Java(TM) SE Runtime Environment
JVM: Java HotSpot(TM) 64-Bit Server VM
Default Encoding: Cp1252
Language: en
Country: US
--></g></svg>