<?xml version="1.0" encoding="UTF-8" standalone="no"?><svg xmlns="http://www.w3.org/2000/svg" xmlns:xlink="http://www.w3.org/1999/xlink" contentScriptType="application/ecmascript" contentStyleType="text/css" height="493px" preserveAspectRatio="none" style="width:296px;height:493px;background:#FFFFFF;" version="1.1" viewBox="0 0 296 493" width="296px" zoomAndPan="magnify"><defs><filter height="300%" id="f1aiqiuc9b7f5v" width="300%" x="-1" y="-1"><feGaussianBlur result="blurOut" stdDeviation="2.0"/><feColorMatrix in="blurOut" result="blurOut2" type="matrix" values="0 0 0 0 0 0 0 0 0 0 0 0 0 0 0 0 0 0 .4 0"/><feOffset dx="4.0" dy="4.0" in="blurOut2" result="blurOut3"/><feBlend in="SourceGraphic" in2="blurOut3" mode="normal"/></filter></defs><g><!--MD5=[14270d418d81d90ef0399f0e3d0d5129]
class Poligono--><rect codeLine="1" fill="#FEFECE" filter="url(#f1aiqiuc9b7f5v)" height="255.5391" id="Poligono" style="stroke:#A80036;stroke-width:1.5;" width="273" x="9" y="115"/><ellipse cx="116.75" cy="131" fill="#ADD1B2" rx="11" ry="11" style="stroke:#A80036;stroke-width:1.0;"/><path d="M119.5156,126.875 Q119.6719,126.6563 119.8594,126.5469 Q120.0469,126.4375 120.2656,126.4375 Q120.6406,126.4375 120.875,126.7031 Q121.1094,126.9531 121.1094,127.5625 L121.1094,129.0156 Q121.1094,129.625 120.875,129.8906 Q120.6406,130.1563 120.2656,130.1563 Q119.9219,130.1563 119.7188,129.9531 Q119.5156,129.7656 119.4063,129.25 Q119.3594,128.8906 119.1719,128.7031 Q118.8438,128.3281 118.2344,128.1094 Q117.625,127.8906 117,127.8906 Q116.2344,127.8906 115.5938,128.2188 Q114.9688,128.5469 114.4688,129.2969 Q113.9844,130.0469 113.9844,131.0781 L113.9844,132.1719 Q113.9844,133.4063 114.875,134.2344 Q115.7656,135.0469 117.3594,135.0469 Q118.2969,135.0469 118.9531,134.7969 Q119.3438,134.6406 119.7656,134.2031 Q120.0313,133.9375 120.1719,133.8594 Q120.3281,133.7813 120.5313,133.7813 Q120.8594,133.7813 121.1094,134.0469 Q121.375,134.2969 121.375,134.6406 Q121.375,134.9844 121.0313,135.3906 Q120.5313,135.9688 119.7344,136.2969 Q118.6563,136.75 117.3594,136.75 Q115.8438,136.75 114.6406,136.125 Q113.6563,135.625 112.9688,134.5625 Q112.2813,133.4844 112.2813,132.2031 L112.2813,131.0469 Q112.2813,129.7188 112.8906,128.5781 Q113.5156,127.4219 114.6094,126.8125 Q115.7031,126.1875 116.9375,126.1875 Q117.6719,126.1875 118.3125,126.3594 Q118.9688,126.5156 119.5156,126.875 Z " fill="#000000"/><text fill="#000000" font-family="sans-serif" font-size="12" lengthAdjust="spacing" textLength="49" x="137.25" y="135.9102">Poligono</text><line style="stroke:#A80036;stroke-width:1.5;" x1="10" x2="281" y1="147" y2="147"/><rect fill="none" height="6" style="stroke:#C82930;stroke-width:1.0;" width="6" x="17" y="155"/><text fill="#000000" font-family="sans-serif" font-size="11" lengthAdjust="spacing" textLength="83" x="29" y="162.4189">Modificavel : bool</text><line style="stroke:#A80036;stroke-width:1.5;" x1="10" x2="281" y1="168.8359" y2="168.8359"/><ellipse cx="20" cy="179.8359" fill="#84BE84" rx="3" ry="3" style="stroke:#038048;stroke-width:1.0;"/><text fill="#000000" font-family="sans-serif" font-size="11" lengthAdjust="spacing" textLength="247" x="29" y="184.2549">Poligono(rotulo:char, paiRef:Objeto, ponto:Ponto4D)</text><polygon fill="#FFFF44" points="20,188.6719,24,192.6719,20,196.6719,16,192.6719" style="stroke:#B38D22;stroke-width:1.0;"/><text fill="#000000" font-family="sans-serif" font-size="11" lengthAdjust="spacing" textLength="170" x="29" y="198.0908">«override» DesenharObjeto() : void</text><ellipse cx="20" cy="207.5078" fill="#84BE84" rx="3" ry="3" style="stroke:#038048;stroke-width:1.0;"/><text fill="#000000" font-family="sans-serif" font-size="11" lengthAdjust="spacing" textLength="206" x="29" y="211.9268">atualizaPontoSelecionado(x:int, y:int) : void</text><ellipse cx="20" cy="221.3438" fill="#84BE84" rx="3" ry="3" style="stroke:#038048;stroke-width:1.0;"/><text fill="#000000" font-family="sans-serif" font-size="11" lengthAdjust="spacing" textLength="183" x="29" y="225.7627">removerMaisProximo(x:int, y:int) : void</text><ellipse cx="20" cy="235.1797" fill="#84BE84" rx="3" ry="3" style="stroke:#038048;stroke-width:1.0;"/><text fill="#000000" font-family="sans-serif" font-size="11" lengthAdjust="spacing" textLength="81" x="29" y="239.5986">fimMover() : void</text><ellipse cx="20" cy="249.0156" fill="#84BE84" rx="3" ry="3" style="stroke:#038048;stroke-width:1.0;"/><text fill="#000000" font-family="sans-serif" font-size="11" lengthAdjust="spacing" textLength="209" x="29" y="253.4346">adicionarPontoPegaUltimo(p:Ponto4D) : void</text><ellipse cx="20" cy="262.8516" fill="#84BE84" rx="3" ry="3" style="stroke:#038048;stroke-width:1.0;"/><text fill="#000000" font-family="sans-serif" font-size="11" lengthAdjust="spacing" textLength="57" x="29" y="267.2705">lenght() : int</text><ellipse cx="20" cy="276.6875" fill="#84BE84" rx="3" ry="3" style="stroke:#038048;stroke-width:1.0;"/><text fill="#000000" font-family="sans-serif" font-size="11" lengthAdjust="spacing" textLength="109" x="29" y="281.1064">alternaPrimitiva() : void</text><ellipse cx="20" cy="290.5234" fill="#84BE84" rx="3" ry="3" style="stroke:#038048;stroke-width:1.0;"/><text fill="#000000" font-family="sans-serif" font-size="11" lengthAdjust="spacing" textLength="114" x="29" y="294.9424">finalizaDesenho() : void</text><ellipse cx="20" cy="304.3594" fill="#84BE84" rx="3" ry="3" style="stroke:#038048;stroke-width:1.0;"/><text fill="#000000" font-family="sans-serif" font-size="11" lengthAdjust="spacing" textLength="196" x="29" y="308.7783">foiSelecionado(x:double, y:double) : bool</text><ellipse cx="20" cy="318.1953" fill="#84BE84" rx="3" ry="3" style="stroke:#038048;stroke-width:1.0;"/><text fill="#000000" font-family="sans-serif" font-size="11" lengthAdjust="spacing" textLength="128" x="29" y="322.6143">translacaoPoligono() : void</text><ellipse cx="20" cy="332.0313" fill="#84BE84" rx="3" ry="3" style="stroke:#038048;stroke-width:1.0;"/><text fill="#000000" font-family="sans-serif" font-size="11" lengthAdjust="spacing" textLength="189" x="29" y="336.4502">selecionaMaisProcimo(x:int, y:int) : void</text><ellipse cx="20" cy="345.8672" fill="#84BE84" rx="3" ry="3" style="stroke:#038048;stroke-width:1.0;"/><text fill="#000000" font-family="sans-serif" font-size="11" lengthAdjust="spacing" textLength="89" x="29" y="350.2861">pegaUltimo() : void</text><ellipse cx="20" cy="359.7031" fill="#84BE84" rx="3" ry="3" style="stroke:#038048;stroke-width:1.0;"/><text fill="#000000" font-family="sans-serif" font-size="11" lengthAdjust="spacing" textLength="114" x="29" y="364.1221">trocaModificado() : void</text><!--MD5=[8b9e0d00865063ef789ad294aa32e6ea]
class ObjetoGeometria--><rect fill="#FEFECE" filter="url(#f1aiqiuc9b7f5v)" height="48" id="ObjetoGeometria" style="stroke:#A80036;stroke-width:1.5;" width="126" x="82.5" y="7"/><ellipse cx="97.5" cy="23" fill="#ADD1B2" rx="11" ry="11" style="stroke:#A80036;stroke-width:1.0;"/><path d="M100.2656,18.875 Q100.4219,18.6563 100.6094,18.5469 Q100.7969,18.4375 101.0156,18.4375 Q101.3906,18.4375 101.625,18.7031 Q101.8594,18.9531 101.8594,19.5625 L101.8594,21.0156 Q101.8594,21.625 101.625,21.8906 Q101.3906,22.1563 101.0156,22.1563 Q100.6719,22.1563 100.4688,21.9531 Q100.2656,21.7656 100.1563,21.25 Q100.1094,20.8906 99.9219,20.7031 Q99.5938,20.3281 98.9844,20.1094 Q98.375,19.8906 97.75,19.8906 Q96.9844,19.8906 96.3438,20.2188 Q95.7188,20.5469 95.2188,21.2969 Q94.7344,22.0469 94.7344,23.0781 L94.7344,24.1719 Q94.7344,25.4063 95.625,26.2344 Q96.5156,27.0469 98.1094,27.0469 Q99.0469,27.0469 99.7031,26.7969 Q100.0938,26.6406 100.5156,26.2031 Q100.7813,25.9375 100.9219,25.8594 Q101.0781,25.7813 101.2813,25.7813 Q101.6094,25.7813 101.8594,26.0469 Q102.125,26.2969 102.125,26.6406 Q102.125,26.9844 101.7813,27.3906 Q101.2813,27.9688 100.4844,28.2969 Q99.4063,28.75 98.1094,28.75 Q96.5938,28.75 95.3906,28.125 Q94.4063,27.625 93.7188,26.5625 Q93.0313,25.4844 93.0313,24.2031 L93.0313,23.0469 Q93.0313,21.7188 93.6406,20.5781 Q94.2656,19.4219 95.3594,18.8125 Q96.4531,18.1875 97.6875,18.1875 Q98.4219,18.1875 99.0625,18.3594 Q99.7188,18.5156 100.2656,18.875 Z " fill="#000000"/><text fill="#000000" font-family="sans-serif" font-size="12" lengthAdjust="spacing" textLength="94" x="111.5" y="27.9102">ObjetoGeometria</text><line style="stroke:#A80036;stroke-width:1.5;" x1="83.5" x2="207.5" y1="39" y2="39"/><line style="stroke:#A80036;stroke-width:1.5;" x1="83.5" x2="207.5" y1="47" y2="47"/><!--MD5=[ef5ff341dffd6737742a54781c8b5648]
class Ponto4D--><rect fill="#FEFECE" filter="url(#f1aiqiuc9b7f5v)" height="48" id="Ponto4D" style="stroke:#A80036;stroke-width:1.5;" width="80" x="105.5" y="431"/><ellipse cx="120.5" cy="447" fill="#ADD1B2" rx="11" ry="11" style="stroke:#A80036;stroke-width:1.0;"/><path d="M123.2656,442.875 Q123.4219,442.6563 123.6094,442.5469 Q123.7969,442.4375 124.0156,442.4375 Q124.3906,442.4375 124.625,442.7031 Q124.8594,442.9531 124.8594,443.5625 L124.8594,445.0156 Q124.8594,445.625 124.625,445.8906 Q124.3906,446.1563 124.0156,446.1563 Q123.6719,446.1563 123.4688,445.9531 Q123.2656,445.7656 123.1563,445.25 Q123.1094,444.8906 122.9219,444.7031 Q122.5938,444.3281 121.9844,444.1094 Q121.375,443.8906 120.75,443.8906 Q119.9844,443.8906 119.3438,444.2188 Q118.7188,444.5469 118.2188,445.2969 Q117.7344,446.0469 117.7344,447.0781 L117.7344,448.1719 Q117.7344,449.4063 118.625,450.2344 Q119.5156,451.0469 121.1094,451.0469 Q122.0469,451.0469 122.7031,450.7969 Q123.0938,450.6406 123.5156,450.2031 Q123.7813,449.9375 123.9219,449.8594 Q124.0781,449.7813 124.2813,449.7813 Q124.6094,449.7813 124.8594,450.0469 Q125.125,450.2969 125.125,450.6406 Q125.125,450.9844 124.7813,451.3906 Q124.2813,451.9688 123.4844,452.2969 Q122.4063,452.75 121.1094,452.75 Q119.5938,452.75 118.3906,452.125 Q117.4063,451.625 116.7188,450.5625 Q116.0313,449.4844 116.0313,448.2031 L116.0313,447.0469 Q116.0313,445.7188 116.6406,444.5781 Q117.2656,443.4219 118.3594,442.8125 Q119.4531,442.1875 120.6875,442.1875 Q121.4219,442.1875 122.0625,442.3594 Q122.7188,442.5156 123.2656,442.875 Z " fill="#000000"/><text fill="#000000" font-family="sans-serif" font-size="12" lengthAdjust="spacing" textLength="48" x="134.5" y="451.9102">Ponto4D</text><line style="stroke:#A80036;stroke-width:1.5;" x1="106.5" x2="184.5" y1="463" y2="463"/><line style="stroke:#A80036;stroke-width:1.5;" x1="106.5" x2="184.5" y1="471" y2="471"/><!--MD5=[003750561b878f79e99cad8c4ca21fdc]
reverse link ObjetoGeometria to Poligono--><path codeLine="18" d="M145.5,75.66 C145.5,87.42 145.5,100.75 145.5,114.63 " fill="none" id="ObjetoGeometria-backto-Poligono" style="stroke:#A80036;stroke-width:1.0;"/><polygon fill="none" points="138.5,75.28,145.5,55.28,152.5,75.28,138.5,75.28" style="stroke:#A80036;stroke-width:1.0;"/><!--MD5=[0f46aff27c24b3f28c91ba75f926c24c]
link Poligono to Ponto4D--><path codeLine="19" d="M145.5,371 C145.5,391.47 145.5,410.76 145.5,425.59 " fill="none" id="Poligono-to-Ponto4D" style="stroke:#A80036;stroke-width:1.0;"/><polygon fill="#A80036" points="145.5,430.84,149.5,421.84,145.5,425.84,141.5,421.84,145.5,430.84" style="stroke:#A80036;stroke-width:1.0;"/><text fill="#000000" font-family="sans-serif" font-size="13" lengthAdjust="spacing" textLength="103" x="29.3031" y="420.1392">pontoSelecionado</text><!--MD5=[972dae272e5f3df0e365e8790d9e2980]
@startuml
class Poligono {
    - Modificavel : bool
    + Poligono(rotulo:char, paiRef:Objeto, ponto:Ponto4D)
    # <<override>> DesenharObjeto() : void
    + atualizaPontoSelecionado(x:int, y:int) : void
    + removerMaisProximo(x:int, y:int) : void
    + fimMover() : void
    + adicionarPontoPegaUltimo(p:Ponto4D) : void
    + lenght() : int
    + alternaPrimitiva() : void
    + finalizaDesenho() : void
    + foiSelecionado(x:double, y:double) : bool
    + translacaoPoligono() : void
    + selecionaMaisProcimo(x:int, y:int) : void
    + pegaUltimo() : void
    + trocaModificado() : void
}
ObjetoGeometria <|- - Poligono
Poligono - -> "pontoSelecionado" Ponto4D
@enduml

PlantUML version 1.2022.0(Tue Jan 11 13:16:42 BRT 2022)
(GPL source distribution)
Java Runtime: Java(TM) SE Runtime Environment
JVM: Java HotSpot(TM) 64-Bit Server VM
Default Encoding: Cp1252
Language: en
Country: US
--></g></svg>