<?xml version="1.0" encoding="UTF-8" standalone="no"?><svg xmlns="http://www.w3.org/2000/svg" xmlns:xlink="http://www.w3.org/1999/xlink" contentScriptType="application/ecmascript" contentStyleType="text/css" height="1233px" preserveAspectRatio="none" style="width:1907px;height:1233px;background:#FFFFFF;" version="1.1" viewBox="0 0 1907 1233" width="1907px" zoomAndPan="magnify"><defs><filter height="300%" id="f1lriggcz0ebm3" width="300%" x="-1" y="-1"><feGaussianBlur result="blurOut" stdDeviation="2.0"/><feColorMatrix in="blurOut" result="blurOut2" type="matrix" values="0 0 0 0 0 0 0 0 0 0 0 0 0 0 0 0 0 0 .4 0"/><feOffset dx="4.0" dy="4.0" in="blurOut2" result="blurOut3"/><feBlend in="SourceGraphic" in2="blurOut3" mode="normal"/></filter></defs><g><!--MD5=[554a48e4b96ab0ce4473fbb3aea24bfd]
class Ponto--><rect codeLine="1" fill="#FEFECE" filter="url(#f1lriggcz0ebm3)" height="158.6875" id="Ponto" style="stroke:#A80036;stroke-width:1.5;" width="278" x="368" y="903.74"/><ellipse cx="486.75" cy="919.74" fill="#ADD1B2" rx="11" ry="11" style="stroke:#A80036;stroke-width:1.0;"/><path d="M489.5156,915.615 Q489.6719,915.3963 489.8594,915.2869 Q490.0469,915.1775 490.2656,915.1775 Q490.6406,915.1775 490.875,915.4431 Q491.1094,915.6931 491.1094,916.3025 L491.1094,917.7556 Q491.1094,918.365 490.875,918.6306 Q490.6406,918.8963 490.2656,918.8963 Q489.9219,918.8963 489.7188,918.6931 Q489.5156,918.5056 489.4063,917.99 Q489.3594,917.6306 489.1719,917.4431 Q488.8438,917.0681 488.2344,916.8494 Q487.625,916.6306 487,916.6306 Q486.2344,916.6306 485.5938,916.9588 Q484.9688,917.2869 484.4688,918.0369 Q483.9844,918.7869 483.9844,919.8181 L483.9844,920.9119 Q483.9844,922.1463 484.875,922.9744 Q485.7656,923.7869 487.3594,923.7869 Q488.2969,923.7869 488.9531,923.5369 Q489.3438,923.3806 489.7656,922.9431 Q490.0313,922.6775 490.1719,922.5994 Q490.3281,922.5213 490.5313,922.5213 Q490.8594,922.5213 491.1094,922.7869 Q491.375,923.0369 491.375,923.3806 Q491.375,923.7244 491.0313,924.1306 Q490.5313,924.7088 489.7344,925.0369 Q488.6563,925.49 487.3594,925.49 Q485.8438,925.49 484.6406,924.865 Q483.6563,924.365 482.9688,923.3025 Q482.2813,922.2244 482.2813,920.9431 L482.2813,919.7869 Q482.2813,918.4588 482.8906,917.3181 Q483.5156,916.1619 484.6094,915.5525 Q485.7031,914.9275 486.9375,914.9275 Q487.6719,914.9275 488.3125,915.0994 Q488.9688,915.2556 489.5156,915.615 Z " fill="#000000"/><text fill="#000000" font-family="sans-serif" font-size="12" lengthAdjust="spacing" textLength="32" x="507.25" y="924.6502">Ponto</text><line style="stroke:#A80036;stroke-width:1.5;" x1="369" x2="645" y1="935.74" y2="935.74"/><line style="stroke:#A80036;stroke-width:1.5;" x1="369" x2="645" y1="943.74" y2="943.74"/><ellipse cx="379" cy="954.74" fill="#84BE84" rx="3" ry="3" style="stroke:#038048;stroke-width:1.0;"/><text fill="#000000" font-family="sans-serif" font-size="11" lengthAdjust="spacing" textLength="252" x="388" y="959.1589">Ponto(rotulo:char, paiRef:Objeto, x:double, y:double)</text><polygon fill="#FFFF44" points="379,963.5759,383,967.5759,379,971.5759,375,967.5759" style="stroke:#B38D22;stroke-width:1.0;"/><text fill="#000000" font-family="sans-serif" font-size="11" lengthAdjust="spacing" textLength="170" x="388" y="972.9949">«override» DesenharObjeto() : void</text><ellipse cx="379" cy="982.4119" fill="#84BE84" rx="3" ry="3" style="stroke:#038048;stroke-width:1.0;"/><text fill="#000000" font-family="sans-serif" font-size="11" lengthAdjust="spacing" textLength="71" x="388" y="986.8308">getX() : double</text><ellipse cx="379" cy="996.2478" fill="#84BE84" rx="3" ry="3" style="stroke:#038048;stroke-width:1.0;"/><text fill="#000000" font-family="sans-serif" font-size="11" lengthAdjust="spacing" textLength="72" x="388" y="1000.6668">getY() : double</text><ellipse cx="379" cy="1010.0838" fill="#84BE84" rx="3" ry="3" style="stroke:#038048;stroke-width:1.0;"/><text fill="#000000" font-family="sans-serif" font-size="11" lengthAdjust="spacing" textLength="112" x="388" y="1014.5027">getPonto4D() : Ponto4D</text><ellipse cx="379" cy="1023.9197" fill="#84BE84" rx="3" ry="3" style="stroke:#038048;stroke-width:1.0;"/><text fill="#000000" font-family="sans-serif" font-size="11" lengthAdjust="spacing" textLength="100" x="388" y="1028.3386">setX(x:double) : void</text><ellipse cx="379" cy="1037.7556" fill="#84BE84" rx="3" ry="3" style="stroke:#038048;stroke-width:1.0;"/><text fill="#000000" font-family="sans-serif" font-size="11" lengthAdjust="spacing" textLength="101" x="388" y="1042.1746">setY(y:double) : void</text><ellipse cx="379" cy="1051.5916" fill="#84BE84" rx="3" ry="3" style="stroke:#038048;stroke-width:1.0;"/><text fill="#000000" font-family="sans-serif" font-size="11" lengthAdjust="spacing" textLength="193" x="388" y="1056.0105">atualizarPonto(x:double, y:double) : void</text><!--MD5=[8b9e0d00865063ef789ad294aa32e6ea]
class ObjetoGeometria--><rect codeLine="1" fill="#FEFECE" filter="url(#f1lriggcz0ebm3)" height="200.1953" id="ObjetoGeometria" style="stroke:#A80036;stroke-width:1.5;" width="245" x="578.5" y="539.74"/><ellipse cx="649.25" cy="555.74" fill="#A9DCDF" rx="11" ry="11" style="stroke:#A80036;stroke-width:1.0;"/><path d="M651.4375,557.5056 L647.2969,557.5056 L646.875,558.5369 L647.2969,558.5369 Q647.9063,558.5369 648.1719,558.7713 Q648.4375,559.0056 648.4375,559.3963 Q648.4375,559.7713 648.1719,560.0056 Q647.9063,560.24 647.2969,560.24 L645,560.24 Q644.3906,560.24 644.1406,560.0056 Q643.875,559.7713 643.875,559.3806 Q643.875,559.0056 644.1563,558.7713 Q644.4219,558.5213 645.0469,558.5369 L647.7188,551.8806 L646.6094,551.8806 Q646,551.8806 645.7344,551.6463 Q645.4688,551.4119 645.4688,551.0213 Q645.4688,550.6463 645.7344,550.4119 Q646,550.1775 646.6094,550.1775 L650.2813,550.1775 L653.6719,558.5369 Q654.2656,558.5369 654.4531,558.6775 Q654.8438,558.9431 654.8438,559.3963 Q654.8438,559.7713 654.5781,560.0056 Q654.3281,560.24 653.7188,560.24 L651.4219,560.24 Q650.8125,560.24 650.5469,560.0056 Q650.2813,559.7713 650.2813,559.3806 Q650.2813,559.0056 650.5469,558.7713 Q650.8125,558.5369 651.4219,558.5369 L651.8438,558.5369 L651.4375,557.5056 Z M650.7188,555.8025 L649.3594,552.4275 L647.9844,555.8025 L650.7188,555.8025 Z " fill="#000000"/><text fill="#000000" font-family="sans-serif" font-size="12" font-style="italic" lengthAdjust="spacing" textLength="95" x="669.75" y="560.6502">ObjetoGeometria</text><line style="stroke:#A80036;stroke-width:1.5;" x1="579.5" x2="822.5" y1="571.74" y2="571.74"/><line style="stroke:#A80036;stroke-width:1.5;" x1="579.5" x2="822.5" y1="579.74" y2="579.74"/><ellipse cx="589.5" cy="590.74" fill="#84BE84" rx="3" ry="3" style="stroke:#038048;stroke-width:1.0;"/><text fill="#000000" font-family="sans-serif" font-size="11" lengthAdjust="spacing" textLength="211" x="598.5" y="595.1589">ObjetoGeometria(rotulo:char, paiRef:Objeto)</text><polygon fill="#FFFF44" points="589.5,599.5759,593.5,603.5759,589.5,607.5759,585.5,603.5759" style="stroke:#B38D22;stroke-width:1.0;"/><text fill="#000000" font-family="sans-serif" font-size="11" lengthAdjust="spacing" textLength="188" x="598.5" y="608.9949">«override» DesenharGeometria() : void</text><polygon fill="#FFFF44" points="589.5,613.4119,593.5,617.4119,589.5,621.4119,585.5,617.4119" style="stroke:#B38D22;stroke-width:1.0;"/><text fill="#000000" font-family="sans-serif" font-size="11" font-style="italic" lengthAdjust="spacing" textLength="119" x="598.5" y="622.8308">DesenharObjeto() : void</text><ellipse cx="589.5" cy="632.2478" fill="#84BE84" rx="3" ry="3" style="stroke:#038048;stroke-width:1.0;"/><text fill="#000000" font-family="sans-serif" font-size="11" lengthAdjust="spacing" textLength="174" x="598.5" y="636.6668">PontosAdicionar(pto:Ponto4D) : void</text><ellipse cx="589.5" cy="646.0838" fill="#84BE84" rx="3" ry="3" style="stroke:#038048;stroke-width:1.0;"/><text fill="#000000" font-family="sans-serif" font-size="11" lengthAdjust="spacing" textLength="141" x="598.5" y="650.5027">PontosRemoverUltimo() : void</text><polygon fill="#FFFF44" points="589.5,654.9197,593.5,658.9197,589.5,662.9197,585.5,658.9197" style="stroke:#B38D22;stroke-width:1.0;"/><text fill="#000000" font-family="sans-serif" font-size="11" lengthAdjust="spacing" textLength="143" x="598.5" y="664.3386">PontosRemoverTodos() : void</text><ellipse cx="589.5" cy="673.7556" fill="#84BE84" rx="3" ry="3" style="stroke:#038048;stroke-width:1.0;"/><text fill="#000000" font-family="sans-serif" font-size="11" lengthAdjust="spacing" textLength="118" x="598.5" y="678.1746">PontosUltimo() : Ponto4D</text><ellipse cx="589.5" cy="687.5916" fill="#84BE84" rx="3" ry="3" style="stroke:#038048;stroke-width:1.0;"/><text fill="#000000" font-family="sans-serif" font-size="11" lengthAdjust="spacing" textLength="219" x="598.5" y="692.0105">PontosAlterar(pto:Ponto4D, posicao:int) : void</text><ellipse cx="589.5" cy="701.4275" fill="#84BE84" rx="3" ry="3" style="stroke:#038048;stroke-width:1.0;"/><text fill="#000000" font-family="sans-serif" font-size="11" lengthAdjust="spacing" textLength="139" x="598.5" y="705.8464">«override» ToString() : string</text><ellipse cx="589.5" cy="715.2634" fill="#84BE84" rx="3" ry="3" style="stroke:#038048;stroke-width:1.0;"/><text fill="#000000" font-family="sans-serif" font-size="11" lengthAdjust="spacing" textLength="102" x="598.5" y="719.6824">AtualizaBBox() : void</text><ellipse cx="589.5" cy="729.0994" fill="#84BE84" rx="3" ry="3" style="stroke:#038048;stroke-width:1.0;"/><text fill="#000000" font-family="sans-serif" font-size="11" lengthAdjust="spacing" textLength="183" x="598.5" y="733.5183">imprimePontos(desenhado:bool) : void</text><!--MD5=[ef5ff341dffd6737742a54781c8b5648]
class Ponto4D--><rect fill="#FEFECE" filter="url(#f1lriggcz0ebm3)" height="48" id="Ponto4D" style="stroke:#A80036;stroke-width:1.5;" width="80" x="311" y="1171.24"/><ellipse cx="326" cy="1187.24" fill="#ADD1B2" rx="11" ry="11" style="stroke:#A80036;stroke-width:1.0;"/><path d="M328.7656,1183.115 Q328.9219,1182.8963 329.1094,1182.7869 Q329.2969,1182.6775 329.5156,1182.6775 Q329.8906,1182.6775 330.125,1182.9431 Q330.3594,1183.1931 330.3594,1183.8025 L330.3594,1185.2556 Q330.3594,1185.865 330.125,1186.1306 Q329.8906,1186.3963 329.5156,1186.3963 Q329.1719,1186.3963 328.9688,1186.1931 Q328.7656,1186.0056 328.6563,1185.49 Q328.6094,1185.1306 328.4219,1184.9431 Q328.0938,1184.5681 327.4844,1184.3494 Q326.875,1184.1306 326.25,1184.1306 Q325.4844,1184.1306 324.8438,1184.4588 Q324.2188,1184.7869 323.7188,1185.5369 Q323.2344,1186.2869 323.2344,1187.3181 L323.2344,1188.4119 Q323.2344,1189.6463 324.125,1190.4744 Q325.0156,1191.2869 326.6094,1191.2869 Q327.5469,1191.2869 328.2031,1191.0369 Q328.5938,1190.8806 329.0156,1190.4431 Q329.2813,1190.1775 329.4219,1190.0994 Q329.5781,1190.0213 329.7813,1190.0213 Q330.1094,1190.0213 330.3594,1190.2869 Q330.625,1190.5369 330.625,1190.8806 Q330.625,1191.2244 330.2813,1191.6306 Q329.7813,1192.2088 328.9844,1192.5369 Q327.9063,1192.99 326.6094,1192.99 Q325.0938,1192.99 323.8906,1192.365 Q322.9063,1191.865 322.2188,1190.8025 Q321.5313,1189.7244 321.5313,1188.4431 L321.5313,1187.2869 Q321.5313,1185.9588 322.1406,1184.8181 Q322.7656,1183.6619 323.8594,1183.0525 Q324.9531,1182.4275 326.1875,1182.4275 Q326.9219,1182.4275 327.5625,1182.5994 Q328.2188,1182.7556 328.7656,1183.115 Z " fill="#000000"/><text fill="#000000" font-family="sans-serif" font-size="12" lengthAdjust="spacing" textLength="48" x="340" y="1192.1502">Ponto4D</text><line style="stroke:#A80036;stroke-width:1.5;" x1="312" x2="390" y1="1203.24" y2="1203.24"/><line style="stroke:#A80036;stroke-width:1.5;" x1="312" x2="390" y1="1211.24" y2="1211.24"/><!--MD5=[919386ce46a6a5a7c71af782f732246a]
class Mundo--><rect codeLine="1" fill="#FEFECE" filter="url(#f1lriggcz0ebm3)" height="310.8828" id="Mundo" style="stroke:#A80036;stroke-width:1.5;" width="374" x="9" y="484.24"/><ellipse cx="173.25" cy="500.24" fill="#ADD1B2" rx="11" ry="11" style="stroke:#A80036;stroke-width:1.0;"/><path d="M176.0156,496.115 Q176.1719,495.8963 176.3594,495.7869 Q176.5469,495.6775 176.7656,495.6775 Q177.1406,495.6775 177.375,495.9431 Q177.6094,496.1931 177.6094,496.8025 L177.6094,498.2556 Q177.6094,498.865 177.375,499.1306 Q177.1406,499.3963 176.7656,499.3963 Q176.4219,499.3963 176.2188,499.1931 Q176.0156,499.0056 175.9063,498.49 Q175.8594,498.1306 175.6719,497.9431 Q175.3438,497.5681 174.7344,497.3494 Q174.125,497.1306 173.5,497.1306 Q172.7344,497.1306 172.0938,497.4588 Q171.4688,497.7869 170.9688,498.5369 Q170.4844,499.2869 170.4844,500.3181 L170.4844,501.4119 Q170.4844,502.6463 171.375,503.4744 Q172.2656,504.2869 173.8594,504.2869 Q174.7969,504.2869 175.4531,504.0369 Q175.8438,503.8806 176.2656,503.4431 Q176.5313,503.1775 176.6719,503.0994 Q176.8281,503.0213 177.0313,503.0213 Q177.3594,503.0213 177.6094,503.2869 Q177.875,503.5369 177.875,503.8806 Q177.875,504.2244 177.5313,504.6306 Q177.0313,505.2088 176.2344,505.5369 Q175.1563,505.99 173.8594,505.99 Q172.3438,505.99 171.1406,505.365 Q170.1563,504.865 169.4688,503.8025 Q168.7813,502.7244 168.7813,501.4431 L168.7813,500.2869 Q168.7813,498.9588 169.3906,497.8181 Q170.0156,496.6619 171.1094,496.0525 Q172.2031,495.4275 173.4375,495.4275 Q174.1719,495.4275 174.8125,495.5994 Q175.4688,495.7556 176.0156,496.115 Z " fill="#000000"/><text fill="#000000" font-family="sans-serif" font-size="12" lengthAdjust="spacing" textLength="37" x="193.75" y="505.1502">Mundo</text><line style="stroke:#A80036;stroke-width:1.5;" x1="10" x2="382" y1="516.24" y2="516.24"/><rect fill="none" height="6" style="stroke:#C82930;stroke-width:1.0;" width="6" x="17" y="524.24"/><text fill="#000000" font-family="sans-serif" font-size="11" lengthAdjust="spacing" textLength="95" x="29" y="531.6589">objetoId : char = '@'</text><rect fill="none" height="6" style="stroke:#C82930;stroke-width:1.0;" width="6" x="17" y="538.0759"/><text fill="#000000" font-family="sans-serif" font-size="11" lengthAdjust="spacing" textLength="137" x="29" y="545.4949">bBoxDesenhar : bool = false</text><text fill="#000000" font-family="sans-serif" font-size="11" lengthAdjust="spacing" textLength="59" x="29" y="559.3308">mouseX : int</text><text fill="#000000" font-family="sans-serif" font-size="11" lengthAdjust="spacing" textLength="60" x="29" y="573.1668">mouseY : int</text><rect fill="none" height="6" style="stroke:#C82930;stroke-width:1.0;" width="6" x="17" y="579.5838"/><text fill="#000000" font-family="sans-serif" font-size="11" lengthAdjust="spacing" textLength="142" x="29" y="587.0027">mouseMoverPto : bool = false</text><rect fill="none" height="6" style="stroke:#C82930;stroke-width:1.0;" width="6" x="17" y="593.4197"/><text fill="#000000" font-family="sans-serif" font-size="11" lengthAdjust="spacing" textLength="109" x="29" y="600.8386">adicionar : bool = false</text><rect fill="none" height="6" style="stroke:#C82930;stroke-width:1.0;" width="6" x="17" y="607.2556"/><text fill="#000000" font-family="sans-serif" font-size="11" lengthAdjust="spacing" textLength="167" x="29" y="614.6746">ehDesenhoJaIniciado : bool = false</text><rect fill="none" height="6" style="stroke:#C82930;stroke-width:1.0;" width="6" x="17" y="621.0916"/><text fill="#000000" font-family="sans-serif" font-size="11" lengthAdjust="spacing" textLength="120" x="29" y="628.5105">moverAtivo : bool = false</text><rect fill="none" height="6" style="stroke:#C82930;stroke-width:1.0;" width="6" x="17" y="634.9275"/><text fill="#000000" font-family="sans-serif" font-size="11" lengthAdjust="spacing" textLength="130" x="29" y="642.3464">removerAtivo : bool = false</text><line style="stroke:#A80036;stroke-width:1.5;" x1="10" x2="382" y1="648.7634" y2="648.7634"/><rect fill="#F24D5C" height="6" style="stroke:#C82930;stroke-width:1.0;" width="6" x="17" y="656.7634"/><text fill="#000000" font-family="sans-serif" font-size="11" lengthAdjust="spacing" textLength="130" x="29" y="664.1824">Mundo(width:int, height:int)</text><ellipse cx="20" cy="673.5994" fill="#84BE84" rx="3" ry="3" style="stroke:#038048;stroke-width:1.0;"/><text fill="#000000" font-family="sans-serif" font-size="11" lengthAdjust="spacing" text-decoration="underline" textLength="197" x="29" y="678.0183">GetInstance(width:int, height:int) : Mundo</text><polygon fill="#FFFF44" points="20,682.4353,24,686.4353,20,690.4353,16,686.4353" style="stroke:#B38D22;stroke-width:1.0;"/><text fill="#000000" font-family="sans-serif" font-size="11" lengthAdjust="spacing" textLength="190" x="29" y="691.8543">«override» OnLoad(e:EventArgs) : void</text><polygon fill="#FFFF44" points="20,696.2713,24,700.2713,20,704.2713,16,700.2713" style="stroke:#B38D22;stroke-width:1.0;"/><text fill="#000000" font-family="sans-serif" font-size="11" lengthAdjust="spacing" textLength="260" x="29" y="705.6902">«override» OnUpdateFrame(e:FrameEventArgs) : void</text><polygon fill="#FFFF44" points="20,710.1072,24,714.1072,20,718.1072,16,714.1072" style="stroke:#B38D22;stroke-width:1.0;"/><text fill="#000000" font-family="sans-serif" font-size="11" lengthAdjust="spacing" textLength="261" x="29" y="719.5261">«override» OnRenderFrame(e:FrameEventArgs) : void</text><polygon fill="#FFFF44" points="20,723.9431,24,727.9431,20,731.9431,16,727.9431" style="stroke:#B38D22;stroke-width:1.0;"/><text fill="#000000" font-family="sans-serif" font-size="11" lengthAdjust="spacing" textLength="348" x="29" y="733.3621">«override» OnKeyDown(e:OpenTK.Input.KeyboardKeyEventArgs) : void</text><polygon fill="#FFFF44" points="20,737.7791,24,741.7791,20,745.7791,16,741.7791" style="stroke:#B38D22;stroke-width:1.0;"/><text fill="#000000" font-family="sans-serif" font-size="11" lengthAdjust="spacing" textLength="282" x="29" y="747.198">«override» OnMouseMove(e:MouseMoveEventArgs) : void</text><polygon fill="#FFFF44" points="20,751.615,24,755.615,20,759.615,16,755.615" style="stroke:#B38D22;stroke-width:1.0;"/><text fill="#000000" font-family="sans-serif" font-size="11" lengthAdjust="spacing" textLength="290" x="29" y="761.0339">«override» OnMouseDown(e:MouseButtonEventArgs) : void</text><polygon fill="#FFFF44" points="20,765.4509,24,769.4509,20,773.4509,16,769.4509" style="stroke:#B38D22;stroke-width:1.0;"/><text fill="#000000" font-family="sans-serif" font-size="11" lengthAdjust="spacing" textLength="132" x="29" y="774.8699">criarPoligonoNaTela() : void</text><rect fill="#F24D5C" height="6" style="stroke:#C82930;stroke-width:1.0;" width="6" x="17" y="781.2869"/><text fill="#000000" font-family="sans-serif" font-size="11" lengthAdjust="spacing" textLength="148" x="29" y="788.7058">adicionarPontoPoligono() : void</text><!--MD5=[175f95e045c1a44aed0b30df3abe0e5c]
class Program--><rect codeLine="22" fill="#FEFECE" filter="url(#f1lriggcz0ebm3)" height="61.8359" id="Program" style="stroke:#A80036;stroke-width:1.5;" width="129" x="1556.5" y="223.74"/><ellipse cx="1593.55" cy="239.74" fill="#ADD1B2" rx="11" ry="11" style="stroke:#A80036;stroke-width:1.0;"/><path d="M1596.3156,235.615 Q1596.4719,235.3963 1596.6594,235.2869 Q1596.8469,235.1775 1597.0656,235.1775 Q1597.4406,235.1775 1597.675,235.4431 Q1597.9094,235.6931 1597.9094,236.3025 L1597.9094,237.7556 Q1597.9094,238.365 1597.675,238.6306 Q1597.4406,238.8963 1597.0656,238.8963 Q1596.7219,238.8963 1596.5188,238.6931 Q1596.3156,238.5056 1596.2063,237.99 Q1596.1594,237.6306 1595.9719,237.4431 Q1595.6438,237.0681 1595.0344,236.8494 Q1594.425,236.6306 1593.8,236.6306 Q1593.0344,236.6306 1592.3938,236.9588 Q1591.7688,237.2869 1591.2688,238.0369 Q1590.7844,238.7869 1590.7844,239.8181 L1590.7844,240.9119 Q1590.7844,242.1463 1591.675,242.9744 Q1592.5656,243.7869 1594.1594,243.7869 Q1595.0969,243.7869 1595.7531,243.5369 Q1596.1438,243.3806 1596.5656,242.9431 Q1596.8313,242.6775 1596.9719,242.5994 Q1597.1281,242.5213 1597.3313,242.5213 Q1597.6594,242.5213 1597.9094,242.7869 Q1598.175,243.0369 1598.175,243.3806 Q1598.175,243.7244 1597.8313,244.1306 Q1597.3313,244.7088 1596.5344,245.0369 Q1595.4563,245.49 1594.1594,245.49 Q1592.6438,245.49 1591.4406,244.865 Q1590.4563,244.365 1589.7688,243.3025 Q1589.0813,242.2244 1589.0813,240.9431 L1589.0813,239.7869 Q1589.0813,238.4588 1589.6906,237.3181 Q1590.3156,236.1619 1591.4094,235.5525 Q1592.5031,234.9275 1593.7375,234.9275 Q1594.4719,234.9275 1595.1125,235.0994 Q1595.7688,235.2556 1596.3156,235.615 Z " fill="#000000"/><text fill="#000000" font-family="sans-serif" font-size="12" lengthAdjust="spacing" textLength="48" x="1612.45" y="244.6502">Program</text><line style="stroke:#A80036;stroke-width:1.5;" x1="1557.5" x2="1684.5" y1="255.74" y2="255.74"/><line style="stroke:#A80036;stroke-width:1.5;" x1="1557.5" x2="1684.5" y1="263.74" y2="263.74"/><text fill="#000000" font-family="sans-serif" font-size="11" lengthAdjust="spacing" text-decoration="underline" textLength="117" x="1562.5" y="279.1589">Main(args:string[]) : void</text><!--MD5=[e644022de7dea015dd09463c37421447]
class List`1--><rect codeLine="14" fill="#FEFECE" filter="url(#f1lriggcz0ebm3)" height="48" id="List`1" style="stroke:#A80036;stroke-width:1.5;" width="74" x="859" y="615.74"/><ellipse cx="874" cy="631.74" fill="#ADD1B2" rx="11" ry="11" style="stroke:#A80036;stroke-width:1.0;"/><path d="M876.7656,627.615 Q876.9219,627.3963 877.1094,627.2869 Q877.2969,627.1775 877.5156,627.1775 Q877.8906,627.1775 878.125,627.4431 Q878.3594,627.6931 878.3594,628.3025 L878.3594,629.7556 Q878.3594,630.365 878.125,630.6306 Q877.8906,630.8963 877.5156,630.8963 Q877.1719,630.8963 876.9688,630.6931 Q876.7656,630.5056 876.6563,629.99 Q876.6094,629.6306 876.4219,629.4431 Q876.0938,629.0681 875.4844,628.8494 Q874.875,628.6306 874.25,628.6306 Q873.4844,628.6306 872.8438,628.9588 Q872.2188,629.2869 871.7188,630.0369 Q871.2344,630.7869 871.2344,631.8181 L871.2344,632.9119 Q871.2344,634.1463 872.125,634.9744 Q873.0156,635.7869 874.6094,635.7869 Q875.5469,635.7869 876.2031,635.5369 Q876.5938,635.3806 877.0156,634.9431 Q877.2813,634.6775 877.4219,634.5994 Q877.5781,634.5213 877.7813,634.5213 Q878.1094,634.5213 878.3594,634.7869 Q878.625,635.0369 878.625,635.3806 Q878.625,635.7244 878.2813,636.1306 Q877.7813,636.7088 876.9844,637.0369 Q875.9063,637.49 874.6094,637.49 Q873.0938,637.49 871.8906,636.865 Q870.9063,636.365 870.2188,635.3025 Q869.5313,634.2244 869.5313,632.9431 L869.5313,631.7869 Q869.5313,630.4588 870.1406,629.3181 Q870.7656,628.1619 871.8594,627.5525 Q872.9531,626.9275 874.1875,626.9275 Q874.9219,626.9275 875.5625,627.0994 Q876.2188,627.2556 876.7656,627.615 Z " fill="#000000"/><text fill="#000000" font-family="sans-serif" font-size="12" lengthAdjust="spacing" textLength="31" x="888" y="636.6502">List`1</text><rect fill="#FFFFFF" height="17.0938" style="stroke:#000000;stroke-width:1.0;stroke-dasharray:2.0,2.0;" width="9" x="927" y="612.74"/><text fill="#000000" font-family="sans-serif" font-size="12" font-style="italic" lengthAdjust="spacing" textLength="7" x="928" y="626.197">T</text><line style="stroke:#A80036;stroke-width:1.5;" x1="860" x2="932" y1="647.74" y2="647.74"/><line style="stroke:#A80036;stroke-width:1.5;" x1="860" x2="932" y1="655.74" y2="655.74"/><!--MD5=[d0074d293e9645ff4ed5f25f47c5773b]
class GameWindow--><rect fill="#FEFECE" filter="url(#f1lriggcz0ebm3)" height="48" id="GameWindow" style="stroke:#A80036;stroke-width:1.5;" width="110" x="141" y="230.74"/><ellipse cx="156" cy="246.74" fill="#ADD1B2" rx="11" ry="11" style="stroke:#A80036;stroke-width:1.0;"/><path d="M158.7656,242.615 Q158.9219,242.3963 159.1094,242.2869 Q159.2969,242.1775 159.5156,242.1775 Q159.8906,242.1775 160.125,242.4431 Q160.3594,242.6931 160.3594,243.3025 L160.3594,244.7556 Q160.3594,245.365 160.125,245.6306 Q159.8906,245.8963 159.5156,245.8963 Q159.1719,245.8963 158.9688,245.6931 Q158.7656,245.5056 158.6563,244.99 Q158.6094,244.6306 158.4219,244.4431 Q158.0938,244.0681 157.4844,243.8494 Q156.875,243.6306 156.25,243.6306 Q155.4844,243.6306 154.8438,243.9588 Q154.2188,244.2869 153.7188,245.0369 Q153.2344,245.7869 153.2344,246.8181 L153.2344,247.9119 Q153.2344,249.1463 154.125,249.9744 Q155.0156,250.7869 156.6094,250.7869 Q157.5469,250.7869 158.2031,250.5369 Q158.5938,250.3806 159.0156,249.9431 Q159.2813,249.6775 159.4219,249.5994 Q159.5781,249.5213 159.7813,249.5213 Q160.1094,249.5213 160.3594,249.7869 Q160.625,250.0369 160.625,250.3806 Q160.625,250.7244 160.2813,251.1306 Q159.7813,251.7088 158.9844,252.0369 Q157.9063,252.49 156.6094,252.49 Q155.0938,252.49 153.8906,251.865 Q152.9063,251.365 152.2188,250.3025 Q151.5313,249.2244 151.5313,247.9431 L151.5313,246.7869 Q151.5313,245.4588 152.1406,244.3181 Q152.7656,243.1619 153.8594,242.5525 Q154.9531,241.9275 156.1875,241.9275 Q156.9219,241.9275 157.5625,242.0994 Q158.2188,242.2556 158.7656,242.615 Z " fill="#000000"/><text fill="#000000" font-family="sans-serif" font-size="12" lengthAdjust="spacing" textLength="78" x="170" y="251.6502">GameWindow</text><line style="stroke:#A80036;stroke-width:1.5;" x1="142" x2="250" y1="262.74" y2="262.74"/><line style="stroke:#A80036;stroke-width:1.5;" x1="142" x2="250" y1="270.74" y2="270.74"/><!--MD5=[a7a8f22eafb289696c295eb36d2b4bda]
class CameraOrtho--><rect fill="#FEFECE" filter="url(#f1lriggcz0ebm3)" height="48" id="CameraOrtho" style="stroke:#A80036;stroke-width:1.5;" width="107" x="436.5" y="615.74"/><ellipse cx="451.5" cy="631.74" fill="#ADD1B2" rx="11" ry="11" style="stroke:#A80036;stroke-width:1.0;"/><path d="M454.2656,627.615 Q454.4219,627.3963 454.6094,627.2869 Q454.7969,627.1775 455.0156,627.1775 Q455.3906,627.1775 455.625,627.4431 Q455.8594,627.6931 455.8594,628.3025 L455.8594,629.7556 Q455.8594,630.365 455.625,630.6306 Q455.3906,630.8963 455.0156,630.8963 Q454.6719,630.8963 454.4688,630.6931 Q454.2656,630.5056 454.1563,629.99 Q454.1094,629.6306 453.9219,629.4431 Q453.5938,629.0681 452.9844,628.8494 Q452.375,628.6306 451.75,628.6306 Q450.9844,628.6306 450.3438,628.9588 Q449.7188,629.2869 449.2188,630.0369 Q448.7344,630.7869 448.7344,631.8181 L448.7344,632.9119 Q448.7344,634.1463 449.625,634.9744 Q450.5156,635.7869 452.1094,635.7869 Q453.0469,635.7869 453.7031,635.5369 Q454.0938,635.3806 454.5156,634.9431 Q454.7813,634.6775 454.9219,634.5994 Q455.0781,634.5213 455.2813,634.5213 Q455.6094,634.5213 455.8594,634.7869 Q456.125,635.0369 456.125,635.3806 Q456.125,635.7244 455.7813,636.1306 Q455.2813,636.7088 454.4844,637.0369 Q453.4063,637.49 452.1094,637.49 Q450.5938,637.49 449.3906,636.865 Q448.4063,636.365 447.7188,635.3025 Q447.0313,634.2244 447.0313,632.9431 L447.0313,631.7869 Q447.0313,630.4588 447.6406,629.3181 Q448.2656,628.1619 449.3594,627.5525 Q450.4531,626.9275 451.6875,626.9275 Q452.4219,626.9275 453.0625,627.0994 Q453.7188,627.2556 454.2656,627.615 Z " fill="#000000"/><text fill="#000000" font-family="sans-serif" font-size="12" lengthAdjust="spacing" textLength="75" x="465.5" y="636.6502">CameraOrtho</text><line style="stroke:#A80036;stroke-width:1.5;" x1="437.5" x2="542.5" y1="647.74" y2="647.74"/><line style="stroke:#A80036;stroke-width:1.5;" x1="437.5" x2="542.5" y1="655.74" y2="655.74"/><!--MD5=[14270d418d81d90ef0399f0e3d0d5129]
class Poligono--><rect codeLine="1" fill="#FEFECE" filter="url(#f1lriggcz0ebm3)" height="255.5391" id="Poligono" style="stroke:#A80036;stroke-width:1.5;" width="273" x="59.5" y="855.24"/><ellipse cx="167.25" cy="871.24" fill="#ADD1B2" rx="11" ry="11" style="stroke:#A80036;stroke-width:1.0;"/><path d="M170.0156,867.115 Q170.1719,866.8963 170.3594,866.7869 Q170.5469,866.6775 170.7656,866.6775 Q171.1406,866.6775 171.375,866.9431 Q171.6094,867.1931 171.6094,867.8025 L171.6094,869.2556 Q171.6094,869.865 171.375,870.1306 Q171.1406,870.3963 170.7656,870.3963 Q170.4219,870.3963 170.2188,870.1931 Q170.0156,870.0056 169.9063,869.49 Q169.8594,869.1306 169.6719,868.9431 Q169.3438,868.5681 168.7344,868.3494 Q168.125,868.1306 167.5,868.1306 Q166.7344,868.1306 166.0938,868.4588 Q165.4688,868.7869 164.9688,869.5369 Q164.4844,870.2869 164.4844,871.3181 L164.4844,872.4119 Q164.4844,873.6463 165.375,874.4744 Q166.2656,875.2869 167.8594,875.2869 Q168.7969,875.2869 169.4531,875.0369 Q169.8438,874.8806 170.2656,874.4431 Q170.5313,874.1775 170.6719,874.0994 Q170.8281,874.0213 171.0313,874.0213 Q171.3594,874.0213 171.6094,874.2869 Q171.875,874.5369 171.875,874.8806 Q171.875,875.2244 171.5313,875.6306 Q171.0313,876.2088 170.2344,876.5369 Q169.1563,876.99 167.8594,876.99 Q166.3438,876.99 165.1406,876.365 Q164.1563,875.865 163.4688,874.8025 Q162.7813,873.7244 162.7813,872.4431 L162.7813,871.2869 Q162.7813,869.9588 163.3906,868.8181 Q164.0156,867.6619 165.1094,867.0525 Q166.2031,866.4275 167.4375,866.4275 Q168.1719,866.4275 168.8125,866.5994 Q169.4688,866.7556 170.0156,867.115 Z " fill="#000000"/><text fill="#000000" font-family="sans-serif" font-size="12" lengthAdjust="spacing" textLength="49" x="187.75" y="876.1502">Poligono</text><line style="stroke:#A80036;stroke-width:1.5;" x1="60.5" x2="331.5" y1="887.24" y2="887.24"/><rect fill="none" height="6" style="stroke:#C82930;stroke-width:1.0;" width="6" x="67.5" y="895.24"/><text fill="#000000" font-family="sans-serif" font-size="11" lengthAdjust="spacing" textLength="83" x="79.5" y="902.6589">Modificavel : bool</text><line style="stroke:#A80036;stroke-width:1.5;" x1="60.5" x2="331.5" y1="909.0759" y2="909.0759"/><ellipse cx="70.5" cy="920.0759" fill="#84BE84" rx="3" ry="3" style="stroke:#038048;stroke-width:1.0;"/><text fill="#000000" font-family="sans-serif" font-size="11" lengthAdjust="spacing" textLength="247" x="79.5" y="924.4949">Poligono(rotulo:char, paiRef:Objeto, ponto:Ponto4D)</text><polygon fill="#FFFF44" points="70.5,928.9119,74.5,932.9119,70.5,936.9119,66.5,932.9119" style="stroke:#B38D22;stroke-width:1.0;"/><text fill="#000000" font-family="sans-serif" font-size="11" lengthAdjust="spacing" textLength="170" x="79.5" y="938.3308">«override» DesenharObjeto() : void</text><ellipse cx="70.5" cy="947.7478" fill="#84BE84" rx="3" ry="3" style="stroke:#038048;stroke-width:1.0;"/><text fill="#000000" font-family="sans-serif" font-size="11" lengthAdjust="spacing" textLength="206" x="79.5" y="952.1668">atualizaPontoSelecionado(x:int, y:int) : void</text><ellipse cx="70.5" cy="961.5838" fill="#84BE84" rx="3" ry="3" style="stroke:#038048;stroke-width:1.0;"/><text fill="#000000" font-family="sans-serif" font-size="11" lengthAdjust="spacing" textLength="183" x="79.5" y="966.0027">removerMaisProximo(x:int, y:int) : void</text><ellipse cx="70.5" cy="975.4197" fill="#84BE84" rx="3" ry="3" style="stroke:#038048;stroke-width:1.0;"/><text fill="#000000" font-family="sans-serif" font-size="11" lengthAdjust="spacing" textLength="81" x="79.5" y="979.8386">fimMover() : void</text><ellipse cx="70.5" cy="989.2556" fill="#84BE84" rx="3" ry="3" style="stroke:#038048;stroke-width:1.0;"/><text fill="#000000" font-family="sans-serif" font-size="11" lengthAdjust="spacing" textLength="209" x="79.5" y="993.6746">adicionarPontoPegaUltimo(p:Ponto4D) : void</text><ellipse cx="70.5" cy="1003.0916" fill="#84BE84" rx="3" ry="3" style="stroke:#038048;stroke-width:1.0;"/><text fill="#000000" font-family="sans-serif" font-size="11" lengthAdjust="spacing" textLength="57" x="79.5" y="1007.5105">lenght() : int</text><ellipse cx="70.5" cy="1016.9275" fill="#84BE84" rx="3" ry="3" style="stroke:#038048;stroke-width:1.0;"/><text fill="#000000" font-family="sans-serif" font-size="11" lengthAdjust="spacing" textLength="109" x="79.5" y="1021.3464">alternaPrimitiva() : void</text><ellipse cx="70.5" cy="1030.7634" fill="#84BE84" rx="3" ry="3" style="stroke:#038048;stroke-width:1.0;"/><text fill="#000000" font-family="sans-serif" font-size="11" lengthAdjust="spacing" textLength="114" x="79.5" y="1035.1824">finalizaDesenho() : void</text><ellipse cx="70.5" cy="1044.5994" fill="#84BE84" rx="3" ry="3" style="stroke:#038048;stroke-width:1.0;"/><text fill="#000000" font-family="sans-serif" font-size="11" lengthAdjust="spacing" textLength="196" x="79.5" y="1049.0183">foiSelecionado(x:double, y:double) : bool</text><ellipse cx="70.5" cy="1058.4353" fill="#84BE84" rx="3" ry="3" style="stroke:#038048;stroke-width:1.0;"/><text fill="#000000" font-family="sans-serif" font-size="11" lengthAdjust="spacing" textLength="128" x="79.5" y="1062.8543">translacaoPoligono() : void</text><ellipse cx="70.5" cy="1072.2713" fill="#84BE84" rx="3" ry="3" style="stroke:#038048;stroke-width:1.0;"/><text fill="#000000" font-family="sans-serif" font-size="11" lengthAdjust="spacing" textLength="189" x="79.5" y="1076.6902">selecionaMaisProcimo(x:int, y:int) : void</text><ellipse cx="70.5" cy="1086.1072" fill="#84BE84" rx="3" ry="3" style="stroke:#038048;stroke-width:1.0;"/><text fill="#000000" font-family="sans-serif" font-size="11" lengthAdjust="spacing" textLength="89" x="79.5" y="1090.5261">pegaUltimo() : void</text><ellipse cx="70.5" cy="1099.9431" fill="#84BE84" rx="3" ry="3" style="stroke:#038048;stroke-width:1.0;"/><text fill="#000000" font-family="sans-serif" font-size="11" lengthAdjust="spacing" textLength="114" x="79.5" y="1104.3621">trocaModificado() : void</text><!--MD5=[3051a6a8f877a755a60c7cfd1e6f410a]
class Objeto--><rect codeLine="1" fill="#FEFECE" filter="url(#f1lriggcz0ebm3)" height="338.5547" id="Objeto" style="stroke:#A80036;stroke-width:1.5;" width="466" x="565" y="85.24"/><ellipse cx="775.25" cy="101.24" fill="#A9DCDF" rx="11" ry="11" style="stroke:#A80036;stroke-width:1.0;"/><path d="M777.4375,103.0056 L773.2969,103.0056 L772.875,104.0369 L773.2969,104.0369 Q773.9063,104.0369 774.1719,104.2713 Q774.4375,104.5056 774.4375,104.8963 Q774.4375,105.2713 774.1719,105.5056 Q773.9063,105.74 773.2969,105.74 L771,105.74 Q770.3906,105.74 770.1406,105.5056 Q769.875,105.2713 769.875,104.8806 Q769.875,104.5056 770.1563,104.2713 Q770.4219,104.0213 771.0469,104.0369 L773.7188,97.3806 L772.6094,97.3806 Q772,97.3806 771.7344,97.1463 Q771.4688,96.9119 771.4688,96.5213 Q771.4688,96.1463 771.7344,95.9119 Q772,95.6775 772.6094,95.6775 L776.2813,95.6775 L779.6719,104.0369 Q780.2656,104.0369 780.4531,104.1775 Q780.8438,104.4431 780.8438,104.8963 Q780.8438,105.2713 780.5781,105.5056 Q780.3281,105.74 779.7188,105.74 L777.4219,105.74 Q776.8125,105.74 776.5469,105.5056 Q776.2813,105.2713 776.2813,104.8806 Q776.2813,104.5056 776.5469,104.2713 Q776.8125,104.0369 777.4219,104.0369 L777.8438,104.0369 L777.4375,103.0056 Z M776.7188,101.3025 L775.3594,97.9275 L773.9844,101.3025 L776.7188,101.3025 Z " fill="#000000"/><text fill="#000000" font-family="sans-serif" font-size="12" font-style="italic" lengthAdjust="spacing" textLength="37" x="795.75" y="106.1502">Objeto</text><line style="stroke:#A80036;stroke-width:1.5;" x1="566" x2="1030" y1="117.24" y2="117.24"/><polygon fill="none" points="576,123.24,580,127.24,576,131.24,572,127.24" style="stroke:#B38D22;stroke-width:1.0;"/><text fill="#000000" font-family="sans-serif" font-size="11" lengthAdjust="spacing" textLength="58" x="585" y="132.6589">rotulo : char</text><rect fill="none" height="6" style="stroke:#C82930;stroke-width:1.0;" width="6" x="573" y="139.0759"/><text fill="#000000" font-family="sans-serif" font-size="11" lengthAdjust="spacing" textLength="131" x="585" y="146.4949">primitivaTamanho : float = 1</text><ellipse cx="576" cy="155.9119" rx="3" ry="3" style="stroke:#038048;stroke-width:1.0;fill:none;"/><text fill="#000000" font-family="sans-serif" font-size="11" lengthAdjust="spacing" textLength="173" x="585" y="160.3308">PrimitivaTamanho : float «get» «set»</text><line style="stroke:#A80036;stroke-width:1.5;" x1="566" x2="1030" y1="166.7478" y2="166.7478"/><ellipse cx="576" cy="177.7478" fill="#84BE84" rx="3" ry="3" style="stroke:#038048;stroke-width:1.0;"/><text fill="#000000" font-family="sans-serif" font-size="11" lengthAdjust="spacing" textLength="162" x="585" y="182.1668">Objeto(rotulo:char, paiRef:Objeto)</text><ellipse cx="576" cy="191.5838" fill="#84BE84" rx="3" ry="3" style="stroke:#038048;stroke-width:1.0;"/><text fill="#000000" font-family="sans-serif" font-size="11" lengthAdjust="spacing" textLength="84" x="585" y="196.0027">Desenhar() : void</text><polygon fill="#FFFF44" points="576,200.4197,580,204.4197,576,208.4197,572,204.4197" style="stroke:#B38D22;stroke-width:1.0;"/><text fill="#000000" font-family="sans-serif" font-size="11" font-style="italic" lengthAdjust="spacing" textLength="137" x="585" y="209.8386">DesenharGeometria() : void</text><ellipse cx="576" cy="219.2556" fill="#84BE84" rx="3" ry="3" style="stroke:#038048;stroke-width:1.0;"/><text fill="#000000" font-family="sans-serif" font-size="11" lengthAdjust="spacing" textLength="159" x="585" y="223.6746">FilhoAdicionar(filho:Objeto) : void</text><ellipse cx="576" cy="233.0916" fill="#84BE84" rx="3" ry="3" style="stroke:#038048;stroke-width:1.0;"/><text fill="#000000" font-family="sans-serif" font-size="11" lengthAdjust="spacing" textLength="156" x="585" y="237.5105">FilhoRemover(filho:Objeto) : void</text><ellipse cx="576" cy="246.9275" fill="#84BE84" rx="3" ry="3" style="stroke:#038048;stroke-width:1.0;"/><text fill="#000000" font-family="sans-serif" font-size="11" lengthAdjust="spacing" textLength="86" x="585" y="251.3464">GetBBox() : BBox</text><ellipse cx="576" cy="260.7634" fill="#84BE84" rx="3" ry="3" style="stroke:#038048;stroke-width:1.0;"/><text fill="#000000" font-family="sans-serif" font-size="11" lengthAdjust="spacing" textLength="194" x="585" y="265.1824">translacaoPoligonoX(direcao:bool) : void</text><ellipse cx="576" cy="274.5994" fill="#84BE84" rx="3" ry="3" style="stroke:#038048;stroke-width:1.0;"/><text fill="#000000" font-family="sans-serif" font-size="11" lengthAdjust="spacing" textLength="195" x="585" y="279.0183">translacaoPoligonoY(direcao:bool) : void</text><ellipse cx="576" cy="288.4353" fill="#84BE84" rx="3" ry="3" style="stroke:#038048;stroke-width:1.0;"/><text fill="#000000" font-family="sans-serif" font-size="11" lengthAdjust="spacing" textLength="144" x="585" y="292.8543">Rotacao(angulo:double) : void</text><ellipse cx="576" cy="302.2713" fill="#84BE84" rx="3" ry="3" style="stroke:#038048;stroke-width:1.0;"/><text fill="#000000" font-family="sans-serif" font-size="11" lengthAdjust="spacing" textLength="440" x="585" y="306.6902">RotacaoEixo(angulo:double, eixoRotacao:char, matrizTmpRotacao:Transformacao4D) : void</text><ellipse cx="576" cy="316.1072" fill="#84BE84" rx="3" ry="3" style="stroke:#038048;stroke-width:1.0;"/><text fill="#000000" font-family="sans-serif" font-size="11" lengthAdjust="spacing" textLength="199" x="585" y="320.5261">rotacionarEixoBBox(angulo:double) : void</text><ellipse cx="576" cy="329.9431" fill="#84BE84" rx="3" ry="3" style="stroke:#038048;stroke-width:1.0;"/><text fill="#000000" font-family="sans-serif" font-size="11" lengthAdjust="spacing" textLength="147" x="585" y="334.3621">aumentarObjetoOrigem() : void</text><ellipse cx="576" cy="343.7791" fill="#84BE84" rx="3" ry="3" style="stroke:#038048;stroke-width:1.0;"/><text fill="#000000" font-family="sans-serif" font-size="11" lengthAdjust="spacing" textLength="134" x="585" y="348.198">diminuiObjetoOrigem() : void</text><ellipse cx="576" cy="357.615" fill="#84BE84" rx="3" ry="3" style="stroke:#038048;stroke-width:1.0;"/><text fill="#000000" font-family="sans-serif" font-size="11" lengthAdjust="spacing" textLength="113" x="585" y="362.0339">aumentarObjeto() : void</text><ellipse cx="576" cy="371.4509" fill="#84BE84" rx="3" ry="3" style="stroke:#038048;stroke-width:1.0;"/><text fill="#000000" font-family="sans-serif" font-size="11" lengthAdjust="spacing" textLength="100" x="585" y="375.8699">diminuiObjeto() : void</text><ellipse cx="576" cy="385.2869" fill="#84BE84" rx="3" ry="3" style="stroke:#038048;stroke-width:1.0;"/><text fill="#000000" font-family="sans-serif" font-size="11" lengthAdjust="spacing" textLength="80" x="585" y="389.7058">toOrigem() : void</text><ellipse cx="576" cy="399.1228" fill="#84BE84" rx="3" ry="3" style="stroke:#038048;stroke-width:1.0;"/><text fill="#000000" font-family="sans-serif" font-size="11" lengthAdjust="spacing" textLength="86" x="585" y="403.5418">Identidade() : void</text><ellipse cx="576" cy="412.9588" fill="#84BE84" rx="3" ry="3" style="stroke:#038048;stroke-width:1.0;"/><text fill="#000000" font-family="sans-serif" font-size="11" lengthAdjust="spacing" textLength="99" x="585" y="417.3777">mostraMatriz() : void</text><!--MD5=[9ac43fafcd0ede942dc8e681a30a1b52]
class Cor--><rect fill="#FEFECE" filter="url(#f1lriggcz0ebm3)" height="48" id="Cor" style="stroke:#A80036;stroke-width:1.5;" width="52" x="1207" y="230.74"/><ellipse cx="1222" cy="246.74" fill="#ADD1B2" rx="11" ry="11" style="stroke:#A80036;stroke-width:1.0;"/><path d="M1224.7656,242.615 Q1224.9219,242.3963 1225.1094,242.2869 Q1225.2969,242.1775 1225.5156,242.1775 Q1225.8906,242.1775 1226.125,242.4431 Q1226.3594,242.6931 1226.3594,243.3025 L1226.3594,244.7556 Q1226.3594,245.365 1226.125,245.6306 Q1225.8906,245.8963 1225.5156,245.8963 Q1225.1719,245.8963 1224.9688,245.6931 Q1224.7656,245.5056 1224.6563,244.99 Q1224.6094,244.6306 1224.4219,244.4431 Q1224.0938,244.0681 1223.4844,243.8494 Q1222.875,243.6306 1222.25,243.6306 Q1221.4844,243.6306 1220.8438,243.9588 Q1220.2188,244.2869 1219.7188,245.0369 Q1219.2344,245.7869 1219.2344,246.8181 L1219.2344,247.9119 Q1219.2344,249.1463 1220.125,249.9744 Q1221.0156,250.7869 1222.6094,250.7869 Q1223.5469,250.7869 1224.2031,250.5369 Q1224.5938,250.3806 1225.0156,249.9431 Q1225.2813,249.6775 1225.4219,249.5994 Q1225.5781,249.5213 1225.7813,249.5213 Q1226.1094,249.5213 1226.3594,249.7869 Q1226.625,250.0369 1226.625,250.3806 Q1226.625,250.7244 1226.2813,251.1306 Q1225.7813,251.7088 1224.9844,252.0369 Q1223.9063,252.49 1222.6094,252.49 Q1221.0938,252.49 1219.8906,251.865 Q1218.9063,251.365 1218.2188,250.3025 Q1217.5313,249.2244 1217.5313,247.9431 L1217.5313,246.7869 Q1217.5313,245.4588 1218.1406,244.3181 Q1218.7656,243.1619 1219.8594,242.5525 Q1220.9531,241.9275 1222.1875,241.9275 Q1222.9219,241.9275 1223.5625,242.0994 Q1224.2188,242.2556 1224.7656,242.615 Z " fill="#000000"/><text fill="#000000" font-family="sans-serif" font-size="12" lengthAdjust="spacing" textLength="20" x="1236" y="251.6502">Cor</text><line style="stroke:#A80036;stroke-width:1.5;" x1="1208" x2="1258" y1="262.74" y2="262.74"/><line style="stroke:#A80036;stroke-width:1.5;" x1="1208" x2="1258" y1="270.74" y2="270.74"/><!--MD5=[38e8fced9e943fac45fdba9ac5db991f]
class PrimitiveType--><rect fill="#FEFECE" filter="url(#f1lriggcz0ebm3)" height="48" id="PrimitiveType" style="stroke:#A80036;stroke-width:1.5;" width="105" x="1066.5" y="230.74"/><ellipse cx="1081.5" cy="246.74" fill="#ADD1B2" rx="11" ry="11" style="stroke:#A80036;stroke-width:1.0;"/><path d="M1084.2656,242.615 Q1084.4219,242.3963 1084.6094,242.2869 Q1084.7969,242.1775 1085.0156,242.1775 Q1085.3906,242.1775 1085.625,242.4431 Q1085.8594,242.6931 1085.8594,243.3025 L1085.8594,244.7556 Q1085.8594,245.365 1085.625,245.6306 Q1085.3906,245.8963 1085.0156,245.8963 Q1084.6719,245.8963 1084.4688,245.6931 Q1084.2656,245.5056 1084.1563,244.99 Q1084.1094,244.6306 1083.9219,244.4431 Q1083.5938,244.0681 1082.9844,243.8494 Q1082.375,243.6306 1081.75,243.6306 Q1080.9844,243.6306 1080.3438,243.9588 Q1079.7188,244.2869 1079.2188,245.0369 Q1078.7344,245.7869 1078.7344,246.8181 L1078.7344,247.9119 Q1078.7344,249.1463 1079.625,249.9744 Q1080.5156,250.7869 1082.1094,250.7869 Q1083.0469,250.7869 1083.7031,250.5369 Q1084.0938,250.3806 1084.5156,249.9431 Q1084.7813,249.6775 1084.9219,249.5994 Q1085.0781,249.5213 1085.2813,249.5213 Q1085.6094,249.5213 1085.8594,249.7869 Q1086.125,250.0369 1086.125,250.3806 Q1086.125,250.7244 1085.7813,251.1306 Q1085.2813,251.7088 1084.4844,252.0369 Q1083.4063,252.49 1082.1094,252.49 Q1080.5938,252.49 1079.3906,251.865 Q1078.4063,251.365 1077.7188,250.3025 Q1077.0313,249.2244 1077.0313,247.9431 L1077.0313,246.7869 Q1077.0313,245.4588 1077.6406,244.3181 Q1078.2656,243.1619 1079.3594,242.5525 Q1080.4531,241.9275 1081.6875,241.9275 Q1082.4219,241.9275 1083.0625,242.0994 Q1083.7188,242.2556 1084.2656,242.615 Z " fill="#000000"/><text fill="#000000" font-family="sans-serif" font-size="12" lengthAdjust="spacing" textLength="73" x="1095.5" y="251.6502">PrimitiveType</text><line style="stroke:#A80036;stroke-width:1.5;" x1="1067.5" x2="1170.5" y1="262.74" y2="262.74"/><line style="stroke:#A80036;stroke-width:1.5;" x1="1067.5" x2="1170.5" y1="270.74" y2="270.74"/><!--MD5=[ea10f8dc465baf5e542f54928f2443c8]
class BBox--><rect fill="#FEFECE" filter="url(#f1lriggcz0ebm3)" height="48" id="BBox" style="stroke:#A80036;stroke-width:1.5;" width="60" x="1461" y="230.74"/><ellipse cx="1476" cy="246.74" fill="#ADD1B2" rx="11" ry="11" style="stroke:#A80036;stroke-width:1.0;"/><path d="M1478.7656,242.615 Q1478.9219,242.3963 1479.1094,242.2869 Q1479.2969,242.1775 1479.5156,242.1775 Q1479.8906,242.1775 1480.125,242.4431 Q1480.3594,242.6931 1480.3594,243.3025 L1480.3594,244.7556 Q1480.3594,245.365 1480.125,245.6306 Q1479.8906,245.8963 1479.5156,245.8963 Q1479.1719,245.8963 1478.9688,245.6931 Q1478.7656,245.5056 1478.6563,244.99 Q1478.6094,244.6306 1478.4219,244.4431 Q1478.0938,244.0681 1477.4844,243.8494 Q1476.875,243.6306 1476.25,243.6306 Q1475.4844,243.6306 1474.8438,243.9588 Q1474.2188,244.2869 1473.7188,245.0369 Q1473.2344,245.7869 1473.2344,246.8181 L1473.2344,247.9119 Q1473.2344,249.1463 1474.125,249.9744 Q1475.0156,250.7869 1476.6094,250.7869 Q1477.5469,250.7869 1478.2031,250.5369 Q1478.5938,250.3806 1479.0156,249.9431 Q1479.2813,249.6775 1479.4219,249.5994 Q1479.5781,249.5213 1479.7813,249.5213 Q1480.1094,249.5213 1480.3594,249.7869 Q1480.625,250.0369 1480.625,250.3806 Q1480.625,250.7244 1480.2813,251.1306 Q1479.7813,251.7088 1478.9844,252.0369 Q1477.9063,252.49 1476.6094,252.49 Q1475.0938,252.49 1473.8906,251.865 Q1472.9063,251.365 1472.2188,250.3025 Q1471.5313,249.2244 1471.5313,247.9431 L1471.5313,246.7869 Q1471.5313,245.4588 1472.1406,244.3181 Q1472.7656,243.1619 1473.8594,242.5525 Q1474.9531,241.9275 1476.1875,241.9275 Q1476.9219,241.9275 1477.5625,242.0994 Q1478.2188,242.2556 1478.7656,242.615 Z " fill="#000000"/><text fill="#000000" font-family="sans-serif" font-size="12" lengthAdjust="spacing" textLength="28" x="1490" y="251.6502">BBox</text><line style="stroke:#A80036;stroke-width:1.5;" x1="1462" x2="1520" y1="262.74" y2="262.74"/><line style="stroke:#A80036;stroke-width:1.5;" x1="1462" x2="1520" y1="270.74" y2="270.74"/><!--MD5=[6746db26fbf3328699b5b65a634cc0f3]
class Transformacao4D--><rect fill="#FEFECE" filter="url(#f1lriggcz0ebm3)" height="48" id="Transformacao4D" style="stroke:#A80036;stroke-width:1.5;" width="132" x="1294" y="230.74"/><ellipse cx="1309" cy="246.74" fill="#ADD1B2" rx="11" ry="11" style="stroke:#A80036;stroke-width:1.0;"/><path d="M1311.7656,242.615 Q1311.9219,242.3963 1312.1094,242.2869 Q1312.2969,242.1775 1312.5156,242.1775 Q1312.8906,242.1775 1313.125,242.4431 Q1313.3594,242.6931 1313.3594,243.3025 L1313.3594,244.7556 Q1313.3594,245.365 1313.125,245.6306 Q1312.8906,245.8963 1312.5156,245.8963 Q1312.1719,245.8963 1311.9688,245.6931 Q1311.7656,245.5056 1311.6563,244.99 Q1311.6094,244.6306 1311.4219,244.4431 Q1311.0938,244.0681 1310.4844,243.8494 Q1309.875,243.6306 1309.25,243.6306 Q1308.4844,243.6306 1307.8438,243.9588 Q1307.2188,244.2869 1306.7188,245.0369 Q1306.2344,245.7869 1306.2344,246.8181 L1306.2344,247.9119 Q1306.2344,249.1463 1307.125,249.9744 Q1308.0156,250.7869 1309.6094,250.7869 Q1310.5469,250.7869 1311.2031,250.5369 Q1311.5938,250.3806 1312.0156,249.9431 Q1312.2813,249.6775 1312.4219,249.5994 Q1312.5781,249.5213 1312.7813,249.5213 Q1313.1094,249.5213 1313.3594,249.7869 Q1313.625,250.0369 1313.625,250.3806 Q1313.625,250.7244 1313.2813,251.1306 Q1312.7813,251.7088 1311.9844,252.0369 Q1310.9063,252.49 1309.6094,252.49 Q1308.0938,252.49 1306.8906,251.865 Q1305.9063,251.365 1305.2188,250.3025 Q1304.5313,249.2244 1304.5313,247.9431 L1304.5313,246.7869 Q1304.5313,245.4588 1305.1406,244.3181 Q1305.7656,243.1619 1306.8594,242.5525 Q1307.9531,241.9275 1309.1875,241.9275 Q1309.9219,241.9275 1310.5625,242.0994 Q1311.2188,242.2556 1311.7656,242.615 Z " fill="#000000"/><text fill="#000000" font-family="sans-serif" font-size="12" lengthAdjust="spacing" textLength="100" x="1323" y="251.6502">Transformacao4D</text><line style="stroke:#A80036;stroke-width:1.5;" x1="1295" x2="1425" y1="262.74" y2="262.74"/><line style="stroke:#A80036;stroke-width:1.5;" x1="1295" x2="1425" y1="270.74" y2="270.74"/><!--MD5=[b6968d6f0311dc2ba07018bef6e7bfd3]
class Retangulo--><rect codeLine="1" fill="#FEFECE" filter="url(#f1lriggcz0ebm3)" height="89.5078" id="Retangulo" style="stroke:#A80036;stroke-width:1.5;" width="395" x="681.5" y="938.24"/><ellipse cx="846.25" cy="954.24" fill="#ADD1B2" rx="11" ry="11" style="stroke:#A80036;stroke-width:1.0;"/><path d="M849.0156,950.115 Q849.1719,949.8963 849.3594,949.7869 Q849.5469,949.6775 849.7656,949.6775 Q850.1406,949.6775 850.375,949.9431 Q850.6094,950.1931 850.6094,950.8025 L850.6094,952.2556 Q850.6094,952.865 850.375,953.1306 Q850.1406,953.3963 849.7656,953.3963 Q849.4219,953.3963 849.2188,953.1931 Q849.0156,953.0056 848.9063,952.49 Q848.8594,952.1306 848.6719,951.9431 Q848.3438,951.5681 847.7344,951.3494 Q847.125,951.1306 846.5,951.1306 Q845.7344,951.1306 845.0938,951.4588 Q844.4688,951.7869 843.9688,952.5369 Q843.4844,953.2869 843.4844,954.3181 L843.4844,955.4119 Q843.4844,956.6463 844.375,957.4744 Q845.2656,958.2869 846.8594,958.2869 Q847.7969,958.2869 848.4531,958.0369 Q848.8438,957.8806 849.2656,957.4431 Q849.5313,957.1775 849.6719,957.0994 Q849.8281,957.0213 850.0313,957.0213 Q850.3594,957.0213 850.6094,957.2869 Q850.875,957.5369 850.875,957.8806 Q850.875,958.2244 850.5313,958.6306 Q850.0313,959.2088 849.2344,959.5369 Q848.1563,959.99 846.8594,959.99 Q845.3438,959.99 844.1406,959.365 Q843.1563,958.865 842.4688,957.8025 Q841.7813,956.7244 841.7813,955.4431 L841.7813,954.2869 Q841.7813,952.9588 842.3906,951.8181 Q843.0156,950.6619 844.1094,950.0525 Q845.2031,949.4275 846.4375,949.4275 Q847.1719,949.4275 847.8125,949.5994 Q848.4688,949.7556 849.0156,950.115 Z " fill="#000000"/><text fill="#000000" font-family="sans-serif" font-size="12" lengthAdjust="spacing" textLength="57" x="866.75" y="959.1502">Retangulo</text><line style="stroke:#A80036;stroke-width:1.5;" x1="682.5" x2="1075.5" y1="970.24" y2="970.24"/><line style="stroke:#A80036;stroke-width:1.5;" x1="682.5" x2="1075.5" y1="978.24" y2="978.24"/><ellipse cx="692.5" cy="989.24" fill="#84BE84" rx="3" ry="3" style="stroke:#038048;stroke-width:1.0;"/><text fill="#000000" font-family="sans-serif" font-size="11" lengthAdjust="spacing" textLength="369" x="701.5" y="993.6589">Retangulo(rotulo:char, paiRef:Objeto, ptoInfEsq:Ponto4D, ptoSupDir:Ponto4D)</text><polygon fill="#FFFF44" points="692.5,998.0759,696.5,1002.0759,692.5,1006.0759,688.5,1002.0759" style="stroke:#B38D22;stroke-width:1.0;"/><text fill="#000000" font-family="sans-serif" font-size="11" lengthAdjust="spacing" textLength="170" x="701.5" y="1007.4949">«override» DesenharObjeto() : void</text><ellipse cx="692.5" cy="1016.9119" fill="#84BE84" rx="3" ry="3" style="stroke:#038048;stroke-width:1.0;"/><text fill="#000000" font-family="sans-serif" font-size="11" lengthAdjust="spacing" textLength="139" x="701.5" y="1021.3308">«override» ToString() : string</text><!--MD5=[7285b5824e67b16848be7ff6288389e6]
class Utilitario--><rect codeLine="1" fill="#FEFECE" filter="url(#f1lriggcz0ebm3)" height="75.6719" id="Utilitario" style="stroke:#A80036;stroke-width:1.5;" width="173" x="1720.5" y="216.74"/><ellipse cx="1780.25" cy="232.74" fill="#A9DCDF" rx="11" ry="11" style="stroke:#A80036;stroke-width:1.0;"/><path d="M1782.4375,234.5056 L1778.2969,234.5056 L1777.875,235.5369 L1778.2969,235.5369 Q1778.9063,235.5369 1779.1719,235.7713 Q1779.4375,236.0056 1779.4375,236.3963 Q1779.4375,236.7713 1779.1719,237.0056 Q1778.9063,237.24 1778.2969,237.24 L1776,237.24 Q1775.3906,237.24 1775.1406,237.0056 Q1774.875,236.7713 1774.875,236.3806 Q1774.875,236.0056 1775.1563,235.7713 Q1775.4219,235.5213 1776.0469,235.5369 L1778.7188,228.8806 L1777.6094,228.8806 Q1777,228.8806 1776.7344,228.6463 Q1776.4688,228.4119 1776.4688,228.0213 Q1776.4688,227.6463 1776.7344,227.4119 Q1777,227.1775 1777.6094,227.1775 L1781.2813,227.1775 L1784.6719,235.5369 Q1785.2656,235.5369 1785.4531,235.6775 Q1785.8438,235.9431 1785.8438,236.3963 Q1785.8438,236.7713 1785.5781,237.0056 Q1785.3281,237.24 1784.7188,237.24 L1782.4219,237.24 Q1781.8125,237.24 1781.5469,237.0056 Q1781.2813,236.7713 1781.2813,236.3806 Q1781.2813,236.0056 1781.5469,235.7713 Q1781.8125,235.5369 1782.4219,235.5369 L1782.8438,235.5369 L1782.4375,234.5056 Z M1781.7188,232.8025 L1780.3594,229.4275 L1778.9844,232.8025 L1781.7188,232.8025 Z " fill="#000000"/><text fill="#000000" font-family="sans-serif" font-size="12" font-style="italic" lengthAdjust="spacing" textLength="45" x="1800.75" y="237.6502">Utilitario</text><line style="stroke:#A80036;stroke-width:1.5;" x1="1721.5" x2="1892.5" y1="248.74" y2="248.74"/><line style="stroke:#A80036;stroke-width:1.5;" x1="1721.5" x2="1892.5" y1="256.74" y2="256.74"/><ellipse cx="1731.5" cy="267.74" fill="#84BE84" rx="3" ry="3" style="stroke:#038048;stroke-width:1.0;"/><text fill="#000000" font-family="sans-serif" font-size="11" lengthAdjust="spacing" text-decoration="underline" textLength="147" x="1740.5" y="272.1589">charProximo(atual:char) : char</text><ellipse cx="1731.5" cy="281.5759" fill="#84BE84" rx="3" ry="3" style="stroke:#038048;stroke-width:1.0;"/><text fill="#000000" font-family="sans-serif" font-size="11" lengthAdjust="spacing" text-decoration="underline" textLength="103" x="1740.5" y="285.9949">AjudaTeclado() : void</text><!--MD5=[cb58bcb38d51c2ea159d8cccc5b4f192]
reverse link ObjetoGeometria to Ponto--><path codeLine="11" d="M634.71,757.42 C607.31,805.66 576.27,860.31 551.64,903.65 " fill="none" id="ObjetoGeometria-backto-Ponto" style="stroke:#A80036;stroke-width:1.0;"/><polygon fill="none" points="628.66,753.91,644.63,739.97,640.83,760.82,628.66,753.91" style="stroke:#A80036;stroke-width:1.0;"/><!--MD5=[6be30af048eb1606e1ca523301ab8592]
link Ponto to Ponto4D--><path codeLine="12" d="M448.47,1063.03 C421.39,1099.49 390.96,1140.45 371.42,1166.76 " fill="none" id="Ponto-to-Ponto4D" style="stroke:#A80036;stroke-width:1.0;"/><polygon fill="#A80036" points="368.38,1170.85,376.9607,1166.0157,371.364,1166.838,370.5416,1161.2413,368.38,1170.85" style="stroke:#A80036;stroke-width:1.0;"/><text fill="#000000" font-family="sans-serif" font-size="13" lengthAdjust="spacing" textLength="32" x="336.7164" y="1160.4929">ponto</text><!--MD5=[3c0e7ba23ee97378347dee0d1da8e8b4]
reverse link GameWindow to Mundo--><path codeLine="27" d="M196,299.1 C196,344.17 196,417.33 196,484.22 " fill="none" id="GameWindow-backto-Mundo" style="stroke:#A80036;stroke-width:1.0;"/><polygon fill="none" points="189,298.84,196,278.84,203,298.84,189,298.84" style="stroke:#A80036;stroke-width:1.0;"/><!--MD5=[18d20c4dd74904f6a8bff04e04f15cd6]
link Mundo to Mundo--><path codeLine="28" d="M393.3685,591.5429 C393.3685,591.5429 418,618.78 418,639.74 C418,660.7 409.1,676.53 394.58,687.21 " fill="none" id="Mundo-Mundo" style="stroke:#A80036;stroke-width:1.0;"/><polygon fill="#A80036" points="383.06,694.08,392.839,692.909,387.3552,691.5205,388.7437,686.0367,383.06,694.08" style="stroke:#A80036;stroke-width:1.0;"/><line style="stroke:#A80036;stroke-width:1.0;" x1="387.3552" x2="394.23" y1="691.5205" y2="687.42"/><polygon fill="#FFFFFF" points="383.06,585.4,386.1666,591.9076,393.3685,591.5429,390.2619,585.0353,383.06,585.4" style="stroke:#A80036;stroke-width:1.0;"/><text fill="#000000" font-family="sans-serif" font-size="13" lengthAdjust="spacing" textLength="91" x="390.6909" y="693.1033">instanciaMundo</text><!--MD5=[5a8a86a4b938c9552e75821b2b1a03fb]
link Mundo to CameraOrtho--><path codeLine="29" d="M395.2,639.74 C395.2,639.74 414.24,639.74 423.14,639.74 " fill="none" id="Mundo-CameraOrtho" style="stroke:#A80036;stroke-width:1.0;"/><polygon fill="#A80036" points="436.18,639.74,427.18,635.74,431.18,639.74,427.18,643.74,436.18,639.74" style="stroke:#A80036;stroke-width:1.0;"/><line style="stroke:#A80036;stroke-width:1.0;" x1="431.18" x2="423.18" y1="639.74" y2="639.74"/><polygon fill="#FFFFFF" points="383.2,639.74,389.2,643.74,395.2,639.74,389.2,635.74,383.2,639.74" style="stroke:#A80036;stroke-width:1.0;"/><text fill="#000000" font-family="sans-serif" font-size="13" lengthAdjust="spacing" textLength="43" x="385.4126" y="636.4282">camera</text><!--MD5=[778fff7b4969a30658923a6378b287eb]
link Mundo to List`1--><path codeLine="30" d="M382.8948,478.2918 C382.8948,478.2918 418.66,460.32 436.5,454.24 C517.9,426.49 748.93,411.41 823.5,454.24 C875.13,483.89 890.1,557.58 894.38,602.65 " fill="none" id="Mundo-List`1" style="stroke:#A80036;stroke-width:1.0;"/><polygon fill="#A80036" points="895.39,615.63,898.6754,606.3453,894.9998,610.6452,890.6998,606.9696,895.39,615.63" style="stroke:#A80036;stroke-width:1.0;"/><line style="stroke:#A80036;stroke-width:1.0;" x1="894.9998" x2="894.375" y1="610.6452" y2="602.675"/><polygon fill="#FFFFFF" points="372.45,484.2,379.6418,484.7275,382.8948,478.2918,375.703,477.7643,372.45,484.2" style="stroke:#A80036;stroke-width:1.0;"/><text fill="#000000" font-family="sans-serif" font-size="13" lengthAdjust="spacing" textLength="136" x="912.6587" y="604.942">objetosLista&lt;Poligono&gt;</text><!--MD5=[ceab9e9495635919f84724b35b126dfe]
link Mundo to Poligono--><path codeLine="31" d="M196,807.5 C196,807.5 196,830.87 196,841.84 " fill="none" id="Mundo-Poligono" style="stroke:#A80036;stroke-width:1.0;"/><polygon fill="#A80036" points="196,855.11,200,846.11,196,850.11,192,846.11,196,855.11" style="stroke:#A80036;stroke-width:1.0;"/><line style="stroke:#A80036;stroke-width:1.0;" x1="196" x2="196" y1="850.11" y2="842.11"/><polygon fill="#FFFFFF" points="196,795.5,192,801.5,196,807.5,200,801.5,196,795.5" style="stroke:#A80036;stroke-width:1.0;"/><text fill="#000000" font-family="sans-serif" font-size="13" lengthAdjust="spacing" textLength="106" x="86.7703" y="844.3345">objetoSelecionado</text><!--MD5=[6a00e5728ef10aa0db8d1cabc61bfb25]
link Mundo to Ponto--><path codeLine="32" d="M345.0206,804.3715 C345.0206,804.3715 401.65,866.55 426.4,893.73 " fill="none" id="Mundo-Ponto" style="stroke:#A80036;stroke-width:1.0;"/><polygon fill="#A80036" points="435.36,903.57,432.2643,894.2203,431.9961,899.8708,426.3456,899.6026,435.36,903.57" style="stroke:#A80036;stroke-width:1.0;"/><line style="stroke:#A80036;stroke-width:1.0;" x1="431.9961" x2="426.605" y1="899.8708" y2="893.96"/><polygon fill="#FFFFFF" points="336.94,795.5,338.0231,802.6293,345.0206,804.3715,343.9375,797.2422,336.94,795.5" style="stroke:#A80036;stroke-width:1.0;"/><text fill="#000000" font-family="sans-serif" font-size="13" lengthAdjust="spacing" textLength="25" x="402.6033" y="893.0136">pont</text><!--MD5=[abb974133f481326665ca9332982bcdd]
link Objeto to Cor--><path codeLine="26" d="M993.9959,79.1562 C993.9959,79.1562 1119.16,31.83 1177.33,65.24 C1228.91,94.87 1236.15,171.35 1235.46,217.59 " fill="none" id="Objeto-Cor" style="stroke:#A80036;stroke-width:1.0;"/><polygon fill="#A80036" points="1235.04,230.6,1239.3249,221.7321,1235.1994,225.6025,1231.329,221.477,1235.04,230.6" style="stroke:#A80036;stroke-width:1.0;"/><line style="stroke:#A80036;stroke-width:1.0;" x1="1235.1994" x2="1235.455" y1="225.6025" y2="217.605"/><polygon fill="#FFFFFF" points="983.56,85.08,990.7526,85.5967,993.9959,79.1562,986.8034,78.6395,983.56,85.08" style="stroke:#A80036;stroke-width:1.0;"/><text fill="#000000" font-family="sans-serif" font-size="13" lengthAdjust="spacing" textLength="55" x="1173.644" y="219.8415">objetoCor</text><!--MD5=[abb974133f481326665ca9332982bcdd]
link Objeto to Cor--><path codeLine="27" d="M956.94,84.99 C1021.74,36.41 1097.34,6 1165.67,45.24 C1227.84,80.95 1235.04,176.88 1234.46,225.56 " fill="none" id="Objeto-to-Cor" style="stroke:#A80036;stroke-width:1.0;"/><polygon fill="#A80036" points="1234.37,230.68,1238.5492,221.7618,1234.47,225.681,1230.5508,221.6018,1234.37,230.68" style="stroke:#A80036;stroke-width:1.0;"/><text fill="#000000" font-family="sans-serif" font-size="13" lengthAdjust="spacing" textLength="58" x="1242.0135" y="219.9422">ObjetoCor</text><!--MD5=[7e8630a5cd5ea67eab064634d547f460]
link Objeto to PrimitiveType--><path codeLine="28" d="M1040.7439,348.4467 C1040.7439,348.4467 1077.34,313.74 1095.22,289.62 " fill="none" id="Objeto-PrimitiveType" style="stroke:#A80036;stroke-width:1.0;"/><polygon fill="#A80036" points="1102.89,278.99,1094.3823,283.9517,1099.9662,283.046,1100.8719,288.6299,1102.89,278.99" style="stroke:#A80036;stroke-width:1.0;"/><line style="stroke:#A80036;stroke-width:1.0;" x1="1099.9662" x2="1095.28" y1="283.046" y2="289.53"/><polygon fill="#FFFFFF" points="1031.23,355.76,1038.4247,355.2746,1040.7439,348.4467,1033.5492,348.932,1031.23,355.76" style="stroke:#A80036;stroke-width:1.0;"/><text fill="#000000" font-family="sans-serif" font-size="13" lengthAdjust="spacing" textLength="71" x="1029.877" y="300.219">primitivaTipo</text><!--MD5=[7e8630a5cd5ea67eab064634d547f460]
link Objeto to PrimitiveType--><path codeLine="29" d="M1031.23,153.72 C1054.09,170.13 1076.95,194.27 1099.81,226.15 " fill="none" id="Objeto-to-PrimitiveType" style="stroke:#A80036;stroke-width:1.0;"/><polygon fill="#A80036" points="1102.89,230.49,1100.9266,220.8388,1099.9892,226.4175,1094.4106,225.4801,1102.89,230.49" style="stroke:#A80036;stroke-width:1.0;"/><text fill="#000000" font-family="sans-serif" font-size="13" lengthAdjust="spacing" textLength="73" x="1108.1149" y="219.7661">PrimitivaTipo</text><!--MD5=[ff34dbfed28166dc938de446fd84e6c0]
link Objeto to BBox--><path codeLine="30" d="M1022.8493,80.0236 C1022.8493,80.0236 1048.33,69.23 1060.67,65.24 C1099.96,52.54 1396.52,44.67 1432.33,65.24 C1484.14,94.99 1492.67,171.43 1492.79,217.63 " fill="none" id="Objeto-BBox" style="stroke:#A80036;stroke-width:1.0;"/><polygon fill="#A80036" points="1492.61,230.63,1496.7382,221.6881,1492.6814,225.6305,1488.739,221.5738,1492.61,230.63" style="stroke:#A80036;stroke-width:1.0;"/><line style="stroke:#A80036;stroke-width:1.0;" x1="1492.6814" x2="1492.79" y1="225.6305" y2="217.635"/><polygon fill="#FFFFFF" points="1011.99,85.13,1019.1218,86.1966,1022.8493,80.0236,1015.7175,78.957,1011.99,85.13" style="stroke:#A80036;stroke-width:1.0;"/><text fill="#000000" font-family="sans-serif" font-size="13" lengthAdjust="spacing" textLength="30" x="1459.1788" y="219.942">bBox</text><!--MD5=[ff34dbfed28166dc938de446fd84e6c0]
link Objeto to BBox--><path codeLine="31" d="M989.1,85.22 C1015.63,68.96 1043.67,54.93 1072.33,45.24 C1109,32.84 1387.11,25.96 1420.67,45.24 C1483.1,81.1 1491.79,176.96 1491.99,225.59 " fill="none" id="Objeto-to-BBox" style="stroke:#A80036;stroke-width:1.0;"/><polygon fill="#A80036" points="1491.98,230.71,1496.0057,221.7215,1491.9943,225.71,1488.0057,221.6986,1491.98,230.71" style="stroke:#A80036;stroke-width:1.0;"/><text fill="#000000" font-family="sans-serif" font-size="13" lengthAdjust="spacing" textLength="32" x="1496.3311" y="220.0425">BBox</text><!--MD5=[eb8e112c2c51e54a0d2cd39412942130]
link Objeto to Transformacao4D--><path codeLine="32" d="M1009.9973,79.5239 C1009.9973,79.5239 1047.64,61.48 1066.5,55.24 C1147.94,28.3 1185.12,12.52 1259.5,55.24 C1318.39,89.07 1343.74,169.97 1353.88,217.72 " fill="none" id="Objeto-Transformacao4D" style="stroke:#A80036;stroke-width:1.0;"/><polygon fill="#A80036" points="1356.4,230.52,1358.5821,220.9159,1355.4321,225.6146,1350.7335,222.4645,1356.4,230.52" style="stroke:#A80036;stroke-width:1.0;"/><line style="stroke:#A80036;stroke-width:1.0;" x1="1355.4321" x2="1353.89" y1="225.6146" y2="217.77"/><polygon fill="#FFFFFF" points="999.43,85.21,1006.609,85.8894,1009.9973,79.5239,1002.8183,78.8445,999.43,85.21" style="stroke:#A80036;stroke-width:1.0;"/><text fill="#000000" font-family="sans-serif" font-size="13" lengthAdjust="spacing" textLength="36" x="1314.865" y="219.8038">matriz</text><!--MD5=[1072a863cc54ef494712a6aabbf9d5bf]
link Objeto to List`1--><path codeLine="33" d="M844.1086,435.9145 C844.1086,435.9145 876.91,564.12 886.79,602.75 " fill="none" id="Objeto-List`1" style="stroke:#A80036;stroke-width:1.0;"/><polygon fill="#A80036" points="890.06,615.54,891.7112,605.8305,888.8241,610.6952,883.9595,607.808,890.06,615.54" style="stroke:#A80036;stroke-width:1.0;"/><line style="stroke:#A80036;stroke-width:1.0;" x1="888.8241" x2="886.84" y1="610.6952" y2="602.945"/><polygon fill="#FFFFFF" points="841.13,424.29,838.7445,431.0951,844.1086,435.9145,846.4941,429.1094,841.13,424.29" style="stroke:#A80036;stroke-width:1.0;"/><text fill="#000000" font-family="sans-serif" font-size="13" lengthAdjust="spacing" textLength="124" x="941.9155" y="614.2127">objetosLista&lt;Objeto&gt;</text><!--MD5=[a03c7e7dbc7aa919221c9dfab59c60ca]
reverse link Objeto to ObjetoGeometria--><path codeLine="16" d="M750.38,443.77 C741.98,476.95 733.54,510.26 726.08,539.73 " fill="none" id="Objeto-backto-ObjetoGeometria" style="stroke:#A80036;stroke-width:1.0;"/><polygon fill="none" points="743.62,441.96,755.31,424.29,757.19,445.39,743.62,441.96" style="stroke:#A80036;stroke-width:1.0;"/><!--MD5=[08c949781e64e24459062fcf2690d067]
link ObjetoGeometria to List`1--><path codeLine="17" d="M835.64,639.74 C835.64,639.74 842.87,639.74 845.86,639.74 " fill="none" id="ObjetoGeometria-List`1" style="stroke:#A80036;stroke-width:1.0;"/><polygon fill="#A80036" points="858.97,639.74,849.97,635.74,853.97,639.74,849.97,643.74,858.97,639.74" style="stroke:#A80036;stroke-width:1.0;"/><line style="stroke:#A80036;stroke-width:1.0;" x1="853.97" x2="845.97" y1="639.74" y2="639.74"/><polygon fill="#FFFFFF" points="823.64,639.74,829.64,643.74,835.64,639.74,829.64,635.74,823.64,639.74" style="stroke:#A80036;stroke-width:1.0;"/><text fill="#000000" font-family="sans-serif" font-size="13" lengthAdjust="spacing" textLength="133" x="940.0125" y="675.7185">pontosLista&lt;Ponto4D&gt;</text><!--MD5=[003750561b878f79e99cad8c4ca21fdc]
reverse link ObjetoGeometria to Poligono--><path codeLine="18" d="M612.38,754.12 C596.55,769.53 579.24,783.91 561,795.24 C478.18,846.68 436.33,809.93 350,855.24 C344.17,858.3 338.36,861.61 332.59,865.1 " fill="none" id="ObjetoGeometria-backto-Poligono" style="stroke:#A80036;stroke-width:1.0;"/><polygon fill="none" points="607.48,749.12,626.48,739.75,617.47,758.93,607.48,749.12" style="stroke:#A80036;stroke-width:1.0;"/><!--MD5=[0f46aff27c24b3f28c91ba75f926c24c]
link Poligono to Ponto4D--><path codeLine="19" d="M289.74,1111.24 C305.24,1132.24 319.83,1152.02 330.89,1166.99 " fill="none" id="Poligono-to-Ponto4D" style="stroke:#A80036;stroke-width:1.0;"/><polygon fill="#A80036" points="333.91,1171.08,331.7868,1161.4627,330.9421,1167.0562,325.3486,1166.2114,333.91,1171.08" style="stroke:#A80036;stroke-width:1.0;"/><text fill="#000000" font-family="sans-serif" font-size="13" lengthAdjust="spacing" textLength="103" x="213.3338" y="1160.3792">pontoSelecionado</text><!--MD5=[26236c37487edb4672de193cef5bd1db]
reverse link ObjetoGeometria to Retangulo--><path codeLine="6" d="M762.13,758.03 C794.52,820.16 832.37,892.79 856.02,938.16 " fill="none" id="ObjetoGeometria-backto-Retangulo" style="stroke:#A80036;stroke-width:1.0;"/><polygon fill="none" points="755.76,760.95,752.72,739.97,768.18,754.47,755.76,760.95" style="stroke:#A80036;stroke-width:1.0;"/><!--MD5=[b644241d95e60c26e4b29e0186cf7e21]
@startuml
!include .\\.\CG_N3\.puml
!include .\\.\CG_N3\Mundo.puml
!include .\\.\CG_N3\Objeto.puml
!include .\\.\CG_N3\ObjetoGeometria.puml
!include .\\.\CG_N3\Poligono.puml
!include .\\.\CG_N3\Retangulo.puml
!include .\\.\CG_N3\Utilitario.puml
!include .\\obj\Debug\net6.0\.NETCoreApp,Version=v6.0.AssemblyAttributes.puml
!include .\\obj\Debug\net6.0\CG_N3.AssemblyInfo.puml
@enduml

@startuml
class Ponto {
    + Ponto(rotulo:char, paiRef:Objeto, x:double, y:double)
    # <<override>> DesenharObjeto() : void
    + getX() : double
    + getY() : double
    + getPonto4D() : Ponto4D
    + setX(x:double) : void
    + setY(y:double) : void
    + atualizarPonto(x:double, y:double) : void
}
ObjetoGeometria <|- - Ponto
Ponto - -> "ponto" Ponto4D
class Mundo {
    - Mundo(width:int, height:int)
    + {static} GetInstance(width:int, height:int) : Mundo
    - objetoId : char = '@'
    - bBoxDesenhar : bool = false
    mouseX : int
    mouseY : int
    - mouseMoverPto : bool = false
    - adicionar : bool = false
    - ehDesenhoJaIniciado : bool = false
    - moverAtivo : bool = false
    - removerAtivo : bool = false
    # <<override>> OnLoad(e:EventArgs) : void
    # <<override>> OnUpdateFrame(e:FrameEventArgs) : void
    # <<override>> OnRenderFrame(e:FrameEventArgs) : void
    # <<override>> OnKeyDown(e:OpenTK.Input.KeyboardKeyEventArgs) : void
    # <<override>> OnMouseMove(e:MouseMoveEventArgs) : void
    # <<override>> OnMouseDown(e:MouseButtonEventArgs) : void
    # criarPoligonoNaTela() : void
    - adicionarPontoPoligono() : void
}
class Program {
    {static} Main(args:string[]) : void
}
class "List`1"<T> {
}
GameWindow <|- - Mundo
Mundo o-> "instanciaMundo" Mundo
Mundo o-> "camera" CameraOrtho
Mundo o-> "objetosLista<Poligono>" "List`1"
Mundo o-> "objetoSelecionado" Poligono
Mundo o-> "pont" Ponto
abstract class Objeto {
    # rotulo : char
    - primitivaTamanho : float = 1
    + PrimitivaTamanho : float <<get>> <<set>>
    + Objeto(rotulo:char, paiRef:Objeto)
    + Desenhar() : void
    # {abstract} DesenharGeometria() : void
    + FilhoAdicionar(filho:Objeto) : void
    + FilhoRemover(filho:Objeto) : void
    + GetBBox() : BBox
    + translacaoPoligonoX(direcao:bool) : void
    + translacaoPoligonoY(direcao:bool) : void
    + Rotacao(angulo:double) : void
    + RotacaoEixo(angulo:double, eixoRotacao:char, matrizTmpRotacao:Transformacao4D) : void
    + rotacionarEixoBBox(angulo:double) : void
    + aumentarObjetoOrigem() : void
    + diminuiObjetoOrigem() : void
    + aumentarObjeto() : void
    + diminuiObjeto() : void
    + toOrigem() : void
    + Identidade() : void
    + mostraMatriz() : void
}
class "List`1"<T> {
}
Objeto o-> "objetoCor" Cor
Objeto - -> "ObjetoCor" Cor
Objeto o-> "primitivaTipo" PrimitiveType
Objeto - -> "PrimitivaTipo" PrimitiveType
Objeto o-> "bBox" BBox
Objeto - -> "BBox" BBox
Objeto o-> "matriz" Transformacao4D
Objeto o-> "objetosLista<Objeto>" "List`1"
abstract class ObjetoGeometria {
    + ObjetoGeometria(rotulo:char, paiRef:Objeto)
    # <<override>> DesenharGeometria() : void
    # {abstract} DesenharObjeto() : void
    + PontosAdicionar(pto:Ponto4D) : void
    + PontosRemoverUltimo() : void
    # PontosRemoverTodos() : void
    + PontosUltimo() : Ponto4D
    + PontosAlterar(pto:Ponto4D, posicao:int) : void
    + <<override>> ToString() : string
    + AtualizaBBox() : void
    + imprimePontos(desenhado:bool) : void
}
class "List`1"<T> {
}
Objeto <|- - ObjetoGeometria
ObjetoGeometria o-> "pontosLista<Ponto4D>" "List`1"
class Poligono {
    - Modificavel : bool
    + Poligono(rotulo:char, paiRef:Objeto, ponto:Ponto4D)
    # <<override>> DesenharObjeto() : void
    + atualizaPontoSelecionado(x:int, y:int) : void
    + removerMaisProximo(x:int, y:int) : void
    + fimMover() : void
    + adicionarPontoPegaUltimo(p:Ponto4D) : void
    + lenght() : int
    + alternaPrimitiva() : void
    + finalizaDesenho() : void
    + foiSelecionado(x:double, y:double) : bool
    + translacaoPoligono() : void
    + selecionaMaisProcimo(x:int, y:int) : void
    + pegaUltimo() : void
    + trocaModificado() : void
}
ObjetoGeometria <|- - Poligono
Poligono - -> "pontoSelecionado" Ponto4D
class Retangulo {
    + Retangulo(rotulo:char, paiRef:Objeto, ptoInfEsq:Ponto4D, ptoSupDir:Ponto4D)
    # <<override>> DesenharObjeto() : void
    + <<override>> ToString() : string
}
ObjetoGeometria <|- - Retangulo
abstract class Utilitario {
    + {static} charProximo(atual:char) : char
    + {static} AjudaTeclado() : void
}
@enduml

PlantUML version 1.2022.0(Tue Jan 11 13:16:42 BRT 2022)
(GPL source distribution)
Java Runtime: Java(TM) SE Runtime Environment
JVM: Java HotSpot(TM) 64-Bit Server VM
Default Encoding: Cp1252
Language: en
Country: US
--></g></svg>