<?xml version="1.0" encoding="UTF-8" standalone="no"?><svg xmlns="http://www.w3.org/2000/svg" xmlns:xlink="http://www.w3.org/1999/xlink" contentScriptType="application/ecmascript" contentStyleType="text/css" height="82px" preserveAspectRatio="none" style="width:234px;height:82px;background:#FFFFFF;" version="1.1" viewBox="0 0 234 82" width="234px" zoomAndPan="magnify"><defs><filter height="300%" id="f11er0szqhwaco" width="300%" x="-1" y="-1"><feGaussianBlur result="blurOut" stdDeviation="2.0"/><feColorMatrix in="blurOut" result="blurOut2" type="matrix" values="0 0 0 0 0 0 0 0 0 0 0 0 0 0 0 0 0 0 .4 0"/><feOffset dx="4.0" dy="4.0" in="blurOut2" result="blurOut3"/><feBlend in="SourceGraphic" in2="blurOut3" mode="normal"/></filter></defs><g><!--MD5=[5650d724fe4a8bb070f5bb710507d40c]
class Privado_BBox--><rect codeLine="1" fill="#FEFECE" filter="url(#f11er0szqhwaco)" height="61.8359" id="Privado_BBox" style="stroke:#A80036;stroke-width:1.5;" width="213" x="7" y="7"/><ellipse cx="70.25" cy="23" fill="#A9DCDF" rx="11" ry="11" style="stroke:#A80036;stroke-width:1.0;"/><path d="M72.4375,24.7656 L68.2969,24.7656 L67.875,25.7969 L68.2969,25.7969 Q68.9063,25.7969 69.1719,26.0313 Q69.4375,26.2656 69.4375,26.6563 Q69.4375,27.0313 69.1719,27.2656 Q68.9063,27.5 68.2969,27.5 L66,27.5 Q65.3906,27.5 65.1406,27.2656 Q64.875,27.0313 64.875,26.6406 Q64.875,26.2656 65.1563,26.0313 Q65.4219,25.7813 66.0469,25.7969 L68.7188,19.1406 L67.6094,19.1406 Q67,19.1406 66.7344,18.9063 Q66.4688,18.6719 66.4688,18.2813 Q66.4688,17.9063 66.7344,17.6719 Q67,17.4375 67.6094,17.4375 L71.2813,17.4375 L74.6719,25.7969 Q75.2656,25.7969 75.4531,25.9375 Q75.8438,26.2031 75.8438,26.6563 Q75.8438,27.0313 75.5781,27.2656 Q75.3281,27.5 74.7188,27.5 L72.4219,27.5 Q71.8125,27.5 71.5469,27.2656 Q71.2813,27.0313 71.2813,26.6406 Q71.2813,26.2656 71.5469,26.0313 Q71.8125,25.7969 72.4219,25.7969 L72.8438,25.7969 L72.4375,24.7656 Z M71.7188,23.0625 L70.3594,19.6875 L68.9844,23.0625 L71.7188,23.0625 Z " fill="#000000"/><text fill="#000000" font-family="sans-serif" font-size="12" font-style="italic" lengthAdjust="spacing" textLength="78" x="90.75" y="27.9102">Privado_BBox</text><line style="stroke:#A80036;stroke-width:1.5;" x1="8" x2="219" y1="39" y2="39"/><line style="stroke:#A80036;stroke-width:1.5;" x1="8" x2="219" y1="47" y2="47"/><ellipse cx="18" cy="58" fill="#84BE84" rx="3" ry="3" style="stroke:#038048;stroke-width:1.0;"/><text fill="#000000" font-family="sans-serif" font-size="11" lengthAdjust="spacing" text-decoration="underline" textLength="187" x="27" y="62.4189">Dentro(bBox:BBox, pto:Ponto4D) : bool</text><!--MD5=[e877cbef80ac1167bd8770c8863a5e72]
@startuml Privado_BBox
abstract class Privado_BBox {
    + {static} Dentro(bBox:BBox, pto:Ponto4D) : bool
}
@enduml

PlantUML version 1.2022.0(Tue Jan 11 13:16:42 BRT 2022)
(GPL source distribution)
Java Runtime: Java(TM) SE Runtime Environment
JVM: Java HotSpot(TM) 64-Bit Server VM
Default Encoding: Cp1252
Language: en
Country: US
--></g></svg>