<?xml version="1.0" encoding="UTF-8" standalone="no"?><svg xmlns="http://www.w3.org/2000/svg" xmlns:xlink="http://www.w3.org/1999/xlink" contentScriptType="application/ecmascript" contentStyleType="text/css" height="260px" preserveAspectRatio="none" style="width:266px;height:260px;background:#FFFFFF;" version="1.1" viewBox="0 0 266 260" width="266px" zoomAndPan="magnify"><defs><filter height="300%" id="flq97jw7e5z8n" width="300%" x="-1" y="-1"><feGaussianBlur result="blurOut" stdDeviation="2.0"/><feColorMatrix in="blurOut" result="blurOut2" type="matrix" values="0 0 0 0 0 0 0 0 0 0 0 0 0 0 0 0 0 0 .4 0"/><feOffset dx="4.0" dy="4.0" in="blurOut2" result="blurOut3"/><feBlend in="SourceGraphic" in2="blurOut3" mode="normal"/></filter></defs><g><!--MD5=[8b9e0d00865063ef789ad294aa32e6ea]
class ObjetoGeometria--><rect codeLine="1" fill="#FEFECE" filter="url(#flq97jw7e5z8n)" height="131.0156" id="ObjetoGeometria" style="stroke:#A80036;stroke-width:1.5;" width="245" x="7" y="115"/><ellipse cx="77.75" cy="131" fill="#A9DCDF" rx="11" ry="11" style="stroke:#A80036;stroke-width:1.0;"/><path d="M79.9375,132.7656 L75.7969,132.7656 L75.375,133.7969 L75.7969,133.7969 Q76.4063,133.7969 76.6719,134.0313 Q76.9375,134.2656 76.9375,134.6563 Q76.9375,135.0313 76.6719,135.2656 Q76.4063,135.5 75.7969,135.5 L73.5,135.5 Q72.8906,135.5 72.6406,135.2656 Q72.375,135.0313 72.375,134.6406 Q72.375,134.2656 72.6563,134.0313 Q72.9219,133.7813 73.5469,133.7969 L76.2188,127.1406 L75.1094,127.1406 Q74.5,127.1406 74.2344,126.9063 Q73.9688,126.6719 73.9688,126.2813 Q73.9688,125.9063 74.2344,125.6719 Q74.5,125.4375 75.1094,125.4375 L78.7813,125.4375 L82.1719,133.7969 Q82.7656,133.7969 82.9531,133.9375 Q83.3438,134.2031 83.3438,134.6563 Q83.3438,135.0313 83.0781,135.2656 Q82.8281,135.5 82.2188,135.5 L79.9219,135.5 Q79.3125,135.5 79.0469,135.2656 Q78.7813,135.0313 78.7813,134.6406 Q78.7813,134.2656 79.0469,134.0313 Q79.3125,133.7969 79.9219,133.7969 L80.3438,133.7969 L79.9375,132.7656 Z M79.2188,131.0625 L77.8594,127.6875 L76.4844,131.0625 L79.2188,131.0625 Z " fill="#000000"/><text fill="#000000" font-family="sans-serif" font-size="12" font-style="italic" lengthAdjust="spacing" textLength="95" x="98.25" y="135.9102">ObjetoGeometria</text><line style="stroke:#A80036;stroke-width:1.5;" x1="8" x2="251" y1="147" y2="147"/><line style="stroke:#A80036;stroke-width:1.5;" x1="8" x2="251" y1="155" y2="155"/><ellipse cx="18" cy="166" fill="#84BE84" rx="3" ry="3" style="stroke:#038048;stroke-width:1.0;"/><text fill="#000000" font-family="sans-serif" font-size="11" lengthAdjust="spacing" textLength="216" x="27" y="170.4189">ObjetoGeometria(rotulo:string, paiRef:Objeto)</text><ellipse cx="18" cy="179.8359" fill="#84BE84" rx="3" ry="3" style="stroke:#038048;stroke-width:1.0;"/><text fill="#000000" font-family="sans-serif" font-size="11" lengthAdjust="spacing" textLength="174" x="27" y="184.2549">PontosAdicionar(pto:Ponto4D) : void</text><ellipse cx="18" cy="193.6719" fill="#84BE84" rx="3" ry="3" style="stroke:#038048;stroke-width:1.0;"/><text fill="#000000" font-family="sans-serif" font-size="11" lengthAdjust="spacing" textLength="141" x="27" y="198.0908">PontosRemoverUltimo() : void</text><ellipse cx="18" cy="207.5078" fill="#84BE84" rx="3" ry="3" style="stroke:#038048;stroke-width:1.0;"/><text fill="#000000" font-family="sans-serif" font-size="11" lengthAdjust="spacing" textLength="118" x="27" y="211.9268">PontosUltimo() : Ponto4D</text><ellipse cx="18" cy="221.3438" fill="#84BE84" rx="3" ry="3" style="stroke:#038048;stroke-width:1.0;"/><text fill="#000000" font-family="sans-serif" font-size="11" lengthAdjust="spacing" textLength="219" x="27" y="225.7627">PontosAlterar(pto:Ponto4D, posicao:int) : void</text><ellipse cx="18" cy="235.1797" fill="#84BE84" rx="3" ry="3" style="stroke:#038048;stroke-width:1.0;"/><text fill="#000000" font-family="sans-serif" font-size="11" lengthAdjust="spacing" textLength="139" x="27" y="239.5986">«override» ToString() : string</text><!--MD5=[3051a6a8f877a755a60c7cfd1e6f410a]
class Objeto--><rect fill="#FEFECE" filter="url(#flq97jw7e5z8n)" height="48" id="Objeto" style="stroke:#A80036;stroke-width:1.5;" width="68" x="95.5" y="7"/><ellipse cx="110.5" cy="23" fill="#ADD1B2" rx="11" ry="11" style="stroke:#A80036;stroke-width:1.0;"/><path d="M113.2656,18.875 Q113.4219,18.6563 113.6094,18.5469 Q113.7969,18.4375 114.0156,18.4375 Q114.3906,18.4375 114.625,18.7031 Q114.8594,18.9531 114.8594,19.5625 L114.8594,21.0156 Q114.8594,21.625 114.625,21.8906 Q114.3906,22.1563 114.0156,22.1563 Q113.6719,22.1563 113.4688,21.9531 Q113.2656,21.7656 113.1563,21.25 Q113.1094,20.8906 112.9219,20.7031 Q112.5938,20.3281 111.9844,20.1094 Q111.375,19.8906 110.75,19.8906 Q109.9844,19.8906 109.3438,20.2188 Q108.7188,20.5469 108.2188,21.2969 Q107.7344,22.0469 107.7344,23.0781 L107.7344,24.1719 Q107.7344,25.4063 108.625,26.2344 Q109.5156,27.0469 111.1094,27.0469 Q112.0469,27.0469 112.7031,26.7969 Q113.0938,26.6406 113.5156,26.2031 Q113.7813,25.9375 113.9219,25.8594 Q114.0781,25.7813 114.2813,25.7813 Q114.6094,25.7813 114.8594,26.0469 Q115.125,26.2969 115.125,26.6406 Q115.125,26.9844 114.7813,27.3906 Q114.2813,27.9688 113.4844,28.2969 Q112.4063,28.75 111.1094,28.75 Q109.5938,28.75 108.3906,28.125 Q107.4063,27.625 106.7188,26.5625 Q106.0313,25.4844 106.0313,24.2031 L106.0313,23.0469 Q106.0313,21.7188 106.6406,20.5781 Q107.2656,19.4219 108.3594,18.8125 Q109.4531,18.1875 110.6875,18.1875 Q111.4219,18.1875 112.0625,18.3594 Q112.7188,18.5156 113.2656,18.875 Z " fill="#000000"/><text fill="#000000" font-family="sans-serif" font-size="12" lengthAdjust="spacing" textLength="36" x="124.5" y="27.9102">Objeto</text><line style="stroke:#A80036;stroke-width:1.5;" x1="96.5" x2="162.5" y1="39" y2="39"/><line style="stroke:#A80036;stroke-width:1.5;" x1="96.5" x2="162.5" y1="47" y2="47"/><!--MD5=[a03c7e7dbc7aa919221c9dfab59c60ca]
reverse link Objeto to ObjetoGeometria--><path codeLine="9" d="M129.5,75.44 C129.5,87.82 129.5,101.57 129.5,114.91 " fill="none" id="Objeto-backto-ObjetoGeometria" style="stroke:#A80036;stroke-width:1.0;"/><polygon fill="none" points="122.5,75.05,129.5,55.05,136.5,75.05,122.5,75.05" style="stroke:#A80036;stroke-width:1.0;"/><!--MD5=[66cb2871d8815917cd7c1e1769ac3ff4]
@startuml ObjetoGeometria
abstract class ObjetoGeometria {
    + ObjetoGeometria(rotulo:string, paiRef:Objeto)
    + PontosAdicionar(pto:Ponto4D) : void
    + PontosRemoverUltimo() : void
    + PontosUltimo() : Ponto4D
    + PontosAlterar(pto:Ponto4D, posicao:int) : void
    + <<override>> ToString() : string
}
Objeto <|- - ObjetoGeometria
@enduml

PlantUML version 1.2022.0(Tue Jan 11 13:16:42 BRT 2022)
(GPL source distribution)
Java Runtime: Java(TM) SE Runtime Environment
JVM: Java HotSpot(TM) 64-Bit Server VM
Default Encoding: Cp1252
Language: en
Country: US
--></g></svg>