<?xml version="1.0" encoding="UTF-8" standalone="no"?><svg xmlns="http://www.w3.org/2000/svg" xmlns:xlink="http://www.w3.org/1999/xlink" contentScriptType="application/ecmascript" contentStyleType="text/css" height="246px" preserveAspectRatio="none" style="width:323px;height:246px;background:#FFFFFF;" version="1.1" viewBox="0 0 323 246" width="323px" zoomAndPan="magnify"><defs><filter height="300%" id="f1s60gb57r9ckj" width="300%" x="-1" y="-1"><feGaussianBlur result="blurOut" stdDeviation="2.0"/><feColorMatrix in="blurOut" result="blurOut2" type="matrix" values="0 0 0 0 0 0 0 0 0 0 0 0 0 0 0 0 0 0 .4 0"/><feOffset dx="4.0" dy="4.0" in="blurOut2" result="blurOut3"/><feBlend in="SourceGraphic" in2="blurOut3" mode="normal"/></filter></defs><g><!--MD5=[3051a6a8f877a755a60c7cfd1e6f410a]
class Objeto--><rect codeLine="1" fill="#FEFECE" filter="url(#f1s60gb57r9ckj)" height="117.1797" id="Objeto" style="stroke:#A80036;stroke-width:1.5;" width="199" x="62.1881" y="7"/><ellipse cx="138.9381" cy="23" fill="#A9DCDF" rx="11" ry="11" style="stroke:#A80036;stroke-width:1.0;"/><path d="M141.1256,24.7656 L136.985,24.7656 L136.5631,25.7969 L136.985,25.7969 Q137.5944,25.7969 137.86,26.0313 Q138.1256,26.2656 138.1256,26.6563 Q138.1256,27.0313 137.86,27.2656 Q137.5944,27.5 136.985,27.5 L134.6881,27.5 Q134.0788,27.5 133.8288,27.2656 Q133.5631,27.0313 133.5631,26.6406 Q133.5631,26.2656 133.8444,26.0313 Q134.11,25.7813 134.735,25.7969 L137.4069,19.1406 L136.2975,19.1406 Q135.6881,19.1406 135.4225,18.9063 Q135.1569,18.6719 135.1569,18.2813 Q135.1569,17.9063 135.4225,17.6719 Q135.6881,17.4375 136.2975,17.4375 L139.9694,17.4375 L143.36,25.7969 Q143.9538,25.7969 144.1413,25.9375 Q144.5319,26.2031 144.5319,26.6563 Q144.5319,27.0313 144.2663,27.2656 Q144.0163,27.5 143.4069,27.5 L141.11,27.5 Q140.5006,27.5 140.235,27.2656 Q139.9694,27.0313 139.9694,26.6406 Q139.9694,26.2656 140.235,26.0313 Q140.5006,25.7969 141.11,25.7969 L141.5319,25.7969 L141.1256,24.7656 Z M140.4069,23.0625 L139.0475,19.6875 L137.6725,23.0625 L140.4069,23.0625 Z " fill="#000000"/><text fill="#000000" font-family="sans-serif" font-size="12" font-style="italic" lengthAdjust="spacing" textLength="37" x="159.4381" y="27.9102">Objeto</text><line style="stroke:#A80036;stroke-width:1.5;" x1="63.1881" x2="260.1881" y1="39" y2="39"/><ellipse cx="73.1881" cy="50" rx="3" ry="3" style="stroke:#038048;stroke-width:1.0;fill:none;"/><text fill="#000000" font-family="sans-serif" font-size="11" lengthAdjust="spacing" textLength="173" x="82.1881" y="54.4189">PrimitivaTamanho : float «get» «set»</text><line style="stroke:#A80036;stroke-width:1.5;" x1="63.1881" x2="260.1881" y1="60.8359" y2="60.8359"/><ellipse cx="73.1881" cy="71.8359" fill="#84BE84" rx="3" ry="3" style="stroke:#038048;stroke-width:1.0;"/><text fill="#000000" font-family="sans-serif" font-size="11" lengthAdjust="spacing" textLength="167" x="82.1881" y="76.2549">Objeto(rotulo:string, paiRef:Objeto)</text><ellipse cx="73.1881" cy="85.6719" fill="#84BE84" rx="3" ry="3" style="stroke:#038048;stroke-width:1.0;"/><text fill="#000000" font-family="sans-serif" font-size="11" lengthAdjust="spacing" textLength="84" x="82.1881" y="90.0908">Desenhar() : void</text><ellipse cx="73.1881" cy="99.5078" fill="#84BE84" rx="3" ry="3" style="stroke:#038048;stroke-width:1.0;"/><text fill="#000000" font-family="sans-serif" font-size="11" lengthAdjust="spacing" textLength="159" x="82.1881" y="103.9268">FilhoAdicionar(filho:Objeto) : void</text><ellipse cx="73.1881" cy="113.3438" fill="#84BE84" rx="3" ry="3" style="stroke:#038048;stroke-width:1.0;"/><text fill="#000000" font-family="sans-serif" font-size="11" lengthAdjust="spacing" textLength="156" x="82.1881" y="117.7627">FilhoRemover(filho:Objeto) : void</text><!--MD5=[9ac43fafcd0ede942dc8e681a30a1b52]
class Cor--><rect fill="#FEFECE" filter="url(#f1s60gb57r9ckj)" height="48" id="Cor" style="stroke:#A80036;stroke-width:1.5;" width="52" x="21.6881" y="184"/><ellipse cx="36.6881" cy="200" fill="#ADD1B2" rx="11" ry="11" style="stroke:#A80036;stroke-width:1.0;"/><path d="M39.4538,195.875 Q39.61,195.6563 39.7975,195.5469 Q39.985,195.4375 40.2038,195.4375 Q40.5788,195.4375 40.8131,195.7031 Q41.0475,195.9531 41.0475,196.5625 L41.0475,198.0156 Q41.0475,198.625 40.8131,198.8906 Q40.5788,199.1563 40.2038,199.1563 Q39.86,199.1563 39.6569,198.9531 Q39.4538,198.7656 39.3444,198.25 Q39.2975,197.8906 39.11,197.7031 Q38.7819,197.3281 38.1725,197.1094 Q37.5631,196.8906 36.9381,196.8906 Q36.1725,196.8906 35.5319,197.2188 Q34.9069,197.5469 34.4069,198.2969 Q33.9225,199.0469 33.9225,200.0781 L33.9225,201.1719 Q33.9225,202.4063 34.8131,203.2344 Q35.7038,204.0469 37.2975,204.0469 Q38.235,204.0469 38.8913,203.7969 Q39.2819,203.6406 39.7038,203.2031 Q39.9694,202.9375 40.11,202.8594 Q40.2663,202.7813 40.4694,202.7813 Q40.7975,202.7813 41.0475,203.0469 Q41.3131,203.2969 41.3131,203.6406 Q41.3131,203.9844 40.9694,204.3906 Q40.4694,204.9688 39.6725,205.2969 Q38.5944,205.75 37.2975,205.75 Q35.7819,205.75 34.5788,205.125 Q33.5944,204.625 32.9069,203.5625 Q32.2194,202.4844 32.2194,201.2031 L32.2194,200.0469 Q32.2194,198.7188 32.8288,197.5781 Q33.4538,196.4219 34.5475,195.8125 Q35.6413,195.1875 36.8756,195.1875 Q37.61,195.1875 38.2506,195.3594 Q38.9069,195.5156 39.4538,195.875 Z " fill="#000000"/><text fill="#000000" font-family="sans-serif" font-size="12" lengthAdjust="spacing" textLength="20" x="50.6881" y="204.9102">Cor</text><line style="stroke:#A80036;stroke-width:1.5;" x1="22.6881" x2="72.6881" y1="216" y2="216"/><line style="stroke:#A80036;stroke-width:1.5;" x1="22.6881" x2="72.6881" y1="224" y2="224"/><!--MD5=[38e8fced9e943fac45fdba9ac5db991f]
class PrimitiveType--><rect fill="#FEFECE" filter="url(#f1s60gb57r9ckj)" height="48" id="PrimitiveType" style="stroke:#A80036;stroke-width:1.5;" width="105" x="109.1881" y="184"/><ellipse cx="124.1881" cy="200" fill="#ADD1B2" rx="11" ry="11" style="stroke:#A80036;stroke-width:1.0;"/><path d="M126.9538,195.875 Q127.11,195.6563 127.2975,195.5469 Q127.485,195.4375 127.7038,195.4375 Q128.0788,195.4375 128.3131,195.7031 Q128.5475,195.9531 128.5475,196.5625 L128.5475,198.0156 Q128.5475,198.625 128.3131,198.8906 Q128.0788,199.1563 127.7038,199.1563 Q127.36,199.1563 127.1569,198.9531 Q126.9538,198.7656 126.8444,198.25 Q126.7975,197.8906 126.61,197.7031 Q126.2819,197.3281 125.6725,197.1094 Q125.0631,196.8906 124.4381,196.8906 Q123.6725,196.8906 123.0319,197.2188 Q122.4069,197.5469 121.9069,198.2969 Q121.4225,199.0469 121.4225,200.0781 L121.4225,201.1719 Q121.4225,202.4063 122.3131,203.2344 Q123.2038,204.0469 124.7975,204.0469 Q125.735,204.0469 126.3913,203.7969 Q126.7819,203.6406 127.2038,203.2031 Q127.4694,202.9375 127.61,202.8594 Q127.7663,202.7813 127.9694,202.7813 Q128.2975,202.7813 128.5475,203.0469 Q128.8131,203.2969 128.8131,203.6406 Q128.8131,203.9844 128.4694,204.3906 Q127.9694,204.9688 127.1725,205.2969 Q126.0944,205.75 124.7975,205.75 Q123.2819,205.75 122.0788,205.125 Q121.0944,204.625 120.4069,203.5625 Q119.7194,202.4844 119.7194,201.2031 L119.7194,200.0469 Q119.7194,198.7188 120.3288,197.5781 Q120.9538,196.4219 122.0475,195.8125 Q123.1413,195.1875 124.3756,195.1875 Q125.11,195.1875 125.7506,195.3594 Q126.4069,195.5156 126.9538,195.875 Z " fill="#000000"/><text fill="#000000" font-family="sans-serif" font-size="12" lengthAdjust="spacing" textLength="73" x="138.1881" y="204.9102">PrimitiveType</text><line style="stroke:#A80036;stroke-width:1.5;" x1="110.1881" x2="213.1881" y1="216" y2="216"/><line style="stroke:#A80036;stroke-width:1.5;" x1="110.1881" x2="213.1881" y1="224" y2="224"/><!--MD5=[ea10f8dc465baf5e542f54928f2443c8]
class BBox--><rect fill="#FEFECE" filter="url(#f1s60gb57r9ckj)" height="48" id="BBox" style="stroke:#A80036;stroke-width:1.5;" width="60" x="249.6881" y="184"/><ellipse cx="264.6881" cy="200" fill="#ADD1B2" rx="11" ry="11" style="stroke:#A80036;stroke-width:1.0;"/><path d="M267.4538,195.875 Q267.61,195.6563 267.7975,195.5469 Q267.985,195.4375 268.2038,195.4375 Q268.5788,195.4375 268.8131,195.7031 Q269.0475,195.9531 269.0475,196.5625 L269.0475,198.0156 Q269.0475,198.625 268.8131,198.8906 Q268.5788,199.1563 268.2038,199.1563 Q267.86,199.1563 267.6569,198.9531 Q267.4538,198.7656 267.3444,198.25 Q267.2975,197.8906 267.11,197.7031 Q266.7819,197.3281 266.1725,197.1094 Q265.5631,196.8906 264.9381,196.8906 Q264.1725,196.8906 263.5319,197.2188 Q262.9069,197.5469 262.4069,198.2969 Q261.9225,199.0469 261.9225,200.0781 L261.9225,201.1719 Q261.9225,202.4063 262.8131,203.2344 Q263.7038,204.0469 265.2975,204.0469 Q266.235,204.0469 266.8913,203.7969 Q267.2819,203.6406 267.7038,203.2031 Q267.9694,202.9375 268.11,202.8594 Q268.2663,202.7813 268.4694,202.7813 Q268.7975,202.7813 269.0475,203.0469 Q269.3131,203.2969 269.3131,203.6406 Q269.3131,203.9844 268.9694,204.3906 Q268.4694,204.9688 267.6725,205.2969 Q266.5944,205.75 265.2975,205.75 Q263.7819,205.75 262.5788,205.125 Q261.5944,204.625 260.9069,203.5625 Q260.2194,202.4844 260.2194,201.2031 L260.2194,200.0469 Q260.2194,198.7188 260.8288,197.5781 Q261.4538,196.4219 262.5475,195.8125 Q263.6413,195.1875 264.8756,195.1875 Q265.61,195.1875 266.2506,195.3594 Q266.9069,195.5156 267.4538,195.875 Z " fill="#000000"/><text fill="#000000" font-family="sans-serif" font-size="12" lengthAdjust="spacing" textLength="28" x="278.6881" y="204.9102">BBox</text><line style="stroke:#A80036;stroke-width:1.5;" x1="250.6881" x2="308.6881" y1="216" y2="216"/><line style="stroke:#A80036;stroke-width:1.5;" x1="250.6881" x2="308.6881" y1="224" y2="224"/><!--MD5=[abb974133f481326665ca9332982bcdd]
link Objeto to Cor--><path codeLine="8" d="M114.9881,124.05 C99.3481,143.33 82.6281,163.94 69.7681,179.78 " fill="none" id="Objeto-to-Cor" style="stroke:#A80036;stroke-width:1.0;"/><polygon fill="#A80036" points="66.5881,183.71,75.3679,179.2473,69.7411,179.8294,69.159,174.2026,66.5881,183.71" style="stroke:#A80036;stroke-width:1.0;"/><text fill="#000000" font-family="sans-serif" font-size="13" lengthAdjust="spacing" textLength="58" x="6" y="172.9758">ObjetoCor</text><!--MD5=[7e8630a5cd5ea67eab064634d547f460]
link Objeto to PrimitiveType--><path codeLine="9" d="M161.6881,124.05 C161.6881,142.84 161.6881,162.89 161.6881,178.57 " fill="none" id="Objeto-to-PrimitiveType" style="stroke:#A80036;stroke-width:1.0;"/><polygon fill="#A80036" points="161.6881,183.71,165.6881,174.71,161.6881,178.71,157.6881,174.71,161.6881,183.71" style="stroke:#A80036;stroke-width:1.0;"/><text fill="#000000" font-family="sans-serif" font-size="13" lengthAdjust="spacing" textLength="73" x="79.335" y="172.9758">PrimitivaTipo</text><!--MD5=[ff34dbfed28166dc938de446fd84e6c0]
link Objeto to BBox--><path codeLine="10" d="M210.0281,124.05 C226.2181,143.33 243.5181,163.94 256.8281,179.78 " fill="none" id="Objeto-to-BBox" style="stroke:#A80036;stroke-width:1.0;"/><polygon fill="#A80036" points="260.1281,183.71,257.4047,174.2452,256.9132,179.8806,251.2777,179.3891,260.1281,183.71" style="stroke:#A80036;stroke-width:1.0;"/><text fill="#000000" font-family="sans-serif" font-size="13" lengthAdjust="spacing" textLength="32" x="219.0159" y="172.9758">BBox</text><!--MD5=[908498a3f4c8e4080fcae102bd3a1821]
@startuml Objeto
abstract class Objeto {
    + PrimitivaTamanho : float <<get>> <<set>>
    + Objeto(rotulo:string, paiRef:Objeto)
    + Desenhar() : void
    + FilhoAdicionar(filho:Objeto) : void
    + FilhoRemover(filho:Objeto) : void
}
Objeto - -> "ObjetoCor" Cor
Objeto - -> "PrimitivaTipo" PrimitiveType
Objeto - -> "BBox" BBox
@enduml

PlantUML version 1.2022.0(Tue Jan 11 13:16:42 BRT 2022)
(GPL source distribution)
Java Runtime: Java(TM) SE Runtime Environment
JVM: Java HotSpot(TM) 64-Bit Server VM
Default Encoding: Cp1252
Language: en
Country: US
--></g></svg>