<?xml version="1.0" encoding="UTF-8" standalone="no"?><svg xmlns="http://www.w3.org/2000/svg" xmlns:xlink="http://www.w3.org/1999/xlink" contentScriptType="application/ecmascript" contentStyleType="text/css" height="82px" preserveAspectRatio="none" style="width:150px;height:82px;background:#FFFFFF;" version="1.1" viewBox="0 0 150 82" width="150px" zoomAndPan="magnify"><defs><filter height="300%" id="f1a0ss7fkpf49s" width="300%" x="-1" y="-1"><feGaussianBlur result="blurOut" stdDeviation="2.0"/><feColorMatrix in="blurOut" result="blurOut2" type="matrix" values="0 0 0 0 0 0 0 0 0 0 0 0 0 0 0 0 0 0 .4 0"/><feOffset dx="4.0" dy="4.0" in="blurOut2" result="blurOut3"/><feBlend in="SourceGraphic" in2="blurOut3" mode="normal"/></filter></defs><g><!--MD5=[7285b5824e67b16848be7ff6288389e6]
class Utilitario--><rect codeLine="1" fill="#FEFECE" filter="url(#f1a0ss7fkpf49s)" height="61.8359" id="Utilitario" style="stroke:#A80036;stroke-width:1.5;" width="129" x="7" y="7"/><ellipse cx="45.4" cy="23" fill="#A9DCDF" rx="11" ry="11" style="stroke:#A80036;stroke-width:1.0;"/><path d="M47.5875,24.7656 L43.4469,24.7656 L43.025,25.7969 L43.4469,25.7969 Q44.0563,25.7969 44.3219,26.0313 Q44.5875,26.2656 44.5875,26.6563 Q44.5875,27.0313 44.3219,27.2656 Q44.0563,27.5 43.4469,27.5 L41.15,27.5 Q40.5406,27.5 40.2906,27.2656 Q40.025,27.0313 40.025,26.6406 Q40.025,26.2656 40.3063,26.0313 Q40.5719,25.7813 41.1969,25.7969 L43.8688,19.1406 L42.7594,19.1406 Q42.15,19.1406 41.8844,18.9063 Q41.6188,18.6719 41.6188,18.2813 Q41.6188,17.9063 41.8844,17.6719 Q42.15,17.4375 42.7594,17.4375 L46.4313,17.4375 L49.8219,25.7969 Q50.4156,25.7969 50.6031,25.9375 Q50.9938,26.2031 50.9938,26.6563 Q50.9938,27.0313 50.7281,27.2656 Q50.4781,27.5 49.8688,27.5 L47.5719,27.5 Q46.9625,27.5 46.6969,27.2656 Q46.4313,27.0313 46.4313,26.6406 Q46.4313,26.2656 46.6969,26.0313 Q46.9625,25.7969 47.5719,25.7969 L47.9938,25.7969 L47.5875,24.7656 Z M46.8688,23.0625 L45.5094,19.6875 L44.1344,23.0625 L46.8688,23.0625 Z " fill="#000000"/><text fill="#000000" font-family="sans-serif" font-size="12" font-style="italic" lengthAdjust="spacing" textLength="45" x="64.6" y="27.9102">Utilitario</text><line style="stroke:#A80036;stroke-width:1.5;" x1="8" x2="135" y1="39" y2="39"/><line style="stroke:#A80036;stroke-width:1.5;" x1="8" x2="135" y1="47" y2="47"/><ellipse cx="18" cy="58" fill="#84BE84" rx="3" ry="3" style="stroke:#038048;stroke-width:1.0;"/><text fill="#000000" font-family="sans-serif" font-size="11" lengthAdjust="spacing" text-decoration="underline" textLength="103" x="27" y="62.4189">AjudaTeclado() : void</text><!--MD5=[2e71345689702f47cfa1eeb1867fe4f0]
@startuml Utilitario
abstract class Utilitario {
    + {static} AjudaTeclado() : void
}
@enduml

PlantUML version 1.2022.0(Tue Jan 11 13:16:42 BRT 2022)
(GPL source distribution)
Java Runtime: Java(TM) SE Runtime Environment
JVM: Java HotSpot(TM) 64-Bit Server VM
Default Encoding: Cp1252
Language: en
Country: US
--></g></svg>