<?xml version="1.0" encoding="UTF-8" standalone="no"?><svg xmlns="http://www.w3.org/2000/svg" xmlns:xlink="http://www.w3.org/1999/xlink" contentScriptType="application/ecmascript" contentStyleType="text/css" height="152px" preserveAspectRatio="none" style="width:326px;height:152px;background:#FFFFFF;" version="1.1" viewBox="0 0 326 152" width="326px" zoomAndPan="magnify"><defs><filter height="300%" id="finfa0nmnx5kd" width="300%" x="-1" y="-1"><feGaussianBlur result="blurOut" stdDeviation="2.0"/><feColorMatrix in="blurOut" result="blurOut2" type="matrix" values="0 0 0 0 0 0 0 0 0 0 0 0 0 0 0 0 0 0 .4 0"/><feOffset dx="4.0" dy="4.0" in="blurOut2" result="blurOut3"/><feBlend in="SourceGraphic" in2="blurOut3" mode="normal"/></filter></defs><g><!--MD5=[57370106b09f55ffa37deb7835ffe78b]
class Matematica--><rect codeLine="1" fill="#FEFECE" filter="url(#finfa0nmnx5kd)" height="131.0156" id="Matematica" style="stroke:#A80036;stroke-width:1.5;" width="305" x="7" y="7"/><ellipse cx="123.75" cy="23" fill="#A9DCDF" rx="11" ry="11" style="stroke:#A80036;stroke-width:1.0;"/><path d="M125.9375,24.7656 L121.7969,24.7656 L121.375,25.7969 L121.7969,25.7969 Q122.4063,25.7969 122.6719,26.0313 Q122.9375,26.2656 122.9375,26.6563 Q122.9375,27.0313 122.6719,27.2656 Q122.4063,27.5 121.7969,27.5 L119.5,27.5 Q118.8906,27.5 118.6406,27.2656 Q118.375,27.0313 118.375,26.6406 Q118.375,26.2656 118.6563,26.0313 Q118.9219,25.7813 119.5469,25.7969 L122.2188,19.1406 L121.1094,19.1406 Q120.5,19.1406 120.2344,18.9063 Q119.9688,18.6719 119.9688,18.2813 Q119.9688,17.9063 120.2344,17.6719 Q120.5,17.4375 121.1094,17.4375 L124.7813,17.4375 L128.1719,25.7969 Q128.7656,25.7969 128.9531,25.9375 Q129.3438,26.2031 129.3438,26.6563 Q129.3438,27.0313 129.0781,27.2656 Q128.8281,27.5 128.2188,27.5 L125.9219,27.5 Q125.3125,27.5 125.0469,27.2656 Q124.7813,27.0313 124.7813,26.6406 Q124.7813,26.2656 125.0469,26.0313 Q125.3125,25.7969 125.9219,25.7969 L126.3438,25.7969 L125.9375,24.7656 Z M125.2188,23.0625 L123.8594,19.6875 L122.4844,23.0625 L125.2188,23.0625 Z " fill="#000000"/><text fill="#000000" font-family="sans-serif" font-size="12" font-style="italic" lengthAdjust="spacing" textLength="63" x="144.25" y="27.9102">Matematica</text><line style="stroke:#A80036;stroke-width:1.5;" x1="8" x2="311" y1="39" y2="39"/><line style="stroke:#A80036;stroke-width:1.5;" x1="8" x2="311" y1="47" y2="47"/><ellipse cx="18" cy="58" fill="#84BE84" rx="3" ry="3" style="stroke:#038048;stroke-width:1.0;"/><text fill="#000000" font-family="sans-serif" font-size="11" lengthAdjust="spacing" text-decoration="underline" textLength="265" x="27" y="62.4189">GerarPtosCirculo(angulo:double, raio:double) : Ponto4D</text><ellipse cx="18" cy="71.8359" fill="#84BE84" rx="3" ry="3" style="stroke:#038048;stroke-width:1.0;"/><text fill="#000000" font-family="sans-serif" font-size="11" lengthAdjust="spacing" text-decoration="underline" textLength="228" x="27" y="76.2549">GerarPtosCirculoSimetrico(raio:double) : double</text><ellipse cx="18" cy="85.6719" fill="#84BE84" rx="3" ry="3" style="stroke:#038048;stroke-width:1.0;"/><text fill="#000000" font-family="sans-serif" font-size="11" lengthAdjust="spacing" text-decoration="underline" textLength="244" x="27" y="90.0908">Calcula_ti(yi:double, y1:double, y2:double) : double</text><ellipse cx="18" cy="99.5078" fill="#84BE84" rx="3" ry="3" style="stroke:#038048;stroke-width:1.0;"/><text fill="#000000" font-family="sans-serif" font-size="11" lengthAdjust="spacing" text-decoration="underline" textLength="279" x="27" y="103.9268">Calcula(x:double, y:double, pt1:Ponto4D, pt2:Ponto4D) : int</text><ellipse cx="18" cy="113.3438" fill="#84BE84" rx="3" ry="3" style="stroke:#038048;stroke-width:1.0;"/><text fill="#000000" font-family="sans-serif" font-size="11" lengthAdjust="spacing" text-decoration="underline" textLength="157" x="27" y="117.7627">max(a:double, b:double) : double</text><ellipse cx="18" cy="127.1797" fill="#84BE84" rx="3" ry="3" style="stroke:#038048;stroke-width:1.0;"/><text fill="#000000" font-family="sans-serif" font-size="11" lengthAdjust="spacing" text-decoration="underline" textLength="153" x="27" y="131.5986">min(a:double, b:double) : double</text><!--MD5=[24106f9587bc67116128b3d0c7de748e]
@startuml
abstract class Matematica {
    + {static} GerarPtosCirculo(angulo:double, raio:double) : Ponto4D
    + {static} GerarPtosCirculoSimetrico(raio:double) : double
    + {static} Calcula_ti(yi:double, y1:double, y2:double) : double
    + {static} Calcula(x:double, y:double, pt1:Ponto4D, pt2:Ponto4D) : int
    + {static} max(a:double, b:double) : double
    + {static} min(a:double, b:double) : double
}
@enduml

PlantUML version 1.2022.0(Tue Jan 11 13:16:42 BRT 2022)
(GPL source distribution)
Java Runtime: Java(TM) SE Runtime Environment
JVM: Java HotSpot(TM) 64-Bit Server VM
Default Encoding: Cp1252
Language: en
Country: US
--></g></svg>