<?xml version="1.0" encoding="UTF-8" standalone="no"?><svg xmlns="http://www.w3.org/2000/svg" xmlns:xlink="http://www.w3.org/1999/xlink" contentScriptType="application/ecmascript" contentStyleType="text/css" height="357px" preserveAspectRatio="none" style="width:533px;height:357px;background:#FFFFFF;" version="1.1" viewBox="0 0 533 357" width="533px" zoomAndPan="magnify"><defs><filter height="300%" id="f1uvfhxf82pu3z" width="300%" x="-1" y="-1"><feGaussianBlur result="blurOut" stdDeviation="2.0"/><feColorMatrix in="blurOut" result="blurOut2" type="matrix" values="0 0 0 0 0 0 0 0 0 0 0 0 0 0 0 0 0 0 .4 0"/><feOffset dx="4.0" dy="4.0" in="blurOut2" result="blurOut3"/><feBlend in="SourceGraphic" in2="blurOut3" mode="normal"/></filter></defs><g><!--MD5=[ea10f8dc465baf5e542f54928f2443c8]
class BBox--><rect codeLine="1" fill="#FEFECE" filter="url(#f1uvfhxf82pu3z)" height="227.8672" id="BBox" style="stroke:#A80036;stroke-width:1.5;" width="512" x="7" y="7"/><ellipse cx="244.75" cy="23" fill="#ADD1B2" rx="11" ry="11" style="stroke:#A80036;stroke-width:1.0;"/><path d="M247.5156,18.875 Q247.6719,18.6563 247.8594,18.5469 Q248.0469,18.4375 248.2656,18.4375 Q248.6406,18.4375 248.875,18.7031 Q249.1094,18.9531 249.1094,19.5625 L249.1094,21.0156 Q249.1094,21.625 248.875,21.8906 Q248.6406,22.1563 248.2656,22.1563 Q247.9219,22.1563 247.7188,21.9531 Q247.5156,21.7656 247.4063,21.25 Q247.3594,20.8906 247.1719,20.7031 Q246.8438,20.3281 246.2344,20.1094 Q245.625,19.8906 245,19.8906 Q244.2344,19.8906 243.5938,20.2188 Q242.9688,20.5469 242.4688,21.2969 Q241.9844,22.0469 241.9844,23.0781 L241.9844,24.1719 Q241.9844,25.4063 242.875,26.2344 Q243.7656,27.0469 245.3594,27.0469 Q246.2969,27.0469 246.9531,26.7969 Q247.3438,26.6406 247.7656,26.2031 Q248.0313,25.9375 248.1719,25.8594 Q248.3281,25.7813 248.5313,25.7813 Q248.8594,25.7813 249.1094,26.0469 Q249.375,26.2969 249.375,26.6406 Q249.375,26.9844 249.0313,27.3906 Q248.5313,27.9688 247.7344,28.2969 Q246.6563,28.75 245.3594,28.75 Q243.8438,28.75 242.6406,28.125 Q241.6563,27.625 240.9688,26.5625 Q240.2813,25.4844 240.2813,24.2031 L240.2813,23.0469 Q240.2813,21.7188 240.8906,20.5781 Q241.5156,19.4219 242.6094,18.8125 Q243.7031,18.1875 244.9375,18.1875 Q245.6719,18.1875 246.3125,18.3594 Q246.9688,18.5156 247.5156,18.875 Z " fill="#000000"/><text fill="#000000" font-family="sans-serif" font-size="12" lengthAdjust="spacing" textLength="28" x="265.25" y="27.9102">BBox</text><line style="stroke:#A80036;stroke-width:1.5;" x1="8" x2="518" y1="39" y2="39"/><ellipse cx="18" cy="50" rx="3" ry="3" style="stroke:#038048;stroke-width:1.0;fill:none;"/><text fill="#000000" font-family="sans-serif" font-size="11" lengthAdjust="spacing" textLength="133" x="27" y="54.4189">obterMenorX : double «get»</text><ellipse cx="18" cy="63.8359" rx="3" ry="3" style="stroke:#038048;stroke-width:1.0;fill:none;"/><text fill="#000000" font-family="sans-serif" font-size="11" lengthAdjust="spacing" textLength="134" x="27" y="68.2549">obterMenorY : double «get»</text><ellipse cx="18" cy="77.6719" rx="3" ry="3" style="stroke:#038048;stroke-width:1.0;fill:none;"/><text fill="#000000" font-family="sans-serif" font-size="11" lengthAdjust="spacing" textLength="133" x="27" y="82.0908">obterMenorZ : double «get»</text><ellipse cx="18" cy="91.5078" rx="3" ry="3" style="stroke:#038048;stroke-width:1.0;fill:none;"/><text fill="#000000" font-family="sans-serif" font-size="11" lengthAdjust="spacing" textLength="129" x="27" y="95.9268">obterMaiorX : double «get»</text><ellipse cx="18" cy="105.3438" rx="3" ry="3" style="stroke:#038048;stroke-width:1.0;fill:none;"/><text fill="#000000" font-family="sans-serif" font-size="11" lengthAdjust="spacing" textLength="130" x="27" y="109.7627">obterMaiorY : double «get»</text><ellipse cx="18" cy="119.1797" rx="3" ry="3" style="stroke:#038048;stroke-width:1.0;fill:none;"/><text fill="#000000" font-family="sans-serif" font-size="11" lengthAdjust="spacing" textLength="129" x="27" y="123.5986">obterMaiorZ : double «get»</text><line style="stroke:#A80036;stroke-width:1.5;" x1="8" x2="518" y1="130.0156" y2="130.0156"/><ellipse cx="18" cy="141.0156" fill="#84BE84" rx="3" ry="3" style="stroke:#038048;stroke-width:1.0;"/><text fill="#000000" font-family="sans-serif" font-size="11" lengthAdjust="spacing" textLength="486" x="27" y="145.4346">BBox(menorX:double, menorY:double, menorZ:double, maiorX:double, maiorY:double, maiorZ:double)</text><ellipse cx="18" cy="154.8516" fill="#84BE84" rx="3" ry="3" style="stroke:#038048;stroke-width:1.0;"/><text fill="#000000" font-family="sans-serif" font-size="11" lengthAdjust="spacing" textLength="130" x="27" y="159.2705">Atribuir(pto:Ponto4D) : void</text><ellipse cx="18" cy="168.6875" fill="#84BE84" rx="3" ry="3" style="stroke:#038048;stroke-width:1.0;"/><text fill="#000000" font-family="sans-serif" font-size="11" lengthAdjust="spacing" textLength="138" x="27" y="173.1064">Atualizar(pto:Ponto4D) : void</text><ellipse cx="18" cy="182.5234" fill="#84BE84" rx="3" ry="3" style="stroke:#038048;stroke-width:1.0;"/><text fill="#000000" font-family="sans-serif" font-size="11" lengthAdjust="spacing" textLength="215" x="27" y="186.9424">Atualizar(x:double, y:double, z:double) : void</text><ellipse cx="18" cy="196.3594" fill="#84BE84" rx="3" ry="3" style="stroke:#038048;stroke-width:1.0;"/><text fill="#000000" font-family="sans-serif" font-size="11" lengthAdjust="spacing" textLength="119" x="27" y="200.7783">ProcessarCentro() : void</text><ellipse cx="18" cy="210.1953" fill="#84BE84" rx="3" ry="3" style="stroke:#038048;stroke-width:1.0;"/><text fill="#000000" font-family="sans-serif" font-size="11" lengthAdjust="spacing" textLength="84" x="27" y="214.6143">Desenhar() : void</text><ellipse cx="18" cy="224.0313" fill="#84BE84" rx="3" ry="3" style="stroke:#038048;stroke-width:1.0;"/><text fill="#000000" font-family="sans-serif" font-size="11" lengthAdjust="spacing" textLength="139" x="27" y="228.4502">«override» ToString() : string</text><!--MD5=[ef5ff341dffd6737742a54781c8b5648]
class Ponto4D--><rect fill="#FEFECE" filter="url(#f1uvfhxf82pu3z)" height="48" id="Ponto4D" style="stroke:#A80036;stroke-width:1.5;" width="80" x="223" y="295"/><ellipse cx="238" cy="311" fill="#ADD1B2" rx="11" ry="11" style="stroke:#A80036;stroke-width:1.0;"/><path d="M240.7656,306.875 Q240.9219,306.6563 241.1094,306.5469 Q241.2969,306.4375 241.5156,306.4375 Q241.8906,306.4375 242.125,306.7031 Q242.3594,306.9531 242.3594,307.5625 L242.3594,309.0156 Q242.3594,309.625 242.125,309.8906 Q241.8906,310.1563 241.5156,310.1563 Q241.1719,310.1563 240.9688,309.9531 Q240.7656,309.7656 240.6563,309.25 Q240.6094,308.8906 240.4219,308.7031 Q240.0938,308.3281 239.4844,308.1094 Q238.875,307.8906 238.25,307.8906 Q237.4844,307.8906 236.8438,308.2188 Q236.2188,308.5469 235.7188,309.2969 Q235.2344,310.0469 235.2344,311.0781 L235.2344,312.1719 Q235.2344,313.4063 236.125,314.2344 Q237.0156,315.0469 238.6094,315.0469 Q239.5469,315.0469 240.2031,314.7969 Q240.5938,314.6406 241.0156,314.2031 Q241.2813,313.9375 241.4219,313.8594 Q241.5781,313.7813 241.7813,313.7813 Q242.1094,313.7813 242.3594,314.0469 Q242.625,314.2969 242.625,314.6406 Q242.625,314.9844 242.2813,315.3906 Q241.7813,315.9688 240.9844,316.2969 Q239.9063,316.75 238.6094,316.75 Q237.0938,316.75 235.8906,316.125 Q234.9063,315.625 234.2188,314.5625 Q233.5313,313.4844 233.5313,312.2031 L233.5313,311.0469 Q233.5313,309.7188 234.1406,308.5781 Q234.7656,307.4219 235.8594,306.8125 Q236.9531,306.1875 238.1875,306.1875 Q238.9219,306.1875 239.5625,306.3594 Q240.2188,306.5156 240.7656,306.875 Z " fill="#000000"/><text fill="#000000" font-family="sans-serif" font-size="12" lengthAdjust="spacing" textLength="48" x="252" y="315.9102">Ponto4D</text><line style="stroke:#A80036;stroke-width:1.5;" x1="224" x2="302" y1="327" y2="327"/><line style="stroke:#A80036;stroke-width:1.5;" x1="224" x2="302" y1="335" y2="335"/><!--MD5=[21d10fafb72c8ad2b9cea5ee0b564837]
link BBox to Ponto4D--><path codeLine="16" d="M263,235.16 C263,255.42 263,274.79 263,289.7 " fill="none" id="BBox-to-Ponto4D" style="stroke:#A80036;stroke-width:1.0;"/><polygon fill="#A80036" points="263,294.99,267,285.99,263,289.99,259,285.99,263,294.99" style="stroke:#A80036;stroke-width:1.0;"/><text fill="#000000" font-family="sans-serif" font-size="13" lengthAdjust="spacing" textLength="67" x="187.4156" y="284.3276">obterCentro</text><!--MD5=[6adcd60e82f167b37d6c1af12a4ed4d7]
@startuml BBox
class BBox {
    + BBox(menorX:double, menorY:double, menorZ:double, maiorX:double, maiorY:double, maiorZ:double)
    + Atribuir(pto:Ponto4D) : void
    + Atualizar(pto:Ponto4D) : void
    + Atualizar(x:double, y:double, z:double) : void
    + ProcessarCentro() : void
    + Desenhar() : void
    + obterMenorX : double <<get>>
    + obterMenorY : double <<get>>
    + obterMenorZ : double <<get>>
    + obterMaiorX : double <<get>>
    + obterMaiorY : double <<get>>
    + obterMaiorZ : double <<get>>
    + <<override>> ToString() : string
}
BBox - -> "obterCentro" Ponto4D
@enduml

PlantUML version 1.2022.0(Tue Jan 11 13:16:42 BRT 2022)
(GPL source distribution)
Java Runtime: Java(TM) SE Runtime Environment
JVM: Java HotSpot(TM) 64-Bit Server VM
Default Encoding: Cp1252
Language: en
Country: US
--></g></svg>