<?xml version="1.0" encoding="UTF-8" standalone="no"?><svg xmlns="http://www.w3.org/2000/svg" xmlns:xlink="http://www.w3.org/1999/xlink" contentScriptType="application/ecmascript" contentStyleType="text/css" height="96px" preserveAspectRatio="none" style="width:194px;height:96px;background:#FFFFFF;" version="1.1" viewBox="0 0 194 96" width="194px" zoomAndPan="magnify"><defs><filter height="300%" id="f133qq3e1tmxsy" width="300%" x="-1" y="-1"><feGaussianBlur result="blurOut" stdDeviation="2.0"/><feColorMatrix in="blurOut" result="blurOut2" type="matrix" values="0 0 0 0 0 0 0 0 0 0 0 0 0 0 0 0 0 0 .4 0"/><feOffset dx="4.0" dy="4.0" in="blurOut2" result="blurOut3"/><feBlend in="SourceGraphic" in2="blurOut3" mode="normal"/></filter></defs><g><!--MD5=[7285b5824e67b16848be7ff6288389e6]
class Utilitario--><rect codeLine="1" fill="#FEFECE" filter="url(#f133qq3e1tmxsy)" height="75.6719" id="Utilitario" style="stroke:#A80036;stroke-width:1.5;" width="173" x="7" y="7"/><ellipse cx="66.75" cy="23" fill="#A9DCDF" rx="11" ry="11" style="stroke:#A80036;stroke-width:1.0;"/><path d="M68.9375,24.7656 L64.7969,24.7656 L64.375,25.7969 L64.7969,25.7969 Q65.4063,25.7969 65.6719,26.0313 Q65.9375,26.2656 65.9375,26.6563 Q65.9375,27.0313 65.6719,27.2656 Q65.4063,27.5 64.7969,27.5 L62.5,27.5 Q61.8906,27.5 61.6406,27.2656 Q61.375,27.0313 61.375,26.6406 Q61.375,26.2656 61.6563,26.0313 Q61.9219,25.7813 62.5469,25.7969 L65.2188,19.1406 L64.1094,19.1406 Q63.5,19.1406 63.2344,18.9063 Q62.9688,18.6719 62.9688,18.2813 Q62.9688,17.9063 63.2344,17.6719 Q63.5,17.4375 64.1094,17.4375 L67.7813,17.4375 L71.1719,25.7969 Q71.7656,25.7969 71.9531,25.9375 Q72.3438,26.2031 72.3438,26.6563 Q72.3438,27.0313 72.0781,27.2656 Q71.8281,27.5 71.2188,27.5 L68.9219,27.5 Q68.3125,27.5 68.0469,27.2656 Q67.7813,27.0313 67.7813,26.6406 Q67.7813,26.2656 68.0469,26.0313 Q68.3125,25.7969 68.9219,25.7969 L69.3438,25.7969 L68.9375,24.7656 Z M68.2188,23.0625 L66.8594,19.6875 L65.4844,23.0625 L68.2188,23.0625 Z " fill="#000000"/><text fill="#000000" font-family="sans-serif" font-size="12" font-style="italic" lengthAdjust="spacing" textLength="45" x="87.25" y="27.9102">Utilitario</text><line style="stroke:#A80036;stroke-width:1.5;" x1="8" x2="179" y1="39" y2="39"/><line style="stroke:#A80036;stroke-width:1.5;" x1="8" x2="179" y1="47" y2="47"/><ellipse cx="18" cy="58" fill="#84BE84" rx="3" ry="3" style="stroke:#038048;stroke-width:1.0;"/><text fill="#000000" font-family="sans-serif" font-size="11" lengthAdjust="spacing" text-decoration="underline" textLength="147" x="27" y="62.4189">charProximo(atual:char) : char</text><ellipse cx="18" cy="71.8359" fill="#84BE84" rx="3" ry="3" style="stroke:#038048;stroke-width:1.0;"/><text fill="#000000" font-family="sans-serif" font-size="11" lengthAdjust="spacing" text-decoration="underline" textLength="103" x="27" y="76.2549">AjudaTeclado() : void</text><!--MD5=[80b4efa4260a3aca1a57fb41d36bd837]
@startuml
abstract class Utilitario {
    + {static} charProximo(atual:char) : char
    + {static} AjudaTeclado() : void
}
@enduml

PlantUML version 1.2022.0(Tue Jan 11 13:16:42 BRT 2022)
(GPL source distribution)
Java Runtime: Java(TM) SE Runtime Environment
JVM: Java HotSpot(TM) 64-Bit Server VM
Default Encoding: Cp1252
Language: en
Country: US
--></g></svg>